M48
;GenerationSoftware,Autodesk,EAGLE,9.6.1*%
;CreationDate,2024-12-26T06:25:18Z*%
FMAT,2
ICI,OFF
METRIC,TZ,000.000
T2C0.350
T1C1.016
%
G90
M71
T1
X-3016Y22701
X11589Y15399
X-8731Y16034
X-8731Y13494
X-8731Y10954
X-8096Y22701
X-8096Y25241
X-5556Y22701
X-5556Y25241
X-3016Y25241
X-476Y22701
X-476Y25241
X2064Y22701
X2064Y25241
X4604Y22701
X4604Y25241
T2
X5239Y11872
X-1270Y19175
X-318Y19175
X-635Y17111
X318Y17111
X3072Y17621
X4038Y9522
X6350Y15716
X-10665Y5204
X9718Y7087
X-5252Y14445
X-6826Y14446
X-3308Y29444
X159Y4445
X-11112Y19844
X-4529Y7873
X3356Y851
X12341Y19270
X-3334Y17463
X8255Y24447
X-6325Y6166
X-5525Y9592
X-5556Y5613
X-1445Y4520
X-3492Y13017
X0Y13176
X3491Y12423
X-5715Y28257
X-3492Y26829
X-10404Y17304
X-12622Y17304
X-8255Y2699
X-8255Y4978
X2381Y3810
X9843Y9208
X-5528Y8643
X9864Y5509
X-4399Y2427
X13970Y18256
X11906Y18256
X-6032Y10636
X-818Y9708
X4445Y11872
M30