G04 EAGLE Gerber RS-274X export*
G75*
%MOMM*%
%FSLAX34Y34*%
%LPD*%
%INBottom Copper*%
%IPPOS*%
%AMOC8*
5,1,8,0,0,1.08239X$1,22.5*%
G01*
%ADD10R,1.399997X0.400000*%
%ADD11P,1.649562X8X112.500000*%
%ADD12R,1.100000X1.000000*%
%ADD13R,1.000000X1.100000*%
%ADD14R,1.300000X1.500000*%
%ADD15C,1.524000*%
%ADD16R,0.550000X0.254000*%
%ADD17R,0.254000X0.550000*%
%ADD18R,5.600000X5.600000*%
%ADD19R,0.500000X0.250000*%
%ADD20R,0.900000X1.600000*%
%ADD21R,1.500000X1.300000*%
%ADD22C,1.000000*%
%ADD23P,1.649562X8X22.500000*%
%ADD24C,0.756400*%
%ADD25C,0.812800*%
%ADD26C,0.406400*%
%ADD27C,0.254000*%
%ADD28C,0.304800*%
%ADD29C,0.508000*%
%ADD30C,0.152400*%

G36*
X66417Y67123D02*
X66417Y67123D01*
X66426Y67123D01*
X66618Y67147D01*
X66808Y67169D01*
X66816Y67172D01*
X66825Y67173D01*
X67008Y67235D01*
X67191Y67294D01*
X67198Y67299D01*
X67207Y67301D01*
X67374Y67397D01*
X67541Y67492D01*
X67548Y67498D01*
X67556Y67502D01*
X67809Y67717D01*
X72302Y72211D01*
X72319Y72231D01*
X72340Y72249D01*
X72446Y72386D01*
X72557Y72522D01*
X72570Y72546D01*
X72586Y72567D01*
X72664Y72723D01*
X72746Y72878D01*
X72754Y72903D01*
X72766Y72927D01*
X72811Y73096D01*
X72861Y73264D01*
X72863Y73290D01*
X72870Y73316D01*
X72897Y73647D01*
X72897Y97855D01*
X111990Y136948D01*
X112007Y136969D01*
X112027Y136986D01*
X112134Y137124D01*
X112245Y137259D01*
X112257Y137283D01*
X112274Y137304D01*
X112352Y137461D01*
X112434Y137615D01*
X112441Y137641D01*
X112453Y137665D01*
X112499Y137834D01*
X112548Y138001D01*
X112551Y138028D01*
X112558Y138054D01*
X112585Y138384D01*
X112585Y143157D01*
X112582Y143184D01*
X112584Y143210D01*
X112562Y143384D01*
X112545Y143558D01*
X112537Y143583D01*
X112534Y143610D01*
X112478Y143775D01*
X112427Y143943D01*
X112414Y143966D01*
X112405Y143992D01*
X112318Y144143D01*
X112235Y144297D01*
X112218Y144317D01*
X112205Y144340D01*
X111990Y144593D01*
X109969Y146614D01*
X109949Y146631D01*
X109931Y146651D01*
X109793Y146758D01*
X109658Y146869D01*
X109634Y146881D01*
X109613Y146898D01*
X109456Y146976D01*
X109302Y147058D01*
X109277Y147065D01*
X109253Y147077D01*
X109083Y147123D01*
X108916Y147172D01*
X108890Y147175D01*
X108864Y147182D01*
X108533Y147209D01*
X97513Y147209D01*
X96471Y148251D01*
X96471Y159724D01*
X97513Y160766D01*
X108533Y160766D01*
X108560Y160769D01*
X108586Y160767D01*
X108760Y160789D01*
X108934Y160806D01*
X108959Y160814D01*
X108986Y160817D01*
X109152Y160873D01*
X109319Y160924D01*
X109342Y160937D01*
X109368Y160946D01*
X109519Y161033D01*
X109673Y161116D01*
X109693Y161133D01*
X109716Y161147D01*
X109969Y161361D01*
X111994Y163386D01*
X119781Y163386D01*
X120230Y162937D01*
X120237Y162931D01*
X120242Y162925D01*
X120391Y162805D01*
X120541Y162682D01*
X120549Y162678D01*
X120556Y162672D01*
X120726Y162584D01*
X120897Y162493D01*
X120906Y162491D01*
X120913Y162487D01*
X121098Y162434D01*
X121283Y162379D01*
X121292Y162378D01*
X121300Y162375D01*
X121491Y162360D01*
X121684Y162342D01*
X121693Y162343D01*
X121702Y162342D01*
X121891Y162365D01*
X122084Y162386D01*
X122093Y162388D01*
X122101Y162389D01*
X122284Y162449D01*
X122468Y162507D01*
X122476Y162511D01*
X122484Y162514D01*
X122651Y162608D01*
X122820Y162702D01*
X122827Y162708D01*
X122835Y162712D01*
X122980Y162837D01*
X123127Y162962D01*
X123133Y162969D01*
X123140Y162975D01*
X123257Y163127D01*
X123377Y163278D01*
X123381Y163286D01*
X123386Y163293D01*
X123472Y163465D01*
X123559Y163637D01*
X123562Y163646D01*
X123566Y163654D01*
X123615Y163839D01*
X123667Y164025D01*
X123668Y164034D01*
X123670Y164043D01*
X123697Y164373D01*
X123697Y185204D01*
X123695Y185226D01*
X123697Y185248D01*
X123675Y185426D01*
X123657Y185604D01*
X123651Y185626D01*
X123648Y185648D01*
X123592Y185818D01*
X123539Y185989D01*
X123529Y186009D01*
X123522Y186030D01*
X123433Y186186D01*
X123347Y186343D01*
X123333Y186360D01*
X123322Y186380D01*
X123204Y186515D01*
X123090Y186653D01*
X123072Y186666D01*
X123058Y186683D01*
X122915Y186793D01*
X122776Y186905D01*
X122756Y186915D01*
X122739Y186929D01*
X122443Y187080D01*
X120258Y187985D01*
X118694Y189550D01*
X117848Y191593D01*
X117848Y193806D01*
X118733Y195943D01*
X118739Y195951D01*
X118791Y196048D01*
X118851Y196140D01*
X118885Y196225D01*
X118928Y196307D01*
X118959Y196412D01*
X119000Y196514D01*
X119016Y196604D01*
X119043Y196693D01*
X119053Y196802D01*
X119072Y196910D01*
X119071Y197002D01*
X119079Y197094D01*
X119067Y197203D01*
X119065Y197312D01*
X119046Y197402D01*
X119036Y197494D01*
X119003Y197599D01*
X118979Y197706D01*
X118942Y197790D01*
X118914Y197878D01*
X118870Y197959D01*
X118841Y198025D01*
X118826Y198054D01*
X118817Y198074D01*
X118810Y198084D01*
X118670Y198350D01*
X118627Y198414D01*
X118593Y198482D01*
X118516Y198581D01*
X118447Y198685D01*
X118393Y198740D01*
X118346Y198800D01*
X118251Y198882D01*
X118163Y198971D01*
X118099Y199013D01*
X118041Y199063D01*
X117901Y199146D01*
X117828Y199194D01*
X117795Y199208D01*
X117755Y199231D01*
X116673Y199753D01*
X116601Y199779D01*
X116533Y199814D01*
X116413Y199848D01*
X116295Y199891D01*
X116219Y199902D01*
X116146Y199923D01*
X116021Y199932D01*
X115980Y199939D01*
X115368Y200357D01*
X115308Y200389D01*
X115105Y200509D01*
X114448Y200825D01*
X114368Y200919D01*
X114294Y201020D01*
X114237Y201071D01*
X114187Y201129D01*
X114060Y201232D01*
X113996Y201291D01*
X113965Y201309D01*
X113929Y201338D01*
X112937Y202015D01*
X112870Y202052D01*
X112808Y202096D01*
X112693Y202148D01*
X112583Y202208D01*
X112510Y202231D01*
X112441Y202262D01*
X112318Y202290D01*
X112280Y202302D01*
X111736Y202807D01*
X111683Y202848D01*
X111499Y202996D01*
X110897Y203407D01*
X110831Y203512D01*
X110773Y203623D01*
X110724Y203682D01*
X110684Y203747D01*
X110574Y203867D01*
X110519Y203935D01*
X110491Y203958D01*
X110460Y203992D01*
X109580Y204809D01*
X109519Y204855D01*
X109464Y204909D01*
X109358Y204977D01*
X109259Y205052D01*
X109190Y205086D01*
X109126Y205127D01*
X109009Y205173D01*
X108972Y205191D01*
X108510Y205771D01*
X108463Y205820D01*
X108304Y205994D01*
X107770Y206490D01*
X107720Y206603D01*
X107679Y206721D01*
X107640Y206787D01*
X107610Y206857D01*
X107519Y206993D01*
X107474Y207068D01*
X107450Y207095D01*
X107425Y207133D01*
X106676Y208072D01*
X106623Y208127D01*
X106577Y208188D01*
X106483Y208271D01*
X106395Y208361D01*
X106332Y208404D01*
X106275Y208455D01*
X106166Y208517D01*
X106133Y208540D01*
X105762Y209183D01*
X105723Y209238D01*
X105591Y209434D01*
X105137Y210004D01*
X105105Y210123D01*
X105082Y210246D01*
X105053Y210317D01*
X105034Y210391D01*
X104964Y210539D01*
X104931Y210620D01*
X104911Y210650D01*
X104892Y210691D01*
X104291Y211732D01*
X104247Y211794D01*
X104210Y211861D01*
X104130Y211957D01*
X104057Y212059D01*
X104001Y212111D01*
X103952Y212170D01*
X103854Y212248D01*
X103824Y212276D01*
X103553Y212966D01*
X103522Y213027D01*
X103421Y213240D01*
X103057Y213871D01*
X103044Y213994D01*
X103039Y214119D01*
X103021Y214194D01*
X103013Y214270D01*
X102966Y214426D01*
X102946Y214511D01*
X102931Y214543D01*
X102917Y214587D01*
X102479Y215706D01*
X102444Y215774D01*
X102418Y215846D01*
X102353Y215953D01*
X102296Y216064D01*
X102248Y216124D01*
X102208Y216189D01*
X102123Y216281D01*
X102098Y216313D01*
X101933Y217037D01*
X101911Y217101D01*
X101843Y217327D01*
X101577Y218005D01*
X101582Y218129D01*
X101596Y218253D01*
X101590Y218329D01*
X101593Y218406D01*
X101570Y218567D01*
X101562Y218654D01*
X101552Y218689D01*
X101546Y218734D01*
X101279Y219906D01*
X101255Y219978D01*
X101239Y220053D01*
X101191Y220169D01*
X101151Y220287D01*
X101113Y220354D01*
X101083Y220424D01*
X101013Y220528D01*
X100992Y220563D01*
X100937Y221303D01*
X100925Y221369D01*
X100892Y221603D01*
X100730Y222314D01*
X100753Y222435D01*
X100786Y222556D01*
X100791Y222633D01*
X100805Y222708D01*
X100806Y222871D01*
X100812Y222958D01*
X100807Y222993D01*
X100808Y223039D01*
X100718Y224237D01*
X100705Y224313D01*
X100701Y224389D01*
X100670Y224510D01*
X100649Y224634D01*
X100621Y224705D01*
X100602Y224779D01*
X100548Y224892D01*
X100533Y224930D01*
X100588Y225670D01*
X100587Y225738D01*
X100589Y225974D01*
X100534Y226700D01*
X100575Y226817D01*
X100626Y226932D01*
X100642Y227006D01*
X100667Y227079D01*
X100693Y227240D01*
X100711Y227325D01*
X100712Y227361D01*
X100719Y227406D01*
X100809Y228604D01*
X100807Y228681D01*
X100815Y228757D01*
X100803Y228881D01*
X100800Y229007D01*
X100783Y229081D01*
X100775Y229158D01*
X100738Y229277D01*
X100729Y229317D01*
X100895Y230040D01*
X100903Y230107D01*
X100940Y230340D01*
X100995Y231067D01*
X101053Y231176D01*
X101119Y231282D01*
X101147Y231354D01*
X101183Y231421D01*
X101232Y231577D01*
X101263Y231658D01*
X101269Y231694D01*
X101283Y231738D01*
X101550Y232909D01*
X101560Y232985D01*
X101579Y233059D01*
X101585Y233184D01*
X101601Y233308D01*
X101595Y233385D01*
X101599Y233461D01*
X101580Y233585D01*
X101577Y233626D01*
X101849Y234316D01*
X101867Y234381D01*
X101938Y234606D01*
X102101Y235316D01*
X102174Y235416D01*
X102256Y235511D01*
X102294Y235577D01*
X102339Y235639D01*
X102411Y235785D01*
X102454Y235861D01*
X102465Y235896D01*
X102485Y235937D01*
X102925Y237055D01*
X102945Y237128D01*
X102975Y237199D01*
X103000Y237322D01*
X103034Y237442D01*
X103040Y237519D01*
X103055Y237594D01*
X103055Y237719D01*
X103058Y237760D01*
X103429Y238402D01*
X103457Y238463D01*
X103561Y238676D01*
X103828Y239354D01*
X103915Y239441D01*
X104010Y239522D01*
X104057Y239583D01*
X104112Y239637D01*
X104204Y239771D01*
X104258Y239840D01*
X104274Y239872D01*
X104301Y239910D01*
X104901Y240950D01*
X104933Y241019D01*
X104973Y241085D01*
X105016Y241202D01*
X105067Y241317D01*
X105084Y241391D01*
X105111Y241463D01*
X105130Y241587D01*
X105139Y241627D01*
X105601Y242207D01*
X105638Y242263D01*
X105773Y242458D01*
X106137Y243088D01*
X106237Y243162D01*
X106343Y243228D01*
X106398Y243281D01*
X106460Y243326D01*
X106572Y243445D01*
X106635Y243505D01*
X106656Y243534D01*
X106687Y243568D01*
X107437Y244507D01*
X107478Y244571D01*
X107527Y244629D01*
X107588Y244740D01*
X107655Y244845D01*
X107683Y244916D01*
X107720Y244983D01*
X107757Y245103D01*
X107772Y245141D01*
X108316Y245645D01*
X108360Y245695D01*
X108523Y245867D01*
X108977Y246437D01*
X109087Y246495D01*
X109202Y246545D01*
X109264Y246588D01*
X109332Y246624D01*
X109460Y246725D01*
X109532Y246775D01*
X109557Y246801D01*
X109593Y246829D01*
X110474Y247646D01*
X110524Y247703D01*
X110582Y247754D01*
X110658Y247854D01*
X110740Y247947D01*
X110779Y248013D01*
X110825Y248074D01*
X110880Y248188D01*
X110900Y248223D01*
X111513Y248640D01*
X111564Y248683D01*
X111751Y248830D01*
X112285Y249325D01*
X112402Y249366D01*
X112523Y249398D01*
X112591Y249432D01*
X112663Y249457D01*
X112806Y249538D01*
X112884Y249576D01*
X112912Y249598D01*
X112952Y249621D01*
X113067Y249699D01*
X113177Y249791D01*
X113292Y249877D01*
X113331Y249920D01*
X113375Y249957D01*
X113465Y250069D01*
X113562Y250177D01*
X113591Y250227D01*
X113627Y250272D01*
X113693Y250399D01*
X113766Y250523D01*
X113785Y250578D01*
X113812Y250629D01*
X113851Y250768D01*
X113899Y250904D01*
X113906Y250961D01*
X113922Y251017D01*
X113934Y251160D01*
X113953Y251303D01*
X113950Y251360D01*
X113954Y251418D01*
X113937Y251561D01*
X113928Y251704D01*
X113913Y251760D01*
X113906Y251818D01*
X113861Y251954D01*
X113824Y252093D01*
X113796Y252153D01*
X113781Y252200D01*
X113740Y252272D01*
X113683Y252393D01*
X95686Y283565D01*
X96314Y283861D01*
X96336Y283878D01*
X96363Y283888D01*
X96415Y283937D01*
X96473Y283980D01*
X96487Y284005D01*
X96508Y284025D01*
X96537Y284090D01*
X96573Y284152D01*
X96576Y284181D01*
X96588Y284207D01*
X96589Y284279D01*
X96598Y284349D01*
X96590Y284377D01*
X96591Y284406D01*
X96555Y284500D01*
X96544Y284541D01*
X96537Y284549D01*
X96533Y284562D01*
X87033Y301062D01*
X86981Y301120D01*
X86935Y301183D01*
X86916Y301194D01*
X86901Y301211D01*
X86831Y301244D01*
X86764Y301284D01*
X86740Y301288D01*
X86722Y301297D01*
X86677Y301299D01*
X86600Y301312D01*
X67600Y301312D01*
X67572Y301306D01*
X67544Y301309D01*
X67476Y301286D01*
X67405Y301272D01*
X67382Y301256D01*
X67355Y301247D01*
X67300Y301200D01*
X67241Y301160D01*
X67226Y301136D01*
X67205Y301117D01*
X67173Y301053D01*
X67134Y300992D01*
X67129Y300964D01*
X67117Y300939D01*
X67108Y300837D01*
X67101Y300796D01*
X67103Y300786D01*
X67102Y300773D01*
X67159Y300058D01*
X31113Y300058D01*
X30971Y300044D01*
X30827Y300038D01*
X30771Y300024D01*
X30713Y300018D01*
X30576Y299976D01*
X30436Y299942D01*
X30384Y299917D01*
X30328Y299900D01*
X30202Y299831D01*
X30072Y299770D01*
X30025Y299736D01*
X29974Y299708D01*
X29864Y299616D01*
X29748Y299531D01*
X29709Y299488D01*
X29664Y299450D01*
X29575Y299339D01*
X29478Y299232D01*
X29449Y299182D01*
X29412Y299136D01*
X29346Y299009D01*
X29273Y298886D01*
X29253Y298831D01*
X29227Y298779D01*
X29187Y298642D01*
X29139Y298506D01*
X29129Y298440D01*
X29115Y298392D01*
X29108Y298310D01*
X29088Y298178D01*
X29077Y298032D01*
X29079Y297956D01*
X29071Y297880D01*
X29084Y297755D01*
X29087Y297630D01*
X29104Y297555D01*
X29111Y297479D01*
X29148Y297359D01*
X29157Y297319D01*
X28992Y296596D01*
X28984Y296530D01*
X28976Y296483D01*
X28971Y296464D01*
X28968Y296431D01*
X28947Y296296D01*
X28892Y295569D01*
X28834Y295460D01*
X28768Y295354D01*
X28740Y295283D01*
X28704Y295215D01*
X28655Y295060D01*
X28624Y294978D01*
X28618Y294943D01*
X28604Y294899D01*
X28338Y293730D01*
X28328Y293654D01*
X28309Y293580D01*
X28303Y293454D01*
X28287Y293330D01*
X28293Y293254D01*
X28289Y293177D01*
X28308Y293054D01*
X28311Y293013D01*
X28040Y292322D01*
X28021Y292257D01*
X27950Y292032D01*
X27788Y291322D01*
X27715Y291222D01*
X27633Y291128D01*
X27595Y291061D01*
X27550Y290999D01*
X27478Y290853D01*
X27435Y290777D01*
X27424Y290743D01*
X27404Y290701D01*
X26965Y289585D01*
X26945Y289512D01*
X26915Y289441D01*
X26890Y289318D01*
X26856Y289198D01*
X26850Y289122D01*
X26835Y289047D01*
X26835Y288921D01*
X26832Y288880D01*
X26461Y288238D01*
X26434Y288177D01*
X26329Y287964D01*
X26063Y287286D01*
X25976Y287199D01*
X25881Y287117D01*
X25833Y287057D01*
X25779Y287003D01*
X25687Y286869D01*
X25633Y286800D01*
X25617Y286768D01*
X25590Y286730D01*
X24991Y285692D01*
X24959Y285622D01*
X24920Y285557D01*
X24877Y285439D01*
X24825Y285325D01*
X24808Y285250D01*
X24782Y285178D01*
X24763Y285055D01*
X24754Y285015D01*
X24291Y284435D01*
X24255Y284378D01*
X24120Y284184D01*
X23756Y283553D01*
X23656Y283479D01*
X23550Y283413D01*
X23495Y283360D01*
X23433Y283315D01*
X23321Y283196D01*
X23258Y283136D01*
X23237Y283107D01*
X23206Y283073D01*
X22458Y282136D01*
X22417Y282072D01*
X22368Y282013D01*
X22308Y281903D01*
X22240Y281798D01*
X22212Y281727D01*
X22175Y281659D01*
X22138Y281540D01*
X22123Y281502D01*
X21579Y280997D01*
X21535Y280947D01*
X21373Y280775D01*
X20918Y280205D01*
X20809Y280147D01*
X20694Y280097D01*
X20631Y280053D01*
X20564Y280018D01*
X20435Y279917D01*
X20364Y279867D01*
X20339Y279841D01*
X20303Y279813D01*
X19424Y278997D01*
X19373Y278940D01*
X19316Y278889D01*
X19240Y278789D01*
X19157Y278696D01*
X19119Y278629D01*
X19073Y278568D01*
X19018Y278456D01*
X18998Y278420D01*
X18385Y278002D01*
X18333Y277959D01*
X18147Y277813D01*
X17613Y277317D01*
X17496Y277277D01*
X17375Y277244D01*
X17307Y277211D01*
X17235Y277185D01*
X17093Y277105D01*
X17015Y277066D01*
X16986Y277044D01*
X16946Y277021D01*
X15955Y276346D01*
X15897Y276297D01*
X15833Y276255D01*
X15743Y276168D01*
X15647Y276087D01*
X15599Y276027D01*
X15544Y275974D01*
X15474Y275871D01*
X15448Y275839D01*
X14780Y275517D01*
X14722Y275482D01*
X14517Y275365D01*
X13915Y274955D01*
X13793Y274932D01*
X13669Y274918D01*
X13596Y274895D01*
X13521Y274880D01*
X13368Y274822D01*
X13285Y274795D01*
X13254Y274778D01*
X13211Y274761D01*
X12131Y274241D01*
X12065Y274201D01*
X11996Y274170D01*
X11894Y274097D01*
X11787Y274031D01*
X11731Y273979D01*
X11669Y273935D01*
X11583Y273843D01*
X11553Y273815D01*
X10845Y273597D01*
X10783Y273571D01*
X10562Y273486D01*
X9906Y273170D01*
X9782Y273165D01*
X9657Y273170D01*
X9581Y273158D01*
X9505Y273155D01*
X9345Y273120D01*
X9259Y273106D01*
X9226Y273093D01*
X9181Y273083D01*
X8035Y272730D01*
X7964Y272700D01*
X7891Y272680D01*
X7779Y272622D01*
X7664Y272574D01*
X7601Y272531D01*
X7532Y272496D01*
X7434Y272418D01*
X7401Y272395D01*
X6667Y272284D01*
X6602Y272268D01*
X6371Y272217D01*
X5675Y272002D01*
X5552Y272016D01*
X5429Y272039D01*
X5352Y272039D01*
X5276Y272047D01*
X5114Y272036D01*
X5026Y272035D01*
X4991Y272028D01*
X4945Y272025D01*
X3760Y271846D01*
X3686Y271827D01*
X3610Y271818D01*
X3491Y271778D01*
X3370Y271747D01*
X3301Y271714D01*
X3228Y271689D01*
X3119Y271627D01*
X3083Y271609D01*
X2341Y271609D01*
X2274Y271603D01*
X2038Y271587D01*
X1317Y271478D01*
X1198Y271510D01*
X1080Y271552D01*
X1004Y271562D01*
X930Y271582D01*
X767Y271596D01*
X681Y271608D01*
X645Y271606D01*
X599Y271609D01*
X-599Y271609D01*
X-676Y271602D01*
X-752Y271604D01*
X-875Y271582D01*
X-1000Y271569D01*
X-1073Y271547D01*
X-1149Y271534D01*
X-1265Y271488D01*
X-1304Y271476D01*
X-2038Y271587D01*
X-2105Y271590D01*
X-2341Y271609D01*
X-3069Y271609D01*
X-3183Y271659D01*
X-3293Y271718D01*
X-3367Y271739D01*
X-3437Y271770D01*
X-3595Y271807D01*
X-3679Y271832D01*
X-3715Y271836D01*
X-3760Y271846D01*
X-4945Y272025D01*
X-5022Y272029D01*
X-5097Y272042D01*
X-5222Y272039D01*
X-5347Y272045D01*
X-5423Y272034D01*
X-5500Y272032D01*
X-5622Y272004D01*
X-5662Y271998D01*
X-6371Y272217D01*
X-6437Y272230D01*
X-6667Y272284D01*
X-7388Y272393D01*
X-7492Y272459D01*
X-7593Y272533D01*
X-7662Y272566D01*
X-7727Y272607D01*
X-7878Y272667D01*
X-7957Y272704D01*
X-7992Y272713D01*
X-8035Y272730D01*
X-9181Y273083D01*
X-9256Y273099D01*
X-9328Y273123D01*
X-9452Y273138D01*
X-9575Y273163D01*
X-9652Y273163D01*
X-9728Y273173D01*
X-9853Y273164D01*
X-9894Y273164D01*
X-10562Y273486D01*
X-10626Y273509D01*
X-10845Y273597D01*
X-11541Y273811D01*
X-11634Y273892D01*
X-11723Y273981D01*
X-11787Y274023D01*
X-11844Y274073D01*
X-11985Y274156D01*
X-12058Y274204D01*
X-12091Y274218D01*
X-12131Y274241D01*
X-13211Y274761D01*
X-13283Y274788D01*
X-13351Y274822D01*
X-13471Y274856D01*
X-13589Y274899D01*
X-13665Y274911D01*
X-13739Y274932D01*
X-13863Y274941D01*
X-13904Y274947D01*
X-14517Y275365D01*
X-14576Y275397D01*
X-14780Y275517D01*
X-15436Y275833D01*
X-15517Y275927D01*
X-15591Y276028D01*
X-15648Y276079D01*
X-15697Y276137D01*
X-15824Y276240D01*
X-15889Y276299D01*
X-15920Y276317D01*
X-15955Y276346D01*
X-16946Y277021D01*
X-17013Y277058D01*
X-17075Y277103D01*
X-17190Y277154D01*
X-17300Y277214D01*
X-17373Y277237D01*
X-17442Y277268D01*
X-17565Y277296D01*
X-17604Y277308D01*
X-18147Y277813D01*
X-18201Y277854D01*
X-18385Y278002D01*
X-18987Y278413D01*
X-19053Y278518D01*
X-19111Y278628D01*
X-19159Y278688D01*
X-19200Y278752D01*
X-19310Y278873D01*
X-19365Y278941D01*
X-19393Y278963D01*
X-19424Y278997D01*
X-20303Y279813D01*
X-20364Y279859D01*
X-20418Y279912D01*
X-20523Y279980D01*
X-20623Y280056D01*
X-20693Y280089D01*
X-20757Y280131D01*
X-20873Y280177D01*
X-20910Y280194D01*
X-21373Y280775D01*
X-21420Y280823D01*
X-21579Y280997D01*
X-22113Y281493D01*
X-22163Y281606D01*
X-22204Y281724D01*
X-22243Y281790D01*
X-22273Y281860D01*
X-22364Y281996D01*
X-22409Y282071D01*
X-22433Y282098D01*
X-22458Y282136D01*
X-23206Y283073D01*
X-23259Y283128D01*
X-23305Y283189D01*
X-23399Y283272D01*
X-23487Y283362D01*
X-23550Y283405D01*
X-23607Y283455D01*
X-23716Y283518D01*
X-23749Y283541D01*
X-24120Y284184D01*
X-24160Y284238D01*
X-24291Y284435D01*
X-24746Y285004D01*
X-24778Y285124D01*
X-24801Y285247D01*
X-24829Y285318D01*
X-24849Y285392D01*
X-24919Y285539D01*
X-24952Y285620D01*
X-24971Y285650D01*
X-24991Y285692D01*
X-25590Y286730D01*
X-25635Y286792D01*
X-25672Y286859D01*
X-25752Y286955D01*
X-25825Y287057D01*
X-25881Y287109D01*
X-25931Y287168D01*
X-26028Y287246D01*
X-26058Y287274D01*
X-26329Y287964D01*
X-26360Y288024D01*
X-26461Y288238D01*
X-26951Y289087D01*
X-26999Y289154D01*
X-27039Y289226D01*
X-27116Y289317D01*
X-27186Y289414D01*
X-27246Y289470D01*
X-27300Y289533D01*
X-27393Y289607D01*
X-27481Y289688D01*
X-27551Y289731D01*
X-27616Y289782D01*
X-27722Y289836D01*
X-27824Y289899D01*
X-27901Y289927D01*
X-27975Y289965D01*
X-28090Y289997D01*
X-28202Y290038D01*
X-28283Y290051D01*
X-28363Y290073D01*
X-28482Y290081D01*
X-28600Y290100D01*
X-28682Y290096D01*
X-28764Y290102D01*
X-28883Y290087D01*
X-29002Y290082D01*
X-29082Y290062D01*
X-29164Y290051D01*
X-29277Y290013D01*
X-29393Y289985D01*
X-29467Y289949D01*
X-29545Y289923D01*
X-29649Y289864D01*
X-29757Y289812D01*
X-29811Y289772D01*
X-31977Y288875D01*
X-34189Y288875D01*
X-36233Y289721D01*
X-37797Y291286D01*
X-38643Y293329D01*
X-38643Y295542D01*
X-37936Y297249D01*
X-37932Y297262D01*
X-37926Y297274D01*
X-37874Y297455D01*
X-37820Y297635D01*
X-37818Y297648D01*
X-37815Y297661D01*
X-37799Y297849D01*
X-37782Y298035D01*
X-37783Y298049D01*
X-37782Y298062D01*
X-37804Y298249D01*
X-37823Y298436D01*
X-37827Y298449D01*
X-37829Y298462D01*
X-37887Y298640D01*
X-37943Y298820D01*
X-37949Y298832D01*
X-37954Y298845D01*
X-38046Y299008D01*
X-38136Y299173D01*
X-38145Y299184D01*
X-38152Y299195D01*
X-38274Y299338D01*
X-38395Y299482D01*
X-38406Y299490D01*
X-38415Y299500D01*
X-38563Y299615D01*
X-38710Y299733D01*
X-38722Y299739D01*
X-38733Y299747D01*
X-38901Y299830D01*
X-39068Y299916D01*
X-39081Y299920D01*
X-39093Y299926D01*
X-39276Y299975D01*
X-39456Y300026D01*
X-39469Y300027D01*
X-39482Y300031D01*
X-39813Y300058D01*
X-67159Y300058D01*
X-67102Y300773D01*
X-67106Y300801D01*
X-67101Y300829D01*
X-67118Y300899D01*
X-67126Y300970D01*
X-67141Y300995D01*
X-67147Y301022D01*
X-67190Y301080D01*
X-67226Y301143D01*
X-67248Y301160D01*
X-67265Y301183D01*
X-67327Y301219D01*
X-67384Y301263D01*
X-67412Y301270D01*
X-67436Y301284D01*
X-67536Y301301D01*
X-67577Y301311D01*
X-67587Y301310D01*
X-67600Y301312D01*
X-86600Y301312D01*
X-86676Y301296D01*
X-86754Y301288D01*
X-86773Y301277D01*
X-86795Y301272D01*
X-86859Y301228D01*
X-86927Y301190D01*
X-86943Y301171D01*
X-86959Y301160D01*
X-86983Y301122D01*
X-87033Y301062D01*
X-96533Y284562D01*
X-96542Y284534D01*
X-96558Y284511D01*
X-96573Y284441D01*
X-96596Y284373D01*
X-96593Y284345D01*
X-96599Y284316D01*
X-96586Y284246D01*
X-96580Y284175D01*
X-96567Y284149D01*
X-96561Y284121D01*
X-96521Y284062D01*
X-96488Y283998D01*
X-96466Y283980D01*
X-96450Y283956D01*
X-96367Y283899D01*
X-96335Y283872D01*
X-96324Y283869D01*
X-96314Y283861D01*
X-95686Y283565D01*
X-113683Y252393D01*
X-113742Y252262D01*
X-113808Y252135D01*
X-113824Y252079D01*
X-113848Y252026D01*
X-113880Y251886D01*
X-113921Y251748D01*
X-113925Y251690D01*
X-113938Y251634D01*
X-113942Y251490D01*
X-113954Y251347D01*
X-113948Y251289D01*
X-113949Y251232D01*
X-113925Y251090D01*
X-113908Y250947D01*
X-113891Y250892D01*
X-113881Y250835D01*
X-113829Y250701D01*
X-113784Y250564D01*
X-113756Y250513D01*
X-113735Y250459D01*
X-113658Y250338D01*
X-113587Y250213D01*
X-113550Y250169D01*
X-113519Y250120D01*
X-113418Y250016D01*
X-113325Y249907D01*
X-113274Y249866D01*
X-113239Y249830D01*
X-113171Y249783D01*
X-113067Y249699D01*
X-112952Y249621D01*
X-112885Y249584D01*
X-112823Y249540D01*
X-112709Y249488D01*
X-112598Y249428D01*
X-112525Y249405D01*
X-112456Y249374D01*
X-112333Y249346D01*
X-112295Y249334D01*
X-111751Y248830D01*
X-111697Y248789D01*
X-111513Y248640D01*
X-110911Y248230D01*
X-110845Y248125D01*
X-110787Y248015D01*
X-110739Y247955D01*
X-110698Y247890D01*
X-110588Y247770D01*
X-110533Y247702D01*
X-110505Y247680D01*
X-110474Y247646D01*
X-109593Y246829D01*
X-109532Y246783D01*
X-109477Y246729D01*
X-109372Y246661D01*
X-109272Y246586D01*
X-109203Y246553D01*
X-109139Y246511D01*
X-109022Y246465D01*
X-108986Y246447D01*
X-108523Y245867D01*
X-108476Y245819D01*
X-108316Y245645D01*
X-107782Y245150D01*
X-107733Y245036D01*
X-107691Y244918D01*
X-107652Y244852D01*
X-107622Y244782D01*
X-107531Y244647D01*
X-107486Y244571D01*
X-107462Y244545D01*
X-107437Y244507D01*
X-106687Y243568D01*
X-106634Y243513D01*
X-106588Y243452D01*
X-106494Y243369D01*
X-106406Y243279D01*
X-106343Y243236D01*
X-106286Y243186D01*
X-106177Y243123D01*
X-106144Y243100D01*
X-105773Y242457D01*
X-105733Y242403D01*
X-105601Y242207D01*
X-105147Y241637D01*
X-105115Y241518D01*
X-105092Y241395D01*
X-105063Y241324D01*
X-105043Y241250D01*
X-104974Y241102D01*
X-104941Y241021D01*
X-104921Y240991D01*
X-104901Y240950D01*
X-104301Y239910D01*
X-104256Y239847D01*
X-104219Y239780D01*
X-104139Y239684D01*
X-104066Y239583D01*
X-104009Y239531D01*
X-103960Y239472D01*
X-103862Y239394D01*
X-103833Y239366D01*
X-103561Y238675D01*
X-103530Y238615D01*
X-103429Y238402D01*
X-103065Y237771D01*
X-103051Y237648D01*
X-103047Y237523D01*
X-103029Y237449D01*
X-103020Y237373D01*
X-102973Y237216D01*
X-102953Y237131D01*
X-102938Y237099D01*
X-102925Y237055D01*
X-102485Y235937D01*
X-102451Y235869D01*
X-102424Y235797D01*
X-102359Y235690D01*
X-102302Y235579D01*
X-102254Y235519D01*
X-102214Y235453D01*
X-102129Y235361D01*
X-102051Y235263D01*
X-101993Y235214D01*
X-101941Y235158D01*
X-101810Y235060D01*
X-101743Y235004D01*
X-101712Y234987D01*
X-101675Y234959D01*
X-101410Y234793D01*
X-101244Y234710D01*
X-101083Y234627D01*
X-101066Y234622D01*
X-101050Y234614D01*
X-100872Y234566D01*
X-100696Y234515D01*
X-100678Y234514D01*
X-100661Y234509D01*
X-100478Y234497D01*
X-100294Y234482D01*
X-100277Y234484D01*
X-100259Y234483D01*
X-100077Y234508D01*
X-99895Y234529D01*
X-99878Y234535D01*
X-99860Y234537D01*
X-99686Y234597D01*
X-99512Y234654D01*
X-99496Y234663D01*
X-99480Y234669D01*
X-99321Y234762D01*
X-99161Y234852D01*
X-99148Y234864D01*
X-99132Y234873D01*
X-98995Y234995D01*
X-98856Y235115D01*
X-98846Y235129D01*
X-98832Y235141D01*
X-98722Y235288D01*
X-98610Y235433D01*
X-98602Y235449D01*
X-98591Y235463D01*
X-98512Y235629D01*
X-98430Y235794D01*
X-98426Y235811D01*
X-98418Y235827D01*
X-98374Y236004D01*
X-98326Y236183D01*
X-98324Y236202D01*
X-98320Y236217D01*
X-98317Y236291D01*
X-98299Y236513D01*
X-98299Y261613D01*
X-96513Y263399D01*
X-46694Y263399D01*
X-46519Y263416D01*
X-46342Y263429D01*
X-46318Y263436D01*
X-46293Y263439D01*
X-46125Y263490D01*
X-45955Y263538D01*
X-45932Y263549D01*
X-45908Y263557D01*
X-45753Y263641D01*
X-45596Y263721D01*
X-45576Y263737D01*
X-45554Y263749D01*
X-45419Y263862D01*
X-45281Y263971D01*
X-45264Y263990D01*
X-45245Y264006D01*
X-45135Y264144D01*
X-45021Y264278D01*
X-45008Y264300D01*
X-44993Y264320D01*
X-44912Y264476D01*
X-44826Y264631D01*
X-44819Y264655D01*
X-44807Y264677D01*
X-44758Y264847D01*
X-44705Y265015D01*
X-44703Y265040D01*
X-44696Y265064D01*
X-44681Y265240D01*
X-44663Y265415D01*
X-44665Y265440D01*
X-44663Y265466D01*
X-44683Y265641D01*
X-44700Y265816D01*
X-44707Y265840D01*
X-44710Y265865D01*
X-44764Y266033D01*
X-44815Y266202D01*
X-44827Y266224D01*
X-44835Y266248D01*
X-44921Y266402D01*
X-45004Y266558D01*
X-45020Y266577D01*
X-45033Y266599D01*
X-45148Y266732D01*
X-45260Y266869D01*
X-45281Y266887D01*
X-45296Y266903D01*
X-45361Y266954D01*
X-45513Y267083D01*
X-61492Y278496D01*
X-62722Y280468D01*
X-63104Y282761D01*
X-62580Y285025D01*
X-61229Y286917D01*
X-59257Y288147D01*
X-56964Y288529D01*
X-54700Y288005D01*
X-35805Y274509D01*
X-35752Y274478D01*
X-35704Y274441D01*
X-35578Y274378D01*
X-35456Y274308D01*
X-35398Y274289D01*
X-35344Y274262D01*
X-35207Y274225D01*
X-35074Y274181D01*
X-35014Y274173D01*
X-34955Y274157D01*
X-34756Y274141D01*
X-34674Y274131D01*
X-34652Y274133D01*
X-34624Y274130D01*
X-33763Y274130D01*
X-31615Y273241D01*
X-29972Y271597D01*
X-29082Y269450D01*
X-29082Y267125D01*
X-29463Y266207D01*
X-29466Y266194D01*
X-29473Y266183D01*
X-29524Y266002D01*
X-29579Y265822D01*
X-29580Y265809D01*
X-29584Y265796D01*
X-29599Y265607D01*
X-29617Y265421D01*
X-29616Y265408D01*
X-29617Y265394D01*
X-29595Y265208D01*
X-29576Y265021D01*
X-29572Y265008D01*
X-29570Y264995D01*
X-29512Y264816D01*
X-29456Y264636D01*
X-29449Y264625D01*
X-29445Y264612D01*
X-29352Y264448D01*
X-29262Y264283D01*
X-29254Y264273D01*
X-29247Y264261D01*
X-29124Y264119D01*
X-29003Y263975D01*
X-28993Y263967D01*
X-28984Y263956D01*
X-28836Y263842D01*
X-28688Y263724D01*
X-28677Y263718D01*
X-28666Y263710D01*
X-28497Y263626D01*
X-28330Y263540D01*
X-28317Y263536D01*
X-28305Y263530D01*
X-28123Y263481D01*
X-27943Y263430D01*
X-27930Y263429D01*
X-27917Y263426D01*
X-27586Y263399D01*
X61588Y263399D01*
X63384Y261603D01*
X63395Y261505D01*
X63414Y261322D01*
X63419Y261305D01*
X63421Y261287D01*
X63478Y261113D01*
X63532Y260937D01*
X63540Y260921D01*
X63546Y260904D01*
X63637Y260743D01*
X63724Y260583D01*
X63735Y260569D01*
X63744Y260554D01*
X63864Y260414D01*
X63981Y260274D01*
X63995Y260262D01*
X64007Y260249D01*
X64152Y260136D01*
X64295Y260021D01*
X64311Y260013D01*
X64325Y260002D01*
X64490Y259920D01*
X64652Y259836D01*
X64669Y259831D01*
X64685Y259823D01*
X64864Y259775D01*
X65039Y259724D01*
X65057Y259723D01*
X65074Y259718D01*
X65405Y259691D01*
X71849Y259691D01*
X73176Y258364D01*
X73190Y258353D01*
X73202Y258339D01*
X73346Y258225D01*
X73488Y258109D01*
X73503Y258101D01*
X73517Y258090D01*
X73682Y258006D01*
X73843Y257921D01*
X73860Y257916D01*
X73876Y257907D01*
X74054Y257858D01*
X74229Y257806D01*
X74247Y257804D01*
X74264Y257799D01*
X74447Y257786D01*
X74630Y257769D01*
X74648Y257771D01*
X74666Y257770D01*
X74848Y257793D01*
X75031Y257813D01*
X75048Y257818D01*
X75065Y257820D01*
X75239Y257879D01*
X75414Y257934D01*
X75430Y257943D01*
X75447Y257949D01*
X75606Y258040D01*
X75767Y258129D01*
X75780Y258141D01*
X75796Y258150D01*
X76049Y258364D01*
X77376Y259691D01*
X88849Y259691D01*
X89891Y258649D01*
X89891Y246176D01*
X89627Y245911D01*
X89616Y245898D01*
X89602Y245886D01*
X89488Y245742D01*
X89372Y245600D01*
X89363Y245584D01*
X89352Y245570D01*
X89269Y245407D01*
X89183Y245244D01*
X89178Y245227D01*
X89170Y245211D01*
X89121Y245034D01*
X89068Y244858D01*
X89067Y244840D01*
X89062Y244823D01*
X89049Y244640D01*
X89032Y244457D01*
X89034Y244439D01*
X89033Y244422D01*
X89056Y244240D01*
X89075Y244057D01*
X89081Y244040D01*
X89083Y244022D01*
X89141Y243848D01*
X89197Y243673D01*
X89206Y243658D01*
X89211Y243641D01*
X89303Y243481D01*
X89392Y243321D01*
X89403Y243307D01*
X89412Y243292D01*
X89627Y243039D01*
X89891Y242774D01*
X89891Y230301D01*
X88849Y229259D01*
X77376Y229259D01*
X76049Y230586D01*
X76035Y230597D01*
X76023Y230611D01*
X75879Y230724D01*
X75737Y230841D01*
X75722Y230849D01*
X75708Y230860D01*
X75543Y230944D01*
X75382Y231029D01*
X75365Y231034D01*
X75349Y231043D01*
X75172Y231092D01*
X74996Y231144D01*
X74978Y231146D01*
X74961Y231151D01*
X74778Y231164D01*
X74595Y231181D01*
X74577Y231179D01*
X74559Y231180D01*
X74377Y231157D01*
X74194Y231137D01*
X74177Y231132D01*
X74160Y231130D01*
X73986Y231071D01*
X73811Y231016D01*
X73795Y231007D01*
X73778Y231001D01*
X73619Y230910D01*
X73458Y230821D01*
X73445Y230809D01*
X73429Y230800D01*
X73176Y230586D01*
X71849Y229259D01*
X65405Y229259D01*
X65387Y229257D01*
X65369Y229258D01*
X65187Y229237D01*
X65004Y229219D01*
X64987Y229214D01*
X64970Y229212D01*
X64795Y229155D01*
X64619Y229101D01*
X64604Y229092D01*
X64587Y229087D01*
X64427Y228996D01*
X64265Y228909D01*
X64252Y228898D01*
X64236Y228889D01*
X64097Y228769D01*
X63956Y228651D01*
X63945Y228637D01*
X63931Y228626D01*
X63819Y228481D01*
X63704Y228337D01*
X63696Y228322D01*
X63685Y228308D01*
X63603Y228143D01*
X63518Y227980D01*
X63513Y227963D01*
X63505Y227947D01*
X63458Y227769D01*
X63407Y227593D01*
X63405Y227575D01*
X63401Y227558D01*
X63374Y227228D01*
X63374Y181492D01*
X63376Y181465D01*
X63374Y181438D01*
X63396Y181264D01*
X63414Y181091D01*
X63421Y181066D01*
X63425Y181039D01*
X63480Y180873D01*
X63532Y180706D01*
X63545Y180683D01*
X63553Y180657D01*
X63640Y180506D01*
X63724Y180352D01*
X63741Y180332D01*
X63754Y180308D01*
X63969Y180055D01*
X71050Y172974D01*
X71071Y172957D01*
X71089Y172936D01*
X71227Y172829D01*
X71362Y172719D01*
X71386Y172706D01*
X71407Y172690D01*
X71564Y172612D01*
X71676Y172552D01*
X73061Y171167D01*
X73062Y171165D01*
X73071Y171140D01*
X73158Y170988D01*
X73241Y170835D01*
X73258Y170814D01*
X73271Y170791D01*
X73486Y170538D01*
X74486Y169538D01*
X74486Y160333D01*
X74489Y160307D01*
X74487Y160280D01*
X74509Y160106D01*
X74526Y159933D01*
X74534Y159907D01*
X74537Y159880D01*
X74593Y159715D01*
X74644Y159548D01*
X74657Y159524D01*
X74666Y159499D01*
X74753Y159347D01*
X74836Y159194D01*
X74853Y159173D01*
X74866Y159150D01*
X74929Y159077D01*
X74929Y128254D01*
X74826Y128129D01*
X74814Y128105D01*
X74797Y128084D01*
X74719Y127927D01*
X74637Y127773D01*
X74630Y127748D01*
X74618Y127724D01*
X74572Y127554D01*
X74523Y127388D01*
X74520Y127361D01*
X74513Y127335D01*
X74486Y127004D01*
X74486Y108275D01*
X72700Y106489D01*
X62519Y106489D01*
X62492Y106486D01*
X62465Y106488D01*
X62292Y106466D01*
X62118Y106449D01*
X62093Y106441D01*
X62066Y106438D01*
X61900Y106382D01*
X61733Y106331D01*
X61710Y106318D01*
X61684Y106309D01*
X61533Y106222D01*
X61379Y106139D01*
X61359Y106122D01*
X61335Y106109D01*
X61082Y105894D01*
X53810Y98621D01*
X53804Y98614D01*
X53797Y98609D01*
X53677Y98459D01*
X53555Y98310D01*
X53551Y98302D01*
X53545Y98295D01*
X53456Y98124D01*
X53366Y97954D01*
X53364Y97945D01*
X53359Y97938D01*
X53306Y97753D01*
X53251Y97568D01*
X53251Y97559D01*
X53248Y97551D01*
X53232Y97359D01*
X53215Y97167D01*
X53216Y97158D01*
X53215Y97149D01*
X53237Y96960D01*
X53258Y96767D01*
X53261Y96758D01*
X53262Y96750D01*
X53321Y96568D01*
X53380Y96383D01*
X53384Y96375D01*
X53387Y96367D01*
X53482Y96198D01*
X53575Y96031D01*
X53580Y96024D01*
X53585Y96016D01*
X53711Y95870D01*
X53835Y95724D01*
X53842Y95718D01*
X53848Y95711D01*
X53999Y95594D01*
X54151Y95474D01*
X54159Y95470D01*
X54166Y95465D01*
X54338Y95379D01*
X54510Y95292D01*
X54519Y95289D01*
X54527Y95285D01*
X54713Y95235D01*
X54898Y95184D01*
X54907Y95183D01*
X54915Y95181D01*
X55246Y95154D01*
X63299Y95154D01*
X64341Y94112D01*
X64341Y88638D01*
X63299Y87596D01*
X55008Y87596D01*
X54982Y87594D01*
X54955Y87596D01*
X54781Y87574D01*
X54608Y87556D01*
X54582Y87548D01*
X54556Y87545D01*
X54390Y87489D01*
X54223Y87438D01*
X54199Y87425D01*
X54174Y87417D01*
X54022Y87330D01*
X53869Y87246D01*
X53848Y87229D01*
X53825Y87216D01*
X53572Y87001D01*
X46588Y80018D01*
X46577Y80004D01*
X46563Y79992D01*
X46450Y79848D01*
X46333Y79706D01*
X46325Y79690D01*
X46314Y79676D01*
X46230Y79512D01*
X46145Y79350D01*
X46140Y79333D01*
X46131Y79317D01*
X46082Y79140D01*
X46030Y78964D01*
X46028Y78947D01*
X46023Y78929D01*
X46010Y78746D01*
X45993Y78563D01*
X45995Y78546D01*
X45994Y78528D01*
X46017Y78346D01*
X46037Y78163D01*
X46042Y78146D01*
X46044Y78128D01*
X46103Y77955D01*
X46158Y77779D01*
X46167Y77764D01*
X46173Y77747D01*
X46265Y77587D01*
X46353Y77427D01*
X46365Y77414D01*
X46374Y77398D01*
X46588Y77145D01*
X51985Y71749D01*
X52005Y71732D01*
X52023Y71712D01*
X52161Y71604D01*
X52296Y71494D01*
X52320Y71481D01*
X52341Y71465D01*
X52498Y71387D01*
X52652Y71305D01*
X52677Y71297D01*
X52701Y71285D01*
X52871Y71240D01*
X53038Y71190D01*
X53064Y71188D01*
X53090Y71181D01*
X53421Y71154D01*
X63299Y71154D01*
X64341Y70112D01*
X64341Y69153D01*
X64342Y69144D01*
X64341Y69136D01*
X64362Y68944D01*
X64381Y68753D01*
X64384Y68744D01*
X64385Y68735D01*
X64442Y68553D01*
X64499Y68368D01*
X64504Y68360D01*
X64506Y68351D01*
X64599Y68183D01*
X64691Y68014D01*
X64697Y68007D01*
X64701Y67999D01*
X64826Y67852D01*
X64949Y67705D01*
X64956Y67699D01*
X64962Y67692D01*
X65112Y67573D01*
X65262Y67452D01*
X65270Y67448D01*
X65277Y67443D01*
X65450Y67355D01*
X65620Y67267D01*
X65628Y67264D01*
X65636Y67260D01*
X65823Y67208D01*
X66007Y67155D01*
X66016Y67155D01*
X66024Y67152D01*
X66217Y67138D01*
X66408Y67122D01*
X66417Y67123D01*
G37*
G36*
X71556Y108283D02*
X71556Y108283D01*
X71674Y108291D01*
X71713Y108303D01*
X71753Y108308D01*
X71864Y108352D01*
X71977Y108389D01*
X72011Y108410D01*
X72049Y108425D01*
X72145Y108495D01*
X72246Y108559D01*
X72273Y108588D01*
X72306Y108612D01*
X72382Y108704D01*
X72464Y108790D01*
X72483Y108826D01*
X72509Y108857D01*
X72560Y108965D01*
X72617Y109069D01*
X72627Y109108D01*
X72644Y109145D01*
X72667Y109261D01*
X72697Y109377D01*
X72700Y109437D01*
X72704Y109457D01*
X72703Y109477D01*
X72707Y109538D01*
X72707Y168275D01*
X72694Y168373D01*
X72691Y168472D01*
X72675Y168530D01*
X72667Y168591D01*
X72630Y168683D01*
X72603Y168778D01*
X72572Y168830D01*
X72550Y168886D01*
X72492Y168966D01*
X72441Y169052D01*
X72375Y169127D01*
X72363Y169144D01*
X72354Y169151D01*
X72335Y169173D01*
X62810Y178698D01*
X62732Y178758D01*
X62660Y178826D01*
X62607Y178855D01*
X62559Y178892D01*
X62468Y178932D01*
X62381Y178980D01*
X62323Y178995D01*
X62267Y179019D01*
X62169Y179034D01*
X62073Y179059D01*
X61973Y179065D01*
X61953Y179069D01*
X61941Y179067D01*
X61913Y179069D01*
X61594Y179069D01*
X61594Y227990D01*
X61579Y228108D01*
X61572Y228226D01*
X61559Y228265D01*
X61554Y228305D01*
X61511Y228416D01*
X61474Y228529D01*
X61452Y228563D01*
X61437Y228601D01*
X61368Y228697D01*
X61304Y228798D01*
X61274Y228825D01*
X61251Y228858D01*
X61159Y228934D01*
X61072Y229016D01*
X61037Y229035D01*
X61006Y229061D01*
X60898Y229112D01*
X60794Y229169D01*
X60754Y229179D01*
X60718Y229196D01*
X60601Y229219D01*
X60486Y229249D01*
X60426Y229252D01*
X60406Y229256D01*
X60385Y229255D01*
X60379Y229255D01*
X59334Y230301D01*
X59334Y231966D01*
X59319Y232084D01*
X59311Y232202D01*
X59299Y232241D01*
X59294Y232281D01*
X59250Y232392D01*
X59213Y232505D01*
X59192Y232539D01*
X59177Y232577D01*
X59107Y232673D01*
X59043Y232774D01*
X59014Y232801D01*
X58990Y232834D01*
X58898Y232910D01*
X58812Y232992D01*
X58776Y233011D01*
X58745Y233037D01*
X58637Y233088D01*
X58533Y233145D01*
X58494Y233155D01*
X58457Y233172D01*
X58341Y233195D01*
X58225Y233225D01*
X58165Y233228D01*
X58145Y233232D01*
X58125Y233231D01*
X58065Y233235D01*
X57456Y233235D01*
X57358Y233222D01*
X57259Y233219D01*
X57201Y233203D01*
X57141Y233195D01*
X57049Y233158D01*
X56954Y233131D01*
X56901Y233100D01*
X56845Y233078D01*
X56765Y233020D01*
X56680Y232969D01*
X56604Y232903D01*
X56588Y232891D01*
X56580Y232882D01*
X56559Y232863D01*
X55808Y232112D01*
X55747Y232034D01*
X55679Y231962D01*
X55650Y231909D01*
X55613Y231861D01*
X55574Y231770D01*
X55526Y231683D01*
X55511Y231625D01*
X55487Y231569D01*
X55471Y231471D01*
X55446Y231375D01*
X55440Y231275D01*
X55437Y231255D01*
X55438Y231243D01*
X55436Y231215D01*
X55436Y223119D01*
X49931Y217614D01*
X42144Y217614D01*
X36639Y223119D01*
X36639Y230906D01*
X41754Y236021D01*
X41839Y236131D01*
X41928Y236238D01*
X41937Y236256D01*
X41949Y236272D01*
X42005Y236400D01*
X42064Y236526D01*
X42067Y236545D01*
X42076Y236564D01*
X42097Y236702D01*
X42123Y236838D01*
X42122Y236858D01*
X42125Y236878D01*
X42112Y237017D01*
X42104Y237155D01*
X42097Y237175D01*
X42096Y237195D01*
X42048Y237326D01*
X42006Y237458D01*
X41995Y237475D01*
X41988Y237494D01*
X41910Y237609D01*
X41835Y237727D01*
X41821Y237741D01*
X41809Y237757D01*
X41705Y237849D01*
X41604Y237945D01*
X41586Y237954D01*
X41571Y237968D01*
X41447Y238031D01*
X41325Y238098D01*
X41306Y238103D01*
X41288Y238112D01*
X41152Y238143D01*
X41017Y238178D01*
X40989Y238179D01*
X40977Y238182D01*
X40957Y238181D01*
X40857Y238188D01*
X37009Y238188D01*
X36911Y238175D01*
X36812Y238172D01*
X36754Y238156D01*
X36694Y238148D01*
X36602Y238111D01*
X36507Y238084D01*
X36454Y238053D01*
X36398Y238031D01*
X36318Y237973D01*
X36233Y237922D01*
X36157Y237856D01*
X36141Y237844D01*
X36133Y237835D01*
X36112Y237816D01*
X30408Y232112D01*
X30347Y232034D01*
X30279Y231962D01*
X30250Y231909D01*
X30213Y231861D01*
X30174Y231770D01*
X30126Y231683D01*
X30111Y231625D01*
X30087Y231569D01*
X30071Y231471D01*
X30046Y231375D01*
X30040Y231275D01*
X30037Y231255D01*
X30038Y231243D01*
X30036Y231215D01*
X30036Y223119D01*
X24531Y217614D01*
X16744Y217614D01*
X11239Y223119D01*
X11239Y230906D01*
X16744Y236411D01*
X24840Y236411D01*
X24938Y236424D01*
X25037Y236427D01*
X25095Y236443D01*
X25155Y236451D01*
X25247Y236488D01*
X25342Y236515D01*
X25395Y236546D01*
X25451Y236568D01*
X25531Y236626D01*
X25616Y236677D01*
X25692Y236743D01*
X25708Y236755D01*
X25716Y236764D01*
X25737Y236783D01*
X33747Y244793D01*
X48668Y244793D01*
X48766Y244806D01*
X48865Y244809D01*
X48923Y244825D01*
X48983Y244833D01*
X49075Y244870D01*
X49170Y244897D01*
X49223Y244928D01*
X49279Y244950D01*
X49359Y245008D01*
X49444Y245059D01*
X49520Y245125D01*
X49536Y245137D01*
X49544Y245146D01*
X49565Y245165D01*
X58962Y254562D01*
X59023Y254640D01*
X59091Y254712D01*
X59120Y254765D01*
X59157Y254813D01*
X59196Y254904D01*
X59244Y254991D01*
X59259Y255049D01*
X59283Y255105D01*
X59299Y255203D01*
X59324Y255299D01*
X59330Y255399D01*
X59333Y255419D01*
X59332Y255431D01*
X59334Y255459D01*
X59334Y258649D01*
X60137Y259453D01*
X60222Y259562D01*
X60311Y259669D01*
X60320Y259688D01*
X60332Y259704D01*
X60387Y259832D01*
X60446Y259957D01*
X60450Y259977D01*
X60458Y259996D01*
X60480Y260134D01*
X60506Y260270D01*
X60505Y260290D01*
X60508Y260310D01*
X60495Y260449D01*
X60486Y260587D01*
X60480Y260606D01*
X60478Y260626D01*
X60431Y260758D01*
X60388Y260889D01*
X60378Y260907D01*
X60371Y260926D01*
X60293Y261041D01*
X60218Y261158D01*
X60203Y261172D01*
X60192Y261189D01*
X60088Y261281D01*
X59987Y261376D01*
X59969Y261386D01*
X59954Y261399D01*
X59830Y261462D01*
X59708Y261530D01*
X59689Y261535D01*
X59670Y261544D01*
X59535Y261574D01*
X59400Y261609D01*
X59372Y261611D01*
X59360Y261614D01*
X59340Y261613D01*
X59240Y261619D01*
X-95250Y261619D01*
X-95368Y261604D01*
X-95487Y261597D01*
X-95525Y261584D01*
X-95566Y261579D01*
X-95676Y261536D01*
X-95789Y261499D01*
X-95824Y261477D01*
X-95861Y261462D01*
X-95957Y261393D01*
X-96058Y261329D01*
X-96086Y261299D01*
X-96119Y261276D01*
X-96195Y261184D01*
X-96276Y261097D01*
X-96296Y261062D01*
X-96321Y261031D01*
X-96372Y260923D01*
X-96430Y260819D01*
X-96440Y260779D01*
X-96457Y260743D01*
X-96479Y260626D01*
X-96509Y260511D01*
X-96513Y260451D01*
X-96517Y260431D01*
X-96515Y260410D01*
X-96519Y260350D01*
X-96519Y215900D01*
X-96504Y215782D01*
X-96497Y215663D01*
X-96484Y215625D01*
X-96479Y215584D01*
X-96436Y215474D01*
X-96399Y215361D01*
X-96377Y215326D01*
X-96362Y215289D01*
X-96293Y215193D01*
X-96229Y215092D01*
X-96199Y215064D01*
X-96176Y215031D01*
X-96084Y214956D01*
X-95997Y214874D01*
X-95962Y214854D01*
X-95931Y214829D01*
X-95823Y214778D01*
X-95719Y214720D01*
X-95679Y214710D01*
X-95643Y214693D01*
X-95526Y214671D01*
X-95411Y214641D01*
X-95351Y214637D01*
X-95331Y214633D01*
X-95310Y214635D01*
X-95250Y214631D01*
X-87122Y214631D01*
X-87004Y214646D01*
X-86885Y214653D01*
X-86847Y214666D01*
X-86806Y214671D01*
X-86696Y214714D01*
X-86583Y214751D01*
X-86548Y214773D01*
X-86511Y214788D01*
X-86415Y214858D01*
X-86314Y214921D01*
X-86286Y214951D01*
X-86253Y214974D01*
X-86177Y215066D01*
X-86096Y215153D01*
X-86076Y215188D01*
X-86051Y215219D01*
X-86000Y215327D01*
X-85942Y215431D01*
X-85932Y215471D01*
X-85915Y215507D01*
X-85893Y215624D01*
X-85863Y215739D01*
X-85859Y215800D01*
X-85855Y215820D01*
X-85857Y215840D01*
X-85853Y215900D01*
X-85853Y218085D01*
X-85865Y218183D01*
X-85868Y218282D01*
X-85885Y218341D01*
X-85893Y218401D01*
X-85929Y218493D01*
X-85957Y218588D01*
X-85987Y218640D01*
X-86010Y218696D01*
X-86068Y218777D01*
X-86118Y218862D01*
X-86184Y218937D01*
X-86196Y218954D01*
X-86206Y218962D01*
X-86224Y218983D01*
X-90361Y223119D01*
X-90361Y230906D01*
X-84856Y236411D01*
X-77069Y236411D01*
X-71564Y230906D01*
X-71564Y223119D01*
X-77069Y217614D01*
X-77978Y217614D01*
X-78096Y217599D01*
X-78215Y217591D01*
X-78253Y217579D01*
X-78294Y217574D01*
X-78404Y217530D01*
X-78517Y217493D01*
X-78552Y217472D01*
X-78589Y217457D01*
X-78685Y217387D01*
X-78786Y217323D01*
X-78814Y217294D01*
X-78847Y217270D01*
X-78923Y217178D01*
X-79004Y217092D01*
X-79024Y217056D01*
X-79049Y217025D01*
X-79100Y216917D01*
X-79158Y216813D01*
X-79168Y216774D01*
X-79185Y216737D01*
X-79207Y216621D01*
X-79237Y216505D01*
X-79241Y216445D01*
X-79245Y216425D01*
X-79243Y216405D01*
X-79247Y216345D01*
X-79247Y215900D01*
X-79232Y215782D01*
X-79225Y215663D01*
X-79212Y215625D01*
X-79207Y215584D01*
X-79164Y215474D01*
X-79127Y215361D01*
X-79105Y215326D01*
X-79090Y215289D01*
X-79021Y215193D01*
X-78957Y215092D01*
X-78927Y215064D01*
X-78904Y215031D01*
X-78812Y214956D01*
X-78725Y214874D01*
X-78690Y214854D01*
X-78659Y214829D01*
X-78551Y214778D01*
X-78447Y214720D01*
X-78407Y214710D01*
X-78371Y214693D01*
X-78254Y214671D01*
X-78139Y214641D01*
X-78079Y214637D01*
X-78059Y214633D01*
X-78038Y214635D01*
X-77978Y214631D01*
X-72834Y214631D01*
X-72716Y214646D01*
X-72598Y214653D01*
X-72559Y214666D01*
X-72519Y214671D01*
X-72408Y214714D01*
X-72295Y214751D01*
X-72261Y214773D01*
X-72223Y214788D01*
X-72127Y214858D01*
X-72026Y214921D01*
X-71999Y214951D01*
X-71966Y214974D01*
X-71890Y215066D01*
X-71808Y215153D01*
X-71789Y215188D01*
X-71763Y215219D01*
X-71712Y215327D01*
X-71655Y215431D01*
X-71645Y215471D01*
X-71628Y215507D01*
X-71605Y215624D01*
X-71599Y215646D01*
X-69259Y217987D01*
X-65333Y221913D01*
X-65272Y221991D01*
X-65204Y222063D01*
X-65175Y222116D01*
X-65138Y222164D01*
X-65099Y222255D01*
X-65051Y222342D01*
X-65036Y222400D01*
X-65012Y222456D01*
X-64996Y222554D01*
X-64971Y222650D01*
X-64965Y222750D01*
X-64962Y222770D01*
X-64963Y222782D01*
X-64961Y222810D01*
X-64961Y230906D01*
X-59456Y236411D01*
X-51669Y236411D01*
X-46164Y230906D01*
X-46164Y228700D01*
X-46146Y228562D01*
X-46133Y228424D01*
X-46126Y228405D01*
X-46124Y228385D01*
X-46073Y228255D01*
X-46026Y228124D01*
X-46014Y228108D01*
X-46007Y228089D01*
X-45925Y227977D01*
X-45847Y227861D01*
X-45832Y227848D01*
X-45820Y227832D01*
X-45713Y227743D01*
X-45609Y227651D01*
X-45591Y227642D01*
X-45575Y227629D01*
X-45450Y227570D01*
X-45325Y227506D01*
X-45306Y227502D01*
X-45287Y227493D01*
X-45151Y227467D01*
X-45015Y227437D01*
X-44995Y227437D01*
X-44975Y227433D01*
X-44836Y227442D01*
X-44697Y227446D01*
X-44678Y227452D01*
X-44658Y227453D01*
X-44525Y227496D01*
X-44392Y227535D01*
X-44374Y227545D01*
X-44355Y227551D01*
X-44238Y227626D01*
X-44118Y227696D01*
X-44097Y227715D01*
X-44086Y227721D01*
X-44072Y227736D01*
X-43997Y227803D01*
X-43791Y228009D01*
X-41484Y230315D01*
X-40677Y230315D01*
X-40579Y230328D01*
X-40480Y230331D01*
X-40422Y230347D01*
X-40362Y230355D01*
X-40270Y230392D01*
X-40175Y230419D01*
X-40122Y230450D01*
X-40066Y230472D01*
X-39986Y230530D01*
X-39901Y230581D01*
X-39825Y230647D01*
X-39809Y230659D01*
X-39801Y230668D01*
X-39780Y230687D01*
X-34056Y236411D01*
X-26269Y236411D01*
X-20764Y230906D01*
X-20764Y228700D01*
X-20746Y228563D01*
X-20733Y228424D01*
X-20726Y228405D01*
X-20724Y228385D01*
X-20673Y228256D01*
X-20626Y228125D01*
X-20614Y228108D01*
X-20607Y228089D01*
X-20525Y227976D01*
X-20447Y227861D01*
X-20432Y227848D01*
X-20420Y227832D01*
X-20313Y227743D01*
X-20209Y227651D01*
X-20191Y227642D01*
X-20175Y227629D01*
X-20049Y227570D01*
X-19925Y227506D01*
X-19906Y227502D01*
X-19887Y227493D01*
X-19751Y227467D01*
X-19615Y227437D01*
X-19595Y227437D01*
X-19575Y227433D01*
X-19437Y227442D01*
X-19297Y227446D01*
X-19278Y227452D01*
X-19258Y227453D01*
X-19126Y227496D01*
X-18992Y227535D01*
X-18974Y227545D01*
X-18955Y227551D01*
X-18837Y227626D01*
X-18718Y227696D01*
X-18697Y227715D01*
X-18686Y227721D01*
X-18672Y227736D01*
X-18597Y227803D01*
X-16084Y230315D01*
X-15277Y230315D01*
X-15179Y230328D01*
X-15080Y230331D01*
X-15022Y230347D01*
X-14962Y230355D01*
X-14870Y230392D01*
X-14775Y230419D01*
X-14722Y230450D01*
X-14666Y230472D01*
X-14586Y230530D01*
X-14501Y230581D01*
X-14425Y230647D01*
X-14409Y230659D01*
X-14401Y230668D01*
X-14380Y230687D01*
X-8656Y236411D01*
X-869Y236411D01*
X4636Y230906D01*
X4636Y223119D01*
X-869Y217614D01*
X-8656Y217614D01*
X-13152Y222111D01*
X-13247Y222184D01*
X-13336Y222262D01*
X-13372Y222281D01*
X-13404Y222306D01*
X-13513Y222353D01*
X-13619Y222407D01*
X-13658Y222416D01*
X-13696Y222432D01*
X-13813Y222451D01*
X-13929Y222477D01*
X-13970Y222475D01*
X-14010Y222482D01*
X-14128Y222471D01*
X-14247Y222467D01*
X-14286Y222456D01*
X-14326Y222452D01*
X-14439Y222412D01*
X-14553Y222379D01*
X-14587Y222358D01*
X-14626Y222344D01*
X-14724Y222277D01*
X-14827Y222217D01*
X-14872Y222177D01*
X-14889Y222166D01*
X-14902Y222151D01*
X-14947Y222111D01*
X-24270Y212788D01*
X-40778Y212788D01*
X-40876Y212775D01*
X-40975Y212772D01*
X-41034Y212756D01*
X-41094Y212748D01*
X-41186Y212711D01*
X-41281Y212684D01*
X-41333Y212653D01*
X-41389Y212631D01*
X-41469Y212573D01*
X-41555Y212522D01*
X-41630Y212456D01*
X-41647Y212444D01*
X-41655Y212435D01*
X-41676Y212416D01*
X-43760Y210332D01*
X-43821Y210253D01*
X-43889Y210181D01*
X-43918Y210128D01*
X-43955Y210080D01*
X-43994Y209989D01*
X-44042Y209903D01*
X-44057Y209844D01*
X-44081Y209789D01*
X-44097Y209691D01*
X-44122Y209595D01*
X-44128Y209495D01*
X-44131Y209475D01*
X-44130Y209462D01*
X-44132Y209434D01*
X-44132Y193675D01*
X-44117Y193557D01*
X-44109Y193438D01*
X-44097Y193400D01*
X-44092Y193359D01*
X-44048Y193249D01*
X-44011Y193136D01*
X-43990Y193101D01*
X-43975Y193064D01*
X-43905Y192968D01*
X-43841Y192867D01*
X-43812Y192839D01*
X-43788Y192806D01*
X-43696Y192731D01*
X-43610Y192649D01*
X-43574Y192629D01*
X-43543Y192604D01*
X-43435Y192553D01*
X-43331Y192495D01*
X-43292Y192485D01*
X-43255Y192468D01*
X-43139Y192446D01*
X-43023Y192416D01*
X-42963Y192412D01*
X-42943Y192408D01*
X-42923Y192410D01*
X-42863Y192406D01*
X-20748Y192406D01*
X-20630Y192421D01*
X-20511Y192428D01*
X-20473Y192441D01*
X-20432Y192446D01*
X-20322Y192489D01*
X-20209Y192526D01*
X-20174Y192548D01*
X-20137Y192563D01*
X-20041Y192633D01*
X-19940Y192696D01*
X-19912Y192726D01*
X-19879Y192749D01*
X-19803Y192841D01*
X-19722Y192928D01*
X-19702Y192963D01*
X-19677Y192994D01*
X-19626Y193102D01*
X-19568Y193206D01*
X-19558Y193246D01*
X-19541Y193282D01*
X-19519Y193399D01*
X-19489Y193514D01*
X-19485Y193575D01*
X-19481Y193595D01*
X-19483Y193615D01*
X-19479Y193675D01*
X-19479Y199349D01*
X-18437Y200391D01*
X2562Y200391D01*
X3604Y199349D01*
X3604Y194397D01*
X3619Y194279D01*
X3626Y194160D01*
X3639Y194122D01*
X3644Y194081D01*
X3687Y193971D01*
X3724Y193858D01*
X3746Y193823D01*
X3761Y193786D01*
X3830Y193690D01*
X3894Y193589D01*
X3924Y193561D01*
X3947Y193528D01*
X4039Y193452D01*
X4126Y193371D01*
X4161Y193351D01*
X4192Y193326D01*
X4300Y193275D01*
X4404Y193217D01*
X4444Y193207D01*
X4480Y193190D01*
X4597Y193168D01*
X4712Y193138D01*
X4772Y193134D01*
X4792Y193130D01*
X4813Y193132D01*
X4873Y193128D01*
X10938Y193128D01*
X10971Y193097D01*
X11024Y193068D01*
X11071Y193031D01*
X11162Y192991D01*
X11249Y192943D01*
X11308Y192928D01*
X11363Y192904D01*
X11461Y192889D01*
X11557Y192864D01*
X11657Y192858D01*
X11677Y192854D01*
X11690Y192856D01*
X11718Y192854D01*
X12787Y192854D01*
X12863Y192778D01*
X12941Y192717D01*
X13013Y192649D01*
X13066Y192620D01*
X13114Y192583D01*
X13166Y192560D01*
X13175Y192537D01*
X13233Y192457D01*
X13284Y192371D01*
X13350Y192296D01*
X13362Y192279D01*
X13371Y192272D01*
X13390Y192250D01*
X13829Y191812D01*
X13829Y177838D01*
X13390Y177400D01*
X13329Y177321D01*
X13261Y177249D01*
X13232Y177196D01*
X13195Y177148D01*
X13156Y177057D01*
X13108Y176971D01*
X13093Y176912D01*
X13069Y176856D01*
X13053Y176758D01*
X13028Y176663D01*
X13022Y176563D01*
X13019Y176542D01*
X13020Y176530D01*
X13018Y176502D01*
X13018Y161925D01*
X13033Y161807D01*
X13041Y161688D01*
X13053Y161650D01*
X13058Y161609D01*
X13102Y161499D01*
X13139Y161386D01*
X13160Y161351D01*
X13175Y161314D01*
X13245Y161218D01*
X13309Y161117D01*
X13338Y161089D01*
X13362Y161056D01*
X13454Y160981D01*
X13540Y160899D01*
X13576Y160879D01*
X13607Y160854D01*
X13715Y160803D01*
X13819Y160745D01*
X13858Y160735D01*
X13895Y160718D01*
X14011Y160696D01*
X14127Y160666D01*
X14187Y160662D01*
X14207Y160658D01*
X14227Y160660D01*
X14288Y160656D01*
X56624Y160656D01*
X59056Y158224D01*
X59056Y109538D01*
X59071Y109419D01*
X59078Y109301D01*
X59091Y109262D01*
X59096Y109222D01*
X59139Y109111D01*
X59176Y108998D01*
X59198Y108964D01*
X59213Y108926D01*
X59283Y108830D01*
X59346Y108729D01*
X59376Y108702D01*
X59399Y108669D01*
X59491Y108593D01*
X59578Y108511D01*
X59613Y108492D01*
X59644Y108466D01*
X59752Y108415D01*
X59856Y108358D01*
X59896Y108348D01*
X59932Y108331D01*
X60049Y108308D01*
X60164Y108278D01*
X60225Y108275D01*
X60245Y108271D01*
X60265Y108272D01*
X60325Y108268D01*
X71438Y108268D01*
X71556Y108283D01*
G37*
G36*
X-39522Y42828D02*
X-39522Y42828D01*
X-39495Y42826D01*
X-39321Y42848D01*
X-39148Y42866D01*
X-39123Y42873D01*
X-39096Y42877D01*
X-38930Y42932D01*
X-38763Y42984D01*
X-38740Y42997D01*
X-38714Y43005D01*
X-38563Y43092D01*
X-38409Y43176D01*
X-38389Y43193D01*
X-38365Y43206D01*
X-38112Y43421D01*
X-33262Y48271D01*
X-33250Y48285D01*
X-33237Y48297D01*
X-33123Y48441D01*
X-33007Y48583D01*
X-32998Y48599D01*
X-32987Y48613D01*
X-32904Y48776D01*
X-32818Y48939D01*
X-32813Y48956D01*
X-32805Y48972D01*
X-32755Y49149D01*
X-32703Y49325D01*
X-32701Y49342D01*
X-32697Y49360D01*
X-32683Y49543D01*
X-32667Y49726D01*
X-32669Y49743D01*
X-32667Y49761D01*
X-32690Y49941D01*
X-32710Y50126D01*
X-32716Y50143D01*
X-32718Y50161D01*
X-32776Y50333D01*
X-32832Y50510D01*
X-32840Y50525D01*
X-32846Y50542D01*
X-32937Y50701D01*
X-33026Y50862D01*
X-33038Y50876D01*
X-33047Y50891D01*
X-33262Y51144D01*
X-33731Y51613D01*
X-33731Y56313D01*
X-33733Y56331D01*
X-33731Y56349D01*
X-33752Y56531D01*
X-33771Y56714D01*
X-33776Y56731D01*
X-33778Y56748D01*
X-33835Y56923D01*
X-33889Y57099D01*
X-33897Y57114D01*
X-33903Y57131D01*
X-33993Y57291D01*
X-34081Y57453D01*
X-34092Y57466D01*
X-34101Y57482D01*
X-34221Y57621D01*
X-34338Y57762D01*
X-34352Y57773D01*
X-34364Y57787D01*
X-34509Y57899D01*
X-34652Y58014D01*
X-34668Y58022D01*
X-34682Y58033D01*
X-34847Y58115D01*
X-35009Y58200D01*
X-35026Y58205D01*
X-35042Y58213D01*
X-35221Y58260D01*
X-35396Y58311D01*
X-35414Y58313D01*
X-35431Y58317D01*
X-35762Y58344D01*
X-40967Y58344D01*
X-40973Y58345D01*
X-40990Y58350D01*
X-41174Y58363D01*
X-41356Y58380D01*
X-41374Y58378D01*
X-41392Y58379D01*
X-41574Y58356D01*
X-41756Y58336D01*
X-41773Y58331D01*
X-41791Y58329D01*
X-41965Y58270D01*
X-42140Y58215D01*
X-42156Y58206D01*
X-42173Y58200D01*
X-42332Y58109D01*
X-42492Y58020D01*
X-42506Y58009D01*
X-42522Y58000D01*
X-42775Y57785D01*
X-46432Y54128D01*
X-49016Y54128D01*
X-49039Y54126D01*
X-49061Y54128D01*
X-49239Y54106D01*
X-49417Y54088D01*
X-49438Y54082D01*
X-49461Y54079D01*
X-49631Y54023D01*
X-49802Y53970D01*
X-49822Y53960D01*
X-49843Y53953D01*
X-49998Y53864D01*
X-50156Y53778D01*
X-50173Y53764D01*
X-50193Y53753D01*
X-50328Y53635D01*
X-50465Y53521D01*
X-50479Y53503D01*
X-50496Y53489D01*
X-50605Y53347D01*
X-50718Y53207D01*
X-50728Y53187D01*
X-50741Y53169D01*
X-50826Y53004D01*
X-52413Y51418D01*
X-54456Y50571D01*
X-56669Y50571D01*
X-58712Y51418D01*
X-60277Y52982D01*
X-61048Y54845D01*
X-61059Y54864D01*
X-61066Y54886D01*
X-61154Y55042D01*
X-61238Y55200D01*
X-61253Y55217D01*
X-61263Y55236D01*
X-61380Y55371D01*
X-61495Y55510D01*
X-61512Y55524D01*
X-61527Y55541D01*
X-61668Y55651D01*
X-61807Y55764D01*
X-61827Y55774D01*
X-61845Y55788D01*
X-62005Y55867D01*
X-62164Y55951D01*
X-62185Y55957D01*
X-62205Y55967D01*
X-62379Y56014D01*
X-62550Y56064D01*
X-62572Y56066D01*
X-62594Y56071D01*
X-62925Y56099D01*
X-64353Y56099D01*
X-66397Y56945D01*
X-67961Y58509D01*
X-68808Y60553D01*
X-68808Y62765D01*
X-67961Y64809D01*
X-66397Y66373D01*
X-65548Y66725D01*
X-65547Y66725D01*
X-64353Y67220D01*
X-62141Y67220D01*
X-60821Y66673D01*
X-60791Y66664D01*
X-60763Y66650D01*
X-60599Y66606D01*
X-60436Y66557D01*
X-60404Y66554D01*
X-60374Y66546D01*
X-60044Y66519D01*
X-53106Y66519D01*
X-53080Y66521D01*
X-53053Y66519D01*
X-52879Y66541D01*
X-52706Y66559D01*
X-52680Y66566D01*
X-52653Y66570D01*
X-52488Y66625D01*
X-52321Y66677D01*
X-52297Y66690D01*
X-52272Y66698D01*
X-52121Y66785D01*
X-51967Y66869D01*
X-51946Y66886D01*
X-51923Y66899D01*
X-51670Y67114D01*
X-47988Y70795D01*
X-47980Y70806D01*
X-47970Y70814D01*
X-47853Y70961D01*
X-47733Y71107D01*
X-47727Y71119D01*
X-47719Y71129D01*
X-47633Y71296D01*
X-47545Y71462D01*
X-47541Y71475D01*
X-47535Y71487D01*
X-47484Y71667D01*
X-47430Y71848D01*
X-47429Y71862D01*
X-47425Y71875D01*
X-47411Y72060D01*
X-47394Y72249D01*
X-47395Y72263D01*
X-47394Y72276D01*
X-47416Y72461D01*
X-47437Y72649D01*
X-47441Y72662D01*
X-47443Y72676D01*
X-47501Y72853D01*
X-47558Y73033D01*
X-47565Y73045D01*
X-47569Y73058D01*
X-47662Y73221D01*
X-47753Y73386D01*
X-47762Y73396D01*
X-47769Y73408D01*
X-47892Y73549D01*
X-48014Y73693D01*
X-48024Y73701D01*
X-48033Y73711D01*
X-48183Y73826D01*
X-48330Y73942D01*
X-48342Y73948D01*
X-48352Y73957D01*
X-48392Y73977D01*
X-49999Y75584D01*
X-50846Y77628D01*
X-50846Y79207D01*
X-50847Y79220D01*
X-50846Y79234D01*
X-50867Y79420D01*
X-50886Y79608D01*
X-50890Y79620D01*
X-50891Y79634D01*
X-50949Y79813D01*
X-51004Y79992D01*
X-51010Y80004D01*
X-51014Y80017D01*
X-51106Y80181D01*
X-51196Y80347D01*
X-51204Y80357D01*
X-51211Y80369D01*
X-51333Y80511D01*
X-51453Y80656D01*
X-51464Y80664D01*
X-51472Y80674D01*
X-51621Y80790D01*
X-51767Y80908D01*
X-51779Y80914D01*
X-51789Y80923D01*
X-51959Y81008D01*
X-52124Y81094D01*
X-52137Y81097D01*
X-52149Y81103D01*
X-52331Y81153D01*
X-52511Y81205D01*
X-52525Y81206D01*
X-52538Y81210D01*
X-52724Y81222D01*
X-52913Y81238D01*
X-52926Y81236D01*
X-52939Y81237D01*
X-53125Y81213D01*
X-53312Y81191D01*
X-53325Y81187D01*
X-53338Y81185D01*
X-53654Y81084D01*
X-54179Y80866D01*
X-56391Y80866D01*
X-58435Y81713D01*
X-59999Y83277D01*
X-60846Y85321D01*
X-60846Y87533D01*
X-59999Y89577D01*
X-59822Y89754D01*
X-59811Y89768D01*
X-59797Y89780D01*
X-59683Y89924D01*
X-59567Y90066D01*
X-59558Y90082D01*
X-59547Y90096D01*
X-59464Y90259D01*
X-59378Y90421D01*
X-59373Y90439D01*
X-59365Y90454D01*
X-59316Y90631D01*
X-59263Y90807D01*
X-59262Y90825D01*
X-59257Y90842D01*
X-59243Y91026D01*
X-59227Y91208D01*
X-59229Y91226D01*
X-59228Y91244D01*
X-59251Y91426D01*
X-59270Y91609D01*
X-59276Y91626D01*
X-59278Y91643D01*
X-59337Y91818D01*
X-59392Y91992D01*
X-59400Y92008D01*
X-59406Y92025D01*
X-59498Y92185D01*
X-59587Y92345D01*
X-59598Y92358D01*
X-59607Y92374D01*
X-59822Y92627D01*
X-59969Y92774D01*
X-60816Y94818D01*
X-60816Y97030D01*
X-59969Y99074D01*
X-58405Y100638D01*
X-56361Y101485D01*
X-54149Y101485D01*
X-52416Y100767D01*
X-52395Y100761D01*
X-52375Y100750D01*
X-52202Y100702D01*
X-52031Y100651D01*
X-52008Y100648D01*
X-51987Y100642D01*
X-51808Y100629D01*
X-51630Y100612D01*
X-51608Y100615D01*
X-51585Y100613D01*
X-51407Y100636D01*
X-51229Y100654D01*
X-51208Y100661D01*
X-51186Y100663D01*
X-51016Y100720D01*
X-50845Y100774D01*
X-50825Y100785D01*
X-50804Y100792D01*
X-50649Y100881D01*
X-50492Y100967D01*
X-50475Y100981D01*
X-50455Y100993D01*
X-50202Y101207D01*
X-46704Y104706D01*
X-44612Y104706D01*
X-44603Y104707D01*
X-44594Y104706D01*
X-44402Y104727D01*
X-44211Y104746D01*
X-44203Y104748D01*
X-44194Y104749D01*
X-44012Y104807D01*
X-43826Y104864D01*
X-43818Y104868D01*
X-43810Y104871D01*
X-43642Y104964D01*
X-43472Y105056D01*
X-43465Y105061D01*
X-43458Y105066D01*
X-43311Y105190D01*
X-43163Y105313D01*
X-43157Y105320D01*
X-43151Y105326D01*
X-43032Y105477D01*
X-42911Y105627D01*
X-42907Y105635D01*
X-42901Y105642D01*
X-42813Y105815D01*
X-42725Y105984D01*
X-42723Y105993D01*
X-42719Y106001D01*
X-42667Y106187D01*
X-42614Y106371D01*
X-42613Y106380D01*
X-42611Y106389D01*
X-42597Y106582D01*
X-42581Y106773D01*
X-42582Y106781D01*
X-42581Y106790D01*
X-42606Y106983D01*
X-42628Y107172D01*
X-42631Y107181D01*
X-42632Y107190D01*
X-42693Y107373D01*
X-42753Y107555D01*
X-42757Y107563D01*
X-42760Y107571D01*
X-42856Y107738D01*
X-42951Y107906D01*
X-42956Y107913D01*
X-42961Y107920D01*
X-43176Y108173D01*
X-48861Y113858D01*
X-48881Y113875D01*
X-48899Y113896D01*
X-49037Y114003D01*
X-49172Y114113D01*
X-49196Y114126D01*
X-49217Y114142D01*
X-49374Y114220D01*
X-49528Y114302D01*
X-49553Y114310D01*
X-49577Y114322D01*
X-49747Y114367D01*
X-49914Y114417D01*
X-49940Y114419D01*
X-49966Y114426D01*
X-50297Y114453D01*
X-76136Y114453D01*
X-76149Y114452D01*
X-76162Y114453D01*
X-76348Y114432D01*
X-76536Y114413D01*
X-76549Y114409D01*
X-76562Y114408D01*
X-76741Y114350D01*
X-76921Y114295D01*
X-76933Y114289D01*
X-76946Y114285D01*
X-77110Y114193D01*
X-77275Y114103D01*
X-77285Y114095D01*
X-77297Y114088D01*
X-77440Y113966D01*
X-77584Y113846D01*
X-77593Y113835D01*
X-77603Y113827D01*
X-77719Y113678D01*
X-77837Y113532D01*
X-77843Y113520D01*
X-77851Y113510D01*
X-77936Y113341D01*
X-78022Y113175D01*
X-78026Y113162D01*
X-78032Y113150D01*
X-78082Y112969D01*
X-78134Y112788D01*
X-78135Y112774D01*
X-78138Y112761D01*
X-78151Y112573D01*
X-78167Y112386D01*
X-78165Y112373D01*
X-78166Y112360D01*
X-78141Y112172D01*
X-78120Y111987D01*
X-78115Y111974D01*
X-78114Y111961D01*
X-78012Y111645D01*
X-77914Y111407D01*
X-77914Y107668D01*
X-79345Y104214D01*
X-81989Y101570D01*
X-83507Y100940D01*
X-83508Y100940D01*
X-85443Y100139D01*
X-89182Y100139D01*
X-92636Y101570D01*
X-95280Y104214D01*
X-96711Y107668D01*
X-96711Y111407D01*
X-95280Y114861D01*
X-92636Y117505D01*
X-89182Y118936D01*
X-85443Y118936D01*
X-84676Y118618D01*
X-84654Y118612D01*
X-84634Y118602D01*
X-84462Y118554D01*
X-84290Y118502D01*
X-84268Y118500D01*
X-84247Y118494D01*
X-84067Y118481D01*
X-83889Y118464D01*
X-83867Y118466D01*
X-83845Y118464D01*
X-83666Y118487D01*
X-83489Y118505D01*
X-83468Y118512D01*
X-83446Y118515D01*
X-83275Y118572D01*
X-83105Y118625D01*
X-83085Y118636D01*
X-83064Y118643D01*
X-82908Y118733D01*
X-82751Y118819D01*
X-82734Y118833D01*
X-82715Y118844D01*
X-82462Y119059D01*
X-80462Y121059D01*
X-70783Y121059D01*
X-70775Y121060D01*
X-70766Y121059D01*
X-70572Y121080D01*
X-70383Y121099D01*
X-70374Y121101D01*
X-70365Y121102D01*
X-70181Y121161D01*
X-69998Y121217D01*
X-69990Y121221D01*
X-69981Y121224D01*
X-69813Y121317D01*
X-69644Y121409D01*
X-69637Y121414D01*
X-69629Y121419D01*
X-69482Y121543D01*
X-69335Y121666D01*
X-69329Y121673D01*
X-69322Y121679D01*
X-69202Y121831D01*
X-69082Y121980D01*
X-69078Y121988D01*
X-69073Y121995D01*
X-68985Y122168D01*
X-68897Y122337D01*
X-68894Y122346D01*
X-68890Y122354D01*
X-68838Y122540D01*
X-68785Y122724D01*
X-68785Y122733D01*
X-68782Y122742D01*
X-68768Y122935D01*
X-68752Y123126D01*
X-68753Y123134D01*
X-68753Y123143D01*
X-68777Y123336D01*
X-68799Y123525D01*
X-68802Y123534D01*
X-68803Y123543D01*
X-68864Y123725D01*
X-68924Y123908D01*
X-68929Y123916D01*
X-68931Y123924D01*
X-69028Y124091D01*
X-69122Y124259D01*
X-69128Y124266D01*
X-69132Y124273D01*
X-69347Y124526D01*
X-75757Y130936D01*
X-75767Y130945D01*
X-75776Y130955D01*
X-75923Y131072D01*
X-76068Y131191D01*
X-76080Y131197D01*
X-76091Y131206D01*
X-76258Y131292D01*
X-76424Y131380D01*
X-76437Y131384D01*
X-76449Y131390D01*
X-76629Y131441D01*
X-76810Y131495D01*
X-76823Y131496D01*
X-76836Y131499D01*
X-77022Y131514D01*
X-77211Y131531D01*
X-77224Y131529D01*
X-77238Y131531D01*
X-77422Y131508D01*
X-77611Y131488D01*
X-77624Y131483D01*
X-77637Y131482D01*
X-77814Y131423D01*
X-77995Y131366D01*
X-78007Y131359D01*
X-78019Y131355D01*
X-78182Y131262D01*
X-78347Y131171D01*
X-78358Y131163D01*
X-78369Y131156D01*
X-78511Y131032D01*
X-78654Y130911D01*
X-78663Y130900D01*
X-78673Y130891D01*
X-78787Y130743D01*
X-78904Y130595D01*
X-78910Y130583D01*
X-78918Y130572D01*
X-79070Y130277D01*
X-79345Y129614D01*
X-81989Y126970D01*
X-85443Y125539D01*
X-89182Y125539D01*
X-92636Y126970D01*
X-95280Y129614D01*
X-95707Y130642D01*
X-95717Y130662D01*
X-95724Y130683D01*
X-95812Y130839D01*
X-95897Y130997D01*
X-95911Y131014D01*
X-95922Y131034D01*
X-96039Y131169D01*
X-96153Y131308D01*
X-96170Y131322D01*
X-96185Y131339D01*
X-96326Y131448D01*
X-96466Y131561D01*
X-96486Y131572D01*
X-96503Y131585D01*
X-96664Y131665D01*
X-96822Y131748D01*
X-96844Y131755D01*
X-96864Y131765D01*
X-97037Y131811D01*
X-97209Y131861D01*
X-97231Y131863D01*
X-97252Y131869D01*
X-97583Y131896D01*
X-109424Y131896D01*
X-110466Y132938D01*
X-110466Y144412D01*
X-109424Y145454D01*
X-97449Y145454D01*
X-97441Y145455D01*
X-97432Y145454D01*
X-97240Y145475D01*
X-97049Y145494D01*
X-97040Y145496D01*
X-97031Y145497D01*
X-96849Y145555D01*
X-96664Y145612D01*
X-96656Y145616D01*
X-96648Y145619D01*
X-96479Y145712D01*
X-96310Y145804D01*
X-96303Y145809D01*
X-96295Y145814D01*
X-96148Y145938D01*
X-96001Y146061D01*
X-95995Y146068D01*
X-95988Y146074D01*
X-95869Y146225D01*
X-95748Y146375D01*
X-95744Y146383D01*
X-95739Y146390D01*
X-95651Y146563D01*
X-95563Y146732D01*
X-95560Y146741D01*
X-95556Y146749D01*
X-95504Y146935D01*
X-95451Y147119D01*
X-95451Y147128D01*
X-95448Y147137D01*
X-95434Y147330D01*
X-95418Y147521D01*
X-95420Y147529D01*
X-95419Y147538D01*
X-95443Y147731D01*
X-95465Y147920D01*
X-95468Y147929D01*
X-95469Y147938D01*
X-95531Y148121D01*
X-95590Y148303D01*
X-95595Y148311D01*
X-95597Y148319D01*
X-95693Y148485D01*
X-95788Y148654D01*
X-95794Y148661D01*
X-95798Y148668D01*
X-96013Y148921D01*
X-99008Y151916D01*
X-101537Y154445D01*
X-101537Y165164D01*
X-101539Y165181D01*
X-101538Y165199D01*
X-101559Y165381D01*
X-101577Y165564D01*
X-101582Y165581D01*
X-101584Y165599D01*
X-101641Y165773D01*
X-101695Y165949D01*
X-101704Y165965D01*
X-101709Y165982D01*
X-101800Y166142D01*
X-101887Y166303D01*
X-101898Y166317D01*
X-101907Y166332D01*
X-102027Y166472D01*
X-102145Y166612D01*
X-102159Y166624D01*
X-102170Y166637D01*
X-102315Y166750D01*
X-102459Y166865D01*
X-102474Y166873D01*
X-102488Y166884D01*
X-102653Y166966D01*
X-102816Y167050D01*
X-102833Y167055D01*
X-102849Y167063D01*
X-103027Y167111D01*
X-103203Y167162D01*
X-103221Y167163D01*
X-103238Y167168D01*
X-103568Y167195D01*
X-127384Y167195D01*
X-129531Y168084D01*
X-131175Y169728D01*
X-132064Y171875D01*
X-132064Y174200D01*
X-131175Y176347D01*
X-129531Y177991D01*
X-127384Y178880D01*
X-102879Y178880D01*
X-100731Y177991D01*
X-99088Y176347D01*
X-98163Y174113D01*
X-98158Y174072D01*
X-98156Y174063D01*
X-98155Y174054D01*
X-98096Y173870D01*
X-98040Y173687D01*
X-98036Y173679D01*
X-98033Y173671D01*
X-97940Y173502D01*
X-97848Y173333D01*
X-97843Y173326D01*
X-97838Y173318D01*
X-97714Y173171D01*
X-97591Y173024D01*
X-97584Y173018D01*
X-97578Y173011D01*
X-97426Y172891D01*
X-97277Y172771D01*
X-97269Y172767D01*
X-97262Y172762D01*
X-97089Y172674D01*
X-96920Y172586D01*
X-96911Y172583D01*
X-96903Y172579D01*
X-96717Y172527D01*
X-96533Y172474D01*
X-96524Y172474D01*
X-96515Y172471D01*
X-96322Y172457D01*
X-96131Y172441D01*
X-96123Y172443D01*
X-96114Y172442D01*
X-95921Y172466D01*
X-95732Y172488D01*
X-95723Y172491D01*
X-95714Y172492D01*
X-95532Y172553D01*
X-95349Y172613D01*
X-95341Y172618D01*
X-95333Y172620D01*
X-95166Y172717D01*
X-94998Y172811D01*
X-94991Y172817D01*
X-94984Y172821D01*
X-94731Y173036D01*
X-88076Y179691D01*
X-88070Y179698D01*
X-88063Y179704D01*
X-87943Y179853D01*
X-87821Y180003D01*
X-87816Y180011D01*
X-87811Y180018D01*
X-87722Y180189D01*
X-87632Y180358D01*
X-87629Y180367D01*
X-87625Y180375D01*
X-87572Y180560D01*
X-87517Y180744D01*
X-87516Y180753D01*
X-87514Y180762D01*
X-87498Y180953D01*
X-87481Y181145D01*
X-87482Y181154D01*
X-87481Y181163D01*
X-87503Y181352D01*
X-87524Y181546D01*
X-87527Y181554D01*
X-87528Y181563D01*
X-87587Y181743D01*
X-87646Y181929D01*
X-87650Y181937D01*
X-87653Y181946D01*
X-87748Y182114D01*
X-87840Y182282D01*
X-87846Y182288D01*
X-87851Y182296D01*
X-87977Y182442D01*
X-88101Y182589D01*
X-88108Y182594D01*
X-88114Y182601D01*
X-88265Y182718D01*
X-88417Y182838D01*
X-88425Y182842D01*
X-88432Y182848D01*
X-88519Y182891D01*
X-89829Y184201D01*
X-89829Y195674D01*
X-88502Y197001D01*
X-88491Y197015D01*
X-88477Y197027D01*
X-88363Y197171D01*
X-88247Y197313D01*
X-88238Y197328D01*
X-88227Y197342D01*
X-88144Y197507D01*
X-88058Y197668D01*
X-88053Y197685D01*
X-88045Y197701D01*
X-87996Y197878D01*
X-87943Y198054D01*
X-87942Y198072D01*
X-87937Y198089D01*
X-87924Y198272D01*
X-87907Y198455D01*
X-87909Y198473D01*
X-87908Y198491D01*
X-87931Y198673D01*
X-87950Y198856D01*
X-87956Y198873D01*
X-87958Y198890D01*
X-88016Y199063D01*
X-88072Y199239D01*
X-88081Y199255D01*
X-88086Y199272D01*
X-88178Y199431D01*
X-88267Y199592D01*
X-88278Y199605D01*
X-88287Y199621D01*
X-88502Y199874D01*
X-89829Y201201D01*
X-89829Y210820D01*
X-89831Y210838D01*
X-89829Y210856D01*
X-89850Y211038D01*
X-89869Y211221D01*
X-89874Y211238D01*
X-89876Y211255D01*
X-89933Y211430D01*
X-89987Y211606D01*
X-89995Y211621D01*
X-90001Y211638D01*
X-90091Y211798D01*
X-90179Y211960D01*
X-90190Y211973D01*
X-90199Y211989D01*
X-90319Y212128D01*
X-90436Y212269D01*
X-90450Y212280D01*
X-90462Y212294D01*
X-90607Y212406D01*
X-90750Y212521D01*
X-90766Y212529D01*
X-90780Y212540D01*
X-90945Y212622D01*
X-91107Y212707D01*
X-91124Y212712D01*
X-91140Y212720D01*
X-91319Y212767D01*
X-91494Y212818D01*
X-91512Y212820D01*
X-91529Y212824D01*
X-91860Y212851D01*
X-96513Y212851D01*
X-98299Y214637D01*
X-98299Y215126D01*
X-98317Y215309D01*
X-98332Y215494D01*
X-98337Y215510D01*
X-98339Y215527D01*
X-98393Y215703D01*
X-98444Y215880D01*
X-98452Y215896D01*
X-98457Y215912D01*
X-98544Y216073D01*
X-98630Y216238D01*
X-98640Y216251D01*
X-98649Y216266D01*
X-98766Y216407D01*
X-98882Y216551D01*
X-98895Y216562D01*
X-98906Y216575D01*
X-99050Y216691D01*
X-99192Y216809D01*
X-99207Y216817D01*
X-99220Y216828D01*
X-99383Y216912D01*
X-99546Y217000D01*
X-99562Y217005D01*
X-99577Y217013D01*
X-99754Y217064D01*
X-99931Y217118D01*
X-99948Y217120D01*
X-99964Y217124D01*
X-100148Y217140D01*
X-100331Y217158D01*
X-100348Y217156D01*
X-100366Y217157D01*
X-100549Y217136D01*
X-100732Y217117D01*
X-100748Y217112D01*
X-100765Y217110D01*
X-100941Y217053D01*
X-101117Y216999D01*
X-101134Y216990D01*
X-101148Y216986D01*
X-101212Y216950D01*
X-101411Y216846D01*
X-101669Y216684D01*
X-101729Y216637D01*
X-101795Y216598D01*
X-101888Y216514D01*
X-101987Y216437D01*
X-102037Y216379D01*
X-102094Y216328D01*
X-102168Y216227D01*
X-102250Y216132D01*
X-102287Y216065D01*
X-102333Y216004D01*
X-102405Y215857D01*
X-102448Y215781D01*
X-102459Y215747D01*
X-102479Y215706D01*
X-102917Y214587D01*
X-102938Y214514D01*
X-102968Y214443D01*
X-102993Y214320D01*
X-103026Y214200D01*
X-103032Y214124D01*
X-103047Y214049D01*
X-103047Y213923D01*
X-103051Y213883D01*
X-103421Y213240D01*
X-103449Y213179D01*
X-103553Y212966D01*
X-103819Y212288D01*
X-103906Y212201D01*
X-104002Y212119D01*
X-104049Y212059D01*
X-104103Y212005D01*
X-104195Y211871D01*
X-104249Y211802D01*
X-104265Y211770D01*
X-104291Y211732D01*
X-104892Y210691D01*
X-104923Y210622D01*
X-104963Y210556D01*
X-105006Y210439D01*
X-105057Y210324D01*
X-105075Y210250D01*
X-105101Y210178D01*
X-105119Y210054D01*
X-105129Y210014D01*
X-105591Y209434D01*
X-105627Y209378D01*
X-105762Y209183D01*
X-106126Y208552D01*
X-106226Y208478D01*
X-106332Y208412D01*
X-106387Y208360D01*
X-106449Y208314D01*
X-106561Y208195D01*
X-106624Y208135D01*
X-106645Y208106D01*
X-106676Y208072D01*
X-107425Y207133D01*
X-107466Y207069D01*
X-107515Y207010D01*
X-107575Y206900D01*
X-107643Y206795D01*
X-107671Y206723D01*
X-107708Y206656D01*
X-107745Y206537D01*
X-107760Y206499D01*
X-108062Y206218D01*
X-108099Y206176D01*
X-108141Y206140D01*
X-108232Y206026D01*
X-108329Y205916D01*
X-108357Y205868D01*
X-108391Y205824D01*
X-108457Y205694D01*
X-108530Y205568D01*
X-108548Y205515D01*
X-108573Y205465D01*
X-108613Y205325D01*
X-108659Y205186D01*
X-108666Y205131D01*
X-108681Y205078D01*
X-108692Y204932D01*
X-108711Y204787D01*
X-108707Y204731D01*
X-108711Y204676D01*
X-108692Y204531D01*
X-108682Y204385D01*
X-108667Y204332D01*
X-108660Y204277D01*
X-108614Y204138D01*
X-108575Y203997D01*
X-108550Y203948D01*
X-108532Y203895D01*
X-108459Y203768D01*
X-108393Y203638D01*
X-108359Y203594D01*
X-108331Y203546D01*
X-108192Y203382D01*
X-108144Y203321D01*
X-108131Y203310D01*
X-108116Y203293D01*
X-106411Y201587D01*
X-105564Y199544D01*
X-105564Y197331D01*
X-106411Y195288D01*
X-107975Y193723D01*
X-110019Y192877D01*
X-112231Y192877D01*
X-114275Y193723D01*
X-115839Y195288D01*
X-116697Y197359D01*
X-116704Y197373D01*
X-116709Y197385D01*
X-116736Y197434D01*
X-116760Y197496D01*
X-116828Y197603D01*
X-116887Y197714D01*
X-116935Y197772D01*
X-116976Y197835D01*
X-117063Y197927D01*
X-117144Y198024D01*
X-117202Y198072D01*
X-117254Y198126D01*
X-117358Y198198D01*
X-117456Y198278D01*
X-117523Y198313D01*
X-117585Y198356D01*
X-117701Y198406D01*
X-117813Y198465D01*
X-117885Y198486D01*
X-117954Y198516D01*
X-118078Y198543D01*
X-118199Y198578D01*
X-118274Y198585D01*
X-118348Y198600D01*
X-118474Y198602D01*
X-118600Y198613D01*
X-118675Y198604D01*
X-118750Y198605D01*
X-118875Y198582D01*
X-119001Y198568D01*
X-119072Y198545D01*
X-119146Y198531D01*
X-119301Y198471D01*
X-119384Y198445D01*
X-119414Y198428D01*
X-119456Y198412D01*
X-119980Y198159D01*
X-120104Y198154D01*
X-120229Y198159D01*
X-120304Y198147D01*
X-120381Y198144D01*
X-120540Y198109D01*
X-120626Y198095D01*
X-120660Y198082D01*
X-120705Y198072D01*
X-121853Y197718D01*
X-121923Y197688D01*
X-121997Y197667D01*
X-122108Y197610D01*
X-122224Y197562D01*
X-122287Y197519D01*
X-122355Y197484D01*
X-122453Y197406D01*
X-122487Y197383D01*
X-123220Y197272D01*
X-123286Y197255D01*
X-123516Y197204D01*
X-124213Y196989D01*
X-124335Y197003D01*
X-124458Y197027D01*
X-124535Y197026D01*
X-124611Y197034D01*
X-124774Y197023D01*
X-124861Y197022D01*
X-124896Y197015D01*
X-124942Y197012D01*
X-126130Y196832D01*
X-126204Y196813D01*
X-126280Y196804D01*
X-126398Y196764D01*
X-126520Y196733D01*
X-126589Y196700D01*
X-126662Y196676D01*
X-126770Y196613D01*
X-126807Y196595D01*
X-127549Y196595D01*
X-127616Y196588D01*
X-127852Y196572D01*
X-128572Y196463D01*
X-128691Y196496D01*
X-128810Y196537D01*
X-128885Y196548D01*
X-128959Y196568D01*
X-129122Y196581D01*
X-129208Y196593D01*
X-129244Y196591D01*
X-129290Y196595D01*
X-130491Y196594D01*
X-130567Y196587D01*
X-130644Y196588D01*
X-130767Y196567D01*
X-130892Y196554D01*
X-130965Y196532D01*
X-131040Y196518D01*
X-131157Y196473D01*
X-131196Y196461D01*
X-131930Y196571D01*
X-131997Y196574D01*
X-132232Y196594D01*
X-132961Y196593D01*
X-133074Y196643D01*
X-133185Y196702D01*
X-133259Y196723D01*
X-133329Y196754D01*
X-133487Y196791D01*
X-133571Y196816D01*
X-133607Y196819D01*
X-133652Y196830D01*
X-134839Y197009D01*
X-134916Y197012D01*
X-134991Y197026D01*
X-135117Y197022D01*
X-135241Y197029D01*
X-135317Y197017D01*
X-135394Y197015D01*
X-135516Y196988D01*
X-135556Y196982D01*
X-136265Y197200D01*
X-136331Y197213D01*
X-136561Y197268D01*
X-137282Y197376D01*
X-137386Y197442D01*
X-137487Y197516D01*
X-137556Y197549D01*
X-137621Y197590D01*
X-137773Y197650D01*
X-137852Y197687D01*
X-137886Y197696D01*
X-137929Y197713D01*
X-139077Y198066D01*
X-139152Y198082D01*
X-139225Y198106D01*
X-139349Y198121D01*
X-139472Y198146D01*
X-139548Y198146D01*
X-139624Y198156D01*
X-139749Y198147D01*
X-139790Y198147D01*
X-140458Y198468D01*
X-140521Y198491D01*
X-140741Y198579D01*
X-141438Y198794D01*
X-141531Y198875D01*
X-141620Y198963D01*
X-141684Y199006D01*
X-141742Y199056D01*
X-141882Y199138D01*
X-141955Y199186D01*
X-141988Y199200D01*
X-142028Y199223D01*
X-142170Y199292D01*
X-142305Y199341D01*
X-142436Y199398D01*
X-142494Y199410D01*
X-142549Y199430D01*
X-142690Y199451D01*
X-142830Y199481D01*
X-142889Y199481D01*
X-142947Y199490D01*
X-143090Y199483D01*
X-143233Y199485D01*
X-143290Y199474D01*
X-143349Y199471D01*
X-143488Y199436D01*
X-143628Y199409D01*
X-143682Y199387D01*
X-143739Y199373D01*
X-143869Y199311D01*
X-144001Y199257D01*
X-144050Y199225D01*
X-144103Y199199D01*
X-144217Y199114D01*
X-144336Y199034D01*
X-144378Y198993D01*
X-144425Y198958D01*
X-144520Y198851D01*
X-144621Y198750D01*
X-144659Y198695D01*
X-144693Y198657D01*
X-144735Y198586D01*
X-144810Y198477D01*
X-162808Y167303D01*
X-163416Y167723D01*
X-163443Y167735D01*
X-163465Y167753D01*
X-163534Y167774D01*
X-163599Y167801D01*
X-163628Y167802D01*
X-163656Y167810D01*
X-163727Y167802D01*
X-163798Y167802D01*
X-163825Y167791D01*
X-163854Y167788D01*
X-163916Y167753D01*
X-163981Y167725D01*
X-164002Y167704D01*
X-164027Y167690D01*
X-164090Y167613D01*
X-164120Y167582D01*
X-164124Y167572D01*
X-164133Y167562D01*
X-173633Y151062D01*
X-173657Y150989D01*
X-173688Y150918D01*
X-173688Y150895D01*
X-173696Y150873D01*
X-173690Y150796D01*
X-173691Y150719D01*
X-173681Y150695D01*
X-173680Y150675D01*
X-173659Y150635D01*
X-173640Y150583D01*
X-173639Y150578D01*
X-173637Y150576D01*
X-173633Y150563D01*
X-164133Y134063D01*
X-164114Y134042D01*
X-164101Y134015D01*
X-164048Y133968D01*
X-164001Y133914D01*
X-163975Y133902D01*
X-163954Y133882D01*
X-163886Y133859D01*
X-163822Y133828D01*
X-163793Y133827D01*
X-163766Y133818D01*
X-163694Y133822D01*
X-163623Y133819D01*
X-163596Y133829D01*
X-163567Y133831D01*
X-163477Y133874D01*
X-163437Y133888D01*
X-163429Y133896D01*
X-163416Y133902D01*
X-162808Y134322D01*
X-144810Y103148D01*
X-144727Y103032D01*
X-144650Y102911D01*
X-144610Y102869D01*
X-144575Y102821D01*
X-144470Y102723D01*
X-144372Y102620D01*
X-144324Y102587D01*
X-144280Y102547D01*
X-144159Y102472D01*
X-144041Y102390D01*
X-143987Y102367D01*
X-143937Y102336D01*
X-143803Y102286D01*
X-143672Y102229D01*
X-143615Y102217D01*
X-143560Y102197D01*
X-143418Y102175D01*
X-143278Y102145D01*
X-143220Y102144D01*
X-143162Y102135D01*
X-143019Y102142D01*
X-142876Y102140D01*
X-142818Y102151D01*
X-142759Y102153D01*
X-142621Y102188D01*
X-142480Y102214D01*
X-142418Y102238D01*
X-142369Y102250D01*
X-142294Y102286D01*
X-142170Y102333D01*
X-142028Y102402D01*
X-141962Y102442D01*
X-141893Y102473D01*
X-141791Y102546D01*
X-141684Y102611D01*
X-141628Y102663D01*
X-141566Y102708D01*
X-141480Y102800D01*
X-141450Y102827D01*
X-140741Y103046D01*
X-140679Y103072D01*
X-140458Y103157D01*
X-139802Y103473D01*
X-139679Y103477D01*
X-139553Y103472D01*
X-139478Y103484D01*
X-139401Y103487D01*
X-139242Y103522D01*
X-139156Y103536D01*
X-139122Y103549D01*
X-139077Y103559D01*
X-137929Y103912D01*
X-137859Y103942D01*
X-137785Y103963D01*
X-137674Y104020D01*
X-137558Y104068D01*
X-137495Y104111D01*
X-137427Y104146D01*
X-137329Y104224D01*
X-137295Y104247D01*
X-136561Y104357D01*
X-136497Y104374D01*
X-136265Y104425D01*
X-135569Y104639D01*
X-135446Y104625D01*
X-135323Y104602D01*
X-135246Y104603D01*
X-135170Y104594D01*
X-135008Y104605D01*
X-134920Y104606D01*
X-134885Y104613D01*
X-134839Y104616D01*
X-133652Y104795D01*
X-133577Y104814D01*
X-133502Y104823D01*
X-133383Y104863D01*
X-133261Y104894D01*
X-133192Y104927D01*
X-133120Y104952D01*
X-133011Y105014D01*
X-132974Y105032D01*
X-132232Y105031D01*
X-132165Y105038D01*
X-131930Y105054D01*
X-131209Y105162D01*
X-131090Y105130D01*
X-130972Y105089D01*
X-130896Y105078D01*
X-130822Y105058D01*
X-130660Y105045D01*
X-130573Y105033D01*
X-130537Y105035D01*
X-130491Y105031D01*
X-129290Y105030D01*
X-129214Y105038D01*
X-129137Y105036D01*
X-129014Y105058D01*
X-128889Y105070D01*
X-128816Y105093D01*
X-128741Y105106D01*
X-128624Y105152D01*
X-128585Y105164D01*
X-127852Y105053D01*
X-127785Y105049D01*
X-127549Y105030D01*
X-126820Y105030D01*
X-126707Y104980D01*
X-126596Y104921D01*
X-126523Y104900D01*
X-126453Y104869D01*
X-126294Y104831D01*
X-126210Y104806D01*
X-126175Y104803D01*
X-126130Y104793D01*
X-124942Y104613D01*
X-124866Y104609D01*
X-124790Y104596D01*
X-124665Y104599D01*
X-124540Y104593D01*
X-124464Y104604D01*
X-124388Y104606D01*
X-124266Y104634D01*
X-124225Y104640D01*
X-123516Y104421D01*
X-123450Y104407D01*
X-123220Y104353D01*
X-122500Y104244D01*
X-122395Y104178D01*
X-122295Y104104D01*
X-122225Y104071D01*
X-122161Y104031D01*
X-122010Y103970D01*
X-121930Y103933D01*
X-121895Y103924D01*
X-121853Y103907D01*
X-120705Y103553D01*
X-120630Y103537D01*
X-120557Y103513D01*
X-120433Y103497D01*
X-120310Y103473D01*
X-120234Y103472D01*
X-120158Y103463D01*
X-120033Y103472D01*
X-119992Y103472D01*
X-119324Y103150D01*
X-119260Y103127D01*
X-119041Y103039D01*
X-118345Y102824D01*
X-118251Y102743D01*
X-118163Y102654D01*
X-118099Y102612D01*
X-118041Y102562D01*
X-117901Y102479D01*
X-117828Y102431D01*
X-117795Y102417D01*
X-117755Y102394D01*
X-116673Y101872D01*
X-116601Y101846D01*
X-116533Y101811D01*
X-116413Y101777D01*
X-116295Y101734D01*
X-116219Y101723D01*
X-116146Y101702D01*
X-116021Y101693D01*
X-115980Y101686D01*
X-115367Y101268D01*
X-115308Y101236D01*
X-115105Y101116D01*
X-114448Y100800D01*
X-114368Y100706D01*
X-114294Y100605D01*
X-114237Y100554D01*
X-114187Y100496D01*
X-114060Y100393D01*
X-113996Y100334D01*
X-113965Y100316D01*
X-113929Y100287D01*
X-112937Y99610D01*
X-112870Y99573D01*
X-112808Y99529D01*
X-112693Y99477D01*
X-112583Y99417D01*
X-112511Y99394D01*
X-112441Y99363D01*
X-112319Y99335D01*
X-112280Y99323D01*
X-111736Y98818D01*
X-111683Y98777D01*
X-111499Y98629D01*
X-110897Y98218D01*
X-110831Y98113D01*
X-110773Y98002D01*
X-110724Y97943D01*
X-110684Y97878D01*
X-110574Y97758D01*
X-110519Y97690D01*
X-110491Y97667D01*
X-110460Y97633D01*
X-109580Y96816D01*
X-109519Y96770D01*
X-109464Y96716D01*
X-109358Y96648D01*
X-109259Y96573D01*
X-109190Y96539D01*
X-109126Y96498D01*
X-109009Y96452D01*
X-108972Y96434D01*
X-108510Y95854D01*
X-108463Y95805D01*
X-108304Y95631D01*
X-107770Y95135D01*
X-107720Y95022D01*
X-107679Y94904D01*
X-107640Y94838D01*
X-107610Y94768D01*
X-107519Y94632D01*
X-107474Y94557D01*
X-107450Y94530D01*
X-107425Y94492D01*
X-106676Y93553D01*
X-106623Y93498D01*
X-106577Y93437D01*
X-106483Y93354D01*
X-106395Y93264D01*
X-106332Y93221D01*
X-106275Y93170D01*
X-106166Y93108D01*
X-106133Y93085D01*
X-105762Y92442D01*
X-105723Y92387D01*
X-105591Y92191D01*
X-105137Y91621D01*
X-105105Y91502D01*
X-105082Y91379D01*
X-105053Y91308D01*
X-105034Y91234D01*
X-104964Y91086D01*
X-104931Y91005D01*
X-104912Y90976D01*
X-104892Y90934D01*
X-104292Y89893D01*
X-104247Y89831D01*
X-104210Y89764D01*
X-104130Y89668D01*
X-104057Y89566D01*
X-104001Y89514D01*
X-103952Y89455D01*
X-103854Y89377D01*
X-103824Y89349D01*
X-103553Y88659D01*
X-103522Y88599D01*
X-103421Y88385D01*
X-103057Y87754D01*
X-103044Y87631D01*
X-103039Y87506D01*
X-103021Y87431D01*
X-103013Y87355D01*
X-102966Y87199D01*
X-102946Y87114D01*
X-102931Y87082D01*
X-102917Y87038D01*
X-102479Y85919D01*
X-102444Y85851D01*
X-102418Y85779D01*
X-102353Y85672D01*
X-102296Y85561D01*
X-102248Y85501D01*
X-102208Y85436D01*
X-102123Y85344D01*
X-102098Y85312D01*
X-101933Y84588D01*
X-101911Y84524D01*
X-101843Y84298D01*
X-101577Y83620D01*
X-101582Y83496D01*
X-101596Y83372D01*
X-101590Y83295D01*
X-101593Y83219D01*
X-101570Y83058D01*
X-101562Y82971D01*
X-101552Y82936D01*
X-101546Y82891D01*
X-101279Y81719D01*
X-101255Y81647D01*
X-101239Y81572D01*
X-101191Y81457D01*
X-101151Y81338D01*
X-101113Y81271D01*
X-101083Y81201D01*
X-101013Y81097D01*
X-100992Y81062D01*
X-100937Y80322D01*
X-100925Y80255D01*
X-100892Y80022D01*
X-100730Y79311D01*
X-100753Y79190D01*
X-100786Y79069D01*
X-100791Y78992D01*
X-100805Y78917D01*
X-100806Y78754D01*
X-100812Y78667D01*
X-100807Y78632D01*
X-100808Y78586D01*
X-100718Y77388D01*
X-100705Y77312D01*
X-100701Y77236D01*
X-100670Y77115D01*
X-100649Y76991D01*
X-100621Y76920D01*
X-100602Y76846D01*
X-100548Y76733D01*
X-100533Y76695D01*
X-100588Y75955D01*
X-100587Y75887D01*
X-100589Y75651D01*
X-100534Y74925D01*
X-100575Y74808D01*
X-100626Y74693D01*
X-100642Y74619D01*
X-100667Y74546D01*
X-100693Y74385D01*
X-100711Y74300D01*
X-100712Y74264D01*
X-100719Y74219D01*
X-100809Y73021D01*
X-100807Y72944D01*
X-100815Y72868D01*
X-100803Y72744D01*
X-100800Y72618D01*
X-100783Y72544D01*
X-100775Y72467D01*
X-100738Y72348D01*
X-100729Y72308D01*
X-100895Y71585D01*
X-100903Y71518D01*
X-100940Y71285D01*
X-100995Y70558D01*
X-101053Y70449D01*
X-101119Y70343D01*
X-101147Y70271D01*
X-101183Y70204D01*
X-101232Y70048D01*
X-101263Y69966D01*
X-101269Y69931D01*
X-101283Y69887D01*
X-101550Y68716D01*
X-101560Y68640D01*
X-101579Y68566D01*
X-101585Y68441D01*
X-101601Y68317D01*
X-101595Y68240D01*
X-101599Y68164D01*
X-101580Y68040D01*
X-101577Y67999D01*
X-101849Y67309D01*
X-101867Y67244D01*
X-101938Y67019D01*
X-102101Y66308D01*
X-102174Y66209D01*
X-102256Y66114D01*
X-102294Y66048D01*
X-102339Y65986D01*
X-102411Y65840D01*
X-102454Y65764D01*
X-102465Y65730D01*
X-102485Y65688D01*
X-102879Y64687D01*
X-102880Y64683D01*
X-102881Y64680D01*
X-102935Y64488D01*
X-102988Y64299D01*
X-102988Y64296D01*
X-102989Y64292D01*
X-103004Y64090D01*
X-103019Y63898D01*
X-103018Y63894D01*
X-103019Y63891D01*
X-102993Y63690D01*
X-102970Y63498D01*
X-102969Y63495D01*
X-102968Y63491D01*
X-102905Y63304D01*
X-102843Y63116D01*
X-102841Y63113D01*
X-102840Y63110D01*
X-102741Y62938D01*
X-102643Y62767D01*
X-102641Y62764D01*
X-102639Y62761D01*
X-102425Y62508D01*
X-83337Y43421D01*
X-83317Y43404D01*
X-83299Y43383D01*
X-83161Y43276D01*
X-83026Y43166D01*
X-83002Y43153D01*
X-82981Y43137D01*
X-82824Y43059D01*
X-82670Y42977D01*
X-82645Y42969D01*
X-82621Y42957D01*
X-82451Y42912D01*
X-82284Y42862D01*
X-82258Y42860D01*
X-82232Y42853D01*
X-81901Y42826D01*
X-39549Y42826D01*
X-39522Y42828D01*
G37*
G36*
X24083Y59631D02*
X24083Y59631D01*
X24101Y59629D01*
X24283Y59650D01*
X24466Y59669D01*
X24483Y59674D01*
X24500Y59676D01*
X24675Y59733D01*
X24851Y59787D01*
X24866Y59795D01*
X24883Y59801D01*
X25043Y59891D01*
X25205Y59979D01*
X25218Y59990D01*
X25234Y59999D01*
X25373Y60119D01*
X25514Y60236D01*
X25525Y60250D01*
X25539Y60262D01*
X25651Y60407D01*
X25766Y60550D01*
X25774Y60566D01*
X25785Y60580D01*
X25867Y60745D01*
X25952Y60907D01*
X25957Y60924D01*
X25965Y60940D01*
X26012Y61119D01*
X26063Y61294D01*
X26065Y61312D01*
X26069Y61329D01*
X26096Y61660D01*
X26096Y87813D01*
X26094Y87840D01*
X26096Y87867D01*
X26074Y88040D01*
X26056Y88214D01*
X26048Y88240D01*
X26045Y88266D01*
X25990Y88432D01*
X25938Y88599D01*
X25925Y88622D01*
X25917Y88648D01*
X25830Y88800D01*
X25746Y88953D01*
X25729Y88973D01*
X25716Y88997D01*
X25526Y89220D01*
X25526Y104453D01*
X25539Y104464D01*
X25646Y104602D01*
X25756Y104737D01*
X25769Y104761D01*
X25785Y104782D01*
X25863Y104939D01*
X25945Y105093D01*
X25953Y105118D01*
X25965Y105142D01*
X26010Y105311D01*
X26060Y105479D01*
X26062Y105505D01*
X26069Y105531D01*
X26096Y105862D01*
X26096Y116140D01*
X26094Y116158D01*
X26096Y116176D01*
X26075Y116358D01*
X26056Y116541D01*
X26051Y116558D01*
X26049Y116575D01*
X25992Y116750D01*
X25938Y116926D01*
X25930Y116941D01*
X25924Y116958D01*
X25834Y117118D01*
X25746Y117280D01*
X25735Y117293D01*
X25726Y117309D01*
X25606Y117448D01*
X25489Y117589D01*
X25475Y117600D01*
X25463Y117614D01*
X25318Y117726D01*
X25175Y117841D01*
X25159Y117849D01*
X25145Y117860D01*
X24980Y117942D01*
X24818Y118027D01*
X24801Y118032D01*
X24785Y118040D01*
X24606Y118087D01*
X24431Y118138D01*
X24413Y118140D01*
X24396Y118144D01*
X24065Y118171D01*
X-30415Y118171D01*
X-30433Y118169D01*
X-30451Y118171D01*
X-30633Y118150D01*
X-30816Y118131D01*
X-30833Y118126D01*
X-30850Y118124D01*
X-31025Y118067D01*
X-31201Y118013D01*
X-31216Y118005D01*
X-31233Y117999D01*
X-31393Y117909D01*
X-31555Y117821D01*
X-31568Y117810D01*
X-31584Y117801D01*
X-31723Y117681D01*
X-31864Y117564D01*
X-31875Y117550D01*
X-31889Y117538D01*
X-32001Y117393D01*
X-32116Y117250D01*
X-32124Y117234D01*
X-32135Y117220D01*
X-32217Y117055D01*
X-32302Y116893D01*
X-32307Y116876D01*
X-32315Y116860D01*
X-32362Y116681D01*
X-32413Y116506D01*
X-32415Y116488D01*
X-32419Y116471D01*
X-32446Y116140D01*
X-32446Y61660D01*
X-32444Y61642D01*
X-32446Y61624D01*
X-32425Y61442D01*
X-32406Y61259D01*
X-32401Y61242D01*
X-32399Y61225D01*
X-32342Y61050D01*
X-32288Y60874D01*
X-32280Y60859D01*
X-32274Y60842D01*
X-32184Y60682D01*
X-32096Y60520D01*
X-32085Y60507D01*
X-32076Y60491D01*
X-31956Y60352D01*
X-31839Y60211D01*
X-31825Y60200D01*
X-31813Y60186D01*
X-31668Y60074D01*
X-31525Y59959D01*
X-31509Y59951D01*
X-31495Y59940D01*
X-31330Y59858D01*
X-31168Y59773D01*
X-31151Y59768D01*
X-31135Y59760D01*
X-30956Y59713D01*
X-30781Y59662D01*
X-30763Y59660D01*
X-30746Y59656D01*
X-30415Y59629D01*
X24065Y59629D01*
X24083Y59631D01*
G37*
G36*
X92691Y75044D02*
X92691Y75044D01*
X92700Y75043D01*
X92891Y75067D01*
X93082Y75090D01*
X93090Y75092D01*
X93099Y75093D01*
X93283Y75155D01*
X93465Y75214D01*
X93472Y75219D01*
X93481Y75222D01*
X93648Y75318D01*
X93815Y75412D01*
X93822Y75418D01*
X93830Y75423D01*
X94011Y75576D01*
X96073Y76430D01*
X98464Y76430D01*
X98506Y76426D01*
X98644Y76405D01*
X98706Y76407D01*
X98768Y76402D01*
X98906Y76416D01*
X99046Y76422D01*
X99106Y76437D01*
X99168Y76443D01*
X99301Y76485D01*
X99437Y76518D01*
X99493Y76544D01*
X99552Y76563D01*
X99675Y76630D01*
X99801Y76689D01*
X99851Y76726D01*
X99906Y76756D01*
X100012Y76846D01*
X100125Y76929D01*
X100166Y76975D01*
X100214Y77015D01*
X100301Y77124D01*
X100394Y77228D01*
X100426Y77281D01*
X100465Y77330D01*
X100529Y77454D01*
X100600Y77574D01*
X100621Y77633D01*
X100649Y77688D01*
X100687Y77822D01*
X100733Y77954D01*
X100744Y78024D01*
X100759Y78075D01*
X100765Y78156D01*
X100785Y78282D01*
X100808Y78586D01*
X100806Y78662D01*
X100813Y78738D01*
X100801Y78863D01*
X100798Y78988D01*
X100781Y79063D01*
X100773Y79139D01*
X100736Y79259D01*
X100727Y79298D01*
X100892Y80022D01*
X100900Y80088D01*
X100937Y80322D01*
X100991Y81049D01*
X101049Y81158D01*
X101116Y81264D01*
X101143Y81335D01*
X101179Y81403D01*
X101228Y81559D01*
X101259Y81640D01*
X101265Y81675D01*
X101279Y81719D01*
X101546Y82891D01*
X101555Y82967D01*
X101574Y83041D01*
X101580Y83166D01*
X101596Y83290D01*
X101590Y83366D01*
X101594Y83443D01*
X101575Y83567D01*
X101572Y83607D01*
X101843Y84298D01*
X101862Y84363D01*
X101933Y84588D01*
X102095Y85299D01*
X102168Y85398D01*
X102250Y85493D01*
X102287Y85560D01*
X102333Y85621D01*
X102405Y85768D01*
X102448Y85844D01*
X102459Y85878D01*
X102479Y85919D01*
X102917Y87038D01*
X102938Y87111D01*
X102968Y87182D01*
X102993Y87305D01*
X103026Y87425D01*
X103032Y87501D01*
X103047Y87576D01*
X103047Y87702D01*
X103051Y87742D01*
X103421Y88385D01*
X103449Y88446D01*
X103553Y88659D01*
X103819Y89337D01*
X103906Y89424D01*
X104002Y89506D01*
X104049Y89566D01*
X104103Y89620D01*
X104195Y89754D01*
X104249Y89823D01*
X104265Y89855D01*
X104291Y89893D01*
X104892Y90934D01*
X104923Y91003D01*
X104963Y91069D01*
X105006Y91186D01*
X105057Y91301D01*
X105075Y91375D01*
X105101Y91447D01*
X105119Y91571D01*
X105129Y91611D01*
X105591Y92191D01*
X105627Y92247D01*
X105762Y92442D01*
X106126Y93073D01*
X106226Y93147D01*
X106332Y93213D01*
X106387Y93265D01*
X106449Y93311D01*
X106561Y93430D01*
X106624Y93490D01*
X106645Y93519D01*
X106676Y93553D01*
X107425Y94492D01*
X107466Y94556D01*
X107515Y94615D01*
X107575Y94725D01*
X107643Y94830D01*
X107671Y94902D01*
X107708Y94969D01*
X107745Y95088D01*
X107760Y95126D01*
X108304Y95631D01*
X108348Y95682D01*
X108510Y95854D01*
X108964Y96424D01*
X109073Y96481D01*
X109188Y96531D01*
X109251Y96575D01*
X109319Y96611D01*
X109447Y96712D01*
X109519Y96762D01*
X109543Y96787D01*
X109580Y96816D01*
X110460Y97633D01*
X110511Y97691D01*
X110568Y97741D01*
X110644Y97841D01*
X110726Y97935D01*
X110765Y98001D01*
X110811Y98062D01*
X110865Y98175D01*
X110886Y98211D01*
X111499Y98629D01*
X111550Y98672D01*
X111736Y98818D01*
X112270Y99314D01*
X112386Y99354D01*
X112508Y99387D01*
X112576Y99421D01*
X112648Y99446D01*
X112790Y99527D01*
X112868Y99565D01*
X112897Y99587D01*
X112937Y99610D01*
X113929Y100287D01*
X113988Y100336D01*
X114052Y100378D01*
X114142Y100465D01*
X114238Y100546D01*
X114285Y100605D01*
X114340Y100659D01*
X114411Y100762D01*
X114436Y100794D01*
X115105Y101116D01*
X115162Y101151D01*
X115367Y101268D01*
X115969Y101679D01*
X116091Y101702D01*
X116216Y101716D01*
X116289Y101739D01*
X116364Y101753D01*
X116516Y101812D01*
X116599Y101838D01*
X116630Y101856D01*
X116673Y101872D01*
X117755Y102394D01*
X117821Y102434D01*
X117890Y102465D01*
X117992Y102538D01*
X118099Y102604D01*
X118155Y102656D01*
X118217Y102700D01*
X118302Y102792D01*
X118332Y102820D01*
X119041Y103039D01*
X119103Y103065D01*
X119324Y103150D01*
X119980Y103466D01*
X120104Y103471D01*
X120229Y103466D01*
X120304Y103478D01*
X120381Y103481D01*
X120540Y103516D01*
X120626Y103530D01*
X120660Y103543D01*
X120705Y103553D01*
X121853Y103907D01*
X121923Y103937D01*
X121997Y103958D01*
X122108Y104015D01*
X122224Y104063D01*
X122287Y104106D01*
X122355Y104141D01*
X122453Y104219D01*
X122487Y104242D01*
X123220Y104353D01*
X123285Y104370D01*
X123516Y104421D01*
X124213Y104636D01*
X124335Y104622D01*
X124458Y104598D01*
X124535Y104599D01*
X124611Y104591D01*
X124774Y104602D01*
X124861Y104603D01*
X124896Y104610D01*
X124942Y104613D01*
X126130Y104793D01*
X126204Y104812D01*
X126280Y104821D01*
X126398Y104861D01*
X126520Y104892D01*
X126589Y104925D01*
X126662Y104949D01*
X126770Y105012D01*
X126807Y105030D01*
X127549Y105030D01*
X127616Y105037D01*
X127852Y105053D01*
X128572Y105162D01*
X128691Y105129D01*
X128810Y105088D01*
X128885Y105077D01*
X128959Y105057D01*
X129122Y105044D01*
X129208Y105032D01*
X129244Y105034D01*
X129290Y105030D01*
X130491Y105031D01*
X130567Y105038D01*
X130644Y105037D01*
X130767Y105058D01*
X130892Y105071D01*
X130965Y105093D01*
X131040Y105107D01*
X131157Y105152D01*
X131196Y105164D01*
X131930Y105054D01*
X131997Y105051D01*
X132232Y105031D01*
X132961Y105032D01*
X133074Y104982D01*
X133185Y104923D01*
X133259Y104902D01*
X133329Y104871D01*
X133487Y104834D01*
X133571Y104809D01*
X133607Y104806D01*
X133652Y104795D01*
X134839Y104616D01*
X134916Y104613D01*
X134991Y104599D01*
X135117Y104603D01*
X135241Y104596D01*
X135317Y104608D01*
X135394Y104610D01*
X135516Y104637D01*
X135556Y104643D01*
X136265Y104425D01*
X136331Y104412D01*
X136561Y104357D01*
X137282Y104249D01*
X137386Y104183D01*
X137487Y104109D01*
X137556Y104076D01*
X137621Y104036D01*
X137773Y103975D01*
X137852Y103938D01*
X137887Y103929D01*
X137929Y103912D01*
X139077Y103559D01*
X139152Y103543D01*
X139225Y103519D01*
X139349Y103504D01*
X139472Y103479D01*
X139548Y103479D01*
X139624Y103469D01*
X139749Y103478D01*
X139790Y103478D01*
X140458Y103157D01*
X140521Y103134D01*
X140741Y103046D01*
X141438Y102831D01*
X141531Y102750D01*
X141620Y102662D01*
X141684Y102619D01*
X141742Y102569D01*
X141882Y102487D01*
X141955Y102439D01*
X141988Y102425D01*
X142028Y102402D01*
X142170Y102333D01*
X142305Y102284D01*
X142436Y102227D01*
X142494Y102215D01*
X142549Y102195D01*
X142690Y102174D01*
X142830Y102144D01*
X142889Y102144D01*
X142947Y102135D01*
X143090Y102142D01*
X143233Y102140D01*
X143290Y102151D01*
X143349Y102154D01*
X143488Y102189D01*
X143628Y102216D01*
X143682Y102238D01*
X143739Y102252D01*
X143869Y102314D01*
X144001Y102368D01*
X144050Y102400D01*
X144103Y102426D01*
X144217Y102511D01*
X144336Y102591D01*
X144378Y102632D01*
X144425Y102667D01*
X144520Y102774D01*
X144621Y102875D01*
X144659Y102930D01*
X144693Y102968D01*
X144735Y103039D01*
X144810Y103148D01*
X162808Y134322D01*
X163416Y133902D01*
X163443Y133890D01*
X163465Y133872D01*
X163534Y133852D01*
X163599Y133824D01*
X163628Y133823D01*
X163656Y133815D01*
X163727Y133823D01*
X163798Y133823D01*
X163825Y133834D01*
X163854Y133837D01*
X163916Y133873D01*
X163981Y133900D01*
X164002Y133921D01*
X164027Y133935D01*
X164090Y134012D01*
X164120Y134043D01*
X164124Y134053D01*
X164133Y134063D01*
X173633Y150563D01*
X173643Y150595D01*
X173652Y150608D01*
X173656Y150633D01*
X173657Y150636D01*
X173688Y150707D01*
X173688Y150730D01*
X173696Y150752D01*
X173690Y150829D01*
X173691Y150906D01*
X173681Y150930D01*
X173680Y150950D01*
X173659Y150990D01*
X173633Y151062D01*
X164133Y167562D01*
X164114Y167583D01*
X164101Y167610D01*
X164048Y167657D01*
X164001Y167711D01*
X163975Y167723D01*
X163954Y167743D01*
X163886Y167766D01*
X163822Y167797D01*
X163793Y167798D01*
X163766Y167807D01*
X163694Y167803D01*
X163623Y167806D01*
X163596Y167796D01*
X163567Y167794D01*
X163477Y167751D01*
X163437Y167737D01*
X163429Y167729D01*
X163416Y167723D01*
X162808Y167303D01*
X144810Y198477D01*
X144727Y198593D01*
X144650Y198714D01*
X144610Y198756D01*
X144575Y198804D01*
X144470Y198902D01*
X144372Y199005D01*
X144324Y199038D01*
X144280Y199078D01*
X144159Y199153D01*
X144041Y199235D01*
X143987Y199258D01*
X143937Y199289D01*
X143803Y199339D01*
X143672Y199396D01*
X143615Y199408D01*
X143560Y199428D01*
X143418Y199450D01*
X143278Y199480D01*
X143220Y199481D01*
X143162Y199490D01*
X143019Y199483D01*
X142876Y199485D01*
X142818Y199474D01*
X142759Y199472D01*
X142621Y199437D01*
X142480Y199411D01*
X142418Y199387D01*
X142369Y199375D01*
X142294Y199339D01*
X142170Y199292D01*
X142028Y199223D01*
X141962Y199183D01*
X141893Y199152D01*
X141791Y199079D01*
X141684Y199014D01*
X141628Y198962D01*
X141566Y198917D01*
X141480Y198825D01*
X141450Y198798D01*
X140741Y198579D01*
X140679Y198553D01*
X140458Y198468D01*
X139802Y198152D01*
X139678Y198148D01*
X139553Y198153D01*
X139478Y198141D01*
X139401Y198138D01*
X139242Y198103D01*
X139156Y198089D01*
X139122Y198076D01*
X139077Y198066D01*
X137929Y197713D01*
X137859Y197683D01*
X137785Y197662D01*
X137674Y197605D01*
X137558Y197557D01*
X137495Y197514D01*
X137427Y197479D01*
X137329Y197401D01*
X137295Y197378D01*
X136869Y197314D01*
X136804Y197297D01*
X136736Y197289D01*
X136609Y197248D01*
X136479Y197215D01*
X136418Y197186D01*
X136353Y197164D01*
X136237Y197099D01*
X136116Y197041D01*
X136062Y197000D01*
X136003Y196967D01*
X135902Y196879D01*
X135795Y196799D01*
X135749Y196748D01*
X135698Y196703D01*
X135616Y196598D01*
X135527Y196498D01*
X135493Y196439D01*
X135451Y196385D01*
X135392Y196265D01*
X135324Y196150D01*
X135302Y196086D01*
X135272Y196025D01*
X135237Y195895D01*
X135194Y195769D01*
X135185Y195702D01*
X135167Y195636D01*
X135153Y195455D01*
X135141Y195370D01*
X135143Y195341D01*
X135140Y195305D01*
X135140Y136819D01*
X91210Y92889D01*
X91193Y92869D01*
X91173Y92851D01*
X91066Y92713D01*
X90955Y92578D01*
X90943Y92554D01*
X90926Y92533D01*
X90848Y92376D01*
X90766Y92222D01*
X90759Y92197D01*
X90747Y92173D01*
X90701Y92003D01*
X90652Y91836D01*
X90649Y91810D01*
X90642Y91784D01*
X90615Y91453D01*
X90615Y77074D01*
X90616Y77065D01*
X90615Y77056D01*
X90636Y76864D01*
X90655Y76673D01*
X90658Y76664D01*
X90659Y76655D01*
X90717Y76470D01*
X90773Y76288D01*
X90778Y76280D01*
X90780Y76272D01*
X90874Y76103D01*
X90965Y75934D01*
X90971Y75927D01*
X90975Y75919D01*
X91100Y75772D01*
X91223Y75625D01*
X91230Y75619D01*
X91236Y75612D01*
X91386Y75494D01*
X91537Y75372D01*
X91545Y75368D01*
X91552Y75363D01*
X91723Y75276D01*
X91894Y75187D01*
X91902Y75184D01*
X91911Y75180D01*
X92095Y75129D01*
X92281Y75076D01*
X92290Y75075D01*
X92298Y75072D01*
X92488Y75059D01*
X92682Y75043D01*
X92691Y75044D01*
G37*
G36*
X86676Y329D02*
X86676Y329D01*
X86754Y337D01*
X86773Y348D01*
X86795Y353D01*
X86859Y397D01*
X86927Y435D01*
X86943Y454D01*
X86959Y465D01*
X86983Y503D01*
X87033Y563D01*
X96533Y17063D01*
X96542Y17091D01*
X96558Y17114D01*
X96573Y17184D01*
X96596Y17252D01*
X96593Y17281D01*
X96599Y17309D01*
X96586Y17379D01*
X96580Y17450D01*
X96567Y17476D01*
X96561Y17504D01*
X96521Y17563D01*
X96488Y17627D01*
X96466Y17645D01*
X96450Y17669D01*
X96367Y17726D01*
X96335Y17753D01*
X96324Y17756D01*
X96314Y17764D01*
X95686Y18061D01*
X113683Y49232D01*
X113742Y49362D01*
X113808Y49490D01*
X113824Y49546D01*
X113848Y49599D01*
X113880Y49739D01*
X113921Y49877D01*
X113925Y49934D01*
X113938Y49991D01*
X113942Y50135D01*
X113954Y50278D01*
X113948Y50336D01*
X113949Y50393D01*
X113925Y50535D01*
X113908Y50678D01*
X113891Y50733D01*
X113881Y50790D01*
X113829Y50924D01*
X113785Y51061D01*
X113756Y51112D01*
X113735Y51166D01*
X113658Y51286D01*
X113588Y51412D01*
X113550Y51456D01*
X113519Y51505D01*
X113419Y51609D01*
X113325Y51717D01*
X113274Y51759D01*
X113239Y51795D01*
X113171Y51842D01*
X113067Y51926D01*
X112952Y52004D01*
X112924Y52020D01*
X112901Y52038D01*
X112864Y52056D01*
X112823Y52085D01*
X112709Y52137D01*
X112599Y52197D01*
X112550Y52212D01*
X112540Y52217D01*
X112519Y52223D01*
X112456Y52251D01*
X112334Y52279D01*
X112295Y52291D01*
X111751Y52795D01*
X111697Y52836D01*
X111513Y52985D01*
X110911Y53395D01*
X110845Y53500D01*
X110787Y53610D01*
X110739Y53670D01*
X110698Y53735D01*
X110588Y53855D01*
X110533Y53923D01*
X110505Y53945D01*
X110474Y53979D01*
X109593Y54796D01*
X109532Y54842D01*
X109477Y54896D01*
X109372Y54964D01*
X109272Y55039D01*
X109203Y55072D01*
X109139Y55114D01*
X109022Y55160D01*
X108986Y55178D01*
X108523Y55758D01*
X108476Y55806D01*
X108316Y55980D01*
X107782Y56475D01*
X107733Y56589D01*
X107691Y56707D01*
X107652Y56773D01*
X107622Y56843D01*
X107531Y56978D01*
X107486Y57054D01*
X107462Y57080D01*
X107437Y57118D01*
X106687Y58057D01*
X106634Y58112D01*
X106588Y58173D01*
X106494Y58256D01*
X106406Y58346D01*
X106343Y58389D01*
X106286Y58439D01*
X106177Y58502D01*
X106144Y58525D01*
X105773Y59168D01*
X105733Y59223D01*
X105601Y59418D01*
X104718Y60526D01*
X104626Y60620D01*
X104541Y60720D01*
X104486Y60764D01*
X104437Y60814D01*
X104328Y60888D01*
X104225Y60970D01*
X104162Y61002D01*
X104104Y61041D01*
X103983Y61092D01*
X103866Y61152D01*
X103798Y61171D01*
X103734Y61198D01*
X103605Y61225D01*
X103478Y61260D01*
X103408Y61265D01*
X103339Y61279D01*
X103208Y61280D01*
X103077Y61289D01*
X103007Y61281D01*
X102937Y61281D01*
X102808Y61255D01*
X102677Y61239D01*
X102611Y61217D01*
X102542Y61203D01*
X102420Y61153D01*
X102296Y61111D01*
X102235Y61076D01*
X102170Y61049D01*
X102061Y60975D01*
X101947Y60910D01*
X101885Y60857D01*
X101835Y60824D01*
X101782Y60770D01*
X101694Y60695D01*
X101482Y60483D01*
X99130Y60483D01*
X99103Y60480D01*
X99076Y60482D01*
X98902Y60460D01*
X98729Y60443D01*
X98704Y60435D01*
X98677Y60432D01*
X98511Y60376D01*
X98344Y60325D01*
X98321Y60312D01*
X98295Y60304D01*
X98144Y60216D01*
X97990Y60133D01*
X97970Y60116D01*
X97946Y60103D01*
X97693Y59888D01*
X74127Y36321D01*
X36795Y36321D01*
X27966Y45150D01*
X27946Y45167D01*
X27928Y45188D01*
X27790Y45295D01*
X27655Y45405D01*
X27631Y45418D01*
X27610Y45434D01*
X27453Y45512D01*
X27299Y45594D01*
X27274Y45602D01*
X27250Y45614D01*
X27080Y45659D01*
X26913Y45709D01*
X26887Y45711D01*
X26861Y45718D01*
X26530Y45745D01*
X19663Y45745D01*
X19645Y45743D01*
X19627Y45745D01*
X19445Y45724D01*
X19262Y45705D01*
X19245Y45700D01*
X19228Y45698D01*
X19053Y45641D01*
X18877Y45587D01*
X18862Y45579D01*
X18845Y45573D01*
X18685Y45483D01*
X18523Y45395D01*
X18510Y45384D01*
X18494Y45375D01*
X18355Y45255D01*
X18214Y45138D01*
X18203Y45124D01*
X18189Y45112D01*
X18077Y44967D01*
X17962Y44824D01*
X17954Y44808D01*
X17943Y44794D01*
X17861Y44629D01*
X17776Y44467D01*
X17771Y44450D01*
X17763Y44434D01*
X17716Y44255D01*
X17665Y44080D01*
X17663Y44062D01*
X17659Y44045D01*
X17632Y43714D01*
X17632Y33125D01*
X17634Y33098D01*
X17632Y33072D01*
X17654Y32898D01*
X17672Y32724D01*
X17679Y32699D01*
X17683Y32672D01*
X17738Y32507D01*
X17790Y32339D01*
X17803Y32316D01*
X17811Y32291D01*
X17898Y32139D01*
X17982Y31985D01*
X17999Y31965D01*
X18012Y31942D01*
X18227Y31689D01*
X34330Y15585D01*
X36390Y13525D01*
X36415Y13505D01*
X36436Y13481D01*
X36509Y13425D01*
X38272Y11662D01*
X39118Y9618D01*
X39118Y7406D01*
X38272Y5362D01*
X37944Y5035D01*
X37938Y5028D01*
X37932Y5022D01*
X37811Y4872D01*
X37689Y4723D01*
X37685Y4715D01*
X37679Y4708D01*
X37591Y4538D01*
X37500Y4368D01*
X37498Y4359D01*
X37494Y4351D01*
X37441Y4168D01*
X37386Y3982D01*
X37385Y3973D01*
X37382Y3964D01*
X37367Y3774D01*
X37349Y3581D01*
X37350Y3572D01*
X37349Y3563D01*
X37372Y3373D01*
X37393Y3180D01*
X37395Y3172D01*
X37396Y3163D01*
X37456Y2980D01*
X37514Y2797D01*
X37518Y2789D01*
X37521Y2780D01*
X37616Y2612D01*
X37709Y2444D01*
X37715Y2437D01*
X37719Y2430D01*
X37845Y2284D01*
X37969Y2137D01*
X37976Y2132D01*
X37982Y2125D01*
X38134Y2007D01*
X38285Y1888D01*
X38293Y1884D01*
X38300Y1878D01*
X38474Y1792D01*
X38644Y1705D01*
X38653Y1703D01*
X38661Y1699D01*
X38849Y1648D01*
X39032Y1597D01*
X39041Y1597D01*
X39050Y1594D01*
X39380Y1567D01*
X67159Y1567D01*
X67102Y852D01*
X67106Y824D01*
X67101Y796D01*
X67118Y726D01*
X67126Y655D01*
X67141Y630D01*
X67147Y603D01*
X67190Y545D01*
X67226Y482D01*
X67248Y465D01*
X67265Y442D01*
X67327Y406D01*
X67384Y362D01*
X67412Y355D01*
X67436Y341D01*
X67536Y324D01*
X67577Y314D01*
X67587Y315D01*
X67600Y313D01*
X86600Y313D01*
X86676Y329D01*
G37*
G36*
X-67572Y319D02*
X-67572Y319D01*
X-67544Y316D01*
X-67476Y339D01*
X-67405Y353D01*
X-67382Y369D01*
X-67355Y378D01*
X-67300Y425D01*
X-67241Y465D01*
X-67226Y489D01*
X-67205Y508D01*
X-67173Y572D01*
X-67134Y633D01*
X-67129Y661D01*
X-67117Y686D01*
X-67108Y788D01*
X-67101Y829D01*
X-67103Y839D01*
X-67102Y852D01*
X-67159Y1567D01*
X-31113Y1567D01*
X-30971Y1581D01*
X-30827Y1587D01*
X-30771Y1601D01*
X-30713Y1607D01*
X-30576Y1649D01*
X-30436Y1683D01*
X-30384Y1708D01*
X-30328Y1725D01*
X-30202Y1794D01*
X-30072Y1855D01*
X-30025Y1889D01*
X-29974Y1917D01*
X-29864Y2009D01*
X-29748Y2094D01*
X-29709Y2137D01*
X-29664Y2175D01*
X-29575Y2286D01*
X-29478Y2393D01*
X-29449Y2443D01*
X-29412Y2489D01*
X-29346Y2616D01*
X-29273Y2739D01*
X-29253Y2794D01*
X-29227Y2846D01*
X-29187Y2983D01*
X-29139Y3119D01*
X-29129Y3185D01*
X-29115Y3233D01*
X-29108Y3315D01*
X-29088Y3447D01*
X-29077Y3593D01*
X-29079Y3669D01*
X-29071Y3745D01*
X-29084Y3870D01*
X-29087Y3995D01*
X-29104Y4070D01*
X-29111Y4146D01*
X-29148Y4266D01*
X-29157Y4306D01*
X-28992Y5029D01*
X-28984Y5095D01*
X-28947Y5329D01*
X-28892Y6056D01*
X-28834Y6165D01*
X-28768Y6271D01*
X-28740Y6342D01*
X-28704Y6410D01*
X-28655Y6566D01*
X-28624Y6647D01*
X-28618Y6682D01*
X-28604Y6726D01*
X-28338Y7895D01*
X-28328Y7971D01*
X-28309Y8045D01*
X-28303Y8171D01*
X-28287Y8295D01*
X-28293Y8371D01*
X-28289Y8447D01*
X-28308Y8571D01*
X-28311Y8612D01*
X-28040Y9303D01*
X-28021Y9368D01*
X-27950Y9593D01*
X-27788Y10303D01*
X-27715Y10403D01*
X-27633Y10497D01*
X-27595Y10564D01*
X-27550Y10626D01*
X-27478Y10772D01*
X-27435Y10848D01*
X-27424Y10882D01*
X-27404Y10924D01*
X-26965Y12040D01*
X-26945Y12113D01*
X-26915Y12184D01*
X-26890Y12307D01*
X-26856Y12427D01*
X-26850Y12503D01*
X-26835Y12578D01*
X-26835Y12704D01*
X-26832Y12745D01*
X-26461Y13387D01*
X-26434Y13448D01*
X-26329Y13661D01*
X-26063Y14339D01*
X-25976Y14426D01*
X-25881Y14508D01*
X-25833Y14568D01*
X-25779Y14622D01*
X-25687Y14756D01*
X-25633Y14825D01*
X-25617Y14857D01*
X-25590Y14895D01*
X-24991Y15933D01*
X-24959Y16003D01*
X-24920Y16068D01*
X-24877Y16186D01*
X-24825Y16300D01*
X-24808Y16375D01*
X-24782Y16447D01*
X-24763Y16570D01*
X-24754Y16610D01*
X-24291Y17190D01*
X-24255Y17247D01*
X-24120Y17441D01*
X-23756Y18072D01*
X-23656Y18146D01*
X-23550Y18212D01*
X-23495Y18265D01*
X-23433Y18310D01*
X-23341Y18408D01*
X-23321Y18425D01*
X-23306Y18444D01*
X-23258Y18489D01*
X-23237Y18518D01*
X-23206Y18552D01*
X-22458Y19489D01*
X-22417Y19553D01*
X-22368Y19612D01*
X-22308Y19722D01*
X-22240Y19827D01*
X-22212Y19899D01*
X-22175Y19966D01*
X-22138Y20085D01*
X-22123Y20123D01*
X-21579Y20628D01*
X-21535Y20678D01*
X-21373Y20850D01*
X-20918Y21420D01*
X-20809Y21478D01*
X-20694Y21528D01*
X-20631Y21572D01*
X-20564Y21607D01*
X-20435Y21708D01*
X-20364Y21758D01*
X-20339Y21784D01*
X-20303Y21812D01*
X-19424Y22628D01*
X-19373Y22685D01*
X-19316Y22736D01*
X-19240Y22836D01*
X-19157Y22929D01*
X-19119Y22996D01*
X-19073Y23057D01*
X-19018Y23169D01*
X-18998Y23205D01*
X-18385Y23623D01*
X-18333Y23666D01*
X-18147Y23812D01*
X-17613Y24308D01*
X-17496Y24348D01*
X-17375Y24381D01*
X-17307Y24414D01*
X-17235Y24440D01*
X-17093Y24520D01*
X-17015Y24559D01*
X-16986Y24581D01*
X-16946Y24604D01*
X-15955Y25279D01*
X-15897Y25328D01*
X-15833Y25370D01*
X-15743Y25457D01*
X-15647Y25538D01*
X-15599Y25598D01*
X-15544Y25651D01*
X-15474Y25754D01*
X-15448Y25786D01*
X-14780Y26108D01*
X-14722Y26143D01*
X-14517Y26260D01*
X-13915Y26670D01*
X-13793Y26693D01*
X-13669Y26707D01*
X-13596Y26730D01*
X-13521Y26745D01*
X-13368Y26803D01*
X-13285Y26830D01*
X-13254Y26847D01*
X-13211Y26864D01*
X-12131Y27384D01*
X-12065Y27424D01*
X-11996Y27455D01*
X-11894Y27528D01*
X-11787Y27594D01*
X-11731Y27646D01*
X-11669Y27690D01*
X-11583Y27782D01*
X-11553Y27810D01*
X-10845Y28028D01*
X-10783Y28054D01*
X-10562Y28139D01*
X-9906Y28455D01*
X-9782Y28460D01*
X-9657Y28455D01*
X-9581Y28467D01*
X-9505Y28470D01*
X-9345Y28505D01*
X-9259Y28519D01*
X-9226Y28532D01*
X-9181Y28542D01*
X-8035Y28895D01*
X-7964Y28925D01*
X-7891Y28945D01*
X-7779Y29003D01*
X-7664Y29051D01*
X-7601Y29094D01*
X-7532Y29129D01*
X-7434Y29207D01*
X-7401Y29230D01*
X-6667Y29341D01*
X-6602Y29357D01*
X-6371Y29408D01*
X-5675Y29623D01*
X-5552Y29609D01*
X-5429Y29586D01*
X-5352Y29586D01*
X-5276Y29578D01*
X-5114Y29589D01*
X-5026Y29590D01*
X-4991Y29597D01*
X-4945Y29600D01*
X-3760Y29779D01*
X-3686Y29798D01*
X-3610Y29807D01*
X-3491Y29847D01*
X-3370Y29878D01*
X-3301Y29911D01*
X-3228Y29936D01*
X-3119Y29998D01*
X-3083Y30016D01*
X-2341Y30016D01*
X-2274Y30022D01*
X-2038Y30038D01*
X-1317Y30147D01*
X-1198Y30115D01*
X-1080Y30073D01*
X-1004Y30063D01*
X-930Y30043D01*
X-767Y30029D01*
X-681Y30017D01*
X-645Y30019D01*
X-599Y30016D01*
X599Y30016D01*
X676Y30023D01*
X752Y30021D01*
X875Y30043D01*
X1000Y30056D01*
X1073Y30078D01*
X1149Y30091D01*
X1265Y30137D01*
X1304Y30149D01*
X2038Y30038D01*
X2105Y30035D01*
X2341Y30016D01*
X3150Y30016D01*
X3225Y29976D01*
X3233Y29973D01*
X3241Y29969D01*
X3427Y29916D01*
X3611Y29861D01*
X3620Y29860D01*
X3628Y29858D01*
X3819Y29842D01*
X4012Y29825D01*
X4021Y29826D01*
X4030Y29825D01*
X4219Y29847D01*
X4412Y29868D01*
X4421Y29871D01*
X4429Y29872D01*
X4611Y29931D01*
X4796Y29990D01*
X4804Y29994D01*
X4812Y29997D01*
X4980Y30091D01*
X5148Y30184D01*
X5155Y30190D01*
X5163Y30195D01*
X5309Y30321D01*
X5455Y30445D01*
X5461Y30452D01*
X5468Y30458D01*
X5585Y30609D01*
X5705Y30761D01*
X5709Y30769D01*
X5714Y30776D01*
X5800Y30948D01*
X5887Y31120D01*
X5890Y31128D01*
X5894Y31136D01*
X5944Y31323D01*
X5995Y31508D01*
X5996Y31516D01*
X5998Y31525D01*
X6025Y31856D01*
X6025Y48540D01*
X6023Y48558D01*
X6025Y48576D01*
X6004Y48758D01*
X5985Y48941D01*
X5980Y48958D01*
X5978Y48975D01*
X5921Y49150D01*
X5867Y49326D01*
X5859Y49341D01*
X5853Y49358D01*
X5763Y49518D01*
X5675Y49680D01*
X5664Y49693D01*
X5655Y49709D01*
X5535Y49848D01*
X5418Y49989D01*
X5404Y50000D01*
X5392Y50014D01*
X5247Y50126D01*
X5104Y50241D01*
X5088Y50249D01*
X5074Y50260D01*
X4909Y50342D01*
X4747Y50427D01*
X4730Y50432D01*
X4714Y50440D01*
X4535Y50487D01*
X4360Y50538D01*
X4342Y50540D01*
X4325Y50544D01*
X3994Y50571D01*
X-5343Y50571D01*
X-5361Y50569D01*
X-5379Y50571D01*
X-5561Y50550D01*
X-5744Y50531D01*
X-5761Y50526D01*
X-5778Y50524D01*
X-5953Y50467D01*
X-6129Y50413D01*
X-6144Y50405D01*
X-6161Y50399D01*
X-6321Y50309D01*
X-6483Y50221D01*
X-6496Y50210D01*
X-6512Y50201D01*
X-6651Y50081D01*
X-6792Y49964D01*
X-6803Y49950D01*
X-6817Y49938D01*
X-6929Y49793D01*
X-7044Y49650D01*
X-7052Y49634D01*
X-7063Y49620D01*
X-7145Y49455D01*
X-7184Y49381D01*
X-8327Y48238D01*
X-8341Y48221D01*
X-8358Y48206D01*
X-8469Y48064D01*
X-8582Y47927D01*
X-8592Y47907D01*
X-8606Y47889D01*
X-8687Y47728D01*
X-8770Y47571D01*
X-8777Y47549D01*
X-8787Y47529D01*
X-8834Y47357D01*
X-8885Y47185D01*
X-8887Y47162D01*
X-8893Y47141D01*
X-8905Y46963D01*
X-8922Y46784D01*
X-8919Y46761D01*
X-8921Y46739D01*
X-8897Y46562D01*
X-8885Y46444D01*
X-8885Y44096D01*
X-9731Y42053D01*
X-11296Y40488D01*
X-13339Y39642D01*
X-15552Y39642D01*
X-17595Y40488D01*
X-19160Y42053D01*
X-19213Y42182D01*
X-19219Y42193D01*
X-19223Y42206D01*
X-19314Y42370D01*
X-19403Y42536D01*
X-19412Y42547D01*
X-19418Y42558D01*
X-19539Y42701D01*
X-19660Y42847D01*
X-19670Y42855D01*
X-19679Y42865D01*
X-19826Y42982D01*
X-19972Y43101D01*
X-19984Y43107D01*
X-19995Y43115D01*
X-20162Y43200D01*
X-20329Y43288D01*
X-20342Y43291D01*
X-20354Y43297D01*
X-20535Y43348D01*
X-20715Y43401D01*
X-20729Y43402D01*
X-20741Y43405D01*
X-20930Y43419D01*
X-21116Y43435D01*
X-21129Y43434D01*
X-21143Y43435D01*
X-21330Y43411D01*
X-21516Y43390D01*
X-21529Y43386D01*
X-21542Y43384D01*
X-21720Y43325D01*
X-21900Y43267D01*
X-21911Y43260D01*
X-21924Y43256D01*
X-22087Y43162D01*
X-22251Y43071D01*
X-22261Y43062D01*
X-22273Y43055D01*
X-22526Y42841D01*
X-33972Y31394D01*
X-90653Y31394D01*
X-105146Y45888D01*
X-105167Y45905D01*
X-105184Y45925D01*
X-105322Y46032D01*
X-105457Y46143D01*
X-105481Y46155D01*
X-105502Y46172D01*
X-105659Y46250D01*
X-105813Y46331D01*
X-105839Y46339D01*
X-105863Y46351D01*
X-106032Y46396D01*
X-106199Y46446D01*
X-106226Y46449D01*
X-106252Y46455D01*
X-106582Y46483D01*
X-107755Y46483D01*
X-107931Y46556D01*
X-108067Y46597D01*
X-108200Y46645D01*
X-108259Y46655D01*
X-108317Y46672D01*
X-108458Y46685D01*
X-108598Y46707D01*
X-108658Y46704D01*
X-108717Y46710D01*
X-108858Y46695D01*
X-109000Y46689D01*
X-109058Y46675D01*
X-109118Y46668D01*
X-109253Y46626D01*
X-109391Y46592D01*
X-109445Y46566D01*
X-109502Y46549D01*
X-109627Y46481D01*
X-109755Y46420D01*
X-109803Y46384D01*
X-109855Y46355D01*
X-109964Y46264D01*
X-110078Y46179D01*
X-110118Y46135D01*
X-110164Y46096D01*
X-110252Y45986D01*
X-110347Y45880D01*
X-110377Y45828D01*
X-110415Y45781D01*
X-110479Y45655D01*
X-110551Y45533D01*
X-110571Y45477D01*
X-110599Y45423D01*
X-110637Y45287D01*
X-110684Y45153D01*
X-110692Y45094D01*
X-110708Y45036D01*
X-110719Y44895D01*
X-110738Y44754D01*
X-110735Y44694D01*
X-110739Y44635D01*
X-110722Y44494D01*
X-110713Y44352D01*
X-110698Y44294D01*
X-110691Y44235D01*
X-110646Y44100D01*
X-110610Y43963D01*
X-110580Y43901D01*
X-110564Y43853D01*
X-110524Y43781D01*
X-110468Y43663D01*
X-95686Y18061D01*
X-96314Y17764D01*
X-96336Y17747D01*
X-96363Y17737D01*
X-96415Y17688D01*
X-96473Y17645D01*
X-96487Y17620D01*
X-96508Y17600D01*
X-96537Y17535D01*
X-96573Y17473D01*
X-96576Y17445D01*
X-96588Y17418D01*
X-96589Y17346D01*
X-96598Y17276D01*
X-96590Y17248D01*
X-96591Y17219D01*
X-96555Y17125D01*
X-96544Y17084D01*
X-96537Y17076D01*
X-96533Y17063D01*
X-87033Y563D01*
X-86981Y505D01*
X-86935Y442D01*
X-86916Y431D01*
X-86901Y414D01*
X-86831Y381D01*
X-86764Y341D01*
X-86740Y337D01*
X-86722Y328D01*
X-86677Y326D01*
X-86600Y313D01*
X-67600Y313D01*
X-67572Y319D01*
G37*
G36*
X28633Y89557D02*
X28633Y89557D01*
X28772Y89561D01*
X28792Y89567D01*
X28812Y89568D01*
X28944Y89611D01*
X29078Y89649D01*
X29095Y89660D01*
X29114Y89666D01*
X29171Y89702D01*
X33705Y89702D01*
X33803Y89714D01*
X33902Y89717D01*
X33961Y89734D01*
X34021Y89742D01*
X34113Y89778D01*
X34208Y89806D01*
X34260Y89836D01*
X34316Y89859D01*
X34397Y89917D01*
X34482Y89967D01*
X34557Y90033D01*
X34574Y90045D01*
X34582Y90055D01*
X34603Y90073D01*
X35338Y90809D01*
X35356Y90832D01*
X35379Y90851D01*
X35454Y90958D01*
X35533Y91060D01*
X35545Y91087D01*
X35562Y91111D01*
X35608Y91233D01*
X35659Y91352D01*
X35664Y91381D01*
X35675Y91409D01*
X35689Y91538D01*
X35709Y91666D01*
X35707Y91696D01*
X35710Y91725D01*
X35692Y91853D01*
X35680Y91983D01*
X35670Y92011D01*
X35665Y92040D01*
X35613Y92192D01*
X34816Y94116D01*
X34816Y96329D01*
X35663Y98372D01*
X37227Y99937D01*
X39271Y100783D01*
X41483Y100783D01*
X43527Y99937D01*
X43758Y99706D01*
X43852Y99633D01*
X43941Y99554D01*
X43977Y99536D01*
X44009Y99511D01*
X44118Y99464D01*
X44224Y99409D01*
X44264Y99401D01*
X44301Y99384D01*
X44418Y99366D01*
X44535Y99340D01*
X44575Y99341D01*
X44615Y99335D01*
X44734Y99346D01*
X44853Y99349D01*
X44891Y99361D01*
X44932Y99364D01*
X45044Y99405D01*
X45158Y99438D01*
X45193Y99458D01*
X45231Y99472D01*
X45330Y99539D01*
X45432Y99599D01*
X45477Y99639D01*
X45494Y99651D01*
X45507Y99666D01*
X45553Y99706D01*
X56460Y110613D01*
X56521Y110691D01*
X56589Y110763D01*
X56618Y110816D01*
X56655Y110864D01*
X56694Y110955D01*
X56742Y111042D01*
X56757Y111100D01*
X56781Y111156D01*
X56797Y111254D01*
X56822Y111350D01*
X56828Y111450D01*
X56831Y111470D01*
X56830Y111482D01*
X56832Y111510D01*
X56832Y157163D01*
X56819Y157261D01*
X56816Y157360D01*
X56800Y157418D01*
X56792Y157478D01*
X56755Y157570D01*
X56728Y157665D01*
X56697Y157717D01*
X56675Y157774D01*
X56617Y157854D01*
X56566Y157939D01*
X56500Y158015D01*
X56488Y158031D01*
X56479Y158039D01*
X56460Y158060D01*
X56015Y158505D01*
X55937Y158565D01*
X55865Y158633D01*
X55812Y158662D01*
X55764Y158699D01*
X55673Y158739D01*
X55587Y158787D01*
X55528Y158802D01*
X55472Y158826D01*
X55375Y158841D01*
X55279Y158866D01*
X55179Y158872D01*
X55158Y158876D01*
X55146Y158874D01*
X55118Y158876D01*
X13025Y158876D01*
X12253Y159647D01*
X12175Y159708D01*
X12125Y159755D01*
X12116Y159770D01*
X12050Y159845D01*
X12038Y159862D01*
X12029Y159870D01*
X12010Y159891D01*
X11239Y160662D01*
X11239Y180253D01*
X11224Y180371D01*
X11216Y180490D01*
X11204Y180528D01*
X11199Y180569D01*
X11155Y180679D01*
X11118Y180792D01*
X11097Y180827D01*
X11082Y180864D01*
X11012Y180960D01*
X10948Y181061D01*
X10919Y181089D01*
X10895Y181122D01*
X10803Y181197D01*
X10717Y181279D01*
X10681Y181299D01*
X10650Y181324D01*
X10542Y181375D01*
X10438Y181433D01*
X10399Y181443D01*
X10362Y181460D01*
X10246Y181482D01*
X10130Y181512D01*
X10070Y181516D01*
X10050Y181520D01*
X10030Y181518D01*
X9970Y181522D01*
X8118Y181522D01*
X8020Y181510D01*
X7921Y181507D01*
X7863Y181490D01*
X7803Y181482D01*
X7711Y181446D01*
X7615Y181418D01*
X7563Y181388D01*
X7507Y181365D01*
X7427Y181307D01*
X7341Y181257D01*
X7266Y181191D01*
X7250Y181179D01*
X7242Y181169D01*
X7221Y181150D01*
X4474Y178404D01*
X-11113Y178404D01*
X-11231Y178389D01*
X-11349Y178382D01*
X-11388Y178369D01*
X-11428Y178364D01*
X-11539Y178321D01*
X-11652Y178284D01*
X-11686Y178262D01*
X-11724Y178247D01*
X-11820Y178178D01*
X-11921Y178114D01*
X-11948Y178084D01*
X-11981Y178061D01*
X-12057Y177969D01*
X-12139Y177882D01*
X-12158Y177847D01*
X-12184Y177816D01*
X-12235Y177708D01*
X-12292Y177604D01*
X-12302Y177564D01*
X-12319Y177528D01*
X-12342Y177411D01*
X-12372Y177296D01*
X-12375Y177236D01*
X-12379Y177216D01*
X-12379Y177207D01*
X-12379Y177204D01*
X-12378Y177190D01*
X-12382Y177135D01*
X-12382Y144463D01*
X-12367Y144344D01*
X-12359Y144226D01*
X-12347Y144187D01*
X-12342Y144147D01*
X-12298Y144036D01*
X-12261Y143923D01*
X-12240Y143889D01*
X-12225Y143851D01*
X-12155Y143755D01*
X-12091Y143654D01*
X-12062Y143627D01*
X-12038Y143594D01*
X-11946Y143518D01*
X-11860Y143436D01*
X-11824Y143417D01*
X-11793Y143391D01*
X-11685Y143340D01*
X-11581Y143283D01*
X-11542Y143273D01*
X-11505Y143256D01*
X-11389Y143233D01*
X-11273Y143203D01*
X-11213Y143200D01*
X-11193Y143196D01*
X-11173Y143197D01*
X-11113Y143193D01*
X35987Y143193D01*
X40006Y139174D01*
X40006Y126723D01*
X40007Y126714D01*
X40006Y126705D01*
X40027Y126556D01*
X40046Y126408D01*
X40049Y126399D01*
X40050Y126390D01*
X40102Y126237D01*
X40476Y125336D01*
X40476Y123124D01*
X40102Y122223D01*
X40100Y122214D01*
X40095Y122205D01*
X40058Y122060D01*
X40018Y121916D01*
X40018Y121907D01*
X40016Y121898D01*
X40006Y121737D01*
X40006Y111651D01*
X35525Y107170D01*
X35465Y107092D01*
X35397Y107020D01*
X35368Y106967D01*
X35331Y106919D01*
X35291Y106828D01*
X35243Y106742D01*
X35228Y106683D01*
X35204Y106627D01*
X35189Y106529D01*
X35164Y106434D01*
X35158Y106334D01*
X35154Y106313D01*
X35156Y106301D01*
X35154Y106273D01*
X35154Y104397D01*
X34112Y103355D01*
X28575Y103355D01*
X28457Y103340D01*
X28338Y103333D01*
X28300Y103320D01*
X28259Y103315D01*
X28149Y103272D01*
X28036Y103235D01*
X28001Y103213D01*
X27964Y103198D01*
X27868Y103129D01*
X27767Y103065D01*
X27739Y103035D01*
X27706Y103012D01*
X27631Y102920D01*
X27549Y102833D01*
X27529Y102798D01*
X27504Y102767D01*
X27453Y102659D01*
X27395Y102555D01*
X27385Y102515D01*
X27368Y102479D01*
X27346Y102362D01*
X27316Y102247D01*
X27312Y102187D01*
X27308Y102167D01*
X27310Y102146D01*
X27306Y102086D01*
X27306Y90815D01*
X27323Y90677D01*
X27336Y90538D01*
X27343Y90519D01*
X27346Y90499D01*
X27397Y90370D01*
X27444Y90239D01*
X27455Y90222D01*
X27463Y90204D01*
X27544Y90091D01*
X27622Y89976D01*
X27638Y89963D01*
X27649Y89946D01*
X27757Y89857D01*
X27861Y89765D01*
X27879Y89756D01*
X27894Y89743D01*
X28020Y89684D01*
X28144Y89621D01*
X28164Y89616D01*
X28182Y89608D01*
X28318Y89582D01*
X28454Y89551D01*
X28475Y89552D01*
X28495Y89548D01*
X28633Y89557D01*
G37*
G36*
X131941Y198380D02*
X131941Y198380D01*
X131984Y198379D01*
X135977Y198979D01*
X136007Y198990D01*
X136050Y198996D01*
X139909Y200185D01*
X139937Y200200D01*
X139978Y200212D01*
X143616Y201963D01*
X143638Y201979D01*
X143664Y201989D01*
X143717Y202039D01*
X143775Y202083D01*
X143788Y202106D01*
X143808Y202125D01*
X143838Y202192D01*
X143874Y202255D01*
X143877Y202282D01*
X143888Y202307D01*
X143889Y202380D01*
X143898Y202453D01*
X143890Y202479D01*
X143890Y202506D01*
X143854Y202605D01*
X143842Y202644D01*
X143836Y202651D01*
X143832Y202662D01*
X116832Y249462D01*
X116814Y249482D01*
X116803Y249507D01*
X116749Y249556D01*
X116701Y249611D01*
X116676Y249623D01*
X116656Y249641D01*
X116587Y249665D01*
X116521Y249697D01*
X116494Y249698D01*
X116469Y249707D01*
X116396Y249702D01*
X116323Y249706D01*
X116297Y249696D01*
X116270Y249695D01*
X116174Y249651D01*
X116136Y249636D01*
X116129Y249630D01*
X116119Y249625D01*
X112782Y247352D01*
X112760Y247329D01*
X112724Y247305D01*
X109763Y244560D01*
X109744Y244534D01*
X109712Y244505D01*
X107194Y241349D01*
X107179Y241321D01*
X107152Y241288D01*
X105132Y237791D01*
X105122Y237761D01*
X105099Y237724D01*
X103623Y233966D01*
X103618Y233935D01*
X103601Y233895D01*
X102701Y229959D01*
X102701Y229927D01*
X102690Y229885D01*
X102387Y225859D01*
X102390Y225835D01*
X102387Y225815D01*
X102389Y225806D01*
X102387Y225784D01*
X102688Y221758D01*
X102696Y221727D01*
X102699Y221684D01*
X103596Y217747D01*
X103609Y217718D01*
X103618Y217676D01*
X105092Y213917D01*
X105109Y213890D01*
X105124Y213849D01*
X107142Y210352D01*
X107163Y210328D01*
X107184Y210290D01*
X109700Y207133D01*
X109725Y207112D01*
X109751Y207078D01*
X112710Y204331D01*
X112737Y204314D01*
X112768Y204284D01*
X116104Y202009D01*
X116133Y201996D01*
X116168Y201971D01*
X119806Y200218D01*
X119836Y200211D01*
X119875Y200191D01*
X123733Y199000D01*
X123765Y198997D01*
X123806Y198983D01*
X127798Y198380D01*
X127830Y198382D01*
X127872Y198374D01*
X131910Y198373D01*
X131941Y198380D01*
G37*
G36*
X-127872Y198374D02*
X-127872Y198374D01*
X-127841Y198381D01*
X-127798Y198380D01*
X-123806Y198983D01*
X-123776Y198994D01*
X-123733Y199000D01*
X-119875Y200191D01*
X-119847Y200206D01*
X-119806Y200218D01*
X-116168Y201971D01*
X-116143Y201991D01*
X-116104Y202009D01*
X-112768Y204284D01*
X-112746Y204307D01*
X-112710Y204331D01*
X-109751Y207078D01*
X-109732Y207104D01*
X-109700Y207133D01*
X-107184Y210290D01*
X-107169Y210319D01*
X-107142Y210352D01*
X-105124Y213849D01*
X-105114Y213880D01*
X-105092Y213917D01*
X-103618Y217676D01*
X-103612Y217707D01*
X-103596Y217747D01*
X-102699Y221684D01*
X-102698Y221716D01*
X-102688Y221758D01*
X-102387Y225784D01*
X-102391Y225816D01*
X-102390Y225832D01*
X-102387Y225848D01*
X-102388Y225852D01*
X-102387Y225859D01*
X-102690Y229885D01*
X-102699Y229916D01*
X-102701Y229959D01*
X-103601Y233895D01*
X-103614Y233924D01*
X-103623Y233966D01*
X-105099Y237724D01*
X-105117Y237751D01*
X-105132Y237791D01*
X-107152Y241288D01*
X-107173Y241311D01*
X-107194Y241349D01*
X-109712Y244505D01*
X-109737Y244526D01*
X-109763Y244560D01*
X-112724Y247305D01*
X-112751Y247322D01*
X-112782Y247352D01*
X-116119Y249625D01*
X-116144Y249636D01*
X-116165Y249653D01*
X-116235Y249674D01*
X-116302Y249702D01*
X-116330Y249702D01*
X-116356Y249710D01*
X-116428Y249702D01*
X-116501Y249701D01*
X-116526Y249691D01*
X-116553Y249688D01*
X-116617Y249652D01*
X-116684Y249623D01*
X-116703Y249604D01*
X-116726Y249590D01*
X-116794Y249509D01*
X-116822Y249480D01*
X-116825Y249471D01*
X-116832Y249462D01*
X-143832Y202662D01*
X-143841Y202636D01*
X-143857Y202614D01*
X-143872Y202543D01*
X-143896Y202473D01*
X-143893Y202446D01*
X-143899Y202420D01*
X-143886Y202348D01*
X-143880Y202275D01*
X-143867Y202251D01*
X-143862Y202224D01*
X-143822Y202164D01*
X-143788Y202099D01*
X-143767Y202081D01*
X-143752Y202059D01*
X-143666Y201998D01*
X-143635Y201972D01*
X-143626Y201969D01*
X-143616Y201963D01*
X-139978Y200212D01*
X-139947Y200204D01*
X-139909Y200185D01*
X-136050Y198996D01*
X-136018Y198993D01*
X-135977Y198979D01*
X-131984Y198379D01*
X-131953Y198380D01*
X-131910Y198373D01*
X-127872Y198374D01*
G37*
G36*
X116428Y51923D02*
X116428Y51923D01*
X116501Y51924D01*
X116526Y51934D01*
X116553Y51937D01*
X116617Y51973D01*
X116684Y52002D01*
X116703Y52021D01*
X116726Y52035D01*
X116794Y52116D01*
X116822Y52145D01*
X116825Y52154D01*
X116832Y52163D01*
X143832Y98963D01*
X143841Y98989D01*
X143857Y99011D01*
X143872Y99082D01*
X143896Y99152D01*
X143893Y99179D01*
X143899Y99205D01*
X143886Y99277D01*
X143880Y99350D01*
X143867Y99374D01*
X143862Y99401D01*
X143822Y99462D01*
X143788Y99526D01*
X143767Y99544D01*
X143752Y99566D01*
X143666Y99627D01*
X143635Y99653D01*
X143626Y99656D01*
X143616Y99662D01*
X139978Y101413D01*
X139947Y101421D01*
X139909Y101440D01*
X136050Y102629D01*
X136018Y102632D01*
X135977Y102646D01*
X131984Y103246D01*
X131953Y103245D01*
X131910Y103252D01*
X127872Y103251D01*
X127841Y103244D01*
X127798Y103245D01*
X123806Y102642D01*
X123776Y102631D01*
X123733Y102625D01*
X119875Y101434D01*
X119847Y101419D01*
X119806Y101407D01*
X116168Y99654D01*
X116143Y99634D01*
X116104Y99616D01*
X112768Y97341D01*
X112746Y97318D01*
X112710Y97294D01*
X109751Y94547D01*
X109732Y94521D01*
X109700Y94492D01*
X107184Y91335D01*
X107169Y91306D01*
X107142Y91273D01*
X105124Y87776D01*
X105114Y87745D01*
X105092Y87708D01*
X103618Y83949D01*
X103612Y83918D01*
X103596Y83878D01*
X102699Y79941D01*
X102698Y79909D01*
X102688Y79867D01*
X102387Y75841D01*
X102391Y75809D01*
X102387Y75766D01*
X102690Y71740D01*
X102699Y71709D01*
X102701Y71666D01*
X103601Y67730D01*
X103614Y67701D01*
X103623Y67659D01*
X105099Y63901D01*
X105117Y63874D01*
X105132Y63834D01*
X107152Y60338D01*
X107173Y60314D01*
X107194Y60276D01*
X109712Y57120D01*
X109737Y57100D01*
X109763Y57065D01*
X112724Y54320D01*
X112751Y54303D01*
X112782Y54273D01*
X116119Y52000D01*
X116144Y51989D01*
X116165Y51972D01*
X116235Y51951D01*
X116302Y51923D01*
X116330Y51923D01*
X116356Y51915D01*
X116428Y51923D01*
G37*
G36*
X-116396Y51923D02*
X-116396Y51923D01*
X-116323Y51919D01*
X-116297Y51929D01*
X-116270Y51930D01*
X-116174Y51974D01*
X-116136Y51989D01*
X-116129Y51995D01*
X-116119Y52000D01*
X-112782Y54273D01*
X-112760Y54296D01*
X-112724Y54320D01*
X-109763Y57065D01*
X-109744Y57091D01*
X-109712Y57120D01*
X-107194Y60276D01*
X-107179Y60304D01*
X-107152Y60338D01*
X-105132Y63834D01*
X-105122Y63864D01*
X-105099Y63901D01*
X-103623Y67659D01*
X-103618Y67690D01*
X-103601Y67730D01*
X-102701Y71666D01*
X-102701Y71698D01*
X-102690Y71740D01*
X-102387Y75766D01*
X-102391Y75798D01*
X-102387Y75841D01*
X-102688Y79867D01*
X-102696Y79898D01*
X-102699Y79941D01*
X-103596Y83878D01*
X-103609Y83907D01*
X-103618Y83949D01*
X-105092Y87708D01*
X-105109Y87735D01*
X-105124Y87776D01*
X-107142Y91273D01*
X-107163Y91297D01*
X-107184Y91335D01*
X-109700Y94492D01*
X-109725Y94513D01*
X-109751Y94547D01*
X-112710Y97294D01*
X-112737Y97311D01*
X-112768Y97341D01*
X-116104Y99616D01*
X-116133Y99629D01*
X-116168Y99654D01*
X-119806Y101407D01*
X-119836Y101414D01*
X-119875Y101434D01*
X-123733Y102625D01*
X-123765Y102628D01*
X-123806Y102642D01*
X-127798Y103245D01*
X-127830Y103243D01*
X-127872Y103251D01*
X-131910Y103252D01*
X-131941Y103246D01*
X-131984Y103246D01*
X-135977Y102646D01*
X-136007Y102635D01*
X-136050Y102629D01*
X-139909Y101440D01*
X-139937Y101425D01*
X-139978Y101413D01*
X-143616Y99662D01*
X-143638Y99646D01*
X-143664Y99636D01*
X-143717Y99586D01*
X-143775Y99542D01*
X-143788Y99519D01*
X-143808Y99500D01*
X-143838Y99433D01*
X-143874Y99370D01*
X-143877Y99343D01*
X-143888Y99318D01*
X-143889Y99245D01*
X-143898Y99172D01*
X-143890Y99146D01*
X-143890Y99119D01*
X-143854Y99020D01*
X-143842Y98981D01*
X-143836Y98974D01*
X-143832Y98963D01*
X-116832Y52163D01*
X-116814Y52143D01*
X-116803Y52118D01*
X-116749Y52069D01*
X-116701Y52014D01*
X-116676Y52002D01*
X-116656Y51984D01*
X-116587Y51960D01*
X-116521Y51928D01*
X-116494Y51927D01*
X-116469Y51918D01*
X-116396Y51923D01*
G37*
G36*
X2049Y273395D02*
X2049Y273395D01*
X2092Y273394D01*
X6082Y273996D01*
X6112Y274007D01*
X6155Y274012D01*
X10011Y275202D01*
X10039Y275217D01*
X10081Y275229D01*
X13717Y276980D01*
X13742Y276999D01*
X13781Y277017D01*
X17115Y279291D01*
X17138Y279313D01*
X17174Y279337D01*
X20132Y282082D01*
X20151Y282108D01*
X20183Y282137D01*
X22699Y285292D01*
X22713Y285320D01*
X22741Y285353D01*
X24759Y288848D01*
X24769Y288878D01*
X24791Y288915D01*
X26265Y292672D01*
X26266Y292678D01*
X26268Y292680D01*
X26272Y292706D01*
X26287Y292743D01*
X27185Y296677D01*
X27186Y296709D01*
X27196Y296751D01*
X27498Y300775D01*
X27494Y300802D01*
X27499Y300829D01*
X27482Y300900D01*
X27473Y300972D01*
X27459Y300996D01*
X27453Y301022D01*
X27410Y301081D01*
X27373Y301144D01*
X27351Y301161D01*
X27335Y301183D01*
X27272Y301220D01*
X27214Y301264D01*
X27187Y301270D01*
X27164Y301284D01*
X27060Y301302D01*
X27021Y301311D01*
X27011Y301310D01*
X27000Y301312D01*
X-27000Y301312D01*
X-27027Y301306D01*
X-27054Y301309D01*
X-27123Y301287D01*
X-27195Y301272D01*
X-27217Y301257D01*
X-27243Y301249D01*
X-27299Y301201D01*
X-27359Y301160D01*
X-27373Y301137D01*
X-27394Y301119D01*
X-27427Y301054D01*
X-27466Y300992D01*
X-27470Y300965D01*
X-27482Y300941D01*
X-27492Y300836D01*
X-27499Y300796D01*
X-27497Y300787D01*
X-27498Y300775D01*
X-27196Y296751D01*
X-27188Y296720D01*
X-27185Y296677D01*
X-26287Y292743D01*
X-26274Y292714D01*
X-26265Y292672D01*
X-24791Y288915D01*
X-24774Y288888D01*
X-24759Y288848D01*
X-22741Y285353D01*
X-22720Y285329D01*
X-22699Y285292D01*
X-20183Y282137D01*
X-20158Y282116D01*
X-20132Y282082D01*
X-17174Y279337D01*
X-17147Y279321D01*
X-17115Y279291D01*
X-13781Y277017D01*
X-13752Y277005D01*
X-13717Y276980D01*
X-10081Y275229D01*
X-10050Y275221D01*
X-10011Y275202D01*
X-6155Y274012D01*
X-6124Y274009D01*
X-6082Y273996D01*
X-2092Y273394D01*
X-2060Y273396D01*
X-2018Y273389D01*
X2018Y273389D01*
X2049Y273395D01*
G37*
G36*
X27027Y319D02*
X27027Y319D01*
X27054Y316D01*
X27123Y338D01*
X27195Y353D01*
X27217Y368D01*
X27243Y377D01*
X27299Y424D01*
X27359Y465D01*
X27373Y488D01*
X27394Y506D01*
X27427Y571D01*
X27466Y633D01*
X27470Y660D01*
X27482Y684D01*
X27492Y789D01*
X27499Y829D01*
X27497Y838D01*
X27498Y850D01*
X27196Y4874D01*
X27188Y4905D01*
X27185Y4948D01*
X26287Y8882D01*
X26274Y8911D01*
X26265Y8953D01*
X24791Y12710D01*
X24774Y12737D01*
X24759Y12777D01*
X22741Y16272D01*
X22720Y16296D01*
X22699Y16333D01*
X20183Y19488D01*
X20158Y19509D01*
X20132Y19543D01*
X17174Y22288D01*
X17147Y22304D01*
X17115Y22334D01*
X13781Y24608D01*
X13752Y24620D01*
X13717Y24645D01*
X10081Y26396D01*
X10050Y26404D01*
X10011Y26423D01*
X6155Y27613D01*
X6124Y27616D01*
X6082Y27629D01*
X2092Y28231D01*
X2060Y28229D01*
X2018Y28236D01*
X-2018Y28236D01*
X-2049Y28230D01*
X-2092Y28231D01*
X-6082Y27629D01*
X-6112Y27618D01*
X-6155Y27613D01*
X-10011Y26423D01*
X-10039Y26408D01*
X-10081Y26396D01*
X-13717Y24645D01*
X-13742Y24626D01*
X-13781Y24608D01*
X-17115Y22334D01*
X-17138Y22312D01*
X-17174Y22288D01*
X-20132Y19543D01*
X-20151Y19517D01*
X-20183Y19488D01*
X-22699Y16333D01*
X-22713Y16305D01*
X-22741Y16272D01*
X-24759Y12777D01*
X-24769Y12747D01*
X-24791Y12710D01*
X-26265Y8953D01*
X-26271Y8922D01*
X-26287Y8882D01*
X-27185Y4948D01*
X-27186Y4916D01*
X-27196Y4874D01*
X-27498Y850D01*
X-27494Y823D01*
X-27499Y796D01*
X-27482Y725D01*
X-27473Y653D01*
X-27459Y629D01*
X-27453Y603D01*
X-27410Y544D01*
X-27373Y481D01*
X-27351Y464D01*
X-27335Y442D01*
X-27272Y405D01*
X-27214Y361D01*
X-27187Y355D01*
X-27164Y341D01*
X-27060Y323D01*
X-27021Y314D01*
X-27011Y315D01*
X-27000Y313D01*
X27000Y313D01*
X27027Y319D01*
G37*
%LPC*%
G36*
X36213Y169546D02*
X36213Y169546D01*
X35018Y170741D01*
X35014Y170751D01*
X34985Y170791D01*
X34963Y170836D01*
X34892Y170919D01*
X34828Y171008D01*
X34789Y171040D01*
X34757Y171078D01*
X34667Y171141D01*
X34583Y171211D01*
X34538Y171232D01*
X34497Y171261D01*
X34394Y171300D01*
X34295Y171347D01*
X34246Y171356D01*
X34200Y171374D01*
X34090Y171386D01*
X33983Y171407D01*
X33933Y171403D01*
X33884Y171409D01*
X33775Y171394D01*
X33665Y171387D01*
X33618Y171372D01*
X33569Y171365D01*
X33416Y171313D01*
X31821Y170652D01*
X29609Y170652D01*
X27565Y171498D01*
X26001Y173063D01*
X25154Y175106D01*
X25154Y176429D01*
X25142Y176528D01*
X25139Y176627D01*
X25122Y176685D01*
X25114Y176745D01*
X25078Y176837D01*
X25050Y176932D01*
X25020Y176984D01*
X24997Y177041D01*
X24939Y177121D01*
X24889Y177206D01*
X24823Y177282D01*
X24811Y177298D01*
X24801Y177306D01*
X24783Y177327D01*
X24271Y177838D01*
X24271Y191812D01*
X25313Y192854D01*
X26741Y192854D01*
X26840Y192866D01*
X26939Y192869D01*
X26955Y192874D01*
X33486Y192874D01*
X33585Y192886D01*
X33684Y192889D01*
X33742Y192906D01*
X33802Y192914D01*
X33894Y192950D01*
X33989Y192978D01*
X34041Y193008D01*
X34098Y193031D01*
X34178Y193089D01*
X34263Y193139D01*
X34338Y193205D01*
X34355Y193217D01*
X34363Y193227D01*
X34384Y193245D01*
X34800Y193661D01*
X34860Y193739D01*
X34928Y193811D01*
X34957Y193864D01*
X34994Y193912D01*
X35034Y194003D01*
X35082Y194090D01*
X35097Y194149D01*
X35121Y194204D01*
X35136Y194302D01*
X35161Y194398D01*
X35167Y194498D01*
X35171Y194518D01*
X35169Y194531D01*
X35171Y194559D01*
X35171Y204062D01*
X36213Y205104D01*
X52687Y205104D01*
X53729Y204062D01*
X53729Y189588D01*
X52363Y188222D01*
X52290Y188128D01*
X52211Y188039D01*
X52193Y188003D01*
X52168Y187971D01*
X52121Y187862D01*
X52067Y187756D01*
X52058Y187717D01*
X52042Y187679D01*
X52023Y187562D01*
X51997Y187446D01*
X51998Y187405D01*
X51992Y187365D01*
X52003Y187247D01*
X52007Y187128D01*
X52018Y187089D01*
X52022Y187049D01*
X52062Y186937D01*
X52095Y186822D01*
X52116Y186787D01*
X52129Y186749D01*
X52196Y186651D01*
X52257Y186548D01*
X52295Y186505D01*
X52297Y186502D01*
X52298Y186501D01*
X52308Y186486D01*
X52323Y186473D01*
X52363Y186427D01*
X53729Y185062D01*
X53729Y170588D01*
X52687Y169546D01*
X36213Y169546D01*
G37*
%LPD*%
D10*
X55563Y67375D03*
X55563Y79375D03*
X55563Y91375D03*
D11*
X115888Y153988D03*
D12*
X-103188Y121675D03*
X-103188Y138675D03*
D13*
X66113Y165100D03*
X83113Y165100D03*
D12*
X103750Y153988D03*
X86750Y153988D03*
X48650Y114300D03*
X65650Y114300D03*
X48650Y123825D03*
X65650Y123825D03*
D14*
X47650Y136525D03*
X66650Y136525D03*
X47650Y150813D03*
X66650Y150813D03*
D15*
X-87313Y160338D03*
X-87313Y134938D03*
X-87313Y109538D03*
D16*
X30625Y116407D03*
X30625Y111406D03*
X30625Y106404D03*
X30625Y101403D03*
X30625Y96402D03*
X30625Y91401D03*
X30625Y86399D03*
X30625Y81398D03*
X30625Y76397D03*
X30625Y71396D03*
X30625Y66394D03*
X30625Y61393D03*
D17*
X24332Y55100D03*
X19331Y55100D03*
X14329Y55100D03*
X9328Y55100D03*
X4327Y55100D03*
X-674Y55100D03*
X-5676Y55100D03*
X-10677Y55100D03*
X-15678Y55100D03*
X-20679Y55100D03*
X-25681Y55100D03*
X-30682Y55100D03*
D16*
X-36975Y61393D03*
X-36975Y66394D03*
X-36975Y71396D03*
X-36975Y76397D03*
X-36975Y81398D03*
X-36975Y86399D03*
X-36975Y91401D03*
X-36975Y96402D03*
X-36975Y101403D03*
X-36975Y106404D03*
X-36975Y111406D03*
X-36975Y116407D03*
D17*
X-30682Y122700D03*
X-25681Y122700D03*
X-20679Y122700D03*
X-15678Y122700D03*
X-10677Y122700D03*
X-5676Y122700D03*
X-674Y122700D03*
X4327Y122700D03*
X9328Y122700D03*
X14329Y122700D03*
X19331Y122700D03*
X24332Y122700D03*
D18*
X-3175Y88900D03*
D19*
X28550Y194825D03*
X28550Y189825D03*
X28550Y184825D03*
X28550Y179825D03*
X9550Y179825D03*
X9550Y184825D03*
X9550Y189825D03*
X9550Y194825D03*
D20*
X19050Y187325D03*
D13*
X-3175Y193113D03*
X-3175Y210113D03*
X-12700Y193113D03*
X-12700Y210113D03*
X-26988Y183588D03*
X-26988Y200588D03*
X-36513Y183588D03*
X-36513Y200588D03*
D21*
X44450Y177825D03*
X44450Y196825D03*
D12*
X-82550Y189938D03*
X-82550Y206938D03*
X-68263Y189938D03*
X-68263Y206938D03*
X-69850Y155013D03*
X-69850Y172013D03*
X-52388Y155013D03*
X-52388Y172013D03*
D13*
X83113Y252413D03*
X66113Y252413D03*
X83113Y236538D03*
X66113Y236538D03*
D22*
X82600Y293913D03*
X165200Y150813D03*
X82600Y7713D03*
X-82600Y7713D03*
X-165200Y150813D03*
X-82600Y293913D03*
X123900Y222313D03*
X123900Y79313D03*
X0Y7713D03*
X-123900Y79313D03*
X-123900Y222313D03*
X0Y293913D03*
D23*
X-80963Y227013D03*
X-80963Y252413D03*
X-55563Y227013D03*
X-55563Y252413D03*
X-30163Y227013D03*
X-30163Y252413D03*
X-4763Y227013D03*
X-4763Y252413D03*
X20638Y227013D03*
X20638Y252413D03*
X46038Y227013D03*
X46038Y252413D03*
D24*
X-57150Y282575D03*
D25*
X-37148Y268288D01*
X-34925Y268288D01*
D24*
X-34925Y268288D03*
X-104041Y173038D03*
D25*
X-126222Y173038D01*
D24*
X-126222Y173038D03*
D25*
X165200Y155033D02*
X165200Y150813D01*
X165200Y155033D02*
X163491Y157993D01*
D24*
X-82550Y26988D03*
D25*
X-82550Y7763D01*
X-82600Y7713D01*
D24*
X-82550Y49782D03*
X23813Y38100D03*
X1588Y44450D03*
D25*
X-165200Y146592D02*
X-165200Y150813D01*
X-165200Y155033D01*
X157163Y150813D02*
X165200Y150813D01*
D24*
X98425Y92075D03*
X98642Y55091D03*
X-43995Y24268D03*
X139700Y182563D03*
X119063Y182563D03*
X-60325Y106363D03*
X-8184Y97084D03*
D26*
X-8184Y93909D02*
X-3175Y88900D01*
X-8184Y93909D02*
X-8184Y97084D01*
D24*
X44450Y118725D03*
X52388Y118725D03*
X-12700Y191750D03*
X-3175Y191750D03*
X-6350Y171112D03*
X3175Y171112D03*
D27*
X28550Y179825D02*
X30715Y177660D01*
X30715Y176213D01*
D24*
X30715Y176213D03*
D28*
X-11337Y191750D02*
X-12700Y193113D01*
X-11337Y191750D02*
X-3175Y191750D01*
X-1251Y189825D02*
X9550Y189825D01*
X-1251Y189825D02*
X-3175Y191750D01*
X-3175Y193113D01*
D24*
X40377Y95223D03*
D28*
X40377Y91177D01*
X35599Y86399D02*
X30625Y86399D01*
X35599Y86399D02*
X40377Y91177D01*
X64818Y114300D02*
X65650Y114300D01*
X64818Y114300D02*
X45740Y95223D01*
X40377Y95223D01*
D24*
X63500Y157163D03*
D28*
X37872Y71396D02*
X30625Y71396D01*
X48943Y60325D02*
X65088Y60325D01*
X76200Y71438D01*
X48943Y60325D02*
X37872Y71396D01*
X115888Y136175D02*
X115888Y153988D01*
X76200Y96487D02*
X76200Y71438D01*
X76200Y96487D02*
X115888Y136175D01*
X115888Y153988D02*
X103750Y153988D01*
X-36975Y116407D02*
X-43325Y122757D01*
X-62907Y122757D02*
X-75088Y134938D01*
X-87313Y134938D01*
X-88338Y135963D02*
X-103188Y138675D01*
X-88338Y135963D02*
X-87313Y134938D01*
X-62907Y122757D02*
X-43325Y122757D01*
X30625Y76397D02*
X42666Y76397D01*
X51687Y67375D02*
X55563Y67375D01*
X51687Y67375D02*
X42666Y76397D01*
X43298Y81398D02*
X30625Y81398D01*
X53275Y91375D02*
X55563Y91375D01*
X53275Y91375D02*
X43298Y81398D01*
X-79094Y117756D02*
X-87313Y109538D01*
X-41738Y111406D02*
X-36975Y111406D01*
X-41738Y111406D02*
X-48088Y117756D01*
X-79094Y117756D01*
X-106631Y52043D02*
X-106649Y52043D01*
D24*
X-106649Y52043D03*
D28*
X-106631Y52043D02*
X-89285Y34697D01*
X-35340Y34697D01*
X-20855Y54924D02*
X-20679Y55100D01*
X-20855Y49182D02*
X-35340Y34697D01*
X-20855Y49182D02*
X-20855Y54924D01*
X-25880Y50982D02*
X-37339Y39523D01*
X-25880Y50982D02*
X-25880Y54901D01*
X-25681Y55100D01*
X-84111Y39523D02*
X-123900Y79313D01*
X-84111Y39523D02*
X-37339Y39523D01*
D24*
X97179Y70870D03*
D28*
X70760Y44450D01*
X41275Y44450D01*
X30625Y55100D01*
X24332Y55100D01*
X96920Y63786D02*
X100114Y63786D01*
X115640Y79313D02*
X123900Y79313D01*
X115640Y79313D02*
X100114Y63786D01*
X96920Y63786D02*
X72759Y39624D01*
X28740Y49048D02*
X21464Y49048D01*
X19331Y51181D02*
X19331Y55100D01*
X19331Y51181D02*
X21464Y49048D01*
X38164Y39624D02*
X72759Y39624D01*
X38164Y39624D02*
X28740Y49048D01*
D24*
X-52518Y144453D03*
D28*
X-10852Y122875D02*
X-10677Y122700D01*
X-26687Y144453D02*
X-52518Y144453D01*
X-10852Y128618D02*
X-10852Y122875D01*
X-10852Y128618D02*
X-26687Y144453D01*
X-15678Y126619D02*
X-15678Y122700D01*
X-61059Y137259D02*
X-68263Y144463D01*
D24*
X-68263Y144463D03*
X-33083Y294436D03*
D28*
X-32560Y293913D02*
X0Y293913D01*
X-32560Y293913D02*
X-33083Y294436D01*
X-26318Y137259D02*
X-61059Y137259D01*
X-26318Y137259D02*
X-15678Y126619D01*
X-55285Y86877D02*
X-55285Y86427D01*
X-43325Y96402D02*
X-36975Y96402D01*
X-43325Y96402D02*
X-52850Y86877D01*
X-55285Y86877D01*
D24*
X-55285Y86427D03*
X-111125Y198438D03*
D28*
X-123900Y211213D01*
X-123900Y222313D01*
D24*
X-45285Y78734D03*
D28*
X-37174Y81199D02*
X-36975Y81398D01*
X-37174Y81199D02*
X-41093Y81199D01*
X-43558Y78734D02*
X-45285Y78734D01*
X-43558Y78734D02*
X-41093Y81199D01*
D24*
X33557Y8512D03*
D28*
X33557Y11687D02*
X14329Y30916D01*
X14329Y55100D01*
X33557Y11687D02*
X33557Y8512D01*
X9328Y21289D02*
X9328Y55100D01*
X9328Y21289D02*
X2661Y14622D01*
X2661Y10373D02*
X0Y7713D01*
X2661Y10373D02*
X2661Y14622D01*
D24*
X123408Y192700D03*
D28*
X127000Y189108D01*
X127000Y140462D02*
X82283Y95746D01*
X127000Y140462D02*
X127000Y189108D01*
X82283Y95746D02*
X82283Y70346D01*
X66973Y55035D01*
X34731Y66394D02*
X30625Y66394D01*
X34731Y66394D02*
X46090Y55035D01*
X66973Y55035D01*
X69056Y50006D02*
X87313Y68263D01*
X69056Y50006D02*
X43599Y50006D01*
X32213Y61393D01*
X30625Y61393D01*
X87313Y68263D02*
X87313Y93663D01*
X131838Y214375D02*
X123900Y222313D01*
X131838Y214375D02*
X131838Y138188D01*
X87313Y93663D01*
D24*
X-33338Y174625D03*
X82550Y244475D03*
D28*
X82550Y251850D01*
X83113Y252413D01*
X82550Y244475D02*
X83113Y243913D01*
X83113Y236538D01*
X-52388Y155013D02*
X-69850Y155013D01*
X-68263Y189938D02*
X-82550Y189938D01*
X-82788Y149416D02*
X-91837Y149416D01*
X-98235Y155813D01*
X-98235Y164862D01*
X-77191Y155013D02*
X-69850Y155013D01*
X-77191Y155013D02*
X-82788Y149416D01*
X-82550Y180546D02*
X-82550Y189938D01*
X-82550Y180546D02*
X-98235Y164862D01*
X-33338Y174063D02*
X-33338Y174625D01*
X-33338Y174063D02*
X-52388Y155013D01*
D27*
X-31750Y183588D02*
X-26988Y183588D01*
X-31750Y183588D02*
X-36513Y183588D01*
D28*
X-33338Y182000D02*
X-33338Y174625D01*
X-33338Y182000D02*
X-31750Y183588D01*
X4788Y184825D02*
X9550Y184825D01*
X4788Y184825D02*
X2686Y182723D01*
D29*
X-26123Y182723D01*
D28*
X-26988Y183588D01*
D27*
X28550Y189825D02*
X35275Y189825D01*
X41275Y195825D01*
D30*
X43450Y195825D02*
X44450Y196825D01*
X43450Y195825D02*
X41275Y195825D01*
D27*
X35275Y184825D02*
X28550Y184825D01*
X35275Y184825D02*
X41275Y178825D01*
D30*
X42275Y177825D02*
X44450Y177825D01*
X42275Y177825D02*
X41275Y178825D01*
D24*
X-63247Y61659D03*
D28*
X-60054Y61659D01*
X-58497Y63216D01*
X-37151Y71220D02*
X-36975Y71396D01*
X-37151Y71220D02*
X-42893Y71220D01*
X-50897Y63216D02*
X-58497Y63216D01*
X-50897Y63216D02*
X-42893Y71220D01*
D24*
X-55255Y95924D03*
D28*
X-50815Y95924D01*
X-45336Y101403D01*
D27*
X-36975Y101403D01*
D24*
X-55563Y56132D03*
D28*
X-47800Y57431D02*
X-43650Y61581D01*
X-54264Y57431D02*
X-55563Y56132D01*
X-43650Y61581D02*
X-43650Y63638D01*
X-40894Y66394D01*
X-36975Y66394D01*
X-47800Y57431D02*
X-54264Y57431D01*
D24*
X-14445Y45203D03*
D28*
X-10677Y50558D02*
X-10677Y55100D01*
X-14445Y46790D02*
X-14445Y45203D01*
X-14445Y46790D02*
X-10677Y50558D01*
D24*
X-34925Y130175D03*
D28*
X-30682Y125932D02*
X-30682Y122700D01*
X-30682Y125932D02*
X-34925Y130175D01*
D24*
X0Y131763D03*
D28*
X4327Y131763D01*
X4327Y122700D01*
D24*
X34915Y124230D03*
D28*
X33385Y122700D01*
X24332Y122700D01*
X-82550Y206938D02*
X-82550Y225425D01*
X-80963Y227013D01*
X-68263Y214313D02*
X-55563Y227013D01*
X-68263Y214313D02*
X-68263Y206938D01*
X-58738Y181538D02*
X-68263Y172013D01*
X-69850Y172013D01*
X-58738Y181538D02*
X-58738Y208391D01*
X-40116Y227013D01*
X-30163Y227013D01*
X-52388Y206375D02*
X-52388Y172013D01*
X-14716Y227013D02*
X-4763Y227013D01*
X-25638Y216091D02*
X-42672Y216091D01*
X-25638Y216091D02*
X-14716Y227013D01*
X-42672Y216091D02*
X-52388Y206375D01*
X61484Y252413D02*
X66113Y252413D01*
X35116Y241491D02*
X20638Y227013D01*
X50562Y241491D02*
X61484Y252413D01*
X50562Y241491D02*
X35116Y241491D01*
X55563Y236538D02*
X66113Y236538D01*
X55563Y236538D02*
X46038Y227013D01*
M02*
