G04 EAGLE Gerber RS-274X export*
G75*
%MOMM*%
%FSLAX34Y34*%
%LPD*%
%INTop Copper*%
%IPPOS*%
%AMOC8*
5,1,8,0,0,1.08239X$1,22.5*%
G01*
%ADD10R,0.800000X0.800000*%
%ADD11P,1.649562X8X112.500000*%
%ADD12R,1.100000X1.000000*%
%ADD13R,1.000000X1.100000*%
%ADD14C,1.524000*%
%ADD15R,1.000000X1.400000*%
%ADD16C,1.000000*%
%ADD17P,1.649562X8X22.500000*%
%ADD18C,0.812800*%
%ADD19C,0.756400*%
%ADD20C,0.406400*%
%ADD21C,0.304800*%
%ADD22C,0.609600*%

G36*
X-67572Y319D02*
X-67572Y319D01*
X-67544Y316D01*
X-67476Y339D01*
X-67405Y353D01*
X-67382Y369D01*
X-67355Y378D01*
X-67300Y425D01*
X-67241Y465D01*
X-67226Y489D01*
X-67205Y508D01*
X-67173Y572D01*
X-67134Y633D01*
X-67129Y661D01*
X-67117Y686D01*
X-67108Y788D01*
X-67101Y829D01*
X-67103Y839D01*
X-67102Y852D01*
X-67159Y1567D01*
X-33022Y1567D01*
X-32963Y1571D01*
X-32903Y1569D01*
X-32679Y1591D01*
X-32454Y1607D01*
X-32395Y1620D01*
X-32336Y1626D01*
X-32117Y1679D01*
X-31897Y1726D01*
X-31841Y1747D01*
X-31782Y1761D01*
X-31573Y1845D01*
X-31362Y1922D01*
X-31309Y1950D01*
X-31253Y1973D01*
X-31058Y2084D01*
X-30859Y2191D01*
X-30811Y2226D01*
X-30759Y2256D01*
X-30581Y2394D01*
X-30399Y2527D01*
X-30357Y2569D01*
X-30309Y2606D01*
X-30153Y2767D01*
X-29991Y2925D01*
X-29954Y2972D01*
X-29913Y3015D01*
X-29780Y3197D01*
X-29642Y3375D01*
X-29613Y3427D01*
X-29577Y3476D01*
X-29472Y3675D01*
X-29360Y3870D01*
X-29338Y3926D01*
X-29310Y3979D01*
X-29273Y4090D01*
X-29150Y4400D01*
X-29097Y4618D01*
X-29061Y4727D01*
X-29026Y4881D01*
X-28938Y5444D01*
X-28938Y5465D01*
X-28935Y5481D01*
X-28932Y5530D01*
X-28861Y5697D01*
X-28786Y5984D01*
X-28748Y6099D01*
X-28194Y8523D01*
X-28179Y8621D01*
X-28155Y8717D01*
X-28146Y8836D01*
X-28107Y9086D01*
X-28106Y9133D01*
X-28095Y9161D01*
X-27925Y9704D01*
X-27921Y9727D01*
X-27916Y9741D01*
X-27905Y9789D01*
X-27811Y9944D01*
X-27694Y10216D01*
X-27639Y10325D01*
X-26730Y12639D01*
X-26701Y12733D01*
X-26663Y12825D01*
X-26635Y12941D01*
X-26560Y13182D01*
X-26552Y13229D01*
X-26537Y13255D01*
X-26288Y13767D01*
X-26281Y13789D01*
X-26274Y13803D01*
X-26256Y13848D01*
X-26139Y13987D01*
X-25983Y14239D01*
X-25912Y14338D01*
X-24669Y16491D01*
X-24626Y16580D01*
X-24574Y16665D01*
X-24530Y16776D01*
X-24420Y17003D01*
X-24405Y17048D01*
X-24386Y17071D01*
X-24063Y17541D01*
X-24053Y17560D01*
X-24044Y17573D01*
X-24020Y17616D01*
X-23884Y17736D01*
X-23692Y17961D01*
X-23607Y18049D01*
X-22057Y19992D01*
X-22001Y20074D01*
X-21937Y20150D01*
X-21877Y20254D01*
X-21734Y20462D01*
X-21713Y20504D01*
X-21691Y20524D01*
X-21301Y20940D01*
X-21289Y20958D01*
X-21278Y20970D01*
X-21247Y21008D01*
X-21095Y21107D01*
X-20871Y21301D01*
X-20774Y21374D01*
X-18952Y23065D01*
X-18884Y23138D01*
X-18810Y23204D01*
X-18735Y23297D01*
X-18563Y23481D01*
X-18535Y23520D01*
X-18511Y23537D01*
X-18063Y23890D01*
X-18048Y23906D01*
X-18036Y23916D01*
X-18000Y23949D01*
X-17834Y24024D01*
X-17585Y24183D01*
X-17478Y24241D01*
X-15424Y25642D01*
X-15346Y25703D01*
X-15263Y25757D01*
X-15175Y25838D01*
X-14977Y25995D01*
X-14944Y26029D01*
X-14917Y26042D01*
X-14422Y26325D01*
X-14405Y26338D01*
X-14391Y26346D01*
X-14350Y26373D01*
X-14176Y26423D01*
X-13905Y26543D01*
X-13791Y26584D01*
X-11551Y27663D01*
X-11465Y27712D01*
X-11374Y27753D01*
X-11275Y27821D01*
X-11056Y27946D01*
X-11019Y27975D01*
X-10990Y27983D01*
X-10459Y28189D01*
X-10439Y28200D01*
X-10425Y28205D01*
X-10381Y28227D01*
X-10200Y28250D01*
X-9914Y28328D01*
X-9796Y28352D01*
X-7420Y29085D01*
X-7328Y29121D01*
X-7232Y29148D01*
X-7124Y29199D01*
X-6889Y29290D01*
X-6847Y29314D01*
X-6818Y29318D01*
X-6262Y29442D01*
X-6241Y29450D01*
X-6225Y29453D01*
X-6179Y29468D01*
X-5997Y29463D01*
X-5703Y29498D01*
X-5582Y29504D01*
X-3123Y29875D01*
X-3026Y29896D01*
X-2928Y29909D01*
X-2814Y29944D01*
X-2567Y29999D01*
X-2523Y30016D01*
X-2493Y30016D01*
X-1925Y30056D01*
X-1903Y30060D01*
X-1887Y30061D01*
X-1839Y30068D01*
X-1660Y30037D01*
X-1364Y30028D01*
X-1243Y30016D01*
X1243Y30016D01*
X1342Y30023D01*
X1441Y30021D01*
X1559Y30038D01*
X1811Y30056D01*
X1858Y30066D01*
X1887Y30061D01*
X2455Y30016D01*
X2477Y30017D01*
X2493Y30016D01*
X2542Y30016D01*
X2714Y29958D01*
X3005Y29905D01*
X3123Y29875D01*
X5582Y29504D01*
X5681Y29496D01*
X5778Y29480D01*
X5898Y29479D01*
X6150Y29459D01*
X6197Y29462D01*
X6225Y29453D01*
X6780Y29324D01*
X6802Y29322D01*
X6818Y29318D01*
X6866Y29311D01*
X7028Y29228D01*
X7308Y29132D01*
X7420Y29085D01*
X9796Y28352D01*
X9892Y28329D01*
X9986Y28298D01*
X10105Y28280D01*
X10351Y28223D01*
X10398Y28218D01*
X10425Y28205D01*
X10954Y27995D01*
X10976Y27990D01*
X10990Y27983D01*
X11037Y27969D01*
X11185Y27863D01*
X11447Y27726D01*
X11551Y27663D01*
X13791Y26584D01*
X13883Y26548D01*
X13971Y26503D01*
X14086Y26467D01*
X14320Y26374D01*
X14366Y26363D01*
X14391Y26346D01*
X14883Y26058D01*
X14904Y26050D01*
X14917Y26042D01*
X14961Y26021D01*
X15091Y25894D01*
X15330Y25720D01*
X15424Y25642D01*
X17478Y24241D01*
X17564Y24191D01*
X17644Y24133D01*
X17752Y24081D01*
X17970Y23954D01*
X18014Y23936D01*
X18036Y23916D01*
X18480Y23558D01*
X18498Y23547D01*
X18511Y23537D01*
X18551Y23509D01*
X18661Y23365D01*
X18872Y23156D01*
X18952Y23065D01*
X20774Y21374D01*
X20852Y21312D01*
X20923Y21243D01*
X21022Y21176D01*
X21218Y21017D01*
X21259Y20993D01*
X21278Y20970D01*
X21663Y20550D01*
X21680Y20536D01*
X21691Y20524D01*
X21727Y20491D01*
X21814Y20331D01*
X21991Y20094D01*
X22057Y19992D01*
X23607Y18049D01*
X23674Y17975D01*
X23734Y17897D01*
X23822Y17815D01*
X23993Y17629D01*
X24029Y17599D01*
X24044Y17573D01*
X24363Y17101D01*
X24378Y17084D01*
X24386Y17071D01*
X24417Y17033D01*
X24479Y16862D01*
X24619Y16601D01*
X24669Y16491D01*
X25516Y15024D01*
X25655Y14817D01*
X25791Y14608D01*
X25815Y14581D01*
X25835Y14552D01*
X26001Y14367D01*
X26165Y14179D01*
X26193Y14155D01*
X26216Y14129D01*
X26408Y13969D01*
X26596Y13806D01*
X26626Y13786D01*
X26654Y13763D01*
X26865Y13632D01*
X27075Y13497D01*
X27107Y13481D01*
X27138Y13463D01*
X27365Y13362D01*
X27592Y13257D01*
X27626Y13247D01*
X27659Y13233D01*
X27898Y13165D01*
X28137Y13093D01*
X28173Y13087D01*
X28207Y13078D01*
X28454Y13044D01*
X28701Y13006D01*
X28737Y13006D01*
X28772Y13001D01*
X29021Y13002D01*
X29270Y12999D01*
X29306Y13004D01*
X29342Y13004D01*
X29589Y13040D01*
X29835Y13072D01*
X29864Y13081D01*
X29905Y13087D01*
X30452Y13248D01*
X30533Y13285D01*
X30590Y13302D01*
X32451Y14073D01*
X34663Y14073D01*
X36707Y13226D01*
X38272Y11662D01*
X39118Y9618D01*
X39118Y7406D01*
X39027Y7186D01*
X38972Y7022D01*
X38908Y6861D01*
X38882Y6752D01*
X38846Y6645D01*
X38815Y6475D01*
X38774Y6307D01*
X38763Y6195D01*
X38743Y6085D01*
X38736Y5912D01*
X38719Y5740D01*
X38724Y5628D01*
X38719Y5515D01*
X38736Y5344D01*
X38743Y5171D01*
X38764Y5060D01*
X38775Y4948D01*
X38816Y4781D01*
X38847Y4611D01*
X38883Y4504D01*
X38910Y4395D01*
X38974Y4234D01*
X39029Y4071D01*
X39079Y3970D01*
X39121Y3866D01*
X39206Y3716D01*
X39284Y3561D01*
X39348Y3469D01*
X39404Y3371D01*
X39510Y3234D01*
X39608Y3092D01*
X39684Y3010D01*
X39753Y2921D01*
X39877Y2800D01*
X39994Y2673D01*
X40081Y2602D01*
X40162Y2524D01*
X40301Y2422D01*
X40435Y2313D01*
X40531Y2254D01*
X40622Y2188D01*
X40775Y2107D01*
X40922Y2017D01*
X41025Y1973D01*
X41125Y1920D01*
X41287Y1861D01*
X41446Y1793D01*
X41555Y1763D01*
X41660Y1725D01*
X41829Y1689D01*
X41996Y1644D01*
X42081Y1635D01*
X42218Y1606D01*
X42768Y1568D01*
X42781Y1567D01*
X67159Y1567D01*
X67102Y852D01*
X67106Y824D01*
X67101Y796D01*
X67118Y726D01*
X67126Y655D01*
X67141Y630D01*
X67147Y603D01*
X67190Y545D01*
X67226Y482D01*
X67248Y465D01*
X67265Y442D01*
X67327Y406D01*
X67384Y362D01*
X67412Y355D01*
X67436Y341D01*
X67536Y324D01*
X67577Y314D01*
X67587Y315D01*
X67600Y313D01*
X86600Y313D01*
X86676Y329D01*
X86754Y337D01*
X86773Y348D01*
X86795Y353D01*
X86859Y397D01*
X86927Y435D01*
X86943Y454D01*
X86959Y465D01*
X86983Y503D01*
X87033Y563D01*
X96533Y17063D01*
X96542Y17091D01*
X96558Y17114D01*
X96573Y17184D01*
X96596Y17252D01*
X96593Y17281D01*
X96599Y17309D01*
X96586Y17379D01*
X96580Y17450D01*
X96567Y17476D01*
X96561Y17504D01*
X96521Y17563D01*
X96488Y17627D01*
X96466Y17645D01*
X96450Y17669D01*
X96367Y17726D01*
X96335Y17753D01*
X96324Y17756D01*
X96314Y17764D01*
X95686Y18060D01*
X112728Y47579D01*
X112755Y47633D01*
X112787Y47685D01*
X112879Y47889D01*
X112978Y48091D01*
X112997Y48149D01*
X113022Y48204D01*
X113084Y48420D01*
X113153Y48633D01*
X113164Y48693D01*
X113181Y48751D01*
X113213Y48973D01*
X113251Y49195D01*
X113253Y49255D01*
X113262Y49315D01*
X113263Y49540D01*
X113270Y49764D01*
X113263Y49824D01*
X113263Y49885D01*
X113233Y50107D01*
X113208Y50330D01*
X113194Y50389D01*
X113185Y50449D01*
X113123Y50666D01*
X113068Y50883D01*
X113045Y50939D01*
X113029Y50997D01*
X112937Y51202D01*
X112852Y51410D01*
X112822Y51462D01*
X112797Y51518D01*
X112678Y51708D01*
X112565Y51902D01*
X112527Y51949D01*
X112495Y52001D01*
X112417Y52089D01*
X112211Y52349D01*
X112048Y52504D01*
X111972Y52590D01*
X111862Y52692D01*
X111418Y53049D01*
X111399Y53061D01*
X111387Y53070D01*
X111347Y53098D01*
X111237Y53243D01*
X111027Y53451D01*
X110946Y53542D01*
X110444Y54007D01*
X110369Y54067D01*
X110300Y54134D01*
X110147Y54246D01*
X110000Y54364D01*
X109918Y54413D01*
X109840Y54470D01*
X109673Y54559D01*
X109511Y54656D01*
X109422Y54693D01*
X109337Y54738D01*
X109159Y54803D01*
X108985Y54876D01*
X108892Y54900D01*
X108802Y54933D01*
X108617Y54972D01*
X108434Y55020D01*
X108339Y55031D01*
X108244Y55051D01*
X108056Y55064D01*
X107868Y55086D01*
X107772Y55084D01*
X107676Y55091D01*
X107487Y55077D01*
X107298Y55073D01*
X107204Y55057D01*
X107108Y55050D01*
X106923Y55010D01*
X106736Y54979D01*
X106644Y54950D01*
X106551Y54930D01*
X106373Y54865D01*
X106193Y54808D01*
X106106Y54767D01*
X106016Y54734D01*
X105849Y54644D01*
X105679Y54563D01*
X105598Y54510D01*
X105514Y54464D01*
X105361Y54352D01*
X105204Y54248D01*
X105132Y54184D01*
X105054Y54127D01*
X104919Y53995D01*
X104778Y53870D01*
X104715Y53796D01*
X104646Y53729D01*
X104531Y53579D01*
X104409Y53435D01*
X104357Y53354D01*
X104298Y53278D01*
X104242Y53172D01*
X104104Y52954D01*
X103985Y52690D01*
X103927Y52582D01*
X103595Y51781D01*
X101952Y50137D01*
X99804Y49248D01*
X96147Y49248D01*
X94000Y50137D01*
X80772Y63365D01*
X79882Y65513D01*
X79882Y80537D01*
X80772Y82685D01*
X95115Y97028D01*
X97263Y97918D01*
X99587Y97918D01*
X101735Y97028D01*
X102810Y95953D01*
X102941Y95839D01*
X103066Y95718D01*
X103156Y95652D01*
X103240Y95579D01*
X103386Y95485D01*
X103526Y95382D01*
X103625Y95330D01*
X103718Y95270D01*
X103876Y95196D01*
X104029Y95115D01*
X104134Y95077D01*
X104235Y95030D01*
X104402Y94979D01*
X104565Y94920D01*
X104674Y94897D01*
X104780Y94864D01*
X104952Y94838D01*
X105122Y94802D01*
X105233Y94794D01*
X105343Y94777D01*
X105517Y94775D01*
X105691Y94763D01*
X105802Y94771D01*
X105913Y94769D01*
X106085Y94791D01*
X106259Y94804D01*
X106368Y94827D01*
X106478Y94841D01*
X106646Y94887D01*
X106816Y94924D01*
X106921Y94963D01*
X107028Y94992D01*
X107188Y95061D01*
X107351Y95121D01*
X107449Y95174D01*
X107551Y95218D01*
X107700Y95308D01*
X107853Y95391D01*
X107942Y95457D01*
X108037Y95515D01*
X108172Y95625D01*
X108312Y95728D01*
X108371Y95789D01*
X108478Y95876D01*
X108542Y95947D01*
X108576Y95973D01*
X108788Y96110D01*
X109011Y96304D01*
X109108Y96378D01*
X110932Y98071D01*
X110999Y98144D01*
X111073Y98209D01*
X111148Y98303D01*
X111321Y98487D01*
X111348Y98526D01*
X111373Y98543D01*
X111820Y98896D01*
X111835Y98912D01*
X111848Y98922D01*
X111883Y98955D01*
X112049Y99030D01*
X112299Y99189D01*
X112405Y99247D01*
X114461Y100650D01*
X114539Y100711D01*
X114622Y100765D01*
X114710Y100846D01*
X114908Y101003D01*
X114941Y101037D01*
X114967Y101050D01*
X115462Y101333D01*
X115480Y101347D01*
X115494Y101354D01*
X115534Y101382D01*
X115709Y101431D01*
X115979Y101551D01*
X116093Y101593D01*
X118335Y102673D01*
X118421Y102723D01*
X118511Y102764D01*
X118610Y102831D01*
X118830Y102956D01*
X118867Y102985D01*
X118896Y102994D01*
X119427Y103200D01*
X119446Y103211D01*
X119461Y103216D01*
X119505Y103237D01*
X119685Y103260D01*
X119971Y103338D01*
X120090Y103363D01*
X122468Y104097D01*
X122560Y104133D01*
X122655Y104160D01*
X122763Y104212D01*
X122999Y104303D01*
X123040Y104326D01*
X123070Y104330D01*
X123626Y104455D01*
X123647Y104463D01*
X123662Y104466D01*
X123709Y104480D01*
X123890Y104476D01*
X124185Y104511D01*
X124306Y104517D01*
X126766Y104889D01*
X126863Y104910D01*
X126961Y104923D01*
X127076Y104958D01*
X127322Y105013D01*
X127367Y105030D01*
X127396Y105030D01*
X127965Y105070D01*
X127986Y105075D01*
X128002Y105075D01*
X128051Y105083D01*
X128230Y105052D01*
X128526Y105042D01*
X128647Y105030D01*
X131135Y105031D01*
X131234Y105038D01*
X131333Y105036D01*
X131451Y105053D01*
X131703Y105071D01*
X131750Y105081D01*
X131779Y105077D01*
X132347Y105032D01*
X132369Y105033D01*
X132385Y105031D01*
X132434Y105031D01*
X132606Y104974D01*
X132897Y104920D01*
X133015Y104891D01*
X135476Y104521D01*
X135575Y104513D01*
X135672Y104496D01*
X135792Y104496D01*
X136044Y104476D01*
X136091Y104479D01*
X136120Y104470D01*
X136675Y104341D01*
X136697Y104339D01*
X136712Y104335D01*
X136760Y104327D01*
X136922Y104245D01*
X137202Y104149D01*
X137314Y104102D01*
X139692Y103369D01*
X139789Y103346D01*
X139883Y103315D01*
X140001Y103297D01*
X140247Y103240D01*
X140294Y103236D01*
X140321Y103223D01*
X140851Y103012D01*
X140872Y103007D01*
X140887Y103001D01*
X141050Y102951D01*
X141108Y102937D01*
X141163Y102918D01*
X141384Y102873D01*
X141605Y102821D01*
X141664Y102816D01*
X141721Y102805D01*
X141947Y102791D01*
X142173Y102771D01*
X142232Y102774D01*
X142290Y102771D01*
X142516Y102789D01*
X142742Y102801D01*
X142799Y102812D01*
X142858Y102817D01*
X143079Y102867D01*
X143301Y102910D01*
X143357Y102929D01*
X143414Y102942D01*
X143625Y103022D01*
X143840Y103096D01*
X143892Y103123D01*
X143947Y103144D01*
X144145Y103252D01*
X144347Y103356D01*
X144395Y103390D01*
X144446Y103418D01*
X144627Y103553D01*
X144813Y103684D01*
X144856Y103724D01*
X144903Y103759D01*
X145063Y103918D01*
X145228Y104074D01*
X145265Y104119D01*
X145307Y104161D01*
X145375Y104256D01*
X145585Y104518D01*
X145698Y104709D01*
X145765Y104802D01*
X162808Y134322D01*
X163416Y133902D01*
X163443Y133890D01*
X163465Y133872D01*
X163534Y133852D01*
X163599Y133824D01*
X163628Y133823D01*
X163656Y133815D01*
X163727Y133823D01*
X163798Y133823D01*
X163825Y133834D01*
X163854Y133837D01*
X163916Y133873D01*
X163981Y133900D01*
X164002Y133921D01*
X164027Y133935D01*
X164090Y134012D01*
X164120Y134043D01*
X164124Y134053D01*
X164133Y134063D01*
X173633Y150563D01*
X173643Y150595D01*
X173652Y150608D01*
X173656Y150633D01*
X173657Y150636D01*
X173688Y150707D01*
X173688Y150730D01*
X173696Y150752D01*
X173690Y150829D01*
X173691Y150906D01*
X173681Y150930D01*
X173680Y150950D01*
X173659Y150990D01*
X173633Y151062D01*
X164133Y167562D01*
X164114Y167583D01*
X164101Y167610D01*
X164048Y167657D01*
X164001Y167711D01*
X163975Y167723D01*
X163954Y167743D01*
X163886Y167766D01*
X163822Y167797D01*
X163793Y167798D01*
X163766Y167807D01*
X163694Y167803D01*
X163623Y167806D01*
X163596Y167796D01*
X163567Y167794D01*
X163477Y167751D01*
X163437Y167737D01*
X163429Y167729D01*
X163416Y167723D01*
X162808Y167303D01*
X153125Y184075D01*
X153082Y184139D01*
X153046Y184207D01*
X152923Y184375D01*
X152806Y184547D01*
X152755Y184605D01*
X152709Y184667D01*
X152564Y184816D01*
X152424Y184970D01*
X152365Y185020D01*
X152312Y185075D01*
X152147Y185202D01*
X151987Y185336D01*
X151922Y185377D01*
X151861Y185424D01*
X151680Y185527D01*
X151503Y185637D01*
X151433Y185668D01*
X151366Y185706D01*
X151172Y185783D01*
X150982Y185867D01*
X150908Y185888D01*
X150837Y185916D01*
X150634Y185965D01*
X150434Y186022D01*
X150358Y186032D01*
X150283Y186050D01*
X150075Y186070D01*
X149869Y186098D01*
X149792Y186098D01*
X149716Y186105D01*
X149507Y186096D01*
X149299Y186095D01*
X149223Y186084D01*
X149146Y186081D01*
X148941Y186043D01*
X148736Y186013D01*
X148662Y185991D01*
X148586Y185977D01*
X148388Y185910D01*
X148189Y185852D01*
X148119Y185820D01*
X148046Y185795D01*
X147859Y185702D01*
X147670Y185616D01*
X147605Y185575D01*
X147537Y185540D01*
X147365Y185422D01*
X147189Y185310D01*
X147131Y185260D01*
X147068Y185217D01*
X146915Y185075D01*
X146756Y184940D01*
X146705Y184882D01*
X146649Y184830D01*
X146517Y184669D01*
X146379Y184513D01*
X146337Y184449D01*
X146288Y184389D01*
X146180Y184211D01*
X146065Y184037D01*
X146032Y183968D01*
X145993Y183902D01*
X145911Y183711D01*
X145821Y183522D01*
X145798Y183449D01*
X145768Y183378D01*
X145714Y183177D01*
X145652Y182978D01*
X145639Y182903D01*
X145619Y182828D01*
X145607Y182707D01*
X145560Y182416D01*
X145554Y182163D01*
X145543Y182044D01*
X145543Y181400D01*
X144653Y179253D01*
X143010Y177609D01*
X140862Y176720D01*
X117900Y176720D01*
X115753Y177609D01*
X114109Y179253D01*
X113220Y181400D01*
X113220Y183725D01*
X114109Y185872D01*
X115823Y187586D01*
X115849Y187599D01*
X115851Y187600D01*
X115854Y187602D01*
X116084Y187761D01*
X116318Y187922D01*
X116320Y187924D01*
X116323Y187925D01*
X116531Y188118D01*
X116738Y188308D01*
X116739Y188310D01*
X116741Y188312D01*
X116925Y188536D01*
X117099Y188748D01*
X117100Y188751D01*
X117102Y188753D01*
X117249Y188995D01*
X117395Y189235D01*
X117396Y189238D01*
X117398Y189240D01*
X117508Y189497D01*
X117620Y189758D01*
X117621Y189761D01*
X117622Y189764D01*
X117695Y190031D01*
X117770Y190308D01*
X117770Y190311D01*
X117771Y190314D01*
X117772Y190327D01*
X117841Y190873D01*
X117839Y191013D01*
X117848Y191098D01*
X117848Y193806D01*
X118236Y194743D01*
X118273Y194853D01*
X118318Y194960D01*
X118363Y195123D01*
X118417Y195284D01*
X118438Y195398D01*
X118468Y195509D01*
X118489Y195678D01*
X118520Y195844D01*
X118525Y195960D01*
X118539Y196075D01*
X118537Y196244D01*
X118544Y196413D01*
X118532Y196529D01*
X118530Y196644D01*
X118504Y196812D01*
X118488Y196980D01*
X118460Y197093D01*
X118442Y197207D01*
X118393Y197369D01*
X118353Y197534D01*
X118310Y197642D01*
X118276Y197752D01*
X118205Y197906D01*
X118142Y198063D01*
X118084Y198164D01*
X118035Y198269D01*
X117943Y198411D01*
X117859Y198558D01*
X117788Y198649D01*
X117725Y198747D01*
X117614Y198874D01*
X117510Y199008D01*
X117427Y199089D01*
X117350Y199176D01*
X117222Y199287D01*
X117101Y199405D01*
X117007Y199473D01*
X116920Y199549D01*
X116821Y199609D01*
X116641Y199741D01*
X116346Y199898D01*
X116246Y199959D01*
X116093Y200032D01*
X116001Y200069D01*
X115913Y200114D01*
X115798Y200150D01*
X115564Y200243D01*
X115518Y200254D01*
X115494Y200271D01*
X115001Y200558D01*
X114981Y200567D01*
X114967Y200575D01*
X114923Y200596D01*
X114793Y200723D01*
X114554Y200898D01*
X114461Y200975D01*
X112405Y202378D01*
X112320Y202428D01*
X112239Y202485D01*
X112131Y202538D01*
X111913Y202665D01*
X111870Y202683D01*
X111848Y202703D01*
X111404Y203061D01*
X111385Y203072D01*
X111373Y203082D01*
X111332Y203110D01*
X111222Y203255D01*
X111012Y203463D01*
X110931Y203554D01*
X109108Y205247D01*
X109031Y205309D01*
X108960Y205378D01*
X108861Y205446D01*
X108664Y205604D01*
X108624Y205629D01*
X108605Y205652D01*
X108219Y206072D01*
X108202Y206086D01*
X108192Y206097D01*
X108156Y206131D01*
X108069Y206290D01*
X107892Y206528D01*
X107826Y206630D01*
X106275Y208576D01*
X106208Y208649D01*
X106148Y208728D01*
X106060Y208810D01*
X105890Y208995D01*
X105853Y209025D01*
X105838Y209051D01*
X105519Y209523D01*
X105505Y209540D01*
X105496Y209553D01*
X105465Y209591D01*
X105403Y209762D01*
X105263Y210023D01*
X105213Y210134D01*
X103970Y212289D01*
X103914Y212372D01*
X103867Y212458D01*
X103792Y212552D01*
X103651Y212762D01*
X103620Y212797D01*
X103609Y212825D01*
X103364Y213339D01*
X103352Y213357D01*
X103345Y213372D01*
X103321Y213414D01*
X103285Y213592D01*
X103186Y213871D01*
X103152Y213988D01*
X102244Y216305D01*
X102201Y216395D01*
X102167Y216488D01*
X102108Y216591D01*
X101999Y216819D01*
X101973Y216859D01*
X101967Y216888D01*
X101801Y217434D01*
X101792Y217454D01*
X101788Y217469D01*
X101770Y217514D01*
X101761Y217696D01*
X101704Y217986D01*
X101689Y218107D01*
X101136Y220533D01*
X101107Y220628D01*
X101087Y220725D01*
X101044Y220837D01*
X100971Y221078D01*
X100951Y221121D01*
X100948Y221151D01*
X100866Y221715D01*
X100860Y221736D01*
X100858Y221752D01*
X100847Y221800D01*
X100865Y221980D01*
X100853Y222276D01*
X100855Y222398D01*
X100670Y224879D01*
X100656Y224977D01*
X100651Y225076D01*
X100624Y225193D01*
X100588Y225443D01*
X100575Y225488D01*
X100577Y225518D01*
X100580Y226088D01*
X100577Y226110D01*
X100577Y226125D01*
X100574Y226175D01*
X100618Y226351D01*
X100650Y226645D01*
X100671Y226765D01*
X100858Y229246D01*
X100858Y229345D01*
X100868Y229444D01*
X100859Y229563D01*
X100860Y229816D01*
X100854Y229863D01*
X100861Y229892D01*
X100948Y230455D01*
X100949Y230477D01*
X100951Y230492D01*
X100955Y230541D01*
X101025Y230709D01*
X101101Y230995D01*
X101139Y231110D01*
X101694Y233536D01*
X101709Y233634D01*
X101733Y233730D01*
X101743Y233850D01*
X101781Y234099D01*
X101782Y234147D01*
X101793Y234174D01*
X101964Y234718D01*
X101967Y234740D01*
X101972Y234755D01*
X101983Y234803D01*
X102078Y234958D01*
X102195Y235230D01*
X102250Y235338D01*
X103160Y237654D01*
X103190Y237748D01*
X103228Y237840D01*
X103255Y237957D01*
X103331Y238197D01*
X103338Y238244D01*
X103353Y238270D01*
X103603Y238782D01*
X103610Y238803D01*
X103617Y238817D01*
X103635Y238863D01*
X103751Y239002D01*
X103908Y239254D01*
X103979Y239352D01*
X105223Y241507D01*
X105267Y241596D01*
X105318Y241681D01*
X105363Y241792D01*
X105473Y242019D01*
X105488Y242064D01*
X105506Y242088D01*
X105830Y242557D01*
X105840Y242577D01*
X105849Y242589D01*
X105873Y242632D01*
X106009Y242752D01*
X106202Y242977D01*
X106286Y243065D01*
X107838Y245010D01*
X107894Y245091D01*
X107958Y245167D01*
X108018Y245271D01*
X108161Y245479D01*
X108183Y245521D01*
X108205Y245541D01*
X108594Y245957D01*
X108607Y245975D01*
X108618Y245987D01*
X108648Y246025D01*
X108801Y246124D01*
X108972Y246273D01*
X109040Y246322D01*
X109076Y246357D01*
X109121Y246391D01*
X110946Y248083D01*
X111014Y248156D01*
X111088Y248221D01*
X111163Y248315D01*
X111335Y248499D01*
X111363Y248538D01*
X111387Y248555D01*
X111835Y248908D01*
X111850Y248923D01*
X111862Y248933D01*
X111972Y249035D01*
X112013Y249079D01*
X112059Y249118D01*
X112208Y249286D01*
X112361Y249450D01*
X112396Y249500D01*
X112436Y249545D01*
X112560Y249733D01*
X112689Y249916D01*
X112717Y249970D01*
X112750Y250021D01*
X112846Y250224D01*
X112948Y250424D01*
X112968Y250481D01*
X112994Y250536D01*
X113061Y250750D01*
X113134Y250962D01*
X113146Y251022D01*
X113164Y251080D01*
X113200Y251301D01*
X113243Y251522D01*
X113246Y251582D01*
X113256Y251642D01*
X113260Y251867D01*
X113272Y252091D01*
X113267Y252151D01*
X113268Y252212D01*
X113241Y252435D01*
X113221Y252658D01*
X113208Y252717D01*
X113200Y252777D01*
X113143Y252994D01*
X113092Y253213D01*
X113070Y253270D01*
X113054Y253328D01*
X113006Y253435D01*
X112886Y253745D01*
X112776Y253941D01*
X112728Y254046D01*
X95686Y283565D01*
X96314Y283861D01*
X96336Y283878D01*
X96363Y283888D01*
X96415Y283937D01*
X96473Y283980D01*
X96487Y284005D01*
X96508Y284025D01*
X96537Y284090D01*
X96573Y284152D01*
X96576Y284181D01*
X96588Y284207D01*
X96589Y284279D01*
X96598Y284349D01*
X96590Y284377D01*
X96591Y284406D01*
X96555Y284500D01*
X96544Y284541D01*
X96537Y284549D01*
X96533Y284562D01*
X87033Y301062D01*
X86981Y301120D01*
X86935Y301183D01*
X86916Y301194D01*
X86901Y301211D01*
X86831Y301244D01*
X86764Y301284D01*
X86740Y301288D01*
X86722Y301297D01*
X86677Y301299D01*
X86600Y301312D01*
X67600Y301312D01*
X67572Y301306D01*
X67544Y301309D01*
X67476Y301286D01*
X67405Y301272D01*
X67382Y301256D01*
X67355Y301247D01*
X67300Y301200D01*
X67241Y301160D01*
X67226Y301136D01*
X67205Y301117D01*
X67173Y301053D01*
X67134Y300992D01*
X67129Y300964D01*
X67117Y300939D01*
X67108Y300837D01*
X67101Y300796D01*
X67103Y300786D01*
X67102Y300773D01*
X67159Y300058D01*
X33022Y300058D01*
X32963Y300054D01*
X32904Y300056D01*
X32679Y300034D01*
X32454Y300018D01*
X32396Y300005D01*
X32337Y300000D01*
X32117Y299946D01*
X31897Y299899D01*
X31841Y299878D01*
X31783Y299864D01*
X31574Y299781D01*
X31362Y299703D01*
X31309Y299675D01*
X31254Y299653D01*
X31058Y299541D01*
X30859Y299434D01*
X30811Y299399D01*
X30760Y299370D01*
X30581Y299231D01*
X30399Y299098D01*
X30357Y299056D01*
X30310Y299020D01*
X30153Y298858D01*
X29991Y298700D01*
X29955Y298653D01*
X29913Y298611D01*
X29781Y298428D01*
X29642Y298250D01*
X29613Y298198D01*
X29578Y298150D01*
X29472Y297951D01*
X29360Y297755D01*
X29338Y297699D01*
X29310Y297647D01*
X29273Y297536D01*
X29150Y297225D01*
X29097Y297008D01*
X29061Y296899D01*
X29026Y296745D01*
X28938Y296182D01*
X28938Y296160D01*
X28935Y296144D01*
X28932Y296095D01*
X28861Y295927D01*
X28786Y295641D01*
X28748Y295526D01*
X28194Y293102D01*
X28179Y293004D01*
X28155Y292908D01*
X28146Y292789D01*
X28107Y292539D01*
X28106Y292492D01*
X28095Y292464D01*
X27925Y291920D01*
X27921Y291899D01*
X27916Y291884D01*
X27905Y291836D01*
X27811Y291681D01*
X27694Y291409D01*
X27639Y291300D01*
X26730Y288986D01*
X26701Y288892D01*
X26662Y288800D01*
X26635Y288683D01*
X26560Y288443D01*
X26552Y288396D01*
X26537Y288370D01*
X26288Y287858D01*
X26281Y287836D01*
X26274Y287822D01*
X26256Y287777D01*
X26139Y287638D01*
X25983Y287386D01*
X25912Y287287D01*
X24669Y285134D01*
X24626Y285045D01*
X24574Y284960D01*
X24530Y284849D01*
X24420Y284622D01*
X24405Y284577D01*
X24386Y284554D01*
X24147Y284207D01*
X24132Y284187D01*
X24124Y284172D01*
X24063Y284084D01*
X24053Y284065D01*
X24044Y284052D01*
X24020Y284009D01*
X23884Y283889D01*
X23691Y283663D01*
X23607Y283576D01*
X22057Y281633D01*
X22001Y281551D01*
X21937Y281475D01*
X21877Y281371D01*
X21734Y281163D01*
X21713Y281121D01*
X21691Y281101D01*
X21301Y280685D01*
X21289Y280667D01*
X21278Y280655D01*
X21247Y280617D01*
X21095Y280518D01*
X20871Y280324D01*
X20774Y280251D01*
X18952Y278560D01*
X18884Y278487D01*
X18810Y278421D01*
X18735Y278328D01*
X18563Y278144D01*
X18535Y278105D01*
X18511Y278088D01*
X18063Y277735D01*
X18048Y277719D01*
X18036Y277709D01*
X18000Y277676D01*
X17834Y277601D01*
X17585Y277442D01*
X17478Y277384D01*
X15424Y275983D01*
X15346Y275922D01*
X15263Y275868D01*
X15175Y275787D01*
X14977Y275630D01*
X14944Y275596D01*
X14917Y275583D01*
X14422Y275300D01*
X14405Y275287D01*
X14391Y275279D01*
X14350Y275252D01*
X14176Y275202D01*
X13905Y275082D01*
X13791Y275041D01*
X11551Y273962D01*
X11465Y273913D01*
X11374Y273872D01*
X11275Y273804D01*
X11056Y273679D01*
X11019Y273650D01*
X10990Y273642D01*
X10566Y273477D01*
X10492Y273450D01*
X10481Y273444D01*
X10459Y273436D01*
X10439Y273425D01*
X10425Y273420D01*
X10381Y273398D01*
X10200Y273375D01*
X9914Y273297D01*
X9796Y273273D01*
X7420Y272540D01*
X7328Y272504D01*
X7232Y272477D01*
X7124Y272426D01*
X6889Y272335D01*
X6847Y272311D01*
X6818Y272307D01*
X6262Y272183D01*
X6241Y272175D01*
X6225Y272172D01*
X6179Y272157D01*
X5997Y272162D01*
X5703Y272127D01*
X5582Y272121D01*
X3123Y271750D01*
X3026Y271729D01*
X2928Y271716D01*
X2814Y271681D01*
X2567Y271626D01*
X2523Y271609D01*
X2493Y271609D01*
X1925Y271569D01*
X1903Y271565D01*
X1887Y271564D01*
X1839Y271557D01*
X1660Y271588D01*
X1364Y271597D01*
X1243Y271609D01*
X-1243Y271609D01*
X-1342Y271602D01*
X-1441Y271604D01*
X-1559Y271587D01*
X-1811Y271569D01*
X-1858Y271559D01*
X-1887Y271564D01*
X-2455Y271609D01*
X-2477Y271608D01*
X-2493Y271609D01*
X-2542Y271609D01*
X-2714Y271667D01*
X-3005Y271720D01*
X-3123Y271750D01*
X-5582Y272121D01*
X-5681Y272129D01*
X-5778Y272145D01*
X-5898Y272146D01*
X-6150Y272166D01*
X-6197Y272163D01*
X-6225Y272172D01*
X-6780Y272301D01*
X-6802Y272303D01*
X-6818Y272307D01*
X-6866Y272314D01*
X-7028Y272397D01*
X-7308Y272493D01*
X-7420Y272540D01*
X-9796Y273273D01*
X-9892Y273296D01*
X-9986Y273327D01*
X-10105Y273345D01*
X-10351Y273402D01*
X-10398Y273407D01*
X-10425Y273420D01*
X-10701Y273530D01*
X-10818Y273580D01*
X-10846Y273587D01*
X-10954Y273630D01*
X-10976Y273635D01*
X-10990Y273642D01*
X-11037Y273656D01*
X-11185Y273762D01*
X-11447Y273899D01*
X-11551Y273962D01*
X-13791Y275041D01*
X-13883Y275077D01*
X-13971Y275122D01*
X-14086Y275158D01*
X-14320Y275251D01*
X-14366Y275262D01*
X-14391Y275279D01*
X-14883Y275567D01*
X-14904Y275575D01*
X-14917Y275583D01*
X-14961Y275604D01*
X-15091Y275731D01*
X-15330Y275905D01*
X-15424Y275983D01*
X-17478Y277384D01*
X-17564Y277434D01*
X-17644Y277491D01*
X-17752Y277544D01*
X-17970Y277671D01*
X-18014Y277689D01*
X-18036Y277709D01*
X-18480Y278067D01*
X-18498Y278078D01*
X-18511Y278088D01*
X-18551Y278116D01*
X-18661Y278260D01*
X-18871Y278468D01*
X-18952Y278560D01*
X-20774Y280251D01*
X-20852Y280313D01*
X-20923Y280382D01*
X-21021Y280449D01*
X-21218Y280608D01*
X-21259Y280632D01*
X-21278Y280655D01*
X-21663Y281075D01*
X-21680Y281089D01*
X-21691Y281101D01*
X-21727Y281134D01*
X-21814Y281294D01*
X-21991Y281531D01*
X-22057Y281633D01*
X-22672Y282405D01*
X-22790Y282532D01*
X-22900Y282666D01*
X-22982Y282741D01*
X-23058Y282824D01*
X-23192Y282934D01*
X-23320Y283051D01*
X-23412Y283114D01*
X-23499Y283185D01*
X-23646Y283275D01*
X-23789Y283373D01*
X-23890Y283423D01*
X-23985Y283482D01*
X-24144Y283550D01*
X-24299Y283627D01*
X-24406Y283663D01*
X-24509Y283707D01*
X-24676Y283753D01*
X-24840Y283807D01*
X-24950Y283827D01*
X-25058Y283857D01*
X-25230Y283878D01*
X-25400Y283910D01*
X-25513Y283914D01*
X-25624Y283928D01*
X-25797Y283926D01*
X-25970Y283933D01*
X-26081Y283921D01*
X-26193Y283920D01*
X-26365Y283893D01*
X-26537Y283876D01*
X-26646Y283849D01*
X-26756Y283832D01*
X-26922Y283781D01*
X-27090Y283740D01*
X-27194Y283699D01*
X-27302Y283666D01*
X-27458Y283593D01*
X-27619Y283529D01*
X-27717Y283473D01*
X-27818Y283426D01*
X-27963Y283331D01*
X-28113Y283245D01*
X-28179Y283191D01*
X-28296Y283115D01*
X-28714Y282752D01*
X-28722Y282744D01*
X-38370Y273097D01*
X-38409Y273051D01*
X-38454Y273011D01*
X-38596Y272836D01*
X-38743Y272667D01*
X-38776Y272616D01*
X-38814Y272569D01*
X-38931Y272377D01*
X-39053Y272189D01*
X-39079Y272134D01*
X-39110Y272082D01*
X-39198Y271876D01*
X-39293Y271672D01*
X-39311Y271614D01*
X-39334Y271559D01*
X-39393Y271342D01*
X-39458Y271127D01*
X-39467Y271067D01*
X-39483Y271009D01*
X-39495Y270891D01*
X-39546Y270563D01*
X-39549Y270339D01*
X-39560Y270224D01*
X-39560Y265874D01*
X-39544Y265645D01*
X-39534Y265415D01*
X-39524Y265361D01*
X-39520Y265306D01*
X-39472Y265080D01*
X-39430Y264855D01*
X-39412Y264803D01*
X-39401Y264749D01*
X-39322Y264533D01*
X-39248Y264315D01*
X-39224Y264265D01*
X-39205Y264214D01*
X-39096Y264011D01*
X-38993Y263805D01*
X-38962Y263760D01*
X-38936Y263711D01*
X-38800Y263526D01*
X-38669Y263336D01*
X-38632Y263296D01*
X-38600Y263252D01*
X-38439Y263087D01*
X-38283Y262917D01*
X-38241Y262883D01*
X-38202Y262843D01*
X-38020Y262703D01*
X-37842Y262557D01*
X-37795Y262528D01*
X-37752Y262495D01*
X-37552Y262381D01*
X-37355Y262261D01*
X-37305Y262240D01*
X-37257Y262212D01*
X-37042Y262127D01*
X-36831Y262037D01*
X-36778Y262022D01*
X-36727Y262002D01*
X-36503Y261948D01*
X-36281Y261888D01*
X-36237Y261883D01*
X-36173Y261868D01*
X-35606Y261813D01*
X-35541Y261816D01*
X-35497Y261811D01*
X-26269Y261811D01*
X-20336Y255877D01*
X-20162Y255726D01*
X-19992Y255571D01*
X-19947Y255540D01*
X-19906Y255504D01*
X-19712Y255379D01*
X-19523Y255248D01*
X-19474Y255224D01*
X-19427Y255194D01*
X-19218Y255097D01*
X-19012Y254995D01*
X-18960Y254977D01*
X-18910Y254954D01*
X-18690Y254887D01*
X-18472Y254815D01*
X-18418Y254805D01*
X-18365Y254789D01*
X-18138Y254754D01*
X-17911Y254712D01*
X-17856Y254710D01*
X-17802Y254702D01*
X-17573Y254698D01*
X-17342Y254689D01*
X-17287Y254695D01*
X-17232Y254694D01*
X-17004Y254723D01*
X-16775Y254746D01*
X-16722Y254759D01*
X-16667Y254766D01*
X-16445Y254827D01*
X-16222Y254881D01*
X-16171Y254902D01*
X-16118Y254916D01*
X-15906Y255008D01*
X-15693Y255093D01*
X-15645Y255120D01*
X-15594Y255142D01*
X-15398Y255262D01*
X-15198Y255377D01*
X-15164Y255405D01*
X-15108Y255439D01*
X-14668Y255801D01*
X-14624Y255849D01*
X-14589Y255877D01*
X-8656Y261811D01*
X-869Y261811D01*
X5064Y255877D01*
X5238Y255726D01*
X5408Y255571D01*
X5453Y255540D01*
X5494Y255504D01*
X5688Y255379D01*
X5877Y255248D01*
X5926Y255224D01*
X5973Y255194D01*
X6182Y255097D01*
X6388Y254995D01*
X6440Y254977D01*
X6490Y254954D01*
X6710Y254887D01*
X6928Y254815D01*
X6982Y254805D01*
X7035Y254789D01*
X7262Y254754D01*
X7489Y254712D01*
X7544Y254710D01*
X7598Y254702D01*
X7827Y254698D01*
X8058Y254689D01*
X8113Y254695D01*
X8168Y254694D01*
X8396Y254723D01*
X8625Y254746D01*
X8678Y254759D01*
X8733Y254766D01*
X8955Y254827D01*
X9178Y254881D01*
X9229Y254902D01*
X9282Y254916D01*
X9494Y255008D01*
X9707Y255093D01*
X9755Y255120D01*
X9806Y255142D01*
X10002Y255262D01*
X10202Y255377D01*
X10236Y255405D01*
X10292Y255439D01*
X10732Y255801D01*
X10776Y255849D01*
X10811Y255877D01*
X16744Y261811D01*
X24531Y261811D01*
X30464Y255877D01*
X30638Y255726D01*
X30808Y255571D01*
X30853Y255540D01*
X30894Y255504D01*
X31088Y255379D01*
X31277Y255248D01*
X31326Y255224D01*
X31373Y255194D01*
X31582Y255097D01*
X31788Y254995D01*
X31840Y254977D01*
X31890Y254954D01*
X32110Y254887D01*
X32328Y254815D01*
X32382Y254805D01*
X32435Y254789D01*
X32662Y254754D01*
X32889Y254712D01*
X32944Y254710D01*
X32998Y254702D01*
X33227Y254698D01*
X33458Y254689D01*
X33513Y254695D01*
X33568Y254694D01*
X33796Y254723D01*
X34025Y254746D01*
X34078Y254759D01*
X34133Y254766D01*
X34355Y254827D01*
X34578Y254881D01*
X34629Y254902D01*
X34682Y254916D01*
X34894Y255008D01*
X35107Y255093D01*
X35155Y255120D01*
X35206Y255142D01*
X35402Y255262D01*
X35602Y255377D01*
X35636Y255405D01*
X35692Y255439D01*
X36132Y255801D01*
X36176Y255849D01*
X36211Y255877D01*
X42144Y261811D01*
X49931Y261811D01*
X55436Y256306D01*
X55436Y248856D01*
X55452Y248627D01*
X55462Y248397D01*
X55472Y248343D01*
X55476Y248288D01*
X55524Y248063D01*
X55566Y247837D01*
X55584Y247785D01*
X55595Y247731D01*
X55674Y247515D01*
X55748Y247297D01*
X55772Y247247D01*
X55791Y247196D01*
X55900Y246993D01*
X56003Y246787D01*
X56034Y246742D01*
X56060Y246693D01*
X56196Y246508D01*
X56327Y246318D01*
X56364Y246278D01*
X56396Y246234D01*
X56557Y246069D01*
X56713Y245899D01*
X56755Y245865D01*
X56794Y245825D01*
X56976Y245685D01*
X57154Y245539D01*
X57201Y245510D01*
X57244Y245477D01*
X57444Y245363D01*
X57641Y245243D01*
X57691Y245222D01*
X57739Y245194D01*
X57954Y245109D01*
X58165Y245019D01*
X58218Y245004D01*
X58269Y244984D01*
X58493Y244930D01*
X58715Y244870D01*
X58759Y244865D01*
X58823Y244850D01*
X59390Y244795D01*
X59455Y244798D01*
X59499Y244793D01*
X73948Y244793D01*
X73951Y244793D01*
X73953Y244793D01*
X74232Y244813D01*
X74516Y244833D01*
X74519Y244834D01*
X74522Y244834D01*
X74804Y244895D01*
X75074Y244952D01*
X75076Y244953D01*
X75079Y244954D01*
X75350Y245053D01*
X75609Y245148D01*
X75611Y245149D01*
X75614Y245150D01*
X75863Y245284D01*
X76111Y245417D01*
X76113Y245418D01*
X76116Y245420D01*
X76345Y245588D01*
X76571Y245753D01*
X76573Y245755D01*
X76575Y245757D01*
X76772Y245949D01*
X76979Y246151D01*
X76981Y246153D01*
X76983Y246155D01*
X77149Y246370D01*
X77328Y246601D01*
X77329Y246604D01*
X77331Y246606D01*
X77337Y246618D01*
X77610Y247096D01*
X77662Y247226D01*
X77702Y247302D01*
X77836Y247625D01*
X79400Y249189D01*
X81444Y250036D01*
X83656Y250036D01*
X85700Y249189D01*
X87264Y247625D01*
X88111Y245581D01*
X88111Y243369D01*
X87264Y241325D01*
X85700Y239761D01*
X83656Y238914D01*
X82785Y238914D01*
X82667Y238906D01*
X82549Y238907D01*
X82383Y238886D01*
X82216Y238874D01*
X82101Y238850D01*
X81984Y238835D01*
X81875Y238801D01*
X81659Y238755D01*
X81341Y238639D01*
X81230Y238605D01*
X80222Y238188D01*
X57964Y238188D01*
X57849Y238180D01*
X57733Y238181D01*
X57565Y238160D01*
X57395Y238148D01*
X57282Y238124D01*
X57168Y238109D01*
X57004Y238064D01*
X56838Y238029D01*
X56730Y237989D01*
X56619Y237959D01*
X56463Y237891D01*
X56303Y237833D01*
X56201Y237778D01*
X56095Y237733D01*
X55951Y237644D01*
X55800Y237564D01*
X55707Y237496D01*
X55609Y237436D01*
X55478Y237328D01*
X55341Y237228D01*
X55258Y237147D01*
X55169Y237074D01*
X55054Y236949D01*
X54932Y236830D01*
X54862Y236739D01*
X54784Y236654D01*
X54688Y236514D01*
X54584Y236380D01*
X54527Y236280D01*
X54461Y236185D01*
X54386Y236032D01*
X54301Y235885D01*
X54259Y235777D01*
X54208Y235674D01*
X54154Y235514D01*
X54091Y235355D01*
X54064Y235243D01*
X54028Y235134D01*
X53997Y234967D01*
X53957Y234801D01*
X53946Y234687D01*
X53925Y234573D01*
X53918Y234403D01*
X53902Y234234D01*
X53907Y234119D01*
X53902Y234004D01*
X53919Y233835D01*
X53926Y233665D01*
X53947Y233552D01*
X53959Y233437D01*
X53999Y233272D01*
X54030Y233105D01*
X54067Y232995D01*
X54094Y232884D01*
X54158Y232726D01*
X54212Y232565D01*
X54263Y232461D01*
X54306Y232355D01*
X54391Y232207D01*
X54467Y232055D01*
X54532Y231960D01*
X54590Y231860D01*
X54663Y231771D01*
X54791Y231586D01*
X55016Y231342D01*
X55090Y231251D01*
X55436Y230906D01*
X55436Y223119D01*
X52118Y219801D01*
X52078Y219755D01*
X52034Y219715D01*
X51965Y219631D01*
X51960Y219625D01*
X51939Y219599D01*
X51892Y219541D01*
X51744Y219371D01*
X51711Y219320D01*
X51673Y219273D01*
X51621Y219187D01*
X51611Y219175D01*
X51577Y219115D01*
X51556Y219081D01*
X51434Y218893D01*
X51409Y218838D01*
X51378Y218786D01*
X51342Y218702D01*
X51329Y218680D01*
X51289Y218580D01*
X51194Y218376D01*
X51177Y218318D01*
X51153Y218263D01*
X51132Y218183D01*
X51119Y218150D01*
X51089Y218026D01*
X51029Y217831D01*
X51020Y217771D01*
X51004Y217713D01*
X50999Y217654D01*
X50984Y217596D01*
X50970Y217449D01*
X50942Y217267D01*
X50940Y217143D01*
X50929Y217029D01*
X50932Y216969D01*
X50928Y216928D01*
X50928Y182592D01*
X50944Y182363D01*
X50954Y182132D01*
X50964Y182078D01*
X50968Y182024D01*
X51016Y181798D01*
X51058Y181572D01*
X51075Y181520D01*
X51087Y181466D01*
X51166Y181250D01*
X51239Y181032D01*
X51264Y180983D01*
X51283Y180931D01*
X51391Y180728D01*
X51494Y180523D01*
X51525Y180477D01*
X51551Y180429D01*
X51687Y180243D01*
X51818Y180054D01*
X51855Y180013D01*
X51888Y179969D01*
X52048Y179804D01*
X52204Y179635D01*
X52247Y179600D01*
X52285Y179561D01*
X52467Y179420D01*
X52645Y179274D01*
X52693Y179246D01*
X52736Y179212D01*
X52936Y179098D01*
X53133Y178979D01*
X53183Y178957D01*
X53231Y178930D01*
X53445Y178845D01*
X53656Y178754D01*
X53709Y178740D01*
X53760Y178720D01*
X53985Y178665D01*
X54206Y178605D01*
X54250Y178601D01*
X54314Y178585D01*
X54881Y178530D01*
X54947Y178533D01*
X54991Y178529D01*
X56537Y178529D01*
X57579Y177487D01*
X57579Y166786D01*
X57595Y166557D01*
X57605Y166327D01*
X57615Y166273D01*
X57619Y166218D01*
X57667Y165993D01*
X57709Y165767D01*
X57726Y165715D01*
X57738Y165661D01*
X57817Y165445D01*
X57890Y165227D01*
X57915Y165177D01*
X57934Y165126D01*
X58042Y164923D01*
X58145Y164717D01*
X58176Y164672D01*
X58202Y164623D01*
X58338Y164438D01*
X58469Y164248D01*
X58506Y164208D01*
X58539Y164164D01*
X58699Y163999D01*
X58855Y163829D01*
X58898Y163795D01*
X58936Y163755D01*
X59118Y163615D01*
X59296Y163469D01*
X59344Y163440D01*
X59387Y163407D01*
X59587Y163293D01*
X59784Y163173D01*
X59834Y163152D01*
X59882Y163124D01*
X60096Y163039D01*
X60307Y162949D01*
X60360Y162934D01*
X60411Y162914D01*
X60636Y162860D01*
X60857Y162800D01*
X60901Y162795D01*
X60965Y162780D01*
X61532Y162725D01*
X61598Y162728D01*
X61642Y162723D01*
X64606Y162723D01*
X66650Y161877D01*
X68214Y160312D01*
X69061Y158269D01*
X69061Y156056D01*
X68211Y154005D01*
X68185Y153981D01*
X68043Y153807D01*
X67895Y153637D01*
X67862Y153587D01*
X67824Y153540D01*
X67708Y153348D01*
X67585Y153159D01*
X67560Y153104D01*
X67529Y153053D01*
X67440Y152846D01*
X67346Y152642D01*
X67328Y152584D01*
X67304Y152529D01*
X67245Y152312D01*
X67180Y152097D01*
X67171Y152037D01*
X67155Y151979D01*
X67144Y151862D01*
X67093Y151534D01*
X67090Y151309D01*
X67079Y151194D01*
X67079Y140013D01*
X65681Y138616D01*
X65642Y138570D01*
X65597Y138529D01*
X65455Y138355D01*
X65308Y138186D01*
X65275Y138135D01*
X65237Y138088D01*
X65120Y137896D01*
X64998Y137707D01*
X64972Y137653D01*
X64941Y137601D01*
X64853Y137395D01*
X64758Y137191D01*
X64740Y137133D01*
X64717Y137077D01*
X64658Y136861D01*
X64593Y136645D01*
X64584Y136586D01*
X64568Y136527D01*
X64556Y136410D01*
X64505Y136082D01*
X64503Y135865D01*
X64493Y135764D01*
X64493Y135760D01*
X64491Y135743D01*
X64491Y131992D01*
X64507Y131763D01*
X64517Y131532D01*
X64527Y131478D01*
X64531Y131424D01*
X64579Y131198D01*
X64621Y130972D01*
X64639Y130920D01*
X64650Y130866D01*
X64729Y130650D01*
X64803Y130432D01*
X64827Y130383D01*
X64846Y130331D01*
X64955Y130128D01*
X65058Y129923D01*
X65089Y129877D01*
X65115Y129829D01*
X65251Y129643D01*
X65382Y129454D01*
X65419Y129413D01*
X65451Y129369D01*
X65612Y129204D01*
X65768Y129035D01*
X65810Y129000D01*
X65849Y128961D01*
X66031Y128820D01*
X66209Y128674D01*
X66256Y128646D01*
X66299Y128612D01*
X66499Y128498D01*
X66696Y128379D01*
X66746Y128357D01*
X66794Y128330D01*
X67009Y128245D01*
X67220Y128154D01*
X67273Y128140D01*
X67324Y128120D01*
X67548Y128065D01*
X67770Y128005D01*
X67814Y128001D01*
X67878Y127985D01*
X68445Y127930D01*
X68510Y127933D01*
X68554Y127929D01*
X81374Y127929D01*
X82416Y126887D01*
X82416Y114413D01*
X81374Y113371D01*
X69687Y113371D01*
X69656Y113391D01*
X69601Y113417D01*
X69550Y113448D01*
X69343Y113536D01*
X69139Y113631D01*
X69081Y113649D01*
X69026Y113672D01*
X68809Y113731D01*
X68594Y113796D01*
X68534Y113805D01*
X68476Y113821D01*
X68359Y113833D01*
X68031Y113884D01*
X67806Y113887D01*
X67691Y113898D01*
X61642Y113898D01*
X61413Y113882D01*
X61182Y113872D01*
X61128Y113862D01*
X61074Y113858D01*
X60848Y113810D01*
X60622Y113768D01*
X60570Y113750D01*
X60516Y113739D01*
X60300Y113660D01*
X60082Y113586D01*
X60033Y113562D01*
X59981Y113543D01*
X59778Y113434D01*
X59573Y113331D01*
X59527Y113300D01*
X59479Y113274D01*
X59293Y113138D01*
X59104Y113007D01*
X59063Y112970D01*
X59019Y112938D01*
X58854Y112777D01*
X58685Y112621D01*
X58650Y112579D01*
X58611Y112540D01*
X58470Y112358D01*
X58324Y112180D01*
X58296Y112133D01*
X58262Y112090D01*
X58148Y111890D01*
X58029Y111693D01*
X58007Y111643D01*
X57980Y111595D01*
X57895Y111380D01*
X57804Y111169D01*
X57790Y111116D01*
X57770Y111065D01*
X57715Y110841D01*
X57655Y110619D01*
X57651Y110575D01*
X57635Y110511D01*
X57580Y109944D01*
X57583Y109879D01*
X57579Y109835D01*
X57579Y95504D01*
X57595Y95275D01*
X57605Y95045D01*
X57615Y94991D01*
X57619Y94936D01*
X57667Y94711D01*
X57709Y94485D01*
X57726Y94433D01*
X57738Y94379D01*
X57817Y94163D01*
X57890Y93945D01*
X57915Y93895D01*
X57934Y93844D01*
X58042Y93641D01*
X58145Y93435D01*
X58176Y93390D01*
X58202Y93341D01*
X58338Y93156D01*
X58469Y92966D01*
X58506Y92926D01*
X58539Y92882D01*
X58699Y92717D01*
X58855Y92547D01*
X58898Y92513D01*
X58936Y92473D01*
X59118Y92333D01*
X59296Y92187D01*
X59344Y92158D01*
X59387Y92125D01*
X59587Y92011D01*
X59784Y91891D01*
X59834Y91870D01*
X59882Y91842D01*
X60096Y91757D01*
X60307Y91667D01*
X60360Y91652D01*
X60411Y91632D01*
X60636Y91578D01*
X60857Y91518D01*
X60901Y91513D01*
X60965Y91498D01*
X61532Y91443D01*
X61598Y91446D01*
X61642Y91441D01*
X66037Y91441D01*
X67079Y90399D01*
X67079Y74900D01*
X67043Y74855D01*
X66895Y74686D01*
X66862Y74635D01*
X66824Y74588D01*
X66707Y74396D01*
X66585Y74207D01*
X66560Y74153D01*
X66529Y74101D01*
X66440Y73895D01*
X66345Y73691D01*
X66328Y73633D01*
X66304Y73577D01*
X66246Y73361D01*
X66180Y73145D01*
X66171Y73086D01*
X66155Y73027D01*
X66144Y72910D01*
X66093Y72582D01*
X66090Y72357D01*
X66079Y72243D01*
X66079Y58851D01*
X65037Y57809D01*
X53547Y57809D01*
X53499Y57850D01*
X53330Y58005D01*
X53284Y58037D01*
X53243Y58072D01*
X53050Y58198D01*
X52860Y58328D01*
X52811Y58352D01*
X52765Y58382D01*
X52556Y58479D01*
X52350Y58582D01*
X52298Y58599D01*
X52248Y58622D01*
X52028Y58689D01*
X51809Y58762D01*
X51755Y58771D01*
X51703Y58787D01*
X51475Y58823D01*
X51249Y58864D01*
X51194Y58866D01*
X51140Y58875D01*
X50910Y58878D01*
X50679Y58887D01*
X50625Y58882D01*
X50570Y58882D01*
X50342Y58853D01*
X50113Y58830D01*
X50059Y58817D01*
X50005Y58810D01*
X49783Y58750D01*
X49559Y58695D01*
X49508Y58674D01*
X49455Y58660D01*
X49244Y58569D01*
X49030Y58483D01*
X48982Y58456D01*
X48932Y58434D01*
X48735Y58314D01*
X48536Y58200D01*
X48502Y58171D01*
X48446Y58137D01*
X48046Y57809D01*
X41375Y57809D01*
X41315Y57805D01*
X41255Y57807D01*
X41031Y57785D01*
X40807Y57769D01*
X40748Y57756D01*
X40688Y57750D01*
X40469Y57697D01*
X40250Y57650D01*
X40193Y57629D01*
X40134Y57615D01*
X39925Y57531D01*
X39714Y57454D01*
X39661Y57425D01*
X39605Y57403D01*
X39410Y57291D01*
X39212Y57185D01*
X39163Y57150D01*
X39111Y57119D01*
X39020Y57045D01*
X38752Y56849D01*
X38591Y56692D01*
X38502Y56619D01*
X31471Y49588D01*
X29994Y48976D01*
X29941Y48961D01*
X29775Y48926D01*
X29666Y48886D01*
X29555Y48856D01*
X29399Y48788D01*
X29239Y48730D01*
X29138Y48675D01*
X29032Y48630D01*
X28887Y48541D01*
X28737Y48461D01*
X28644Y48393D01*
X28546Y48333D01*
X28414Y48225D01*
X28277Y48125D01*
X28195Y48044D01*
X28106Y47971D01*
X27991Y47846D01*
X27869Y47727D01*
X27798Y47636D01*
X27720Y47551D01*
X27624Y47411D01*
X27520Y47277D01*
X27463Y47177D01*
X27398Y47082D01*
X27322Y46929D01*
X27238Y46782D01*
X27195Y46674D01*
X27144Y46571D01*
X27091Y46411D01*
X27028Y46252D01*
X27001Y46140D01*
X26964Y46031D01*
X26934Y45864D01*
X26894Y45698D01*
X26882Y45584D01*
X26862Y45470D01*
X26855Y45300D01*
X26838Y45131D01*
X26843Y45016D01*
X26839Y44901D01*
X26856Y44732D01*
X26863Y44562D01*
X26884Y44449D01*
X26895Y44334D01*
X26936Y44169D01*
X26967Y44002D01*
X27004Y43892D01*
X27031Y43781D01*
X27094Y43623D01*
X27148Y43462D01*
X27200Y43358D01*
X27243Y43252D01*
X27327Y43104D01*
X27403Y42952D01*
X27469Y42857D01*
X27526Y42757D01*
X27599Y42668D01*
X27727Y42483D01*
X27952Y42239D01*
X28027Y42148D01*
X28766Y41410D01*
X29655Y39262D01*
X29655Y36938D01*
X28766Y34790D01*
X27122Y33147D01*
X24975Y32257D01*
X22650Y32257D01*
X20503Y33147D01*
X16232Y37417D01*
X16187Y37457D01*
X16146Y37501D01*
X15972Y37643D01*
X15802Y37791D01*
X15752Y37824D01*
X15705Y37862D01*
X15513Y37979D01*
X15324Y38101D01*
X15269Y38126D01*
X15218Y38157D01*
X15011Y38246D01*
X14807Y38341D01*
X14749Y38358D01*
X14694Y38382D01*
X14477Y38440D01*
X14262Y38506D01*
X14202Y38515D01*
X14144Y38531D01*
X14027Y38542D01*
X13699Y38593D01*
X13474Y38596D01*
X13359Y38607D01*
X425Y38607D01*
X-1722Y39497D01*
X-3374Y41149D01*
X-3376Y41150D01*
X-3378Y41153D01*
X-3602Y41347D01*
X-3804Y41522D01*
X-3806Y41524D01*
X-3809Y41526D01*
X-4052Y41683D01*
X-4282Y41832D01*
X-4285Y41833D01*
X-4287Y41835D01*
X-4540Y41952D01*
X-4799Y42072D01*
X-4802Y42073D01*
X-4804Y42074D01*
X-5069Y42154D01*
X-5345Y42237D01*
X-5347Y42238D01*
X-5350Y42239D01*
X-5632Y42282D01*
X-5908Y42325D01*
X-5910Y42325D01*
X-5913Y42325D01*
X-6201Y42329D01*
X-6477Y42332D01*
X-6480Y42332D01*
X-6483Y42332D01*
X-6758Y42296D01*
X-7043Y42260D01*
X-7045Y42260D01*
X-7048Y42259D01*
X-7060Y42255D01*
X-7592Y42110D01*
X-7720Y42054D01*
X-7802Y42030D01*
X-8116Y41900D01*
X-8201Y41900D01*
X-8261Y41896D01*
X-8322Y41898D01*
X-8545Y41876D01*
X-8769Y41860D01*
X-8829Y41847D01*
X-8889Y41841D01*
X-9107Y41788D01*
X-9327Y41741D01*
X-9383Y41720D01*
X-9442Y41706D01*
X-9651Y41622D01*
X-9862Y41545D01*
X-9915Y41516D01*
X-9971Y41494D01*
X-10166Y41382D01*
X-10364Y41276D01*
X-10413Y41241D01*
X-10465Y41210D01*
X-10556Y41136D01*
X-10824Y40940D01*
X-10985Y40783D01*
X-11074Y40710D01*
X-11296Y40488D01*
X-13339Y39642D01*
X-15552Y39642D01*
X-17595Y40488D01*
X-19160Y42053D01*
X-20006Y44096D01*
X-20006Y45591D01*
X-20022Y45820D01*
X-20032Y46051D01*
X-20042Y46105D01*
X-20046Y46159D01*
X-20094Y46385D01*
X-20136Y46611D01*
X-20154Y46663D01*
X-20165Y46717D01*
X-20244Y46933D01*
X-20318Y47151D01*
X-20342Y47200D01*
X-20361Y47252D01*
X-20470Y47455D01*
X-20573Y47660D01*
X-20604Y47706D01*
X-20630Y47754D01*
X-20765Y47940D01*
X-20897Y48129D01*
X-20934Y48170D01*
X-20966Y48214D01*
X-21127Y48379D01*
X-21283Y48548D01*
X-21325Y48583D01*
X-21364Y48622D01*
X-21545Y48763D01*
X-21724Y48909D01*
X-21771Y48937D01*
X-21814Y48971D01*
X-22014Y49085D01*
X-22211Y49204D01*
X-22261Y49226D01*
X-22309Y49253D01*
X-22524Y49338D01*
X-22735Y49429D01*
X-22788Y49443D01*
X-22839Y49463D01*
X-23063Y49518D01*
X-23285Y49578D01*
X-23329Y49582D01*
X-23393Y49598D01*
X-23960Y49653D01*
X-24025Y49650D01*
X-24069Y49654D01*
X-53045Y49654D01*
X-54512Y50262D01*
X-54623Y50299D01*
X-54732Y50346D01*
X-54893Y50390D01*
X-55052Y50443D01*
X-55168Y50464D01*
X-55282Y50495D01*
X-55395Y50506D01*
X-55612Y50546D01*
X-55951Y50560D01*
X-56067Y50571D01*
X-56669Y50571D01*
X-56728Y50596D01*
X-56892Y50651D01*
X-57052Y50714D01*
X-57162Y50741D01*
X-57268Y50777D01*
X-57438Y50808D01*
X-57606Y50848D01*
X-57718Y50859D01*
X-57829Y50880D01*
X-58001Y50887D01*
X-58173Y50904D01*
X-58286Y50899D01*
X-58398Y50904D01*
X-58570Y50887D01*
X-58743Y50879D01*
X-58853Y50859D01*
X-58965Y50848D01*
X-59133Y50807D01*
X-59303Y50775D01*
X-59409Y50739D01*
X-59519Y50713D01*
X-59679Y50649D01*
X-59843Y50594D01*
X-59944Y50543D01*
X-60048Y50502D01*
X-60198Y50416D01*
X-60352Y50339D01*
X-60445Y50275D01*
X-60543Y50219D01*
X-60679Y50113D01*
X-60821Y50015D01*
X-60904Y49939D01*
X-60993Y49870D01*
X-61113Y49746D01*
X-61240Y49629D01*
X-61311Y49541D01*
X-61390Y49461D01*
X-61491Y49322D01*
X-61601Y49188D01*
X-61659Y49091D01*
X-61725Y49001D01*
X-61807Y48848D01*
X-61896Y48700D01*
X-61941Y48597D01*
X-61994Y48498D01*
X-62053Y48335D01*
X-62121Y48177D01*
X-62150Y48068D01*
X-62189Y47963D01*
X-62225Y47793D01*
X-62270Y47627D01*
X-62278Y47542D01*
X-62307Y47405D01*
X-62345Y46855D01*
X-62346Y46842D01*
X-62346Y44767D01*
X-62330Y44538D01*
X-62320Y44307D01*
X-62310Y44253D01*
X-62306Y44199D01*
X-62258Y43973D01*
X-62216Y43747D01*
X-62199Y43695D01*
X-62187Y43641D01*
X-62108Y43425D01*
X-62035Y43207D01*
X-62010Y43158D01*
X-61991Y43106D01*
X-61883Y42903D01*
X-61780Y42698D01*
X-61749Y42652D01*
X-61723Y42604D01*
X-61587Y42418D01*
X-61456Y42229D01*
X-61419Y42188D01*
X-61386Y42144D01*
X-61226Y41979D01*
X-61070Y41810D01*
X-61027Y41775D01*
X-60989Y41736D01*
X-60807Y41595D01*
X-60629Y41449D01*
X-60581Y41421D01*
X-60538Y41387D01*
X-60338Y41273D01*
X-60141Y41154D01*
X-60091Y41132D01*
X-60043Y41105D01*
X-59829Y41020D01*
X-59618Y40929D01*
X-59565Y40915D01*
X-59514Y40895D01*
X-59289Y40840D01*
X-59068Y40780D01*
X-59024Y40776D01*
X-58960Y40760D01*
X-58393Y40705D01*
X-58327Y40708D01*
X-58283Y40704D01*
X-47197Y40704D01*
X-47149Y40663D01*
X-46980Y40507D01*
X-46934Y40476D01*
X-46893Y40440D01*
X-46700Y40315D01*
X-46510Y40185D01*
X-46461Y40160D01*
X-46415Y40130D01*
X-46206Y40033D01*
X-46000Y39931D01*
X-45948Y39913D01*
X-45898Y39890D01*
X-45678Y39824D01*
X-45459Y39751D01*
X-45405Y39741D01*
X-45353Y39725D01*
X-45125Y39690D01*
X-44899Y39648D01*
X-44844Y39646D01*
X-44790Y39638D01*
X-44560Y39635D01*
X-44329Y39625D01*
X-44275Y39631D01*
X-44220Y39630D01*
X-43992Y39659D01*
X-43763Y39682D01*
X-43709Y39695D01*
X-43655Y39702D01*
X-43433Y39763D01*
X-43209Y39818D01*
X-43158Y39838D01*
X-43105Y39853D01*
X-42894Y39944D01*
X-42680Y40029D01*
X-42632Y40057D01*
X-42582Y40078D01*
X-42385Y40198D01*
X-42186Y40313D01*
X-42152Y40341D01*
X-42096Y40375D01*
X-41696Y40704D01*
X-32213Y40704D01*
X-31171Y39662D01*
X-31171Y30188D01*
X-32213Y29146D01*
X-34371Y29146D01*
X-34600Y29130D01*
X-34830Y29120D01*
X-34884Y29110D01*
X-34939Y29106D01*
X-35164Y29058D01*
X-35391Y29016D01*
X-35443Y28999D01*
X-35496Y28987D01*
X-35713Y28908D01*
X-35931Y28835D01*
X-35980Y28810D01*
X-36031Y28791D01*
X-36235Y28683D01*
X-36440Y28580D01*
X-36485Y28549D01*
X-36534Y28523D01*
X-36719Y28387D01*
X-36909Y28256D01*
X-36950Y28219D01*
X-36994Y28186D01*
X-37159Y28026D01*
X-37328Y27870D01*
X-37363Y27827D01*
X-37402Y27789D01*
X-37543Y27607D01*
X-37689Y27429D01*
X-37717Y27381D01*
X-37751Y27338D01*
X-37865Y27138D01*
X-37984Y26941D01*
X-38006Y26891D01*
X-38033Y26843D01*
X-38118Y26629D01*
X-38209Y26418D01*
X-38223Y26365D01*
X-38243Y26314D01*
X-38298Y26089D01*
X-38358Y25868D01*
X-38362Y25824D01*
X-38377Y25760D01*
X-38433Y25193D01*
X-38430Y25127D01*
X-38434Y25083D01*
X-38434Y23162D01*
X-39281Y21118D01*
X-40845Y19554D01*
X-42889Y18707D01*
X-45101Y18707D01*
X-47145Y19554D01*
X-48709Y21118D01*
X-49556Y23162D01*
X-49556Y25083D01*
X-49572Y25312D01*
X-49582Y25543D01*
X-49592Y25597D01*
X-49595Y25651D01*
X-49644Y25877D01*
X-49686Y26103D01*
X-49703Y26155D01*
X-49715Y26209D01*
X-49794Y26425D01*
X-49867Y26643D01*
X-49891Y26692D01*
X-49910Y26744D01*
X-50019Y26947D01*
X-50122Y27152D01*
X-50153Y27198D01*
X-50179Y27246D01*
X-50315Y27432D01*
X-50446Y27621D01*
X-50483Y27662D01*
X-50516Y27706D01*
X-50676Y27871D01*
X-50832Y28040D01*
X-50875Y28075D01*
X-50913Y28114D01*
X-51095Y28255D01*
X-51273Y28401D01*
X-51320Y28429D01*
X-51364Y28463D01*
X-51564Y28577D01*
X-51760Y28696D01*
X-51811Y28718D01*
X-51859Y28745D01*
X-52073Y28830D01*
X-52284Y28921D01*
X-52337Y28935D01*
X-52388Y28955D01*
X-52613Y29010D01*
X-52834Y29070D01*
X-52878Y29074D01*
X-52942Y29090D01*
X-53509Y29145D01*
X-53575Y29142D01*
X-53619Y29146D01*
X-56687Y29146D01*
X-57973Y30432D01*
X-58018Y30472D01*
X-58059Y30516D01*
X-58233Y30659D01*
X-58403Y30806D01*
X-58453Y30839D01*
X-58500Y30877D01*
X-58692Y30993D01*
X-58881Y31116D01*
X-58936Y31141D01*
X-58987Y31172D01*
X-59194Y31261D01*
X-59398Y31356D01*
X-59456Y31373D01*
X-59511Y31397D01*
X-59728Y31455D01*
X-59943Y31521D01*
X-60003Y31530D01*
X-60061Y31546D01*
X-60178Y31557D01*
X-60506Y31608D01*
X-60510Y31608D01*
X-61758Y32125D01*
X-68164Y38531D01*
X-68210Y38571D01*
X-68251Y38615D01*
X-68425Y38757D01*
X-68595Y38905D01*
X-68645Y38938D01*
X-68692Y38976D01*
X-68884Y39093D01*
X-69073Y39215D01*
X-69128Y39240D01*
X-69179Y39271D01*
X-69386Y39360D01*
X-69590Y39455D01*
X-69647Y39472D01*
X-69703Y39496D01*
X-69920Y39554D01*
X-70135Y39620D01*
X-70195Y39629D01*
X-70253Y39645D01*
X-70370Y39656D01*
X-70698Y39707D01*
X-70923Y39710D01*
X-71038Y39721D01*
X-72644Y39721D01*
X-72873Y39705D01*
X-73104Y39695D01*
X-73158Y39685D01*
X-73212Y39681D01*
X-73438Y39633D01*
X-73664Y39591D01*
X-73716Y39574D01*
X-73770Y39562D01*
X-73986Y39483D01*
X-74204Y39410D01*
X-74253Y39385D01*
X-74305Y39366D01*
X-74508Y39258D01*
X-74713Y39155D01*
X-74759Y39124D01*
X-74807Y39098D01*
X-74993Y38962D01*
X-75182Y38831D01*
X-75223Y38794D01*
X-75267Y38761D01*
X-75432Y38601D01*
X-75601Y38445D01*
X-75636Y38402D01*
X-75675Y38364D01*
X-75816Y38182D01*
X-75962Y38004D01*
X-75990Y37956D01*
X-76024Y37913D01*
X-76138Y37713D01*
X-76257Y37516D01*
X-76279Y37466D01*
X-76306Y37418D01*
X-76391Y37204D01*
X-76482Y36993D01*
X-76496Y36940D01*
X-76516Y36889D01*
X-76571Y36664D01*
X-76631Y36443D01*
X-76635Y36399D01*
X-76651Y36335D01*
X-76706Y35768D01*
X-76703Y35702D01*
X-76707Y35658D01*
X-76707Y25825D01*
X-77597Y23678D01*
X-79240Y22034D01*
X-81388Y21145D01*
X-83712Y21145D01*
X-85860Y22034D01*
X-87503Y23678D01*
X-88393Y25825D01*
X-88393Y50944D01*
X-87503Y53092D01*
X-85860Y54735D01*
X-83712Y55625D01*
X-80967Y55625D01*
X-80738Y55641D01*
X-80507Y55651D01*
X-80453Y55661D01*
X-80399Y55665D01*
X-80173Y55713D01*
X-79947Y55755D01*
X-79895Y55772D01*
X-79841Y55784D01*
X-79625Y55863D01*
X-79407Y55936D01*
X-79358Y55961D01*
X-79306Y55980D01*
X-79103Y56088D01*
X-78898Y56191D01*
X-78852Y56222D01*
X-78804Y56248D01*
X-78618Y56384D01*
X-78429Y56515D01*
X-78388Y56552D01*
X-78344Y56585D01*
X-78179Y56745D01*
X-78010Y56901D01*
X-77975Y56944D01*
X-77936Y56982D01*
X-77795Y57164D01*
X-77649Y57342D01*
X-77621Y57390D01*
X-77587Y57433D01*
X-77473Y57633D01*
X-77354Y57830D01*
X-77332Y57880D01*
X-77305Y57928D01*
X-77220Y58142D01*
X-77129Y58353D01*
X-77115Y58406D01*
X-77095Y58457D01*
X-77040Y58682D01*
X-76980Y58903D01*
X-76976Y58947D01*
X-76960Y59011D01*
X-76905Y59578D01*
X-76908Y59644D01*
X-76904Y59688D01*
X-76904Y69237D01*
X-75862Y70279D01*
X-63388Y70279D01*
X-62209Y69099D01*
X-62187Y68998D01*
X-62144Y68880D01*
X-62111Y68760D01*
X-62047Y68613D01*
X-61991Y68463D01*
X-61932Y68352D01*
X-61882Y68238D01*
X-61798Y68102D01*
X-61723Y67960D01*
X-61649Y67859D01*
X-61583Y67753D01*
X-61481Y67630D01*
X-61386Y67500D01*
X-61299Y67411D01*
X-61219Y67314D01*
X-61135Y67242D01*
X-60989Y67092D01*
X-60707Y66874D01*
X-60621Y66800D01*
X-60292Y66569D01*
X-58533Y64809D01*
X-58281Y64201D01*
X-58280Y64199D01*
X-58279Y64196D01*
X-58146Y63931D01*
X-58026Y63691D01*
X-58025Y63689D01*
X-58024Y63687D01*
X-57852Y63438D01*
X-57703Y63222D01*
X-57701Y63220D01*
X-57700Y63218D01*
X-57501Y63003D01*
X-57317Y62803D01*
X-57315Y62801D01*
X-57313Y62799D01*
X-57087Y62614D01*
X-56877Y62441D01*
X-56875Y62440D01*
X-56872Y62438D01*
X-56628Y62290D01*
X-56390Y62145D01*
X-56387Y62144D01*
X-56385Y62143D01*
X-56134Y62035D01*
X-55867Y61920D01*
X-55864Y61919D01*
X-55861Y61918D01*
X-55595Y61846D01*
X-55317Y61770D01*
X-55314Y61770D01*
X-55312Y61769D01*
X-55298Y61768D01*
X-54752Y61699D01*
X-54612Y61701D01*
X-54527Y61693D01*
X-54456Y61693D01*
X-52413Y60846D01*
X-50848Y59282D01*
X-50636Y58768D01*
X-50634Y58766D01*
X-50633Y58763D01*
X-50502Y58500D01*
X-50381Y58258D01*
X-50380Y58256D01*
X-50378Y58254D01*
X-50214Y58016D01*
X-50058Y57789D01*
X-50056Y57787D01*
X-50054Y57785D01*
X-49859Y57573D01*
X-49672Y57370D01*
X-49670Y57368D01*
X-49668Y57366D01*
X-49441Y57180D01*
X-49232Y57008D01*
X-49229Y57007D01*
X-49227Y57005D01*
X-48983Y56857D01*
X-48745Y56712D01*
X-48742Y56711D01*
X-48740Y56710D01*
X-48482Y56599D01*
X-48221Y56487D01*
X-48219Y56486D01*
X-48216Y56485D01*
X-47950Y56413D01*
X-47672Y56337D01*
X-47669Y56337D01*
X-47666Y56336D01*
X-47653Y56335D01*
X-47106Y56266D01*
X-46967Y56268D01*
X-46882Y56260D01*
X-39417Y56260D01*
X-39188Y56276D01*
X-38957Y56286D01*
X-38903Y56296D01*
X-38849Y56300D01*
X-38623Y56348D01*
X-38397Y56390D01*
X-38345Y56407D01*
X-38291Y56419D01*
X-38075Y56498D01*
X-37857Y56571D01*
X-37808Y56596D01*
X-37756Y56615D01*
X-37553Y56723D01*
X-37348Y56826D01*
X-37302Y56857D01*
X-37254Y56883D01*
X-37068Y57019D01*
X-36879Y57150D01*
X-36838Y57187D01*
X-36794Y57220D01*
X-36629Y57380D01*
X-36460Y57536D01*
X-36425Y57579D01*
X-36386Y57617D01*
X-36245Y57799D01*
X-36099Y57977D01*
X-36071Y58025D01*
X-36037Y58068D01*
X-35923Y58268D01*
X-35804Y58465D01*
X-35782Y58515D01*
X-35755Y58563D01*
X-35670Y58777D01*
X-35579Y58988D01*
X-35565Y59041D01*
X-35545Y59092D01*
X-35490Y59317D01*
X-35430Y59538D01*
X-35426Y59582D01*
X-35410Y59646D01*
X-35355Y60213D01*
X-35358Y60279D01*
X-35354Y60323D01*
X-35354Y65737D01*
X-35358Y65798D01*
X-35356Y65858D01*
X-35378Y66081D01*
X-35394Y66306D01*
X-35406Y66365D01*
X-35412Y66425D01*
X-35466Y66643D01*
X-35513Y66863D01*
X-35533Y66920D01*
X-35548Y66978D01*
X-35631Y67187D01*
X-35709Y67398D01*
X-35737Y67451D01*
X-35759Y67507D01*
X-35871Y67702D01*
X-35977Y67901D01*
X-36013Y67949D01*
X-36043Y68002D01*
X-36118Y68093D01*
X-36314Y68360D01*
X-36471Y68522D01*
X-36544Y68611D01*
X-40087Y72154D01*
X-40089Y72155D01*
X-40091Y72157D01*
X-40296Y72335D01*
X-40517Y72527D01*
X-40519Y72529D01*
X-40521Y72531D01*
X-40755Y72681D01*
X-40995Y72837D01*
X-40998Y72838D01*
X-41000Y72840D01*
X-41259Y72960D01*
X-41512Y73077D01*
X-41515Y73078D01*
X-41517Y73079D01*
X-41794Y73162D01*
X-42057Y73242D01*
X-42060Y73243D01*
X-42063Y73243D01*
X-42347Y73287D01*
X-42620Y73329D01*
X-42623Y73329D01*
X-42626Y73330D01*
X-42913Y73333D01*
X-43190Y73337D01*
X-43193Y73337D01*
X-43196Y73337D01*
X-43478Y73300D01*
X-43755Y73265D01*
X-43758Y73264D01*
X-43761Y73264D01*
X-43774Y73260D01*
X-44090Y73173D01*
X-46391Y73173D01*
X-48435Y74020D01*
X-49999Y75584D01*
X-50846Y77628D01*
X-50846Y77941D01*
X-50850Y78001D01*
X-50848Y78062D01*
X-50870Y78285D01*
X-50886Y78509D01*
X-50898Y78569D01*
X-50904Y78629D01*
X-50958Y78847D01*
X-51005Y79067D01*
X-51025Y79123D01*
X-51040Y79182D01*
X-51123Y79391D01*
X-51201Y79602D01*
X-51229Y79655D01*
X-51251Y79711D01*
X-51363Y79906D01*
X-51469Y80104D01*
X-51505Y80153D01*
X-51535Y80205D01*
X-51610Y80296D01*
X-51806Y80564D01*
X-51963Y80725D01*
X-52036Y80814D01*
X-61338Y90116D01*
X-61384Y90156D01*
X-61424Y90200D01*
X-61598Y90343D01*
X-61768Y90490D01*
X-61819Y90523D01*
X-61866Y90561D01*
X-62058Y90678D01*
X-62246Y90800D01*
X-62301Y90825D01*
X-62353Y90857D01*
X-62559Y90945D01*
X-62763Y91040D01*
X-62821Y91057D01*
X-62876Y91081D01*
X-63093Y91140D01*
X-63308Y91205D01*
X-63368Y91214D01*
X-63426Y91230D01*
X-63543Y91241D01*
X-63872Y91292D01*
X-64096Y91295D01*
X-64211Y91306D01*
X-89133Y91306D01*
X-90347Y91809D01*
X-121937Y123399D01*
X-122440Y124613D01*
X-122440Y192576D01*
X-122452Y192749D01*
X-122455Y192923D01*
X-122466Y192992D01*
X-122466Y193000D01*
X-122472Y193028D01*
X-122472Y193033D01*
X-122480Y193144D01*
X-122517Y193314D01*
X-122543Y193486D01*
X-122576Y193593D01*
X-122599Y193701D01*
X-122659Y193865D01*
X-122710Y194031D01*
X-122757Y194132D01*
X-122795Y194237D01*
X-122877Y194390D01*
X-122951Y194547D01*
X-123011Y194641D01*
X-123064Y194739D01*
X-123166Y194879D01*
X-123261Y195025D01*
X-123335Y195109D01*
X-123400Y195199D01*
X-123521Y195323D01*
X-123636Y195454D01*
X-123720Y195527D01*
X-123798Y195607D01*
X-123935Y195714D01*
X-124067Y195827D01*
X-124160Y195888D01*
X-124248Y195956D01*
X-124399Y196042D01*
X-124545Y196136D01*
X-124647Y196183D01*
X-124743Y196238D01*
X-124905Y196302D01*
X-125063Y196375D01*
X-125169Y196407D01*
X-125273Y196448D01*
X-125442Y196489D01*
X-125608Y196539D01*
X-125718Y196556D01*
X-125827Y196582D01*
X-126000Y196599D01*
X-126172Y196626D01*
X-126283Y196627D01*
X-126394Y196638D01*
X-126568Y196630D01*
X-126741Y196632D01*
X-126852Y196618D01*
X-126963Y196613D01*
X-127059Y196595D01*
X-127396Y196595D01*
X-127965Y196555D01*
X-127986Y196550D01*
X-128002Y196550D01*
X-128051Y196542D01*
X-128230Y196573D01*
X-128526Y196583D01*
X-128647Y196595D01*
X-131135Y196594D01*
X-131234Y196587D01*
X-131333Y196589D01*
X-131451Y196572D01*
X-131703Y196554D01*
X-131750Y196544D01*
X-131779Y196548D01*
X-132347Y196593D01*
X-132369Y196592D01*
X-132385Y196594D01*
X-132434Y196594D01*
X-132606Y196651D01*
X-132897Y196705D01*
X-133015Y196734D01*
X-135476Y197104D01*
X-135575Y197112D01*
X-135672Y197129D01*
X-135792Y197129D01*
X-136044Y197149D01*
X-136091Y197146D01*
X-136120Y197155D01*
X-136675Y197284D01*
X-136697Y197286D01*
X-136712Y197290D01*
X-136761Y197298D01*
X-136922Y197380D01*
X-137202Y197476D01*
X-137314Y197523D01*
X-139692Y198256D01*
X-139789Y198279D01*
X-139883Y198310D01*
X-140001Y198328D01*
X-140247Y198385D01*
X-140294Y198389D01*
X-140321Y198402D01*
X-140851Y198613D01*
X-140872Y198618D01*
X-140887Y198624D01*
X-141050Y198674D01*
X-141108Y198688D01*
X-141163Y198707D01*
X-141384Y198752D01*
X-141605Y198804D01*
X-141664Y198809D01*
X-141721Y198820D01*
X-141947Y198834D01*
X-142173Y198854D01*
X-142232Y198851D01*
X-142290Y198854D01*
X-142516Y198836D01*
X-142742Y198824D01*
X-142799Y198813D01*
X-142858Y198808D01*
X-143079Y198758D01*
X-143301Y198715D01*
X-143357Y198696D01*
X-143414Y198683D01*
X-143625Y198603D01*
X-143840Y198529D01*
X-143892Y198502D01*
X-143947Y198481D01*
X-144145Y198373D01*
X-144347Y198269D01*
X-144395Y198235D01*
X-144446Y198207D01*
X-144627Y198072D01*
X-144813Y197941D01*
X-144856Y197901D01*
X-144903Y197866D01*
X-145063Y197707D01*
X-145228Y197551D01*
X-145265Y197506D01*
X-145307Y197464D01*
X-145375Y197369D01*
X-145585Y197107D01*
X-145698Y196916D01*
X-145765Y196823D01*
X-162808Y167303D01*
X-163416Y167723D01*
X-163443Y167735D01*
X-163465Y167753D01*
X-163534Y167774D01*
X-163599Y167801D01*
X-163628Y167802D01*
X-163656Y167810D01*
X-163727Y167802D01*
X-163798Y167802D01*
X-163825Y167791D01*
X-163854Y167788D01*
X-163916Y167753D01*
X-163981Y167725D01*
X-164002Y167704D01*
X-164027Y167690D01*
X-164090Y167613D01*
X-164120Y167582D01*
X-164124Y167572D01*
X-164133Y167562D01*
X-173633Y151062D01*
X-173657Y150989D01*
X-173688Y150918D01*
X-173688Y150895D01*
X-173696Y150873D01*
X-173690Y150796D01*
X-173691Y150719D01*
X-173681Y150695D01*
X-173680Y150675D01*
X-173659Y150635D01*
X-173640Y150583D01*
X-173639Y150578D01*
X-173637Y150576D01*
X-173633Y150563D01*
X-164133Y134063D01*
X-164114Y134042D01*
X-164101Y134015D01*
X-164048Y133968D01*
X-164001Y133914D01*
X-163975Y133902D01*
X-163954Y133882D01*
X-163886Y133859D01*
X-163822Y133828D01*
X-163793Y133827D01*
X-163766Y133818D01*
X-163694Y133822D01*
X-163623Y133819D01*
X-163596Y133829D01*
X-163567Y133831D01*
X-163477Y133874D01*
X-163437Y133888D01*
X-163429Y133896D01*
X-163416Y133902D01*
X-162808Y134322D01*
X-145765Y104802D01*
X-145732Y104753D01*
X-145705Y104701D01*
X-145573Y104518D01*
X-145447Y104330D01*
X-145407Y104286D01*
X-145373Y104238D01*
X-145217Y104075D01*
X-145065Y103907D01*
X-145020Y103869D01*
X-144979Y103827D01*
X-144801Y103687D01*
X-144628Y103541D01*
X-144578Y103510D01*
X-144531Y103474D01*
X-144336Y103360D01*
X-144144Y103241D01*
X-144090Y103217D01*
X-144039Y103187D01*
X-143829Y103102D01*
X-143622Y103011D01*
X-143566Y102995D01*
X-143511Y102972D01*
X-143292Y102917D01*
X-143074Y102856D01*
X-143016Y102848D01*
X-142959Y102833D01*
X-142733Y102810D01*
X-142509Y102779D01*
X-142451Y102779D01*
X-142392Y102773D01*
X-142166Y102781D01*
X-141940Y102782D01*
X-141881Y102791D01*
X-141823Y102793D01*
X-141708Y102816D01*
X-141376Y102865D01*
X-141163Y102928D01*
X-141050Y102951D01*
X-140887Y103001D01*
X-140356Y103206D01*
X-140336Y103217D01*
X-140321Y103223D01*
X-140277Y103244D01*
X-140097Y103267D01*
X-139811Y103345D01*
X-139692Y103369D01*
X-137314Y104102D01*
X-137222Y104138D01*
X-137126Y104165D01*
X-137018Y104216D01*
X-136783Y104307D01*
X-136742Y104330D01*
X-136712Y104335D01*
X-136156Y104459D01*
X-136135Y104467D01*
X-136120Y104470D01*
X-136073Y104484D01*
X-135891Y104480D01*
X-135597Y104514D01*
X-135476Y104521D01*
X-133015Y104891D01*
X-132918Y104912D01*
X-132820Y104925D01*
X-132705Y104960D01*
X-132459Y105015D01*
X-132415Y105031D01*
X-132385Y105031D01*
X-131816Y105071D01*
X-131795Y105076D01*
X-131779Y105077D01*
X-131731Y105084D01*
X-131552Y105053D01*
X-131256Y105043D01*
X-131135Y105031D01*
X-128647Y105030D01*
X-128548Y105037D01*
X-128449Y105035D01*
X-128330Y105052D01*
X-128078Y105070D01*
X-128032Y105080D01*
X-128002Y105075D01*
X-127434Y105030D01*
X-127412Y105031D01*
X-127396Y105030D01*
X-127347Y105030D01*
X-127175Y104972D01*
X-126884Y104919D01*
X-126766Y104889D01*
X-124306Y104517D01*
X-124207Y104509D01*
X-124109Y104492D01*
X-123990Y104492D01*
X-123738Y104472D01*
X-123691Y104475D01*
X-123662Y104466D01*
X-123107Y104336D01*
X-123085Y104334D01*
X-123070Y104330D01*
X-123021Y104323D01*
X-122860Y104240D01*
X-122580Y104144D01*
X-122468Y104097D01*
X-120090Y103363D01*
X-119993Y103340D01*
X-119899Y103309D01*
X-119781Y103291D01*
X-119535Y103233D01*
X-119488Y103229D01*
X-119461Y103216D01*
X-118932Y103005D01*
X-118910Y103000D01*
X-118896Y102994D01*
X-118849Y102979D01*
X-118701Y102874D01*
X-118439Y102737D01*
X-118335Y102673D01*
X-116093Y101593D01*
X-116001Y101556D01*
X-115913Y101511D01*
X-115799Y101476D01*
X-115564Y101382D01*
X-115518Y101371D01*
X-115494Y101354D01*
X-115001Y101067D01*
X-114981Y101058D01*
X-114967Y101050D01*
X-114923Y101029D01*
X-114793Y100902D01*
X-114554Y100727D01*
X-114461Y100650D01*
X-112405Y99247D01*
X-112320Y99197D01*
X-112239Y99140D01*
X-112131Y99087D01*
X-111913Y98960D01*
X-111870Y98942D01*
X-111848Y98922D01*
X-111404Y98564D01*
X-111385Y98553D01*
X-111373Y98543D01*
X-111332Y98515D01*
X-111222Y98370D01*
X-111012Y98162D01*
X-110931Y98071D01*
X-109108Y96378D01*
X-109031Y96316D01*
X-108960Y96247D01*
X-108861Y96179D01*
X-108664Y96021D01*
X-108624Y95996D01*
X-108605Y95973D01*
X-108219Y95553D01*
X-108202Y95539D01*
X-108192Y95528D01*
X-108156Y95494D01*
X-108069Y95335D01*
X-107892Y95097D01*
X-107826Y94995D01*
X-106275Y93049D01*
X-106208Y92976D01*
X-106148Y92897D01*
X-106060Y92815D01*
X-105890Y92630D01*
X-105853Y92600D01*
X-105838Y92574D01*
X-105519Y92102D01*
X-105505Y92085D01*
X-105496Y92072D01*
X-105465Y92034D01*
X-105403Y91863D01*
X-105263Y91602D01*
X-105213Y91491D01*
X-103970Y89336D01*
X-103914Y89253D01*
X-103867Y89167D01*
X-103792Y89073D01*
X-103651Y88863D01*
X-103620Y88828D01*
X-103609Y88800D01*
X-103364Y88286D01*
X-103352Y88268D01*
X-103345Y88253D01*
X-103321Y88211D01*
X-103285Y88033D01*
X-103186Y87754D01*
X-103152Y87637D01*
X-102244Y85320D01*
X-102201Y85230D01*
X-102167Y85137D01*
X-102108Y85034D01*
X-101999Y84806D01*
X-101973Y84766D01*
X-101967Y84737D01*
X-101801Y84191D01*
X-101792Y84171D01*
X-101788Y84156D01*
X-101770Y84111D01*
X-101761Y83929D01*
X-101704Y83639D01*
X-101689Y83518D01*
X-101136Y81092D01*
X-101107Y80997D01*
X-101087Y80900D01*
X-101044Y80788D01*
X-100971Y80547D01*
X-100951Y80504D01*
X-100948Y80474D01*
X-100866Y79910D01*
X-100860Y79889D01*
X-100858Y79873D01*
X-100847Y79825D01*
X-100865Y79645D01*
X-100853Y79349D01*
X-100855Y79227D01*
X-100670Y76746D01*
X-100656Y76648D01*
X-100651Y76549D01*
X-100624Y76432D01*
X-100588Y76182D01*
X-100575Y76137D01*
X-100577Y76107D01*
X-100580Y75537D01*
X-100577Y75515D01*
X-100577Y75500D01*
X-100574Y75450D01*
X-100618Y75274D01*
X-100650Y74980D01*
X-100671Y74860D01*
X-100858Y72379D01*
X-100858Y72280D01*
X-100868Y72181D01*
X-100859Y72062D01*
X-100860Y71809D01*
X-100854Y71762D01*
X-100861Y71733D01*
X-100948Y71170D01*
X-100949Y71148D01*
X-100951Y71133D01*
X-100955Y71084D01*
X-101025Y70916D01*
X-101101Y70630D01*
X-101139Y70515D01*
X-101694Y68089D01*
X-101709Y67991D01*
X-101733Y67894D01*
X-101743Y67775D01*
X-101781Y67526D01*
X-101782Y67478D01*
X-101793Y67451D01*
X-101964Y66907D01*
X-101967Y66885D01*
X-101972Y66870D01*
X-101983Y66822D01*
X-102078Y66667D01*
X-102195Y66395D01*
X-102250Y66287D01*
X-103160Y63971D01*
X-103190Y63877D01*
X-103228Y63785D01*
X-103234Y63757D01*
X-103238Y63747D01*
X-103266Y63634D01*
X-103331Y63428D01*
X-103338Y63381D01*
X-103353Y63355D01*
X-103603Y62843D01*
X-103610Y62822D01*
X-103617Y62808D01*
X-103635Y62762D01*
X-103751Y62623D01*
X-103908Y62371D01*
X-103979Y62272D01*
X-104262Y61781D01*
X-104380Y61540D01*
X-104500Y61299D01*
X-104505Y61283D01*
X-104512Y61269D01*
X-104595Y61014D01*
X-104680Y60758D01*
X-104683Y60742D01*
X-104688Y60727D01*
X-104734Y60462D01*
X-104783Y60197D01*
X-104783Y60182D01*
X-104786Y60166D01*
X-104795Y59897D01*
X-104806Y59628D01*
X-104804Y59612D01*
X-104805Y59596D01*
X-104775Y59328D01*
X-104749Y59061D01*
X-104745Y59046D01*
X-104743Y59030D01*
X-104677Y58768D01*
X-104613Y58508D01*
X-104607Y58493D01*
X-104603Y58478D01*
X-104502Y58229D01*
X-104402Y57979D01*
X-104394Y57965D01*
X-104388Y57950D01*
X-104251Y57716D01*
X-104118Y57484D01*
X-104110Y57474D01*
X-104100Y57458D01*
X-103747Y57011D01*
X-103664Y56932D01*
X-103617Y56876D01*
X-101935Y55193D01*
X-101088Y53149D01*
X-101088Y50937D01*
X-101935Y48893D01*
X-103499Y47329D01*
X-105654Y46437D01*
X-105777Y46410D01*
X-105928Y46388D01*
X-106054Y46351D01*
X-106183Y46324D01*
X-106328Y46271D01*
X-106475Y46227D01*
X-106594Y46173D01*
X-106718Y46128D01*
X-106854Y46055D01*
X-106994Y45992D01*
X-107105Y45921D01*
X-107221Y45859D01*
X-107345Y45768D01*
X-107474Y45686D01*
X-107574Y45600D01*
X-107681Y45523D01*
X-107791Y45415D01*
X-107907Y45316D01*
X-107995Y45217D01*
X-108089Y45125D01*
X-108183Y45004D01*
X-108285Y44889D01*
X-108357Y44778D01*
X-108438Y44674D01*
X-108514Y44541D01*
X-108598Y44413D01*
X-108655Y44294D01*
X-108720Y44180D01*
X-108777Y44037D01*
X-108842Y43898D01*
X-108882Y43772D01*
X-108930Y43650D01*
X-108966Y43500D01*
X-109012Y43354D01*
X-109033Y43224D01*
X-109064Y43096D01*
X-109079Y42943D01*
X-109104Y42792D01*
X-109107Y42660D01*
X-109120Y42529D01*
X-109113Y42376D01*
X-109116Y42222D01*
X-109101Y42091D01*
X-109095Y41960D01*
X-109067Y41809D01*
X-109049Y41656D01*
X-109015Y41529D01*
X-108991Y41400D01*
X-108942Y41254D01*
X-108903Y41106D01*
X-108863Y41017D01*
X-108810Y40859D01*
X-108608Y40456D01*
X-108577Y40388D01*
X-95686Y18060D01*
X-96314Y17764D01*
X-96336Y17747D01*
X-96363Y17737D01*
X-96415Y17688D01*
X-96473Y17645D01*
X-96487Y17620D01*
X-96508Y17600D01*
X-96537Y17535D01*
X-96573Y17473D01*
X-96576Y17445D01*
X-96588Y17418D01*
X-96589Y17346D01*
X-96598Y17276D01*
X-96590Y17248D01*
X-96591Y17219D01*
X-96555Y17125D01*
X-96544Y17084D01*
X-96537Y17076D01*
X-96533Y17063D01*
X-87033Y563D01*
X-86981Y505D01*
X-86935Y442D01*
X-86916Y431D01*
X-86901Y414D01*
X-86831Y381D01*
X-86764Y341D01*
X-86740Y337D01*
X-86722Y328D01*
X-86677Y326D01*
X-86600Y313D01*
X-67600Y313D01*
X-67572Y319D01*
G37*
G36*
X-100366Y134262D02*
X-100366Y134262D01*
X-100254Y134261D01*
X-100082Y134282D01*
X-99910Y134295D01*
X-99800Y134318D01*
X-99688Y134333D01*
X-99521Y134378D01*
X-99353Y134415D01*
X-99247Y134453D01*
X-99139Y134483D01*
X-98980Y134552D01*
X-98818Y134611D01*
X-98719Y134664D01*
X-98616Y134709D01*
X-98468Y134799D01*
X-98316Y134881D01*
X-98225Y134947D01*
X-98129Y135006D01*
X-97996Y135115D01*
X-97857Y135218D01*
X-97776Y135296D01*
X-97689Y135368D01*
X-97573Y135495D01*
X-97449Y135615D01*
X-97380Y135705D01*
X-97304Y135787D01*
X-97206Y135930D01*
X-97101Y136067D01*
X-97060Y136142D01*
X-96981Y136257D01*
X-96736Y136750D01*
X-96730Y136762D01*
X-95280Y140261D01*
X-94345Y141196D01*
X-94306Y141242D01*
X-94261Y141283D01*
X-94119Y141457D01*
X-93972Y141627D01*
X-93939Y141677D01*
X-93901Y141724D01*
X-93784Y141916D01*
X-93662Y142105D01*
X-93636Y142160D01*
X-93605Y142211D01*
X-93517Y142417D01*
X-93422Y142622D01*
X-93404Y142680D01*
X-93381Y142735D01*
X-93322Y142951D01*
X-93257Y143167D01*
X-93247Y143227D01*
X-93232Y143285D01*
X-93220Y143402D01*
X-93169Y143730D01*
X-93166Y143955D01*
X-93155Y144070D01*
X-93155Y151205D01*
X-93159Y151266D01*
X-93157Y151326D01*
X-93179Y151549D01*
X-93195Y151774D01*
X-93208Y151833D01*
X-93214Y151893D01*
X-93267Y152111D01*
X-93314Y152331D01*
X-93335Y152388D01*
X-93349Y152446D01*
X-93433Y152655D01*
X-93510Y152866D01*
X-93539Y152919D01*
X-93561Y152975D01*
X-93673Y153170D01*
X-93779Y153368D01*
X-93815Y153417D01*
X-93845Y153470D01*
X-93919Y153561D01*
X-94115Y153828D01*
X-94272Y153990D01*
X-94345Y154079D01*
X-95280Y155014D01*
X-96711Y158468D01*
X-96711Y162207D01*
X-95280Y165661D01*
X-92636Y168305D01*
X-89182Y169736D01*
X-85443Y169736D01*
X-85312Y169682D01*
X-85148Y169627D01*
X-84987Y169563D01*
X-84878Y169537D01*
X-84771Y169501D01*
X-84601Y169470D01*
X-84433Y169429D01*
X-84321Y169418D01*
X-84211Y169398D01*
X-84038Y169391D01*
X-83866Y169374D01*
X-83754Y169379D01*
X-83641Y169374D01*
X-83470Y169391D01*
X-83297Y169398D01*
X-83186Y169419D01*
X-83074Y169430D01*
X-82907Y169471D01*
X-82737Y169502D01*
X-82630Y169538D01*
X-82521Y169565D01*
X-82360Y169629D01*
X-82197Y169684D01*
X-82096Y169734D01*
X-81992Y169776D01*
X-81842Y169862D01*
X-81687Y169939D01*
X-81595Y170003D01*
X-81497Y170059D01*
X-81360Y170165D01*
X-81218Y170263D01*
X-81136Y170339D01*
X-81047Y170408D01*
X-80926Y170532D01*
X-80799Y170649D01*
X-80728Y170736D01*
X-80650Y170817D01*
X-80548Y170956D01*
X-80439Y171090D01*
X-80380Y171186D01*
X-80314Y171277D01*
X-80233Y171429D01*
X-80143Y171577D01*
X-80099Y171681D01*
X-80046Y171780D01*
X-79987Y171942D01*
X-79919Y172101D01*
X-79889Y172210D01*
X-79851Y172315D01*
X-79815Y172484D01*
X-79770Y172651D01*
X-79761Y172736D01*
X-79732Y172873D01*
X-79694Y173423D01*
X-79693Y173436D01*
X-79693Y213551D01*
X-79709Y213780D01*
X-79719Y214010D01*
X-79729Y214064D01*
X-79733Y214119D01*
X-79781Y214344D01*
X-79823Y214570D01*
X-79841Y214622D01*
X-79852Y214676D01*
X-79931Y214892D01*
X-80005Y215110D01*
X-80029Y215160D01*
X-80048Y215211D01*
X-80157Y215414D01*
X-80260Y215620D01*
X-80291Y215665D01*
X-80317Y215714D01*
X-80453Y215899D01*
X-80584Y216089D01*
X-80621Y216129D01*
X-80653Y216173D01*
X-80814Y216338D01*
X-80970Y216508D01*
X-81012Y216542D01*
X-81051Y216582D01*
X-81233Y216722D01*
X-81411Y216868D01*
X-81458Y216897D01*
X-81501Y216930D01*
X-81701Y217044D01*
X-81898Y217164D01*
X-81948Y217185D01*
X-81996Y217213D01*
X-82211Y217298D01*
X-82422Y217388D01*
X-82475Y217403D01*
X-82526Y217423D01*
X-82750Y217477D01*
X-82972Y217537D01*
X-83016Y217542D01*
X-83080Y217557D01*
X-83647Y217612D01*
X-83712Y217609D01*
X-83756Y217614D01*
X-84856Y217614D01*
X-90361Y223119D01*
X-90361Y230906D01*
X-84427Y236839D01*
X-84276Y237013D01*
X-84121Y237183D01*
X-84090Y237228D01*
X-84054Y237269D01*
X-83929Y237463D01*
X-83798Y237652D01*
X-83774Y237701D01*
X-83744Y237748D01*
X-83647Y237957D01*
X-83545Y238163D01*
X-83527Y238215D01*
X-83504Y238265D01*
X-83437Y238485D01*
X-83365Y238703D01*
X-83355Y238757D01*
X-83339Y238810D01*
X-83304Y239037D01*
X-83262Y239264D01*
X-83260Y239319D01*
X-83252Y239373D01*
X-83248Y239602D01*
X-83239Y239833D01*
X-83245Y239888D01*
X-83244Y239943D01*
X-83273Y240171D01*
X-83296Y240400D01*
X-83309Y240453D01*
X-83316Y240508D01*
X-83377Y240730D01*
X-83431Y240953D01*
X-83452Y241004D01*
X-83466Y241057D01*
X-83558Y241269D01*
X-83643Y241482D01*
X-83670Y241530D01*
X-83692Y241581D01*
X-83812Y241777D01*
X-83927Y241977D01*
X-83955Y242011D01*
X-83989Y242067D01*
X-84351Y242507D01*
X-84399Y242551D01*
X-84427Y242586D01*
X-90361Y248519D01*
X-90361Y256306D01*
X-84856Y261811D01*
X-77069Y261811D01*
X-75803Y260545D01*
X-75629Y260394D01*
X-75460Y260238D01*
X-75414Y260207D01*
X-75373Y260171D01*
X-75180Y260046D01*
X-74990Y259916D01*
X-74941Y259891D01*
X-74895Y259861D01*
X-74686Y259764D01*
X-74480Y259662D01*
X-74428Y259645D01*
X-74378Y259621D01*
X-74158Y259555D01*
X-73939Y259482D01*
X-73885Y259472D01*
X-73833Y259456D01*
X-73605Y259421D01*
X-73379Y259380D01*
X-73324Y259377D01*
X-73270Y259369D01*
X-73040Y259366D01*
X-72809Y259357D01*
X-72755Y259362D01*
X-72700Y259361D01*
X-72471Y259390D01*
X-72242Y259413D01*
X-72189Y259426D01*
X-72135Y259433D01*
X-71912Y259494D01*
X-71689Y259549D01*
X-71638Y259569D01*
X-71585Y259584D01*
X-71374Y259675D01*
X-71160Y259760D01*
X-71112Y259788D01*
X-71062Y259810D01*
X-70866Y259929D01*
X-70666Y260044D01*
X-70631Y260072D01*
X-70575Y260106D01*
X-70135Y260468D01*
X-70091Y260517D01*
X-70057Y260545D01*
X-39834Y290768D01*
X-39794Y290814D01*
X-39750Y290855D01*
X-39607Y291029D01*
X-39460Y291198D01*
X-39427Y291249D01*
X-39389Y291296D01*
X-39272Y291488D01*
X-39150Y291676D01*
X-39125Y291731D01*
X-39093Y291783D01*
X-39005Y291989D01*
X-38910Y292193D01*
X-38893Y292251D01*
X-38869Y292306D01*
X-38810Y292523D01*
X-38745Y292739D01*
X-38736Y292798D01*
X-38720Y292856D01*
X-38709Y292974D01*
X-38658Y293302D01*
X-38655Y293526D01*
X-38643Y293641D01*
X-38643Y295995D01*
X-38660Y296224D01*
X-38670Y296454D01*
X-38680Y296508D01*
X-38683Y296563D01*
X-38732Y296788D01*
X-38774Y297014D01*
X-38791Y297066D01*
X-38803Y297120D01*
X-38882Y297336D01*
X-38955Y297554D01*
X-38979Y297604D01*
X-38998Y297655D01*
X-39107Y297858D01*
X-39210Y298064D01*
X-39241Y298109D01*
X-39267Y298158D01*
X-39403Y298343D01*
X-39534Y298533D01*
X-39571Y298573D01*
X-39604Y298617D01*
X-39764Y298782D01*
X-39920Y298952D01*
X-39963Y298986D01*
X-40001Y299026D01*
X-40183Y299166D01*
X-40361Y299312D01*
X-40408Y299341D01*
X-40452Y299374D01*
X-40652Y299488D01*
X-40848Y299608D01*
X-40899Y299629D01*
X-40947Y299657D01*
X-41161Y299742D01*
X-41372Y299832D01*
X-41425Y299847D01*
X-41476Y299867D01*
X-41701Y299921D01*
X-41922Y299981D01*
X-41966Y299986D01*
X-42030Y300001D01*
X-42597Y300056D01*
X-42663Y300053D01*
X-42707Y300058D01*
X-67159Y300058D01*
X-67102Y300773D01*
X-67106Y300801D01*
X-67101Y300829D01*
X-67118Y300899D01*
X-67126Y300970D01*
X-67141Y300995D01*
X-67147Y301022D01*
X-67190Y301080D01*
X-67226Y301143D01*
X-67248Y301160D01*
X-67265Y301183D01*
X-67327Y301219D01*
X-67384Y301263D01*
X-67412Y301270D01*
X-67436Y301284D01*
X-67536Y301301D01*
X-67577Y301311D01*
X-67587Y301310D01*
X-67600Y301312D01*
X-86600Y301312D01*
X-86676Y301296D01*
X-86754Y301288D01*
X-86773Y301277D01*
X-86795Y301272D01*
X-86859Y301228D01*
X-86927Y301190D01*
X-86943Y301171D01*
X-86959Y301160D01*
X-86983Y301122D01*
X-87033Y301062D01*
X-96533Y284562D01*
X-96542Y284534D01*
X-96558Y284511D01*
X-96573Y284441D01*
X-96596Y284373D01*
X-96593Y284345D01*
X-96599Y284316D01*
X-96586Y284246D01*
X-96580Y284175D01*
X-96567Y284149D01*
X-96561Y284121D01*
X-96521Y284062D01*
X-96488Y283998D01*
X-96466Y283980D01*
X-96450Y283956D01*
X-96367Y283899D01*
X-96335Y283872D01*
X-96324Y283869D01*
X-96314Y283861D01*
X-95686Y283565D01*
X-112728Y254046D01*
X-112755Y253992D01*
X-112787Y253940D01*
X-112879Y253736D01*
X-112978Y253534D01*
X-112997Y253476D01*
X-113022Y253421D01*
X-113084Y253205D01*
X-113153Y252992D01*
X-113164Y252932D01*
X-113181Y252874D01*
X-113213Y252652D01*
X-113251Y252430D01*
X-113253Y252370D01*
X-113262Y252310D01*
X-113263Y252085D01*
X-113270Y251861D01*
X-113263Y251801D01*
X-113263Y251740D01*
X-113233Y251518D01*
X-113208Y251295D01*
X-113194Y251236D01*
X-113185Y251176D01*
X-113123Y250959D01*
X-113068Y250742D01*
X-113045Y250686D01*
X-113029Y250628D01*
X-112937Y250422D01*
X-112852Y250215D01*
X-112822Y250163D01*
X-112797Y250107D01*
X-112678Y249916D01*
X-112565Y249723D01*
X-112527Y249676D01*
X-112495Y249624D01*
X-112417Y249536D01*
X-112211Y249276D01*
X-112048Y249121D01*
X-111972Y249035D01*
X-111862Y248933D01*
X-111418Y248576D01*
X-111399Y248564D01*
X-111387Y248555D01*
X-111347Y248527D01*
X-111237Y248382D01*
X-111026Y248174D01*
X-110946Y248083D01*
X-109121Y246391D01*
X-109044Y246329D01*
X-108973Y246260D01*
X-108874Y246192D01*
X-108677Y246034D01*
X-108637Y246010D01*
X-108618Y245987D01*
X-108232Y245567D01*
X-108215Y245553D01*
X-108205Y245541D01*
X-108169Y245508D01*
X-108081Y245349D01*
X-107904Y245111D01*
X-107838Y245010D01*
X-106286Y243065D01*
X-106219Y242992D01*
X-106159Y242913D01*
X-106071Y242831D01*
X-105900Y242645D01*
X-105864Y242615D01*
X-105849Y242589D01*
X-105530Y242117D01*
X-105515Y242101D01*
X-105506Y242088D01*
X-105476Y242049D01*
X-105413Y241879D01*
X-105274Y241617D01*
X-105223Y241507D01*
X-103979Y239352D01*
X-103923Y239270D01*
X-103875Y239183D01*
X-103801Y239089D01*
X-103660Y238880D01*
X-103628Y238845D01*
X-103617Y238817D01*
X-103372Y238303D01*
X-103360Y238284D01*
X-103353Y238270D01*
X-103329Y238228D01*
X-103292Y238050D01*
X-103193Y237771D01*
X-103160Y237654D01*
X-102250Y235338D01*
X-102207Y235248D01*
X-102173Y235155D01*
X-102114Y235051D01*
X-102005Y234823D01*
X-101979Y234784D01*
X-101972Y234755D01*
X-101807Y234209D01*
X-101797Y234189D01*
X-101793Y234174D01*
X-101775Y234129D01*
X-101766Y233947D01*
X-101709Y233657D01*
X-101694Y233536D01*
X-101139Y231110D01*
X-101110Y231015D01*
X-101090Y230918D01*
X-101047Y230807D01*
X-100974Y230565D01*
X-100954Y230522D01*
X-100951Y230492D01*
X-100869Y229929D01*
X-100863Y229907D01*
X-100861Y229892D01*
X-100850Y229844D01*
X-100867Y229663D01*
X-100855Y229367D01*
X-100858Y229246D01*
X-100671Y226765D01*
X-100656Y226667D01*
X-100651Y226568D01*
X-100625Y226451D01*
X-100588Y226201D01*
X-100575Y226155D01*
X-100577Y226125D01*
X-100580Y225556D01*
X-100577Y225534D01*
X-100577Y225518D01*
X-100573Y225469D01*
X-100618Y225293D01*
X-100649Y224999D01*
X-100670Y224879D01*
X-100855Y222398D01*
X-100856Y222298D01*
X-100865Y222200D01*
X-100857Y222080D01*
X-100858Y221828D01*
X-100851Y221781D01*
X-100858Y221752D01*
X-100872Y221660D01*
X-100872Y221659D01*
X-100945Y221189D01*
X-100946Y221167D01*
X-100948Y221151D01*
X-100952Y221102D01*
X-101022Y220935D01*
X-101098Y220648D01*
X-101136Y220533D01*
X-101689Y218107D01*
X-101704Y218009D01*
X-101728Y217913D01*
X-101737Y217793D01*
X-101776Y217544D01*
X-101777Y217497D01*
X-101788Y217469D01*
X-101958Y216925D01*
X-101962Y216903D01*
X-101967Y216888D01*
X-101977Y216840D01*
X-102072Y216685D01*
X-102189Y216413D01*
X-102244Y216305D01*
X-103152Y213988D01*
X-103182Y213894D01*
X-103220Y213802D01*
X-103247Y213686D01*
X-103323Y213445D01*
X-103330Y213398D01*
X-103345Y213372D01*
X-103595Y212860D01*
X-103602Y212838D01*
X-103609Y212825D01*
X-103626Y212779D01*
X-103743Y212640D01*
X-103899Y212388D01*
X-103970Y212289D01*
X-105213Y210134D01*
X-105257Y210045D01*
X-105308Y209960D01*
X-105352Y209849D01*
X-105463Y209622D01*
X-105477Y209577D01*
X-105496Y209553D01*
X-105819Y209084D01*
X-105829Y209064D01*
X-105838Y209051D01*
X-105863Y209009D01*
X-105998Y208888D01*
X-106190Y208663D01*
X-106275Y208576D01*
X-107172Y207450D01*
X-107173Y207448D01*
X-107174Y207447D01*
X-107342Y207204D01*
X-107495Y206980D01*
X-107496Y206979D01*
X-107497Y206977D01*
X-107626Y206717D01*
X-107749Y206470D01*
X-107750Y206469D01*
X-107751Y206467D01*
X-107853Y206160D01*
X-107930Y205930D01*
X-107930Y205928D01*
X-107931Y205927D01*
X-107989Y205604D01*
X-108033Y205370D01*
X-108033Y205368D01*
X-108033Y205366D01*
X-108045Y205066D01*
X-108056Y204800D01*
X-108056Y204799D01*
X-108056Y204797D01*
X-108027Y204503D01*
X-108000Y204233D01*
X-107999Y204232D01*
X-107999Y204230D01*
X-107927Y203937D01*
X-107865Y203680D01*
X-107864Y203678D01*
X-107864Y203676D01*
X-107749Y203391D01*
X-107654Y203151D01*
X-107653Y203149D01*
X-107652Y203147D01*
X-107496Y202876D01*
X-107370Y202656D01*
X-107369Y202655D01*
X-107369Y202653D01*
X-107363Y202647D01*
X-107021Y202206D01*
X-106921Y202110D01*
X-106868Y202044D01*
X-106411Y201587D01*
X-105564Y199544D01*
X-105564Y197331D01*
X-106411Y195288D01*
X-106632Y195066D01*
X-106672Y195021D01*
X-106716Y194980D01*
X-106858Y194806D01*
X-107006Y194636D01*
X-107039Y194585D01*
X-107077Y194539D01*
X-107194Y194346D01*
X-107316Y194158D01*
X-107341Y194103D01*
X-107372Y194052D01*
X-107461Y193845D01*
X-107556Y193641D01*
X-107573Y193583D01*
X-107597Y193528D01*
X-107655Y193311D01*
X-107721Y193096D01*
X-107730Y193036D01*
X-107746Y192978D01*
X-107757Y192861D01*
X-107808Y192533D01*
X-107811Y192308D01*
X-107822Y192193D01*
X-107822Y141593D01*
X-107818Y141532D01*
X-107820Y141472D01*
X-107798Y141249D01*
X-107782Y141024D01*
X-107770Y140965D01*
X-107764Y140905D01*
X-107710Y140687D01*
X-107663Y140467D01*
X-107643Y140410D01*
X-107628Y140352D01*
X-107545Y140143D01*
X-107467Y139932D01*
X-107439Y139879D01*
X-107417Y139823D01*
X-107305Y139628D01*
X-107199Y139429D01*
X-107163Y139381D01*
X-107133Y139328D01*
X-107058Y139237D01*
X-106862Y138970D01*
X-106705Y138808D01*
X-106632Y138719D01*
X-103357Y135444D01*
X-103226Y135331D01*
X-103103Y135211D01*
X-103012Y135144D01*
X-102927Y135070D01*
X-102782Y134977D01*
X-102642Y134875D01*
X-102543Y134822D01*
X-102448Y134761D01*
X-102292Y134688D01*
X-102139Y134607D01*
X-102034Y134568D01*
X-101932Y134521D01*
X-101767Y134471D01*
X-101604Y134411D01*
X-101494Y134388D01*
X-101386Y134356D01*
X-101216Y134329D01*
X-101047Y134293D01*
X-100934Y134285D01*
X-100823Y134268D01*
X-100651Y134266D01*
X-100478Y134254D01*
X-100366Y134262D01*
G37*
G36*
X131941Y198380D02*
X131941Y198380D01*
X131984Y198379D01*
X135977Y198979D01*
X136007Y198990D01*
X136050Y198996D01*
X139909Y200185D01*
X139937Y200200D01*
X139978Y200212D01*
X143616Y201963D01*
X143638Y201979D01*
X143664Y201989D01*
X143717Y202039D01*
X143775Y202083D01*
X143788Y202106D01*
X143808Y202125D01*
X143838Y202192D01*
X143874Y202255D01*
X143877Y202282D01*
X143888Y202307D01*
X143889Y202380D01*
X143898Y202453D01*
X143890Y202479D01*
X143890Y202506D01*
X143854Y202605D01*
X143842Y202644D01*
X143836Y202651D01*
X143832Y202662D01*
X116832Y249462D01*
X116814Y249482D01*
X116803Y249507D01*
X116749Y249556D01*
X116701Y249611D01*
X116676Y249623D01*
X116656Y249641D01*
X116587Y249665D01*
X116521Y249697D01*
X116494Y249698D01*
X116469Y249707D01*
X116396Y249702D01*
X116323Y249706D01*
X116297Y249696D01*
X116270Y249695D01*
X116174Y249651D01*
X116136Y249636D01*
X116129Y249630D01*
X116119Y249625D01*
X112782Y247352D01*
X112760Y247329D01*
X112724Y247305D01*
X109763Y244560D01*
X109744Y244534D01*
X109712Y244505D01*
X107194Y241349D01*
X107179Y241321D01*
X107152Y241288D01*
X105132Y237791D01*
X105122Y237761D01*
X105099Y237724D01*
X103623Y233966D01*
X103618Y233935D01*
X103601Y233895D01*
X102701Y229959D01*
X102701Y229927D01*
X102690Y229885D01*
X102387Y225859D01*
X102390Y225835D01*
X102387Y225815D01*
X102389Y225806D01*
X102387Y225784D01*
X102688Y221758D01*
X102696Y221727D01*
X102699Y221684D01*
X103596Y217747D01*
X103609Y217718D01*
X103618Y217676D01*
X105092Y213917D01*
X105109Y213890D01*
X105124Y213849D01*
X107142Y210352D01*
X107163Y210328D01*
X107184Y210290D01*
X109700Y207133D01*
X109725Y207112D01*
X109751Y207078D01*
X112710Y204331D01*
X112737Y204314D01*
X112768Y204284D01*
X116104Y202009D01*
X116133Y201996D01*
X116168Y201971D01*
X119806Y200218D01*
X119836Y200211D01*
X119875Y200191D01*
X123733Y199000D01*
X123765Y198997D01*
X123806Y198983D01*
X127798Y198380D01*
X127830Y198382D01*
X127872Y198374D01*
X131910Y198373D01*
X131941Y198380D01*
G37*
G36*
X-127872Y198374D02*
X-127872Y198374D01*
X-127841Y198381D01*
X-127798Y198380D01*
X-123806Y198983D01*
X-123776Y198994D01*
X-123733Y199000D01*
X-119875Y200191D01*
X-119847Y200206D01*
X-119806Y200218D01*
X-116168Y201971D01*
X-116143Y201991D01*
X-116104Y202009D01*
X-112768Y204284D01*
X-112746Y204307D01*
X-112710Y204331D01*
X-109751Y207078D01*
X-109732Y207104D01*
X-109700Y207133D01*
X-107184Y210290D01*
X-107169Y210319D01*
X-107142Y210352D01*
X-105124Y213849D01*
X-105114Y213880D01*
X-105092Y213917D01*
X-103618Y217676D01*
X-103612Y217707D01*
X-103596Y217747D01*
X-102699Y221684D01*
X-102698Y221716D01*
X-102688Y221758D01*
X-102387Y225784D01*
X-102391Y225816D01*
X-102390Y225832D01*
X-102387Y225848D01*
X-102388Y225852D01*
X-102387Y225859D01*
X-102690Y229885D01*
X-102699Y229916D01*
X-102701Y229959D01*
X-103601Y233895D01*
X-103614Y233924D01*
X-103623Y233966D01*
X-105099Y237724D01*
X-105117Y237751D01*
X-105132Y237791D01*
X-107152Y241288D01*
X-107173Y241311D01*
X-107194Y241349D01*
X-109712Y244505D01*
X-109737Y244526D01*
X-109763Y244560D01*
X-112724Y247305D01*
X-112751Y247322D01*
X-112782Y247352D01*
X-116119Y249625D01*
X-116144Y249636D01*
X-116165Y249653D01*
X-116235Y249674D01*
X-116302Y249702D01*
X-116330Y249702D01*
X-116356Y249710D01*
X-116428Y249702D01*
X-116501Y249701D01*
X-116526Y249691D01*
X-116553Y249688D01*
X-116617Y249652D01*
X-116684Y249623D01*
X-116703Y249604D01*
X-116726Y249590D01*
X-116794Y249509D01*
X-116822Y249480D01*
X-116825Y249471D01*
X-116832Y249462D01*
X-143832Y202662D01*
X-143841Y202636D01*
X-143857Y202614D01*
X-143872Y202543D01*
X-143896Y202473D01*
X-143893Y202446D01*
X-143899Y202420D01*
X-143886Y202348D01*
X-143880Y202275D01*
X-143867Y202251D01*
X-143862Y202224D01*
X-143822Y202164D01*
X-143788Y202099D01*
X-143767Y202081D01*
X-143752Y202059D01*
X-143666Y201998D01*
X-143635Y201972D01*
X-143626Y201969D01*
X-143616Y201963D01*
X-139978Y200212D01*
X-139947Y200204D01*
X-139909Y200185D01*
X-136050Y198996D01*
X-136018Y198993D01*
X-135977Y198979D01*
X-131984Y198379D01*
X-131953Y198380D01*
X-131910Y198373D01*
X-127872Y198374D01*
G37*
G36*
X116428Y51923D02*
X116428Y51923D01*
X116501Y51924D01*
X116526Y51934D01*
X116553Y51937D01*
X116617Y51973D01*
X116684Y52002D01*
X116703Y52021D01*
X116726Y52035D01*
X116794Y52116D01*
X116822Y52145D01*
X116825Y52154D01*
X116832Y52163D01*
X143832Y98963D01*
X143841Y98989D01*
X143857Y99011D01*
X143872Y99082D01*
X143896Y99152D01*
X143893Y99179D01*
X143899Y99205D01*
X143886Y99277D01*
X143880Y99350D01*
X143867Y99374D01*
X143862Y99401D01*
X143822Y99462D01*
X143788Y99526D01*
X143767Y99544D01*
X143752Y99566D01*
X143666Y99627D01*
X143635Y99653D01*
X143626Y99656D01*
X143616Y99662D01*
X139978Y101413D01*
X139947Y101421D01*
X139909Y101440D01*
X136050Y102629D01*
X136018Y102632D01*
X135977Y102646D01*
X131984Y103246D01*
X131953Y103245D01*
X131910Y103252D01*
X127872Y103251D01*
X127841Y103244D01*
X127798Y103245D01*
X123806Y102642D01*
X123776Y102631D01*
X123733Y102625D01*
X119875Y101434D01*
X119847Y101419D01*
X119806Y101407D01*
X116168Y99654D01*
X116143Y99634D01*
X116104Y99616D01*
X112768Y97341D01*
X112746Y97318D01*
X112710Y97294D01*
X109751Y94547D01*
X109732Y94521D01*
X109700Y94492D01*
X107184Y91335D01*
X107169Y91306D01*
X107142Y91273D01*
X105124Y87776D01*
X105114Y87745D01*
X105092Y87708D01*
X103618Y83949D01*
X103612Y83918D01*
X103596Y83878D01*
X102699Y79941D01*
X102698Y79909D01*
X102688Y79867D01*
X102387Y75841D01*
X102391Y75809D01*
X102387Y75766D01*
X102690Y71740D01*
X102699Y71709D01*
X102701Y71666D01*
X103601Y67730D01*
X103614Y67701D01*
X103623Y67659D01*
X105099Y63901D01*
X105117Y63874D01*
X105132Y63834D01*
X107152Y60338D01*
X107173Y60314D01*
X107194Y60276D01*
X109712Y57120D01*
X109737Y57100D01*
X109763Y57065D01*
X112724Y54320D01*
X112751Y54303D01*
X112782Y54273D01*
X116119Y52000D01*
X116144Y51989D01*
X116165Y51972D01*
X116235Y51951D01*
X116302Y51923D01*
X116330Y51923D01*
X116356Y51915D01*
X116428Y51923D01*
G37*
G36*
X-116396Y51923D02*
X-116396Y51923D01*
X-116323Y51919D01*
X-116297Y51929D01*
X-116270Y51930D01*
X-116174Y51974D01*
X-116136Y51989D01*
X-116129Y51995D01*
X-116119Y52000D01*
X-112782Y54273D01*
X-112760Y54296D01*
X-112724Y54320D01*
X-109763Y57065D01*
X-109744Y57091D01*
X-109712Y57120D01*
X-107194Y60276D01*
X-107179Y60304D01*
X-107152Y60338D01*
X-105132Y63834D01*
X-105122Y63864D01*
X-105099Y63901D01*
X-103623Y67659D01*
X-103618Y67690D01*
X-103601Y67730D01*
X-102701Y71666D01*
X-102701Y71698D01*
X-102690Y71740D01*
X-102387Y75766D01*
X-102391Y75798D01*
X-102387Y75841D01*
X-102688Y79867D01*
X-102696Y79898D01*
X-102699Y79941D01*
X-103596Y83878D01*
X-103609Y83907D01*
X-103618Y83949D01*
X-105092Y87708D01*
X-105109Y87735D01*
X-105124Y87776D01*
X-107142Y91273D01*
X-107163Y91297D01*
X-107184Y91335D01*
X-109700Y94492D01*
X-109725Y94513D01*
X-109751Y94547D01*
X-112710Y97294D01*
X-112737Y97311D01*
X-112768Y97341D01*
X-116104Y99616D01*
X-116133Y99629D01*
X-116168Y99654D01*
X-119806Y101407D01*
X-119836Y101414D01*
X-119875Y101434D01*
X-123733Y102625D01*
X-123765Y102628D01*
X-123806Y102642D01*
X-127798Y103245D01*
X-127830Y103243D01*
X-127872Y103251D01*
X-131910Y103252D01*
X-131941Y103246D01*
X-131984Y103246D01*
X-135977Y102646D01*
X-136007Y102635D01*
X-136050Y102629D01*
X-139909Y101440D01*
X-139937Y101425D01*
X-139978Y101413D01*
X-143616Y99662D01*
X-143638Y99646D01*
X-143664Y99636D01*
X-143717Y99586D01*
X-143775Y99542D01*
X-143788Y99519D01*
X-143808Y99500D01*
X-143838Y99433D01*
X-143874Y99370D01*
X-143877Y99343D01*
X-143888Y99318D01*
X-143889Y99245D01*
X-143898Y99172D01*
X-143890Y99146D01*
X-143890Y99119D01*
X-143854Y99020D01*
X-143842Y98981D01*
X-143836Y98974D01*
X-143832Y98963D01*
X-116832Y52163D01*
X-116814Y52143D01*
X-116803Y52118D01*
X-116749Y52069D01*
X-116701Y52014D01*
X-116676Y52002D01*
X-116656Y51984D01*
X-116587Y51960D01*
X-116521Y51928D01*
X-116494Y51927D01*
X-116469Y51918D01*
X-116396Y51923D01*
G37*
G36*
X2049Y273395D02*
X2049Y273395D01*
X2092Y273394D01*
X6082Y273996D01*
X6112Y274007D01*
X6155Y274012D01*
X10011Y275202D01*
X10039Y275217D01*
X10081Y275229D01*
X13717Y276980D01*
X13742Y276999D01*
X13781Y277017D01*
X17115Y279291D01*
X17138Y279313D01*
X17174Y279337D01*
X20132Y282082D01*
X20151Y282108D01*
X20183Y282137D01*
X22699Y285292D01*
X22713Y285320D01*
X22741Y285353D01*
X24759Y288848D01*
X24769Y288878D01*
X24791Y288915D01*
X26265Y292672D01*
X26266Y292678D01*
X26268Y292680D01*
X26272Y292706D01*
X26287Y292743D01*
X27185Y296677D01*
X27186Y296709D01*
X27196Y296751D01*
X27498Y300775D01*
X27494Y300802D01*
X27499Y300829D01*
X27482Y300900D01*
X27473Y300972D01*
X27459Y300996D01*
X27453Y301022D01*
X27410Y301081D01*
X27373Y301144D01*
X27351Y301161D01*
X27335Y301183D01*
X27272Y301220D01*
X27214Y301264D01*
X27187Y301270D01*
X27164Y301284D01*
X27060Y301302D01*
X27021Y301311D01*
X27011Y301310D01*
X27000Y301312D01*
X-27000Y301312D01*
X-27027Y301306D01*
X-27054Y301309D01*
X-27123Y301287D01*
X-27195Y301272D01*
X-27217Y301257D01*
X-27243Y301249D01*
X-27299Y301201D01*
X-27359Y301160D01*
X-27373Y301137D01*
X-27394Y301119D01*
X-27427Y301054D01*
X-27466Y300992D01*
X-27470Y300965D01*
X-27482Y300941D01*
X-27492Y300836D01*
X-27499Y300796D01*
X-27497Y300787D01*
X-27498Y300775D01*
X-27196Y296751D01*
X-27188Y296720D01*
X-27185Y296677D01*
X-26287Y292743D01*
X-26274Y292714D01*
X-26265Y292672D01*
X-24791Y288915D01*
X-24774Y288888D01*
X-24759Y288848D01*
X-22741Y285353D01*
X-22720Y285329D01*
X-22699Y285292D01*
X-20183Y282137D01*
X-20158Y282116D01*
X-20132Y282082D01*
X-17174Y279337D01*
X-17147Y279321D01*
X-17115Y279291D01*
X-13781Y277017D01*
X-13752Y277005D01*
X-13717Y276980D01*
X-10081Y275229D01*
X-10050Y275221D01*
X-10011Y275202D01*
X-6155Y274012D01*
X-6124Y274009D01*
X-6082Y273996D01*
X-2092Y273394D01*
X-2060Y273396D01*
X-2018Y273389D01*
X2018Y273389D01*
X2049Y273395D01*
G37*
G36*
X27027Y319D02*
X27027Y319D01*
X27054Y316D01*
X27123Y338D01*
X27195Y353D01*
X27217Y368D01*
X27243Y377D01*
X27299Y424D01*
X27359Y465D01*
X27373Y488D01*
X27394Y506D01*
X27427Y571D01*
X27466Y633D01*
X27470Y660D01*
X27482Y684D01*
X27492Y789D01*
X27499Y829D01*
X27497Y838D01*
X27498Y850D01*
X27196Y4874D01*
X27188Y4905D01*
X27185Y4948D01*
X26287Y8882D01*
X26274Y8911D01*
X26265Y8953D01*
X24791Y12710D01*
X24774Y12737D01*
X24759Y12777D01*
X22741Y16272D01*
X22720Y16296D01*
X22699Y16333D01*
X20183Y19488D01*
X20158Y19509D01*
X20132Y19543D01*
X17174Y22288D01*
X17147Y22304D01*
X17115Y22334D01*
X13781Y24608D01*
X13752Y24620D01*
X13717Y24645D01*
X10081Y26396D01*
X10050Y26404D01*
X10011Y26423D01*
X6155Y27613D01*
X6124Y27616D01*
X6082Y27629D01*
X2092Y28231D01*
X2060Y28229D01*
X2018Y28236D01*
X-2018Y28236D01*
X-2049Y28230D01*
X-2092Y28231D01*
X-6082Y27629D01*
X-6112Y27618D01*
X-6155Y27613D01*
X-10011Y26423D01*
X-10039Y26408D01*
X-10081Y26396D01*
X-13717Y24645D01*
X-13742Y24626D01*
X-13781Y24608D01*
X-17115Y22334D01*
X-17138Y22312D01*
X-17174Y22288D01*
X-20132Y19543D01*
X-20151Y19517D01*
X-20183Y19488D01*
X-22699Y16333D01*
X-22713Y16305D01*
X-22741Y16272D01*
X-24759Y12777D01*
X-24769Y12747D01*
X-24791Y12710D01*
X-26265Y8953D01*
X-26271Y8922D01*
X-26287Y8882D01*
X-27185Y4948D01*
X-27186Y4916D01*
X-27196Y4874D01*
X-27498Y850D01*
X-27494Y823D01*
X-27499Y796D01*
X-27482Y725D01*
X-27473Y653D01*
X-27459Y629D01*
X-27453Y603D01*
X-27410Y544D01*
X-27373Y481D01*
X-27351Y464D01*
X-27335Y442D01*
X-27272Y405D01*
X-27214Y361D01*
X-27187Y355D01*
X-27164Y341D01*
X-27060Y323D01*
X-27021Y314D01*
X-27011Y315D01*
X-27000Y313D01*
X27000Y313D01*
X27027Y319D01*
G37*
G36*
X7945Y165433D02*
X7945Y165433D01*
X8064Y165441D01*
X8102Y165453D01*
X8143Y165458D01*
X8253Y165502D01*
X8366Y165539D01*
X8401Y165560D01*
X8438Y165575D01*
X8534Y165645D01*
X8635Y165709D01*
X8663Y165738D01*
X8696Y165762D01*
X8772Y165854D01*
X8853Y165940D01*
X8873Y165976D01*
X8898Y166007D01*
X8949Y166115D01*
X9007Y166219D01*
X9017Y166258D01*
X9034Y166295D01*
X9056Y166411D01*
X9086Y166527D01*
X9090Y166587D01*
X9094Y166607D01*
X9092Y166627D01*
X9096Y166688D01*
X9096Y177617D01*
X9117Y177654D01*
X9132Y177713D01*
X9156Y177768D01*
X9172Y177866D01*
X9197Y177962D01*
X9203Y178062D01*
X9206Y178083D01*
X9205Y178095D01*
X9207Y178119D01*
X9300Y178131D01*
X9399Y178134D01*
X9457Y178151D01*
X9518Y178158D01*
X9610Y178195D01*
X9705Y178222D01*
X9757Y178253D01*
X9813Y178275D01*
X9893Y178333D01*
X9979Y178384D01*
X10054Y178450D01*
X10071Y178462D01*
X10078Y178471D01*
X10100Y178490D01*
X10138Y178529D01*
X21612Y178529D01*
X21650Y178490D01*
X21729Y178429D01*
X21801Y178361D01*
X21854Y178332D01*
X21902Y178295D01*
X21993Y178256D01*
X22079Y178208D01*
X22138Y178193D01*
X22194Y178169D01*
X22292Y178153D01*
X22387Y178128D01*
X22487Y178122D01*
X22508Y178119D01*
X22520Y178120D01*
X22544Y178119D01*
X22556Y178025D01*
X22559Y177926D01*
X22576Y177868D01*
X22583Y177807D01*
X22620Y177715D01*
X22647Y177620D01*
X22654Y177609D01*
X22654Y172734D01*
X22669Y172616D01*
X22676Y172498D01*
X22689Y172459D01*
X22694Y172419D01*
X22737Y172308D01*
X22774Y172195D01*
X22796Y172161D01*
X22811Y172123D01*
X22880Y172027D01*
X22944Y171926D01*
X22974Y171899D01*
X22997Y171866D01*
X23089Y171790D01*
X23176Y171708D01*
X23211Y171689D01*
X23242Y171663D01*
X23350Y171612D01*
X23454Y171555D01*
X23494Y171545D01*
X23530Y171528D01*
X23647Y171505D01*
X23762Y171475D01*
X23822Y171472D01*
X23842Y171468D01*
X23863Y171469D01*
X23923Y171465D01*
X34619Y171465D01*
X34717Y171478D01*
X34816Y171481D01*
X34874Y171497D01*
X34934Y171505D01*
X35027Y171542D01*
X35122Y171569D01*
X35174Y171600D01*
X35230Y171622D01*
X35310Y171680D01*
X35396Y171731D01*
X35471Y171797D01*
X35488Y171809D01*
X35495Y171818D01*
X35516Y171837D01*
X35822Y172143D01*
X35883Y172221D01*
X35951Y172293D01*
X35973Y172333D01*
X35990Y172353D01*
X35996Y172366D01*
X36017Y172394D01*
X36057Y172485D01*
X36105Y172572D01*
X36119Y172628D01*
X36125Y172641D01*
X36126Y172645D01*
X36144Y172686D01*
X36159Y172784D01*
X36184Y172880D01*
X36190Y172980D01*
X36194Y173000D01*
X36192Y173012D01*
X36194Y173041D01*
X36194Y188913D01*
X36179Y189031D01*
X36172Y189149D01*
X36159Y189188D01*
X36154Y189228D01*
X36111Y189339D01*
X36074Y189452D01*
X36052Y189486D01*
X36037Y189524D01*
X35968Y189620D01*
X35904Y189721D01*
X35874Y189748D01*
X35851Y189781D01*
X35759Y189857D01*
X35672Y189939D01*
X35637Y189958D01*
X35606Y189984D01*
X35498Y190035D01*
X35394Y190092D01*
X35354Y190102D01*
X35318Y190119D01*
X35201Y190142D01*
X35086Y190172D01*
X35026Y190175D01*
X35006Y190179D01*
X34985Y190178D01*
X34925Y190182D01*
X9207Y190182D01*
X9207Y192088D01*
X9194Y192186D01*
X9191Y192285D01*
X9185Y192308D01*
X9184Y192309D01*
X9182Y192316D01*
X9175Y192343D01*
X9167Y192403D01*
X9130Y192495D01*
X9103Y192590D01*
X9072Y192642D01*
X9050Y192699D01*
X8992Y192779D01*
X8941Y192864D01*
X8875Y192940D01*
X8863Y192956D01*
X8854Y192964D01*
X8835Y192985D01*
X2485Y199335D01*
X2407Y199396D01*
X2335Y199464D01*
X2282Y199493D01*
X2234Y199530D01*
X2143Y199569D01*
X2056Y199617D01*
X1998Y199632D01*
X1942Y199656D01*
X1844Y199672D01*
X1748Y199697D01*
X1648Y199703D01*
X1628Y199706D01*
X1616Y199705D01*
X1588Y199707D01*
X-15875Y199707D01*
X-15993Y199692D01*
X-16112Y199684D01*
X-16150Y199672D01*
X-16191Y199667D01*
X-16301Y199623D01*
X-16414Y199586D01*
X-16449Y199565D01*
X-16486Y199550D01*
X-16582Y199480D01*
X-16683Y199416D01*
X-16711Y199387D01*
X-16744Y199363D01*
X-16820Y199271D01*
X-16901Y199185D01*
X-16921Y199149D01*
X-16946Y199118D01*
X-16997Y199010D01*
X-17055Y198906D01*
X-17065Y198867D01*
X-17082Y198830D01*
X-17104Y198714D01*
X-17134Y198598D01*
X-17138Y198538D01*
X-17142Y198518D01*
X-17141Y198504D01*
X-17142Y198499D01*
X-17141Y198488D01*
X-17144Y198438D01*
X-17144Y187325D01*
X-17132Y187227D01*
X-17129Y187128D01*
X-17112Y187070D01*
X-17104Y187009D01*
X-17068Y186917D01*
X-17040Y186822D01*
X-17010Y186770D01*
X-16987Y186714D01*
X-16929Y186634D01*
X-16879Y186548D01*
X-16813Y186473D01*
X-16801Y186456D01*
X-16791Y186449D01*
X-16773Y186428D01*
X-10794Y180449D01*
X-10794Y166688D01*
X-10779Y166569D01*
X-10772Y166451D01*
X-10759Y166412D01*
X-10754Y166372D01*
X-10711Y166261D01*
X-10674Y166148D01*
X-10652Y166114D01*
X-10637Y166076D01*
X-10568Y165980D01*
X-10504Y165879D01*
X-10474Y165852D01*
X-10451Y165819D01*
X-10359Y165743D01*
X-10272Y165661D01*
X-10237Y165642D01*
X-10206Y165616D01*
X-10098Y165565D01*
X-9994Y165508D01*
X-9954Y165498D01*
X-9918Y165481D01*
X-9801Y165458D01*
X-9686Y165428D01*
X-9626Y165425D01*
X-9606Y165421D01*
X-9585Y165422D01*
X-9525Y165418D01*
X7827Y165418D01*
X7945Y165433D01*
G37*
%LPC*%
G36*
X111994Y144589D02*
X111994Y144589D01*
X106489Y150094D01*
X106489Y157881D01*
X111994Y163386D01*
X119781Y163386D01*
X125286Y157881D01*
X125286Y150094D01*
X119781Y144589D01*
X111994Y144589D01*
G37*
%LPD*%
D10*
X-51950Y34925D03*
X-36950Y34925D03*
D11*
X115888Y153988D03*
D12*
X-69625Y63500D03*
X-69625Y46500D03*
D13*
X75638Y120650D03*
X92638Y120650D03*
D14*
X-87313Y160338D03*
X-87313Y134938D03*
X-87313Y109538D03*
D15*
X-19050Y104663D03*
X-9550Y82663D03*
X-28550Y82663D03*
D13*
X-11575Y65313D03*
X-28575Y65313D03*
D15*
X15875Y104663D03*
X25375Y82663D03*
X6375Y82663D03*
D13*
X24375Y65088D03*
X7375Y65088D03*
D15*
X50800Y104663D03*
X60300Y82663D03*
X41300Y82663D03*
D13*
X59300Y65088D03*
X42300Y65088D03*
D15*
X-19050Y169750D03*
X-9550Y147750D03*
X-28550Y147750D03*
D13*
X-10550Y130175D03*
X-27550Y130175D03*
D15*
X15875Y169750D03*
X25375Y147750D03*
X6375Y147750D03*
D13*
X24375Y130175D03*
X7375Y130175D03*
D15*
X50800Y169750D03*
X60300Y147750D03*
X41300Y147750D03*
D13*
X57713Y130175D03*
X40713Y130175D03*
D16*
X82600Y293913D03*
X165200Y150813D03*
X82600Y7713D03*
X-82600Y7713D03*
X-165200Y150813D03*
X-82600Y293913D03*
X123900Y222313D03*
X123900Y79313D03*
X0Y7713D03*
X-123900Y79313D03*
X-123900Y222313D03*
X0Y293913D03*
D17*
X-80963Y227013D03*
X-80963Y252413D03*
X-55563Y227013D03*
X-55563Y252413D03*
X-30163Y227013D03*
X-30163Y252413D03*
X-4763Y227013D03*
X-4763Y252413D03*
X20638Y227013D03*
X20638Y252413D03*
X46038Y227013D03*
X46038Y252413D03*
D18*
X84974Y7713D02*
X85003Y7683D01*
X165200Y147754D02*
X165200Y150813D01*
X165200Y155033D01*
X-68488Y293913D02*
X-82600Y293913D01*
D19*
X-57150Y282575D03*
X-34925Y268288D03*
D18*
X-88326Y13439D02*
X-82600Y7713D01*
D19*
X-104041Y173038D03*
X-126222Y173038D03*
D18*
X-148447Y150813D02*
X-165200Y150813D01*
D20*
X-144429Y110615D02*
X-144429Y110615D01*
D19*
X-76200Y87313D03*
X-82550Y26988D03*
X-82550Y49782D03*
X23813Y38100D03*
D18*
X17463Y44450D01*
X1588Y44450D01*
D19*
X1588Y44450D03*
D18*
X-82550Y49782D02*
X-82550Y26988D01*
D19*
X98425Y92075D03*
D18*
X85725Y79375D01*
X85725Y66675D01*
X97309Y55091D01*
X98642Y55091D01*
D19*
X98642Y55091D03*
D21*
X-36495Y35380D02*
X-36950Y34925D01*
X-36495Y35380D02*
X-43995Y24268D01*
D19*
X-43995Y24268D03*
X139700Y182563D03*
X119063Y182563D03*
D18*
X139700Y182563D01*
D19*
X44450Y118725D03*
X52388Y118725D03*
D22*
X73712Y118725D02*
X75638Y120650D01*
X73712Y118725D02*
X52388Y118725D01*
X44450Y118725D01*
D19*
X-12700Y191750D03*
X-3175Y191750D03*
X-6350Y171112D03*
X3175Y171112D03*
X30715Y176213D03*
D21*
X32752Y158863D02*
X49188Y158863D01*
X60300Y147750D01*
X32752Y158863D02*
X25375Y151486D01*
X25375Y147750D01*
X-9550Y85700D02*
X-9550Y82663D01*
X-9550Y85700D02*
X-1588Y93663D01*
X49300Y93663D02*
X60300Y82663D01*
X25400Y93663D02*
X-1588Y93663D01*
X25400Y93663D02*
X41275Y93663D01*
X49300Y93663D01*
X25375Y93638D02*
X25375Y82663D01*
X25375Y93638D02*
X25400Y93663D01*
X40377Y94561D02*
X41275Y93663D01*
X40377Y94561D02*
X40377Y95223D01*
D19*
X40377Y95223D03*
D21*
X25375Y147750D02*
X25375Y154711D01*
X20638Y159448D01*
X-4065Y159448D01*
X-9550Y153963D02*
X-9550Y147750D01*
X-9550Y153963D02*
X-4065Y159448D01*
X60300Y153963D02*
X60300Y147750D01*
X60300Y153963D02*
X63500Y157163D01*
D19*
X63500Y157163D03*
D21*
X-69625Y46500D02*
X-69625Y44663D01*
X-59888Y34925D02*
X-51950Y34925D01*
X-59888Y34925D02*
X-69625Y44663D01*
D18*
X-87313Y134938D02*
X-87313Y160338D01*
D19*
X-106649Y52043D03*
D21*
X-122969Y68363D01*
X-123900Y69976D01*
X-123900Y79313D01*
X115457Y70870D02*
X123900Y79313D01*
X115457Y70870D02*
X97179Y70870D01*
D19*
X97179Y70870D03*
X-52518Y144453D03*
D21*
X-52518Y209540D01*
X-42863Y219196D01*
X-42863Y273275D01*
X-22225Y293913D01*
X0Y293913D01*
D19*
X-68263Y144463D03*
D21*
X-68263Y257668D01*
X-33083Y292848D02*
X-33083Y294436D01*
X-33083Y292848D02*
X-68263Y257668D01*
D19*
X-33083Y294436D03*
X-64810Y107890D03*
X-111125Y198438D03*
D21*
X-111125Y138541D01*
X-70219Y107890D02*
X-64810Y107890D01*
X-82788Y120460D02*
X-93043Y120460D01*
X-82788Y120460D02*
X-70219Y107890D01*
X-93043Y120460D02*
X-111125Y138541D01*
X-119138Y217550D02*
X-123900Y222313D01*
X-119138Y217550D02*
X-119138Y125270D01*
D19*
X-45285Y78734D03*
D21*
X-61160Y94609D01*
X-88477Y94609D01*
X-119138Y125270D01*
X32758Y7713D02*
X33557Y8512D01*
X32758Y7713D02*
X0Y7713D01*
D19*
X33557Y8512D03*
D21*
X123900Y201129D02*
X123900Y222313D01*
X123900Y201129D02*
X123408Y200637D01*
X123408Y192700D01*
D19*
X123408Y192700D03*
X-33338Y174625D03*
D21*
X-33338Y205263D01*
D19*
X82550Y244475D03*
D21*
X-17272Y234712D02*
X-17272Y221328D01*
X79566Y241491D02*
X82550Y244475D01*
X79566Y241491D02*
X-10493Y241491D01*
X-17272Y234712D01*
X-17272Y221328D02*
X-33338Y205263D01*
X6375Y147750D02*
X8388Y147750D01*
X24375Y131763D02*
X24375Y130175D01*
X24375Y131763D02*
X8388Y147750D01*
X-10975Y130175D02*
X-28550Y147750D01*
X-10975Y130175D02*
X-10550Y130175D01*
X23950Y65088D02*
X24375Y65088D01*
X23950Y65088D02*
X6375Y82663D01*
X-11575Y65313D02*
X-28550Y82288D01*
X-28550Y82663D01*
X58875Y65088D02*
X59300Y65088D01*
X58875Y65088D02*
X41300Y82663D01*
X41300Y146588D02*
X41300Y147750D01*
X41300Y146588D02*
X57713Y130175D01*
X-63247Y64609D02*
X-69625Y63500D01*
X-63247Y64609D02*
X-63247Y61659D01*
D19*
X-63247Y61659D03*
D21*
X-38100Y74838D02*
X-38100Y95250D01*
X-51474Y108624D01*
X-53667Y108624D01*
D19*
X-53667Y108624D03*
D21*
X-38100Y74838D02*
X-28575Y65313D01*
X-52388Y52957D02*
X-55563Y56132D01*
D19*
X-55563Y56132D03*
D21*
X-52388Y52957D02*
X-7843Y52957D01*
X-3587Y57214D01*
X-499Y57214D01*
X7375Y65088D01*
D19*
X-14445Y45203D03*
D21*
X-1588Y52388D02*
X29600Y52388D01*
X-1588Y52388D02*
X-8773Y45203D01*
X-14445Y45203D01*
X29600Y52388D02*
X42300Y65088D01*
D19*
X-34925Y130175D03*
D21*
X-27550Y130175D01*
D19*
X0Y131763D03*
D21*
X5788Y131763D01*
X7375Y130175D01*
X34915Y124378D02*
X34915Y124230D01*
D19*
X34915Y124230D03*
D21*
X34915Y124378D02*
X40713Y130175D01*
X-76391Y141366D02*
X-76391Y222441D01*
X-39688Y104663D02*
X-19050Y104663D01*
X-39688Y104663D02*
X-76391Y141366D01*
X-76391Y222441D02*
X-80963Y227013D01*
X7938Y104663D02*
X15875Y104663D01*
X7938Y104663D02*
X-2560Y115160D01*
X-41660Y115160D01*
X-60325Y133825D01*
X-60325Y222250D02*
X-55563Y227013D01*
X-60325Y222250D02*
X-60325Y133825D01*
X-34918Y119986D02*
X19715Y119986D01*
X30275Y109425D01*
X46038Y109425D02*
X50800Y104663D01*
X46038Y109425D02*
X30275Y109425D01*
X-34918Y119986D02*
X-42173Y127241D01*
X-42173Y211827D01*
X-30163Y223838D01*
X-30163Y227013D01*
X-25400Y206375D02*
X-25400Y179275D01*
X-19050Y172925D02*
X-19050Y169750D01*
X-19050Y172925D02*
X-25400Y179275D01*
X-25400Y206375D02*
X-4763Y227013D01*
X41275Y172925D02*
X36513Y168163D01*
X17463Y168163D01*
X15875Y169750D01*
X41275Y172925D02*
X41275Y206375D01*
X20638Y227013D01*
X50800Y176100D02*
X50800Y169750D01*
X47625Y179275D02*
X47625Y225425D01*
X46038Y227013D01*
X47625Y179275D02*
X50800Y176100D01*
M02*
