G04 EAGLE Gerber RS-274X export*
G75*
%MOMM*%
%FSLAX34Y34*%
%LPD*%
%INSilkscreen Bottom*%
%IPPOS*%
%AMOC8*
5,1,8,0,0,1.08239X$1,22.5*%
G01*
%ADD10C,0.152400*%
%ADD11C,0.101600*%
%ADD12C,0.254000*%
%ADD13C,0.076200*%
%ADD14C,0.406400*%
%ADD15C,0.050800*%

G36*
X-43305Y84369D02*
X-43305Y84369D01*
X-43303Y84368D01*
X-43260Y84388D01*
X-43216Y84406D01*
X-43216Y84408D01*
X-43214Y84409D01*
X-43181Y84494D01*
X-43181Y88304D01*
X-43182Y88306D01*
X-43181Y88308D01*
X-43201Y88351D01*
X-43219Y88395D01*
X-43221Y88395D01*
X-43222Y88397D01*
X-43307Y88430D01*
X-45847Y88430D01*
X-45849Y88429D01*
X-45851Y88430D01*
X-45894Y88410D01*
X-45938Y88392D01*
X-45938Y88390D01*
X-45940Y88389D01*
X-45973Y88304D01*
X-45973Y84494D01*
X-45972Y84492D01*
X-45973Y84490D01*
X-45953Y84447D01*
X-45935Y84403D01*
X-45933Y84403D01*
X-45932Y84401D01*
X-45847Y84368D01*
X-43307Y84368D01*
X-43305Y84369D01*
G37*
G36*
X39499Y69366D02*
X39499Y69366D01*
X39501Y69365D01*
X39544Y69385D01*
X39588Y69403D01*
X39588Y69405D01*
X39590Y69406D01*
X39623Y69491D01*
X39623Y73301D01*
X39622Y73303D01*
X39623Y73305D01*
X39603Y73348D01*
X39585Y73392D01*
X39583Y73392D01*
X39582Y73394D01*
X39497Y73427D01*
X36957Y73427D01*
X36955Y73426D01*
X36953Y73427D01*
X36910Y73407D01*
X36866Y73389D01*
X36866Y73387D01*
X36864Y73386D01*
X36831Y73301D01*
X36831Y69491D01*
X36832Y69489D01*
X36831Y69487D01*
X36851Y69444D01*
X36869Y69400D01*
X36871Y69400D01*
X36872Y69398D01*
X36957Y69365D01*
X39497Y69365D01*
X39499Y69366D01*
G37*
G36*
X-8770Y46103D02*
X-8770Y46103D01*
X-8768Y46102D01*
X-8725Y46122D01*
X-8681Y46140D01*
X-8681Y46142D01*
X-8679Y46143D01*
X-8646Y46228D01*
X-8646Y48768D01*
X-8647Y48770D01*
X-8646Y48772D01*
X-8666Y48815D01*
X-8684Y48859D01*
X-8686Y48859D01*
X-8687Y48861D01*
X-8772Y48894D01*
X-12582Y48894D01*
X-12584Y48893D01*
X-12586Y48894D01*
X-12629Y48874D01*
X-12673Y48856D01*
X-12673Y48854D01*
X-12675Y48853D01*
X-12708Y48768D01*
X-12708Y46228D01*
X-12707Y46226D01*
X-12708Y46224D01*
X-12688Y46181D01*
X-12670Y46137D01*
X-12668Y46137D01*
X-12667Y46135D01*
X-12582Y46102D01*
X-8772Y46102D01*
X-8770Y46103D01*
G37*
D10*
X15113Y264287D02*
X15113Y282067D01*
X10174Y282067D01*
X10034Y282065D01*
X9895Y282059D01*
X9755Y282049D01*
X9616Y282035D01*
X9477Y282018D01*
X9339Y281996D01*
X9202Y281970D01*
X9065Y281941D01*
X8929Y281908D01*
X8795Y281871D01*
X8661Y281830D01*
X8529Y281785D01*
X8397Y281736D01*
X8268Y281684D01*
X8140Y281629D01*
X8013Y281569D01*
X7888Y281506D01*
X7765Y281440D01*
X7644Y281370D01*
X7525Y281297D01*
X7408Y281220D01*
X7294Y281140D01*
X7181Y281057D01*
X7071Y280971D01*
X6964Y280881D01*
X6859Y280789D01*
X6757Y280694D01*
X6657Y280596D01*
X6560Y280495D01*
X6466Y280391D01*
X6376Y280285D01*
X6288Y280176D01*
X6203Y280065D01*
X6122Y279951D01*
X6043Y279836D01*
X5968Y279718D01*
X5897Y279598D01*
X5829Y279475D01*
X5764Y279352D01*
X5703Y279226D01*
X5645Y279098D01*
X5591Y278970D01*
X5541Y278839D01*
X5494Y278707D01*
X5451Y278574D01*
X5412Y278440D01*
X5377Y278305D01*
X5346Y278169D01*
X5318Y278031D01*
X5295Y277894D01*
X5275Y277755D01*
X5259Y277616D01*
X5247Y277477D01*
X5239Y277338D01*
X5235Y277198D01*
X5235Y277058D01*
X5239Y276918D01*
X5247Y276779D01*
X5259Y276640D01*
X5275Y276501D01*
X5295Y276362D01*
X5318Y276225D01*
X5346Y276087D01*
X5377Y275951D01*
X5412Y275816D01*
X5451Y275682D01*
X5494Y275549D01*
X5541Y275417D01*
X5591Y275286D01*
X5645Y275158D01*
X5703Y275030D01*
X5764Y274904D01*
X5829Y274781D01*
X5897Y274659D01*
X5968Y274538D01*
X6043Y274420D01*
X6122Y274305D01*
X6203Y274191D01*
X6288Y274080D01*
X6376Y273971D01*
X6466Y273865D01*
X6560Y273761D01*
X6657Y273660D01*
X6757Y273562D01*
X6859Y273467D01*
X6964Y273375D01*
X7071Y273285D01*
X7181Y273199D01*
X7294Y273116D01*
X7408Y273036D01*
X7525Y272959D01*
X7644Y272886D01*
X7765Y272816D01*
X7888Y272750D01*
X8013Y272687D01*
X8140Y272627D01*
X8268Y272572D01*
X8397Y272520D01*
X8529Y272471D01*
X8661Y272426D01*
X8795Y272385D01*
X8929Y272348D01*
X9065Y272315D01*
X9202Y272286D01*
X9339Y272260D01*
X9477Y272238D01*
X9616Y272221D01*
X9755Y272207D01*
X9895Y272197D01*
X10034Y272191D01*
X10174Y272189D01*
X15113Y272189D01*
X-882Y274165D02*
X-6809Y274165D01*
X-6933Y274163D01*
X-7057Y274157D01*
X-7181Y274147D01*
X-7304Y274134D01*
X-7427Y274116D01*
X-7549Y274095D01*
X-7671Y274070D01*
X-7792Y274041D01*
X-7911Y274008D01*
X-8030Y273972D01*
X-8147Y273931D01*
X-8263Y273888D01*
X-8378Y273840D01*
X-8491Y273789D01*
X-8603Y273734D01*
X-8712Y273676D01*
X-8820Y273615D01*
X-8926Y273550D01*
X-9030Y273482D01*
X-9131Y273410D01*
X-9231Y273336D01*
X-9327Y273258D01*
X-9422Y273178D01*
X-9514Y273094D01*
X-9603Y273008D01*
X-9689Y272919D01*
X-9773Y272827D01*
X-9853Y272732D01*
X-9931Y272636D01*
X-10005Y272536D01*
X-10077Y272435D01*
X-10145Y272331D01*
X-10210Y272225D01*
X-10271Y272117D01*
X-10329Y272008D01*
X-10384Y271896D01*
X-10435Y271783D01*
X-10483Y271668D01*
X-10526Y271552D01*
X-10567Y271435D01*
X-10603Y271316D01*
X-10636Y271197D01*
X-10665Y271076D01*
X-10690Y270954D01*
X-10711Y270832D01*
X-10729Y270709D01*
X-10742Y270586D01*
X-10752Y270462D01*
X-10758Y270338D01*
X-10760Y270214D01*
X-10760Y269226D01*
X-10758Y269086D01*
X-10752Y268947D01*
X-10742Y268807D01*
X-10728Y268668D01*
X-10711Y268529D01*
X-10689Y268391D01*
X-10663Y268254D01*
X-10634Y268117D01*
X-10601Y267981D01*
X-10564Y267847D01*
X-10523Y267713D01*
X-10478Y267581D01*
X-10429Y267449D01*
X-10377Y267320D01*
X-10322Y267192D01*
X-10262Y267065D01*
X-10199Y266940D01*
X-10133Y266817D01*
X-10063Y266696D01*
X-9990Y266577D01*
X-9913Y266460D01*
X-9833Y266346D01*
X-9750Y266233D01*
X-9664Y266123D01*
X-9574Y266016D01*
X-9482Y265911D01*
X-9387Y265809D01*
X-9289Y265709D01*
X-9188Y265612D01*
X-9084Y265518D01*
X-8978Y265428D01*
X-8869Y265340D01*
X-8758Y265255D01*
X-8644Y265174D01*
X-8529Y265095D01*
X-8411Y265020D01*
X-8290Y264949D01*
X-8168Y264881D01*
X-8045Y264816D01*
X-7919Y264755D01*
X-7791Y264697D01*
X-7663Y264643D01*
X-7532Y264593D01*
X-7400Y264546D01*
X-7267Y264503D01*
X-7133Y264464D01*
X-6998Y264429D01*
X-6862Y264398D01*
X-6724Y264370D01*
X-6587Y264347D01*
X-6448Y264327D01*
X-6309Y264311D01*
X-6170Y264299D01*
X-6031Y264291D01*
X-5891Y264287D01*
X-5751Y264287D01*
X-5611Y264291D01*
X-5472Y264299D01*
X-5333Y264311D01*
X-5194Y264327D01*
X-5055Y264347D01*
X-4918Y264370D01*
X-4780Y264398D01*
X-4644Y264429D01*
X-4509Y264464D01*
X-4375Y264503D01*
X-4242Y264546D01*
X-4110Y264593D01*
X-3979Y264643D01*
X-3851Y264697D01*
X-3723Y264755D01*
X-3597Y264816D01*
X-3474Y264881D01*
X-3351Y264949D01*
X-3231Y265020D01*
X-3113Y265095D01*
X-2998Y265174D01*
X-2884Y265255D01*
X-2773Y265340D01*
X-2664Y265428D01*
X-2558Y265518D01*
X-2454Y265612D01*
X-2353Y265709D01*
X-2255Y265809D01*
X-2160Y265911D01*
X-2068Y266016D01*
X-1978Y266123D01*
X-1892Y266233D01*
X-1809Y266346D01*
X-1729Y266460D01*
X-1652Y266577D01*
X-1579Y266696D01*
X-1509Y266817D01*
X-1443Y266940D01*
X-1380Y267065D01*
X-1320Y267192D01*
X-1265Y267320D01*
X-1213Y267449D01*
X-1164Y267581D01*
X-1119Y267713D01*
X-1078Y267847D01*
X-1041Y267981D01*
X-1008Y268117D01*
X-979Y268254D01*
X-953Y268391D01*
X-931Y268529D01*
X-914Y268668D01*
X-900Y268807D01*
X-890Y268947D01*
X-884Y269086D01*
X-882Y269226D01*
X-882Y274165D01*
X-884Y274359D01*
X-892Y274553D01*
X-903Y274746D01*
X-920Y274940D01*
X-941Y275132D01*
X-968Y275324D01*
X-998Y275516D01*
X-1034Y275707D01*
X-1074Y275896D01*
X-1119Y276085D01*
X-1168Y276273D01*
X-1222Y276459D01*
X-1281Y276644D01*
X-1344Y276827D01*
X-1411Y277009D01*
X-1484Y277189D01*
X-1560Y277367D01*
X-1641Y277544D01*
X-1726Y277718D01*
X-1815Y277890D01*
X-1909Y278060D01*
X-2006Y278227D01*
X-2108Y278393D01*
X-2214Y278555D01*
X-2323Y278715D01*
X-2437Y278872D01*
X-2554Y279027D01*
X-2676Y279178D01*
X-2801Y279326D01*
X-2929Y279472D01*
X-3061Y279614D01*
X-3196Y279753D01*
X-3335Y279888D01*
X-3477Y280020D01*
X-3623Y280148D01*
X-3771Y280273D01*
X-3922Y280395D01*
X-4077Y280512D01*
X-4234Y280626D01*
X-4394Y280735D01*
X-4556Y280841D01*
X-4722Y280943D01*
X-4889Y281040D01*
X-5059Y281134D01*
X-5231Y281223D01*
X-5405Y281308D01*
X-5582Y281389D01*
X-5760Y281465D01*
X-5940Y281538D01*
X-6122Y281605D01*
X-6305Y281668D01*
X-6490Y281727D01*
X-6676Y281781D01*
X-6864Y281830D01*
X-7053Y281875D01*
X-7242Y281915D01*
X-7433Y281951D01*
X-7625Y281981D01*
X-7817Y282008D01*
X-8009Y282029D01*
X-8203Y282046D01*
X-8396Y282057D01*
X-8590Y282065D01*
X-8784Y282067D01*
X111951Y70930D02*
X111951Y53150D01*
X111951Y70930D02*
X107012Y70930D01*
X106872Y70928D01*
X106733Y70922D01*
X106593Y70912D01*
X106454Y70898D01*
X106315Y70881D01*
X106177Y70859D01*
X106040Y70833D01*
X105903Y70804D01*
X105767Y70771D01*
X105633Y70734D01*
X105499Y70693D01*
X105367Y70648D01*
X105235Y70599D01*
X105106Y70547D01*
X104978Y70492D01*
X104851Y70432D01*
X104726Y70369D01*
X104603Y70303D01*
X104482Y70233D01*
X104363Y70160D01*
X104246Y70083D01*
X104132Y70003D01*
X104019Y69920D01*
X103909Y69834D01*
X103802Y69744D01*
X103697Y69652D01*
X103595Y69557D01*
X103495Y69459D01*
X103398Y69358D01*
X103304Y69254D01*
X103214Y69148D01*
X103126Y69039D01*
X103041Y68928D01*
X102960Y68814D01*
X102881Y68699D01*
X102806Y68581D01*
X102735Y68460D01*
X102667Y68338D01*
X102602Y68215D01*
X102541Y68089D01*
X102483Y67961D01*
X102429Y67833D01*
X102379Y67702D01*
X102332Y67570D01*
X102289Y67437D01*
X102250Y67303D01*
X102215Y67168D01*
X102184Y67032D01*
X102156Y66894D01*
X102133Y66757D01*
X102113Y66618D01*
X102097Y66479D01*
X102085Y66340D01*
X102077Y66201D01*
X102073Y66061D01*
X102073Y65921D01*
X102077Y65781D01*
X102085Y65642D01*
X102097Y65503D01*
X102113Y65364D01*
X102133Y65225D01*
X102156Y65088D01*
X102184Y64950D01*
X102215Y64814D01*
X102250Y64679D01*
X102289Y64545D01*
X102332Y64412D01*
X102379Y64280D01*
X102429Y64149D01*
X102483Y64021D01*
X102541Y63893D01*
X102602Y63767D01*
X102667Y63644D01*
X102735Y63521D01*
X102806Y63401D01*
X102881Y63283D01*
X102960Y63168D01*
X103041Y63054D01*
X103126Y62943D01*
X103214Y62834D01*
X103304Y62728D01*
X103398Y62624D01*
X103495Y62523D01*
X103595Y62425D01*
X103697Y62330D01*
X103802Y62238D01*
X103909Y62148D01*
X104019Y62062D01*
X104132Y61979D01*
X104246Y61899D01*
X104363Y61822D01*
X104482Y61749D01*
X104603Y61679D01*
X104726Y61613D01*
X104851Y61550D01*
X104978Y61490D01*
X105106Y61435D01*
X105235Y61383D01*
X105367Y61334D01*
X105499Y61289D01*
X105633Y61248D01*
X105767Y61211D01*
X105903Y61178D01*
X106040Y61149D01*
X106177Y61123D01*
X106315Y61101D01*
X106454Y61084D01*
X106593Y61070D01*
X106733Y61060D01*
X106872Y61054D01*
X107012Y61052D01*
X111951Y61052D01*
X90523Y70930D02*
X90391Y70928D01*
X90260Y70922D01*
X90128Y70912D01*
X89997Y70899D01*
X89867Y70881D01*
X89737Y70860D01*
X89607Y70835D01*
X89479Y70806D01*
X89351Y70773D01*
X89225Y70736D01*
X89099Y70696D01*
X88975Y70652D01*
X88852Y70604D01*
X88731Y70553D01*
X88611Y70498D01*
X88493Y70440D01*
X88377Y70378D01*
X88263Y70312D01*
X88150Y70244D01*
X88040Y70172D01*
X87932Y70097D01*
X87826Y70018D01*
X87722Y69937D01*
X87621Y69852D01*
X87523Y69765D01*
X87427Y69674D01*
X87334Y69581D01*
X87243Y69485D01*
X87156Y69387D01*
X87071Y69286D01*
X86990Y69182D01*
X86911Y69076D01*
X86836Y68968D01*
X86764Y68858D01*
X86696Y68745D01*
X86630Y68631D01*
X86568Y68515D01*
X86510Y68397D01*
X86455Y68277D01*
X86404Y68156D01*
X86356Y68033D01*
X86312Y67909D01*
X86272Y67783D01*
X86235Y67657D01*
X86202Y67529D01*
X86173Y67401D01*
X86148Y67271D01*
X86127Y67141D01*
X86109Y67011D01*
X86096Y66880D01*
X86086Y66748D01*
X86080Y66617D01*
X86078Y66485D01*
X90523Y70930D02*
X90673Y70928D01*
X90822Y70922D01*
X90971Y70912D01*
X91120Y70899D01*
X91269Y70881D01*
X91417Y70860D01*
X91565Y70834D01*
X91711Y70805D01*
X91857Y70772D01*
X92002Y70735D01*
X92146Y70694D01*
X92289Y70650D01*
X92431Y70602D01*
X92571Y70550D01*
X92710Y70495D01*
X92848Y70436D01*
X92983Y70373D01*
X93118Y70307D01*
X93250Y70237D01*
X93380Y70164D01*
X93509Y70087D01*
X93636Y70007D01*
X93760Y69924D01*
X93882Y69838D01*
X94002Y69748D01*
X94119Y69655D01*
X94234Y69560D01*
X94347Y69461D01*
X94457Y69359D01*
X94564Y69255D01*
X94668Y69148D01*
X94770Y69038D01*
X94868Y68925D01*
X94964Y68810D01*
X95056Y68692D01*
X95146Y68572D01*
X95232Y68450D01*
X95315Y68326D01*
X95395Y68199D01*
X95471Y68071D01*
X95544Y67940D01*
X95614Y67807D01*
X95680Y67673D01*
X95742Y67537D01*
X95801Y67400D01*
X95857Y67261D01*
X95908Y67120D01*
X95956Y66979D01*
X87560Y63028D02*
X87464Y63121D01*
X87372Y63217D01*
X87282Y63316D01*
X87195Y63417D01*
X87111Y63520D01*
X87029Y63625D01*
X86951Y63733D01*
X86876Y63843D01*
X86803Y63955D01*
X86734Y64069D01*
X86668Y64185D01*
X86606Y64303D01*
X86547Y64422D01*
X86491Y64543D01*
X86438Y64666D01*
X86389Y64790D01*
X86344Y64915D01*
X86301Y65042D01*
X86263Y65169D01*
X86228Y65298D01*
X86197Y65427D01*
X86169Y65558D01*
X86145Y65689D01*
X86124Y65821D01*
X86108Y65953D01*
X86095Y66086D01*
X86085Y66219D01*
X86080Y66352D01*
X86078Y66485D01*
X87559Y63027D02*
X95955Y53150D01*
X86078Y53150D01*
X73708Y60064D02*
X73708Y65991D01*
X73708Y60064D02*
X70251Y55619D01*
X73708Y60064D02*
X77165Y55619D01*
X73708Y60064D02*
X68275Y62040D01*
X73708Y60064D02*
X79141Y62040D01*
X-92837Y212738D02*
X-110617Y212738D01*
X-92837Y212738D02*
X-92837Y217676D01*
X-92839Y217816D01*
X-92845Y217955D01*
X-92855Y218095D01*
X-92869Y218234D01*
X-92886Y218373D01*
X-92908Y218511D01*
X-92934Y218648D01*
X-92963Y218785D01*
X-92996Y218921D01*
X-93033Y219055D01*
X-93074Y219189D01*
X-93119Y219321D01*
X-93168Y219453D01*
X-93220Y219582D01*
X-93275Y219710D01*
X-93335Y219837D01*
X-93398Y219962D01*
X-93464Y220085D01*
X-93534Y220206D01*
X-93607Y220325D01*
X-93684Y220442D01*
X-93764Y220556D01*
X-93847Y220669D01*
X-93933Y220779D01*
X-94023Y220886D01*
X-94115Y220991D01*
X-94210Y221093D01*
X-94308Y221193D01*
X-94409Y221290D01*
X-94513Y221384D01*
X-94619Y221474D01*
X-94728Y221562D01*
X-94839Y221647D01*
X-94953Y221728D01*
X-95068Y221807D01*
X-95186Y221882D01*
X-95307Y221953D01*
X-95429Y222021D01*
X-95552Y222086D01*
X-95678Y222147D01*
X-95806Y222205D01*
X-95934Y222259D01*
X-96065Y222309D01*
X-96197Y222356D01*
X-96330Y222399D01*
X-96464Y222438D01*
X-96599Y222473D01*
X-96735Y222504D01*
X-96873Y222532D01*
X-97010Y222555D01*
X-97149Y222575D01*
X-97288Y222591D01*
X-97427Y222603D01*
X-97566Y222611D01*
X-97706Y222615D01*
X-97846Y222615D01*
X-97986Y222611D01*
X-98125Y222603D01*
X-98264Y222591D01*
X-98403Y222575D01*
X-98542Y222555D01*
X-98679Y222532D01*
X-98817Y222504D01*
X-98953Y222473D01*
X-99088Y222438D01*
X-99222Y222399D01*
X-99355Y222356D01*
X-99487Y222309D01*
X-99618Y222259D01*
X-99746Y222205D01*
X-99874Y222147D01*
X-100000Y222086D01*
X-100123Y222021D01*
X-100246Y221953D01*
X-100366Y221882D01*
X-100484Y221807D01*
X-100599Y221728D01*
X-100713Y221647D01*
X-100824Y221562D01*
X-100933Y221474D01*
X-101039Y221384D01*
X-101143Y221290D01*
X-101244Y221193D01*
X-101342Y221093D01*
X-101437Y220991D01*
X-101529Y220886D01*
X-101619Y220779D01*
X-101705Y220669D01*
X-101788Y220556D01*
X-101868Y220442D01*
X-101945Y220325D01*
X-102018Y220206D01*
X-102088Y220085D01*
X-102154Y219962D01*
X-102217Y219837D01*
X-102277Y219710D01*
X-102332Y219582D01*
X-102384Y219453D01*
X-102433Y219321D01*
X-102478Y219189D01*
X-102519Y219055D01*
X-102556Y218921D01*
X-102589Y218785D01*
X-102618Y218648D01*
X-102644Y218511D01*
X-102666Y218373D01*
X-102683Y218234D01*
X-102697Y218095D01*
X-102707Y217955D01*
X-102713Y217816D01*
X-102715Y217676D01*
X-102715Y212738D01*
X-110617Y228733D02*
X-110617Y234659D01*
X-110615Y234783D01*
X-110609Y234907D01*
X-110599Y235031D01*
X-110586Y235154D01*
X-110568Y235277D01*
X-110547Y235399D01*
X-110522Y235521D01*
X-110493Y235642D01*
X-110460Y235761D01*
X-110424Y235880D01*
X-110383Y235997D01*
X-110340Y236113D01*
X-110292Y236228D01*
X-110241Y236341D01*
X-110186Y236453D01*
X-110128Y236562D01*
X-110067Y236670D01*
X-110002Y236776D01*
X-109934Y236880D01*
X-109862Y236981D01*
X-109788Y237081D01*
X-109710Y237177D01*
X-109630Y237272D01*
X-109546Y237364D01*
X-109460Y237453D01*
X-109371Y237539D01*
X-109279Y237623D01*
X-109184Y237703D01*
X-109088Y237781D01*
X-108988Y237855D01*
X-108887Y237927D01*
X-108783Y237995D01*
X-108677Y238060D01*
X-108569Y238121D01*
X-108460Y238179D01*
X-108348Y238234D01*
X-108235Y238285D01*
X-108120Y238333D01*
X-108004Y238376D01*
X-107887Y238417D01*
X-107768Y238453D01*
X-107649Y238486D01*
X-107528Y238515D01*
X-107406Y238540D01*
X-107284Y238561D01*
X-107161Y238579D01*
X-107038Y238592D01*
X-106914Y238602D01*
X-106790Y238608D01*
X-106666Y238610D01*
X-104690Y238610D01*
X-104566Y238608D01*
X-104442Y238602D01*
X-104318Y238592D01*
X-104195Y238579D01*
X-104072Y238561D01*
X-103950Y238540D01*
X-103828Y238515D01*
X-103707Y238486D01*
X-103588Y238453D01*
X-103469Y238417D01*
X-103352Y238376D01*
X-103236Y238333D01*
X-103121Y238285D01*
X-103008Y238234D01*
X-102896Y238179D01*
X-102787Y238121D01*
X-102679Y238060D01*
X-102573Y237995D01*
X-102469Y237927D01*
X-102368Y237855D01*
X-102268Y237781D01*
X-102172Y237703D01*
X-102077Y237623D01*
X-101985Y237539D01*
X-101896Y237453D01*
X-101810Y237364D01*
X-101726Y237272D01*
X-101646Y237177D01*
X-101568Y237081D01*
X-101494Y236981D01*
X-101422Y236880D01*
X-101354Y236776D01*
X-101289Y236670D01*
X-101228Y236562D01*
X-101170Y236453D01*
X-101115Y236341D01*
X-101064Y236228D01*
X-101016Y236113D01*
X-100973Y235997D01*
X-100932Y235880D01*
X-100896Y235761D01*
X-100863Y235642D01*
X-100834Y235521D01*
X-100809Y235399D01*
X-100788Y235277D01*
X-100770Y235154D01*
X-100757Y235031D01*
X-100747Y234907D01*
X-100741Y234783D01*
X-100739Y234659D01*
X-100739Y228733D01*
X-92837Y228733D01*
X-92837Y238610D01*
X-97776Y250980D02*
X-103703Y250980D01*
X-108148Y254437D01*
X-103703Y250980D02*
X-108148Y247523D01*
X-103703Y250980D02*
X-101727Y256413D01*
X-103703Y250980D02*
X-101727Y245547D01*
X-89253Y70676D02*
X-89253Y52896D01*
X-89253Y70676D02*
X-94192Y70676D01*
X-94332Y70674D01*
X-94471Y70668D01*
X-94611Y70658D01*
X-94750Y70644D01*
X-94889Y70627D01*
X-95027Y70605D01*
X-95164Y70579D01*
X-95301Y70550D01*
X-95437Y70517D01*
X-95571Y70480D01*
X-95705Y70439D01*
X-95837Y70394D01*
X-95969Y70345D01*
X-96098Y70293D01*
X-96226Y70238D01*
X-96353Y70178D01*
X-96478Y70115D01*
X-96601Y70049D01*
X-96722Y69979D01*
X-96841Y69906D01*
X-96958Y69829D01*
X-97072Y69749D01*
X-97185Y69666D01*
X-97295Y69580D01*
X-97402Y69490D01*
X-97507Y69398D01*
X-97609Y69303D01*
X-97709Y69205D01*
X-97806Y69104D01*
X-97900Y69000D01*
X-97990Y68894D01*
X-98078Y68785D01*
X-98163Y68674D01*
X-98244Y68560D01*
X-98323Y68445D01*
X-98398Y68327D01*
X-98469Y68206D01*
X-98537Y68084D01*
X-98602Y67961D01*
X-98663Y67835D01*
X-98721Y67707D01*
X-98775Y67579D01*
X-98825Y67448D01*
X-98872Y67316D01*
X-98915Y67183D01*
X-98954Y67049D01*
X-98989Y66914D01*
X-99020Y66778D01*
X-99048Y66640D01*
X-99071Y66503D01*
X-99091Y66364D01*
X-99107Y66225D01*
X-99119Y66086D01*
X-99127Y65947D01*
X-99131Y65807D01*
X-99131Y65667D01*
X-99127Y65527D01*
X-99119Y65388D01*
X-99107Y65249D01*
X-99091Y65110D01*
X-99071Y64971D01*
X-99048Y64834D01*
X-99020Y64696D01*
X-98989Y64560D01*
X-98954Y64425D01*
X-98915Y64291D01*
X-98872Y64158D01*
X-98825Y64026D01*
X-98775Y63895D01*
X-98721Y63767D01*
X-98663Y63639D01*
X-98602Y63513D01*
X-98537Y63390D01*
X-98469Y63267D01*
X-98398Y63147D01*
X-98323Y63029D01*
X-98244Y62914D01*
X-98163Y62800D01*
X-98078Y62689D01*
X-97990Y62580D01*
X-97900Y62474D01*
X-97806Y62370D01*
X-97709Y62269D01*
X-97609Y62171D01*
X-97507Y62076D01*
X-97402Y61984D01*
X-97295Y61894D01*
X-97185Y61808D01*
X-97072Y61725D01*
X-96958Y61645D01*
X-96841Y61568D01*
X-96722Y61495D01*
X-96601Y61425D01*
X-96478Y61359D01*
X-96353Y61296D01*
X-96226Y61236D01*
X-96098Y61181D01*
X-95969Y61129D01*
X-95837Y61080D01*
X-95705Y61035D01*
X-95571Y60994D01*
X-95437Y60957D01*
X-95301Y60924D01*
X-95164Y60895D01*
X-95027Y60869D01*
X-94889Y60847D01*
X-94750Y60830D01*
X-94611Y60816D01*
X-94471Y60806D01*
X-94332Y60800D01*
X-94192Y60798D01*
X-89253Y60798D01*
X-105248Y56847D02*
X-109199Y70676D01*
X-105248Y56847D02*
X-115126Y56847D01*
X-112162Y60798D02*
X-112162Y52896D01*
X13935Y38926D02*
X13935Y21146D01*
X13935Y38926D02*
X8996Y38926D01*
X8856Y38924D01*
X8717Y38918D01*
X8577Y38908D01*
X8438Y38894D01*
X8299Y38877D01*
X8161Y38855D01*
X8024Y38829D01*
X7887Y38800D01*
X7751Y38767D01*
X7617Y38730D01*
X7483Y38689D01*
X7351Y38644D01*
X7219Y38595D01*
X7090Y38543D01*
X6962Y38488D01*
X6835Y38428D01*
X6710Y38365D01*
X6587Y38299D01*
X6466Y38229D01*
X6347Y38156D01*
X6230Y38079D01*
X6116Y37999D01*
X6003Y37916D01*
X5893Y37830D01*
X5786Y37740D01*
X5681Y37648D01*
X5579Y37553D01*
X5479Y37455D01*
X5382Y37354D01*
X5288Y37250D01*
X5198Y37144D01*
X5110Y37035D01*
X5025Y36924D01*
X4944Y36810D01*
X4865Y36695D01*
X4790Y36577D01*
X4719Y36456D01*
X4651Y36334D01*
X4586Y36211D01*
X4525Y36085D01*
X4467Y35957D01*
X4413Y35829D01*
X4363Y35698D01*
X4316Y35566D01*
X4273Y35433D01*
X4234Y35299D01*
X4199Y35164D01*
X4168Y35028D01*
X4140Y34890D01*
X4117Y34753D01*
X4097Y34614D01*
X4081Y34475D01*
X4069Y34336D01*
X4061Y34197D01*
X4057Y34057D01*
X4057Y33917D01*
X4061Y33777D01*
X4069Y33638D01*
X4081Y33499D01*
X4097Y33360D01*
X4117Y33221D01*
X4140Y33084D01*
X4168Y32946D01*
X4199Y32810D01*
X4234Y32675D01*
X4273Y32541D01*
X4316Y32408D01*
X4363Y32276D01*
X4413Y32145D01*
X4467Y32017D01*
X4525Y31889D01*
X4586Y31763D01*
X4651Y31640D01*
X4719Y31517D01*
X4790Y31397D01*
X4865Y31279D01*
X4944Y31164D01*
X5025Y31050D01*
X5110Y30939D01*
X5198Y30830D01*
X5288Y30724D01*
X5382Y30620D01*
X5479Y30519D01*
X5579Y30421D01*
X5681Y30326D01*
X5786Y30234D01*
X5893Y30144D01*
X6003Y30058D01*
X6116Y29975D01*
X6230Y29895D01*
X6347Y29818D01*
X6466Y29745D01*
X6587Y29675D01*
X6710Y29609D01*
X6835Y29546D01*
X6962Y29486D01*
X7090Y29431D01*
X7219Y29379D01*
X7351Y29330D01*
X7483Y29285D01*
X7617Y29244D01*
X7751Y29207D01*
X7887Y29174D01*
X8024Y29145D01*
X8161Y29119D01*
X8299Y29097D01*
X8438Y29080D01*
X8577Y29066D01*
X8717Y29056D01*
X8856Y29050D01*
X8996Y29048D01*
X13935Y29048D01*
X-2060Y21146D02*
X-6999Y21146D01*
X-6999Y21145D02*
X-7139Y21147D01*
X-7278Y21153D01*
X-7418Y21163D01*
X-7557Y21177D01*
X-7696Y21194D01*
X-7834Y21216D01*
X-7971Y21242D01*
X-8108Y21271D01*
X-8244Y21304D01*
X-8378Y21341D01*
X-8512Y21382D01*
X-8644Y21427D01*
X-8776Y21476D01*
X-8905Y21528D01*
X-9033Y21583D01*
X-9160Y21643D01*
X-9285Y21706D01*
X-9408Y21772D01*
X-9529Y21842D01*
X-9648Y21915D01*
X-9765Y21992D01*
X-9879Y22072D01*
X-9992Y22155D01*
X-10102Y22241D01*
X-10209Y22331D01*
X-10314Y22423D01*
X-10416Y22518D01*
X-10516Y22616D01*
X-10613Y22717D01*
X-10707Y22821D01*
X-10797Y22927D01*
X-10885Y23036D01*
X-10970Y23147D01*
X-11051Y23261D01*
X-11130Y23376D01*
X-11205Y23494D01*
X-11276Y23614D01*
X-11344Y23737D01*
X-11409Y23860D01*
X-11470Y23986D01*
X-11528Y24114D01*
X-11582Y24242D01*
X-11632Y24373D01*
X-11679Y24505D01*
X-11722Y24638D01*
X-11761Y24772D01*
X-11796Y24907D01*
X-11827Y25043D01*
X-11855Y25181D01*
X-11878Y25318D01*
X-11898Y25457D01*
X-11914Y25596D01*
X-11926Y25735D01*
X-11934Y25874D01*
X-11938Y26014D01*
X-11938Y26154D01*
X-11934Y26294D01*
X-11926Y26433D01*
X-11914Y26572D01*
X-11898Y26711D01*
X-11878Y26850D01*
X-11855Y26987D01*
X-11827Y27125D01*
X-11796Y27261D01*
X-11761Y27396D01*
X-11722Y27530D01*
X-11679Y27663D01*
X-11632Y27795D01*
X-11582Y27926D01*
X-11528Y28054D01*
X-11470Y28182D01*
X-11409Y28308D01*
X-11344Y28431D01*
X-11276Y28553D01*
X-11205Y28674D01*
X-11130Y28792D01*
X-11051Y28907D01*
X-10970Y29021D01*
X-10885Y29132D01*
X-10797Y29241D01*
X-10707Y29347D01*
X-10613Y29451D01*
X-10516Y29552D01*
X-10416Y29650D01*
X-10314Y29745D01*
X-10209Y29837D01*
X-10102Y29927D01*
X-9992Y30013D01*
X-9879Y30096D01*
X-9765Y30176D01*
X-9648Y30253D01*
X-9529Y30326D01*
X-9408Y30396D01*
X-9285Y30462D01*
X-9160Y30525D01*
X-9033Y30585D01*
X-8905Y30640D01*
X-8776Y30692D01*
X-8644Y30741D01*
X-8512Y30786D01*
X-8378Y30827D01*
X-8244Y30864D01*
X-8108Y30897D01*
X-7971Y30926D01*
X-7834Y30952D01*
X-7696Y30974D01*
X-7557Y30991D01*
X-7418Y31005D01*
X-7278Y31015D01*
X-7139Y31021D01*
X-6999Y31023D01*
X-7987Y38926D02*
X-2060Y38926D01*
X-7987Y38925D02*
X-8111Y38923D01*
X-8235Y38917D01*
X-8359Y38907D01*
X-8482Y38894D01*
X-8605Y38876D01*
X-8727Y38855D01*
X-8849Y38830D01*
X-8970Y38801D01*
X-9089Y38768D01*
X-9208Y38732D01*
X-9325Y38691D01*
X-9441Y38648D01*
X-9556Y38600D01*
X-9669Y38549D01*
X-9781Y38494D01*
X-9890Y38436D01*
X-9998Y38375D01*
X-10104Y38310D01*
X-10208Y38242D01*
X-10309Y38170D01*
X-10409Y38096D01*
X-10505Y38018D01*
X-10600Y37938D01*
X-10692Y37854D01*
X-10781Y37768D01*
X-10867Y37679D01*
X-10951Y37587D01*
X-11031Y37492D01*
X-11109Y37396D01*
X-11183Y37296D01*
X-11255Y37195D01*
X-11323Y37091D01*
X-11388Y36985D01*
X-11449Y36877D01*
X-11507Y36768D01*
X-11562Y36656D01*
X-11613Y36543D01*
X-11661Y36428D01*
X-11704Y36312D01*
X-11745Y36195D01*
X-11781Y36076D01*
X-11814Y35957D01*
X-11843Y35836D01*
X-11868Y35714D01*
X-11889Y35592D01*
X-11907Y35469D01*
X-11920Y35346D01*
X-11930Y35222D01*
X-11936Y35098D01*
X-11938Y34974D01*
X-11936Y34850D01*
X-11930Y34726D01*
X-11920Y34602D01*
X-11907Y34479D01*
X-11889Y34356D01*
X-11868Y34234D01*
X-11843Y34112D01*
X-11814Y33991D01*
X-11781Y33872D01*
X-11745Y33753D01*
X-11704Y33636D01*
X-11661Y33520D01*
X-11613Y33405D01*
X-11562Y33292D01*
X-11507Y33180D01*
X-11449Y33071D01*
X-11388Y32963D01*
X-11323Y32857D01*
X-11255Y32753D01*
X-11183Y32652D01*
X-11109Y32552D01*
X-11031Y32456D01*
X-10951Y32361D01*
X-10867Y32269D01*
X-10781Y32180D01*
X-10692Y32094D01*
X-10600Y32010D01*
X-10505Y31930D01*
X-10409Y31852D01*
X-10309Y31778D01*
X-10208Y31706D01*
X-10104Y31638D01*
X-9998Y31573D01*
X-9890Y31512D01*
X-9781Y31454D01*
X-9669Y31399D01*
X-9556Y31348D01*
X-9441Y31300D01*
X-9325Y31257D01*
X-9208Y31216D01*
X-9089Y31180D01*
X-8970Y31147D01*
X-8849Y31118D01*
X-8727Y31093D01*
X-8605Y31072D01*
X-8482Y31054D01*
X-8359Y31041D01*
X-8235Y31031D01*
X-8111Y31025D01*
X-7987Y31023D01*
X-4036Y31023D01*
X-114935Y100264D02*
X-132715Y100264D01*
X-122837Y100264D02*
X-122837Y110142D01*
X-114935Y110142D02*
X-132715Y110142D01*
X-118886Y117573D02*
X-114935Y122512D01*
X-132715Y122512D01*
X-132715Y117573D02*
X-132715Y127451D01*
X-128764Y134323D02*
X-114935Y138275D01*
X-128764Y134323D02*
X-128764Y144201D01*
X-124813Y141238D02*
X-132715Y141238D01*
X-132715Y151718D02*
X-114935Y151718D01*
X-114935Y156657D01*
X-114937Y156797D01*
X-114943Y156936D01*
X-114953Y157076D01*
X-114967Y157215D01*
X-114984Y157354D01*
X-115006Y157492D01*
X-115032Y157629D01*
X-115061Y157766D01*
X-115094Y157902D01*
X-115131Y158036D01*
X-115172Y158170D01*
X-115217Y158302D01*
X-115266Y158434D01*
X-115318Y158563D01*
X-115373Y158691D01*
X-115433Y158818D01*
X-115496Y158943D01*
X-115562Y159066D01*
X-115632Y159187D01*
X-115705Y159306D01*
X-115782Y159423D01*
X-115862Y159537D01*
X-115945Y159650D01*
X-116031Y159760D01*
X-116121Y159867D01*
X-116213Y159972D01*
X-116308Y160074D01*
X-116406Y160174D01*
X-116507Y160271D01*
X-116611Y160365D01*
X-116717Y160455D01*
X-116826Y160543D01*
X-116937Y160628D01*
X-117051Y160709D01*
X-117166Y160788D01*
X-117284Y160863D01*
X-117405Y160934D01*
X-117527Y161002D01*
X-117650Y161067D01*
X-117776Y161128D01*
X-117904Y161186D01*
X-118032Y161240D01*
X-118163Y161290D01*
X-118295Y161337D01*
X-118428Y161380D01*
X-118562Y161419D01*
X-118697Y161454D01*
X-118833Y161485D01*
X-118971Y161513D01*
X-119108Y161536D01*
X-119247Y161556D01*
X-119386Y161572D01*
X-119525Y161584D01*
X-119664Y161592D01*
X-119804Y161596D01*
X-119944Y161596D01*
X-120084Y161592D01*
X-120223Y161584D01*
X-120362Y161572D01*
X-120501Y161556D01*
X-120640Y161536D01*
X-120777Y161513D01*
X-120915Y161485D01*
X-121051Y161454D01*
X-121186Y161419D01*
X-121320Y161380D01*
X-121453Y161337D01*
X-121585Y161290D01*
X-121716Y161240D01*
X-121844Y161186D01*
X-121972Y161128D01*
X-122098Y161067D01*
X-122221Y161002D01*
X-122344Y160934D01*
X-122464Y160863D01*
X-122582Y160788D01*
X-122697Y160709D01*
X-122811Y160628D01*
X-122922Y160543D01*
X-123031Y160455D01*
X-123137Y160365D01*
X-123241Y160271D01*
X-123342Y160174D01*
X-123440Y160074D01*
X-123535Y159972D01*
X-123627Y159867D01*
X-123717Y159760D01*
X-123803Y159650D01*
X-123886Y159537D01*
X-123966Y159423D01*
X-124043Y159306D01*
X-124116Y159187D01*
X-124186Y159066D01*
X-124252Y158943D01*
X-124315Y158818D01*
X-124375Y158691D01*
X-124430Y158563D01*
X-124482Y158434D01*
X-124531Y158302D01*
X-124576Y158170D01*
X-124617Y158036D01*
X-124654Y157902D01*
X-124687Y157766D01*
X-124716Y157629D01*
X-124742Y157492D01*
X-124764Y157354D01*
X-124781Y157215D01*
X-124795Y157076D01*
X-124805Y156936D01*
X-124811Y156797D01*
X-124813Y156657D01*
X-124813Y151718D01*
X-124813Y157644D02*
X-132715Y161595D01*
X-132715Y167395D02*
X-114935Y173322D01*
X-132715Y179248D01*
X-128270Y177767D02*
X-128270Y168877D01*
X-123825Y185133D02*
X-123475Y185137D01*
X-123126Y185150D01*
X-122777Y185171D01*
X-122428Y185200D01*
X-122080Y185237D01*
X-121733Y185283D01*
X-121388Y185337D01*
X-121044Y185399D01*
X-120701Y185470D01*
X-120360Y185549D01*
X-120021Y185635D01*
X-119685Y185730D01*
X-119350Y185833D01*
X-119019Y185944D01*
X-118690Y186062D01*
X-118363Y186189D01*
X-118040Y186323D01*
X-117721Y186465D01*
X-117404Y186615D01*
X-117405Y186615D02*
X-117292Y186655D01*
X-117182Y186699D01*
X-117072Y186747D01*
X-116965Y186798D01*
X-116859Y186853D01*
X-116754Y186911D01*
X-116652Y186973D01*
X-116552Y187038D01*
X-116454Y187106D01*
X-116358Y187177D01*
X-116265Y187252D01*
X-116174Y187329D01*
X-116086Y187409D01*
X-116001Y187492D01*
X-115918Y187578D01*
X-115838Y187667D01*
X-115761Y187758D01*
X-115687Y187852D01*
X-115616Y187948D01*
X-115548Y188046D01*
X-115484Y188146D01*
X-115422Y188249D01*
X-115365Y188353D01*
X-115310Y188459D01*
X-115259Y188567D01*
X-115212Y188677D01*
X-115168Y188788D01*
X-115128Y188900D01*
X-115092Y189014D01*
X-115059Y189128D01*
X-115030Y189244D01*
X-115005Y189361D01*
X-114984Y189478D01*
X-114966Y189596D01*
X-114953Y189715D01*
X-114943Y189834D01*
X-114937Y189953D01*
X-114935Y190072D01*
X-114937Y190191D01*
X-114943Y190310D01*
X-114953Y190429D01*
X-114966Y190548D01*
X-114984Y190666D01*
X-115005Y190783D01*
X-115030Y190900D01*
X-115059Y191016D01*
X-115092Y191130D01*
X-115128Y191244D01*
X-115168Y191356D01*
X-115212Y191467D01*
X-115259Y191577D01*
X-115310Y191685D01*
X-115365Y191791D01*
X-115422Y191895D01*
X-115484Y191998D01*
X-115548Y192098D01*
X-115616Y192196D01*
X-115687Y192292D01*
X-115761Y192386D01*
X-115838Y192477D01*
X-115918Y192566D01*
X-116001Y192652D01*
X-116086Y192735D01*
X-116174Y192815D01*
X-116265Y192892D01*
X-116359Y192967D01*
X-116454Y193038D01*
X-116552Y193106D01*
X-116652Y193171D01*
X-116754Y193233D01*
X-116859Y193291D01*
X-116965Y193346D01*
X-117072Y193397D01*
X-117182Y193445D01*
X-117292Y193489D01*
X-117405Y193529D01*
X-117721Y193679D01*
X-118040Y193821D01*
X-118363Y193955D01*
X-118690Y194082D01*
X-119019Y194200D01*
X-119350Y194311D01*
X-119685Y194414D01*
X-120021Y194509D01*
X-120360Y194595D01*
X-120701Y194674D01*
X-121044Y194745D01*
X-121388Y194807D01*
X-121733Y194861D01*
X-122080Y194907D01*
X-122428Y194944D01*
X-122777Y194973D01*
X-123126Y194994D01*
X-123475Y195007D01*
X-123825Y195011D01*
X-123825Y185133D02*
X-124175Y185137D01*
X-124524Y185150D01*
X-124873Y185171D01*
X-125222Y185200D01*
X-125570Y185237D01*
X-125917Y185283D01*
X-126262Y185337D01*
X-126606Y185399D01*
X-126949Y185470D01*
X-127290Y185549D01*
X-127629Y185635D01*
X-127965Y185730D01*
X-128300Y185833D01*
X-128631Y185944D01*
X-128960Y186062D01*
X-129287Y186189D01*
X-129610Y186323D01*
X-129929Y186465D01*
X-130245Y186615D01*
X-130358Y186655D01*
X-130468Y186699D01*
X-130578Y186747D01*
X-130686Y186798D01*
X-130792Y186853D01*
X-130896Y186911D01*
X-130998Y186973D01*
X-131098Y187038D01*
X-131196Y187106D01*
X-131292Y187177D01*
X-131385Y187252D01*
X-131476Y187329D01*
X-131564Y187409D01*
X-131649Y187493D01*
X-131732Y187578D01*
X-131812Y187667D01*
X-131889Y187758D01*
X-131963Y187852D01*
X-132034Y187948D01*
X-132102Y188046D01*
X-132166Y188146D01*
X-132228Y188249D01*
X-132286Y188353D01*
X-132340Y188459D01*
X-132391Y188567D01*
X-132438Y188677D01*
X-132482Y188788D01*
X-132522Y188900D01*
X-132558Y189014D01*
X-132591Y189128D01*
X-132620Y189244D01*
X-132645Y189361D01*
X-132666Y189478D01*
X-132684Y189596D01*
X-132697Y189715D01*
X-132707Y189834D01*
X-132713Y189953D01*
X-132715Y190072D01*
X-130245Y193529D02*
X-129929Y193679D01*
X-129610Y193821D01*
X-129287Y193955D01*
X-128960Y194082D01*
X-128631Y194200D01*
X-128300Y194311D01*
X-127965Y194414D01*
X-127629Y194509D01*
X-127290Y194595D01*
X-126949Y194674D01*
X-126606Y194745D01*
X-126262Y194807D01*
X-125917Y194861D01*
X-125570Y194907D01*
X-125222Y194944D01*
X-124873Y194973D01*
X-124524Y194994D01*
X-124175Y195007D01*
X-123825Y195011D01*
X-130245Y193529D02*
X-130358Y193489D01*
X-130468Y193445D01*
X-130578Y193397D01*
X-130685Y193346D01*
X-130791Y193291D01*
X-130896Y193233D01*
X-130998Y193171D01*
X-131098Y193106D01*
X-131196Y193038D01*
X-131292Y192967D01*
X-131385Y192892D01*
X-131476Y192815D01*
X-131564Y192735D01*
X-131649Y192652D01*
X-131732Y192566D01*
X-131812Y192477D01*
X-131889Y192386D01*
X-131963Y192292D01*
X-132034Y192196D01*
X-132102Y192098D01*
X-132166Y191998D01*
X-132228Y191895D01*
X-132285Y191791D01*
X-132340Y191685D01*
X-132391Y191577D01*
X-132438Y191467D01*
X-132482Y191356D01*
X-132522Y191244D01*
X-132558Y191130D01*
X-132591Y191016D01*
X-132620Y190900D01*
X-132645Y190783D01*
X-132666Y190666D01*
X-132684Y190548D01*
X-132697Y190429D01*
X-132707Y190310D01*
X-132713Y190191D01*
X-132715Y190072D01*
X-128764Y186121D02*
X-118886Y194023D01*
D11*
X-145401Y137174D02*
X-145401Y135227D01*
X-145401Y137174D02*
X-151892Y137174D01*
X-151892Y133279D01*
X-151890Y133180D01*
X-151884Y133080D01*
X-151875Y132981D01*
X-151862Y132883D01*
X-151845Y132785D01*
X-151824Y132687D01*
X-151799Y132591D01*
X-151771Y132496D01*
X-151739Y132402D01*
X-151704Y132309D01*
X-151665Y132217D01*
X-151622Y132127D01*
X-151577Y132039D01*
X-151527Y131952D01*
X-151475Y131868D01*
X-151419Y131785D01*
X-151361Y131705D01*
X-151299Y131627D01*
X-151234Y131552D01*
X-151166Y131479D01*
X-151096Y131409D01*
X-151023Y131341D01*
X-150948Y131276D01*
X-150870Y131214D01*
X-150790Y131156D01*
X-150707Y131100D01*
X-150623Y131048D01*
X-150536Y130998D01*
X-150448Y130953D01*
X-150358Y130910D01*
X-150266Y130871D01*
X-150173Y130836D01*
X-150079Y130804D01*
X-149984Y130776D01*
X-149888Y130751D01*
X-149790Y130730D01*
X-149692Y130713D01*
X-149594Y130700D01*
X-149495Y130691D01*
X-149395Y130685D01*
X-149296Y130683D01*
X-142804Y130683D01*
X-142705Y130685D01*
X-142605Y130691D01*
X-142506Y130700D01*
X-142408Y130713D01*
X-142310Y130731D01*
X-142212Y130751D01*
X-142116Y130776D01*
X-142020Y130804D01*
X-141926Y130836D01*
X-141833Y130871D01*
X-141742Y130910D01*
X-141652Y130953D01*
X-141563Y130998D01*
X-141477Y131048D01*
X-141392Y131100D01*
X-141310Y131156D01*
X-141230Y131215D01*
X-141152Y131276D01*
X-141076Y131341D01*
X-141003Y131409D01*
X-140933Y131479D01*
X-140865Y131552D01*
X-140800Y131628D01*
X-140739Y131706D01*
X-140680Y131786D01*
X-140624Y131868D01*
X-140572Y131953D01*
X-140523Y132039D01*
X-140477Y132128D01*
X-140434Y132218D01*
X-140395Y132309D01*
X-140360Y132402D01*
X-140328Y132496D01*
X-140300Y132592D01*
X-140275Y132688D01*
X-140255Y132786D01*
X-140237Y132884D01*
X-140224Y132982D01*
X-140215Y133081D01*
X-140209Y133180D01*
X-140207Y133280D01*
X-140208Y133279D02*
X-140208Y137174D01*
X-140208Y142875D02*
X-151892Y142875D01*
X-151892Y149366D02*
X-140208Y142875D01*
X-140208Y149366D02*
X-151892Y149366D01*
X-151892Y155067D02*
X-140208Y155067D01*
X-140208Y158312D01*
X-140210Y158425D01*
X-140216Y158538D01*
X-140226Y158651D01*
X-140240Y158764D01*
X-140257Y158876D01*
X-140279Y158987D01*
X-140304Y159097D01*
X-140334Y159207D01*
X-140367Y159315D01*
X-140404Y159422D01*
X-140444Y159528D01*
X-140489Y159632D01*
X-140537Y159735D01*
X-140588Y159836D01*
X-140643Y159935D01*
X-140701Y160032D01*
X-140763Y160127D01*
X-140828Y160220D01*
X-140896Y160310D01*
X-140967Y160398D01*
X-141042Y160484D01*
X-141119Y160567D01*
X-141199Y160647D01*
X-141282Y160724D01*
X-141368Y160799D01*
X-141456Y160870D01*
X-141546Y160938D01*
X-141639Y161003D01*
X-141734Y161065D01*
X-141831Y161123D01*
X-141930Y161178D01*
X-142031Y161229D01*
X-142134Y161277D01*
X-142238Y161322D01*
X-142344Y161362D01*
X-142451Y161399D01*
X-142559Y161432D01*
X-142669Y161462D01*
X-142779Y161487D01*
X-142890Y161509D01*
X-143002Y161526D01*
X-143115Y161540D01*
X-143228Y161550D01*
X-143341Y161556D01*
X-143454Y161558D01*
X-148646Y161558D01*
X-148646Y161559D02*
X-148759Y161557D01*
X-148872Y161551D01*
X-148985Y161541D01*
X-149098Y161527D01*
X-149210Y161510D01*
X-149321Y161488D01*
X-149431Y161463D01*
X-149541Y161433D01*
X-149649Y161400D01*
X-149756Y161363D01*
X-149862Y161323D01*
X-149966Y161278D01*
X-150069Y161230D01*
X-150170Y161179D01*
X-150269Y161124D01*
X-150366Y161066D01*
X-150461Y161004D01*
X-150554Y160939D01*
X-150644Y160871D01*
X-150732Y160800D01*
X-150818Y160725D01*
X-150901Y160648D01*
X-150981Y160568D01*
X-151058Y160485D01*
X-151133Y160399D01*
X-151204Y160311D01*
X-151272Y160221D01*
X-151337Y160128D01*
X-151399Y160033D01*
X-151457Y159936D01*
X-151512Y159837D01*
X-151563Y159736D01*
X-151611Y159633D01*
X-151656Y159529D01*
X-151696Y159423D01*
X-151733Y159316D01*
X-151766Y159208D01*
X-151796Y159098D01*
X-151821Y158988D01*
X-151843Y158877D01*
X-151860Y158765D01*
X-151874Y158652D01*
X-151884Y158539D01*
X-151890Y158426D01*
X-151892Y158313D01*
X-151892Y158312D02*
X-151892Y155067D01*
X-67146Y20908D02*
X-65654Y19656D01*
X-67146Y20908D02*
X-71319Y15935D01*
X-68335Y13432D01*
X-68257Y13370D01*
X-68178Y13310D01*
X-68096Y13254D01*
X-68012Y13201D01*
X-67926Y13151D01*
X-67838Y13104D01*
X-67748Y13061D01*
X-67657Y13022D01*
X-67564Y12985D01*
X-67470Y12953D01*
X-67375Y12924D01*
X-67279Y12898D01*
X-67182Y12877D01*
X-67084Y12859D01*
X-66986Y12845D01*
X-66887Y12834D01*
X-66788Y12828D01*
X-66688Y12825D01*
X-66589Y12826D01*
X-66489Y12831D01*
X-66390Y12840D01*
X-66292Y12852D01*
X-66193Y12868D01*
X-66096Y12888D01*
X-65999Y12912D01*
X-65904Y12939D01*
X-65809Y12970D01*
X-65716Y13005D01*
X-65624Y13043D01*
X-65534Y13085D01*
X-65445Y13130D01*
X-65358Y13178D01*
X-65273Y13230D01*
X-65191Y13285D01*
X-65110Y13343D01*
X-65031Y13404D01*
X-64955Y13468D01*
X-64882Y13535D01*
X-64811Y13605D01*
X-64743Y13677D01*
X-64677Y13752D01*
X-60505Y18724D01*
X-60443Y18802D01*
X-60383Y18881D01*
X-60327Y18963D01*
X-60274Y19047D01*
X-60224Y19133D01*
X-60177Y19221D01*
X-60134Y19311D01*
X-60095Y19402D01*
X-60058Y19495D01*
X-60026Y19589D01*
X-59997Y19684D01*
X-59971Y19780D01*
X-59950Y19877D01*
X-59932Y19975D01*
X-59918Y20073D01*
X-59907Y20172D01*
X-59901Y20271D01*
X-59898Y20371D01*
X-59899Y20470D01*
X-59904Y20570D01*
X-59913Y20669D01*
X-59925Y20767D01*
X-59941Y20866D01*
X-59961Y20963D01*
X-59985Y21060D01*
X-60012Y21155D01*
X-60043Y21250D01*
X-60078Y21343D01*
X-60116Y21435D01*
X-60158Y21525D01*
X-60203Y21614D01*
X-60251Y21701D01*
X-60303Y21785D01*
X-60358Y21868D01*
X-60416Y21949D01*
X-60477Y22028D01*
X-60541Y22104D01*
X-60608Y22177D01*
X-60678Y22248D01*
X-60750Y22316D01*
X-60825Y22382D01*
X-63808Y24886D01*
X-68175Y28550D02*
X-75686Y19600D01*
X-80658Y23772D02*
X-68175Y28550D01*
X-73148Y32722D02*
X-80658Y23772D01*
X-85025Y27436D02*
X-77515Y36387D01*
X-80001Y38473D01*
X-80001Y38474D02*
X-80089Y38545D01*
X-80179Y38613D01*
X-80272Y38678D01*
X-80367Y38740D01*
X-80464Y38798D01*
X-80563Y38853D01*
X-80664Y38904D01*
X-80767Y38952D01*
X-80871Y38997D01*
X-80977Y39037D01*
X-81084Y39074D01*
X-81192Y39107D01*
X-81302Y39137D01*
X-81412Y39162D01*
X-81523Y39184D01*
X-81635Y39201D01*
X-81748Y39215D01*
X-81861Y39225D01*
X-81974Y39231D01*
X-82087Y39233D01*
X-82200Y39231D01*
X-82313Y39225D01*
X-82426Y39215D01*
X-82539Y39201D01*
X-82651Y39184D01*
X-82762Y39162D01*
X-82872Y39137D01*
X-82982Y39107D01*
X-83090Y39074D01*
X-83197Y39037D01*
X-83303Y38997D01*
X-83407Y38952D01*
X-83510Y38904D01*
X-83611Y38853D01*
X-83710Y38798D01*
X-83807Y38740D01*
X-83902Y38678D01*
X-83995Y38613D01*
X-84085Y38545D01*
X-84173Y38474D01*
X-84259Y38399D01*
X-84342Y38322D01*
X-84422Y38242D01*
X-84499Y38159D01*
X-84574Y38074D01*
X-84574Y38073D02*
X-87912Y34095D01*
X-87983Y34007D01*
X-88051Y33917D01*
X-88116Y33824D01*
X-88178Y33729D01*
X-88236Y33632D01*
X-88291Y33533D01*
X-88342Y33432D01*
X-88390Y33329D01*
X-88435Y33225D01*
X-88475Y33119D01*
X-88512Y33012D01*
X-88545Y32904D01*
X-88575Y32794D01*
X-88600Y32684D01*
X-88622Y32573D01*
X-88639Y32461D01*
X-88653Y32348D01*
X-88663Y32235D01*
X-88669Y32122D01*
X-88671Y32009D01*
X-88669Y31896D01*
X-88663Y31783D01*
X-88653Y31670D01*
X-88639Y31557D01*
X-88622Y31445D01*
X-88600Y31334D01*
X-88575Y31224D01*
X-88545Y31114D01*
X-88512Y31006D01*
X-88475Y30899D01*
X-88435Y30793D01*
X-88390Y30689D01*
X-88342Y30586D01*
X-88291Y30485D01*
X-88236Y30386D01*
X-88178Y30289D01*
X-88116Y30194D01*
X-88051Y30101D01*
X-87983Y30011D01*
X-87912Y29923D01*
X-87837Y29837D01*
X-87760Y29754D01*
X-87680Y29674D01*
X-87597Y29597D01*
X-87512Y29522D01*
X-87512Y29523D02*
X-85025Y27436D01*
X82514Y32724D02*
X84201Y33698D01*
X82514Y32724D02*
X85760Y27103D01*
X89133Y29050D01*
X89132Y29051D02*
X89217Y29102D01*
X89300Y29157D01*
X89381Y29215D01*
X89460Y29275D01*
X89536Y29339D01*
X89610Y29406D01*
X89681Y29475D01*
X89750Y29547D01*
X89816Y29622D01*
X89878Y29699D01*
X89938Y29779D01*
X89995Y29860D01*
X90048Y29944D01*
X90099Y30030D01*
X90146Y30118D01*
X90189Y30207D01*
X90229Y30298D01*
X90266Y30390D01*
X90299Y30484D01*
X90328Y30579D01*
X90354Y30675D01*
X90376Y30772D01*
X90394Y30870D01*
X90409Y30968D01*
X90420Y31067D01*
X90427Y31166D01*
X90430Y31266D01*
X90429Y31365D01*
X90425Y31465D01*
X90416Y31564D01*
X90404Y31663D01*
X90389Y31761D01*
X90369Y31858D01*
X90346Y31955D01*
X90319Y32051D01*
X90288Y32145D01*
X90254Y32239D01*
X90216Y32331D01*
X90175Y32421D01*
X90130Y32510D01*
X90082Y32597D01*
X90083Y32597D02*
X86837Y38218D01*
X86786Y38303D01*
X86731Y38386D01*
X86674Y38467D01*
X86613Y38546D01*
X86549Y38622D01*
X86482Y38696D01*
X86413Y38767D01*
X86341Y38836D01*
X86266Y38902D01*
X86189Y38964D01*
X86110Y39024D01*
X86028Y39081D01*
X85944Y39134D01*
X85858Y39185D01*
X85771Y39232D01*
X85681Y39275D01*
X85590Y39315D01*
X85498Y39352D01*
X85404Y39385D01*
X85309Y39414D01*
X85213Y39440D01*
X85116Y39462D01*
X85018Y39480D01*
X84920Y39495D01*
X84821Y39506D01*
X84722Y39513D01*
X84622Y39516D01*
X84523Y39515D01*
X84423Y39511D01*
X84324Y39502D01*
X84226Y39490D01*
X84127Y39475D01*
X84030Y39455D01*
X83933Y39432D01*
X83837Y39405D01*
X83743Y39374D01*
X83649Y39340D01*
X83557Y39302D01*
X83467Y39261D01*
X83378Y39216D01*
X83291Y39168D01*
X83291Y39169D02*
X79918Y37222D01*
X74981Y34371D02*
X80823Y24252D01*
X75201Y21007D02*
X74981Y34371D01*
X69359Y31126D02*
X75201Y21007D01*
X70264Y18156D02*
X64422Y28275D01*
X61611Y26652D01*
X61611Y26653D02*
X61514Y26595D01*
X61419Y26533D01*
X61326Y26468D01*
X61236Y26400D01*
X61148Y26329D01*
X61062Y26254D01*
X60979Y26177D01*
X60899Y26097D01*
X60822Y26014D01*
X60747Y25928D01*
X60676Y25840D01*
X60608Y25750D01*
X60543Y25657D01*
X60481Y25562D01*
X60423Y25465D01*
X60368Y25366D01*
X60317Y25265D01*
X60269Y25162D01*
X60224Y25058D01*
X60184Y24952D01*
X60147Y24845D01*
X60114Y24737D01*
X60084Y24627D01*
X60059Y24517D01*
X60037Y24406D01*
X60020Y24294D01*
X60006Y24181D01*
X59996Y24068D01*
X59990Y23955D01*
X59988Y23842D01*
X59990Y23729D01*
X59996Y23616D01*
X60006Y23503D01*
X60020Y23390D01*
X60037Y23278D01*
X60059Y23167D01*
X60084Y23057D01*
X60114Y22947D01*
X60147Y22839D01*
X60184Y22732D01*
X60224Y22626D01*
X60269Y22522D01*
X60316Y22419D01*
X60368Y22318D01*
X60423Y22219D01*
X63020Y17722D01*
X63020Y17721D02*
X63078Y17624D01*
X63140Y17529D01*
X63205Y17436D01*
X63273Y17346D01*
X63344Y17258D01*
X63419Y17172D01*
X63496Y17089D01*
X63576Y17009D01*
X63659Y16932D01*
X63745Y16857D01*
X63833Y16786D01*
X63923Y16718D01*
X64016Y16653D01*
X64111Y16591D01*
X64208Y16533D01*
X64307Y16478D01*
X64408Y16427D01*
X64511Y16379D01*
X64615Y16334D01*
X64721Y16294D01*
X64828Y16257D01*
X64936Y16224D01*
X65046Y16194D01*
X65156Y16169D01*
X65267Y16147D01*
X65379Y16130D01*
X65492Y16116D01*
X65605Y16106D01*
X65718Y16100D01*
X65831Y16098D01*
X65944Y16100D01*
X66057Y16106D01*
X66170Y16116D01*
X66283Y16130D01*
X66395Y16147D01*
X66506Y16169D01*
X66616Y16194D01*
X66726Y16224D01*
X66834Y16257D01*
X66941Y16294D01*
X67047Y16334D01*
X67151Y16379D01*
X67254Y16427D01*
X67355Y16478D01*
X67454Y16533D01*
X67453Y16534D02*
X70264Y18156D01*
X83893Y273743D02*
X82207Y274717D01*
X78961Y269095D01*
X82334Y267148D01*
X82334Y267149D02*
X82421Y267101D01*
X82510Y267056D01*
X82600Y267015D01*
X82692Y266977D01*
X82786Y266943D01*
X82880Y266912D01*
X82976Y266885D01*
X83073Y266862D01*
X83170Y266842D01*
X83269Y266827D01*
X83367Y266815D01*
X83466Y266806D01*
X83566Y266802D01*
X83665Y266801D01*
X83765Y266804D01*
X83864Y266811D01*
X83963Y266822D01*
X84061Y266837D01*
X84159Y266855D01*
X84256Y266877D01*
X84352Y266903D01*
X84447Y266932D01*
X84541Y266965D01*
X84633Y267002D01*
X84724Y267042D01*
X84814Y267085D01*
X84901Y267132D01*
X84987Y267183D01*
X85071Y267236D01*
X85153Y267293D01*
X85232Y267353D01*
X85309Y267415D01*
X85384Y267481D01*
X85456Y267550D01*
X85525Y267621D01*
X85592Y267695D01*
X85656Y267771D01*
X85717Y267850D01*
X85774Y267931D01*
X85829Y268014D01*
X85880Y268099D01*
X85881Y268098D02*
X89126Y273720D01*
X89174Y273807D01*
X89219Y273896D01*
X89260Y273986D01*
X89298Y274078D01*
X89332Y274172D01*
X89363Y274266D01*
X89390Y274362D01*
X89413Y274459D01*
X89433Y274556D01*
X89448Y274655D01*
X89460Y274753D01*
X89469Y274852D01*
X89473Y274952D01*
X89474Y275051D01*
X89471Y275151D01*
X89464Y275250D01*
X89453Y275349D01*
X89438Y275447D01*
X89420Y275545D01*
X89398Y275642D01*
X89372Y275738D01*
X89343Y275833D01*
X89310Y275927D01*
X89273Y276019D01*
X89233Y276110D01*
X89190Y276200D01*
X89143Y276287D01*
X89092Y276373D01*
X89039Y276457D01*
X88982Y276539D01*
X88922Y276618D01*
X88860Y276695D01*
X88794Y276770D01*
X88725Y276842D01*
X88654Y276911D01*
X88580Y276978D01*
X88504Y277042D01*
X88425Y277102D01*
X88344Y277160D01*
X88261Y277215D01*
X88176Y277266D01*
X88176Y277267D02*
X84803Y279214D01*
X79866Y282064D02*
X74024Y271946D01*
X68403Y275191D02*
X79866Y282064D01*
X74245Y285310D02*
X68403Y275191D01*
X63465Y278042D02*
X69307Y288160D01*
X66497Y289783D01*
X66497Y289784D02*
X66398Y289839D01*
X66297Y289890D01*
X66194Y289938D01*
X66090Y289983D01*
X65984Y290023D01*
X65877Y290060D01*
X65769Y290093D01*
X65659Y290123D01*
X65549Y290148D01*
X65438Y290170D01*
X65326Y290187D01*
X65213Y290201D01*
X65100Y290211D01*
X64987Y290217D01*
X64874Y290219D01*
X64761Y290217D01*
X64648Y290211D01*
X64535Y290201D01*
X64422Y290187D01*
X64310Y290170D01*
X64199Y290148D01*
X64089Y290123D01*
X63979Y290093D01*
X63871Y290060D01*
X63764Y290023D01*
X63658Y289983D01*
X63554Y289938D01*
X63451Y289890D01*
X63350Y289839D01*
X63251Y289784D01*
X63154Y289726D01*
X63059Y289664D01*
X62966Y289599D01*
X62876Y289531D01*
X62788Y289460D01*
X62702Y289385D01*
X62619Y289308D01*
X62539Y289228D01*
X62462Y289145D01*
X62387Y289059D01*
X62316Y288971D01*
X62248Y288881D01*
X62183Y288788D01*
X62121Y288693D01*
X62063Y288596D01*
X62063Y288595D02*
X59467Y284098D01*
X59412Y283999D01*
X59361Y283898D01*
X59313Y283795D01*
X59268Y283691D01*
X59228Y283585D01*
X59191Y283478D01*
X59158Y283370D01*
X59128Y283260D01*
X59103Y283150D01*
X59081Y283039D01*
X59064Y282927D01*
X59050Y282814D01*
X59040Y282701D01*
X59034Y282588D01*
X59032Y282475D01*
X59034Y282362D01*
X59040Y282249D01*
X59050Y282136D01*
X59064Y282023D01*
X59081Y281911D01*
X59103Y281800D01*
X59128Y281690D01*
X59158Y281580D01*
X59191Y281472D01*
X59228Y281365D01*
X59268Y281259D01*
X59313Y281155D01*
X59361Y281052D01*
X59412Y280951D01*
X59467Y280852D01*
X59525Y280755D01*
X59587Y280660D01*
X59652Y280567D01*
X59720Y280477D01*
X59791Y280388D01*
X59866Y280303D01*
X59943Y280220D01*
X60023Y280140D01*
X60106Y280063D01*
X60192Y279988D01*
X60280Y279917D01*
X60370Y279849D01*
X60463Y279784D01*
X60558Y279722D01*
X60655Y279664D01*
X60655Y279665D02*
X63465Y278042D01*
X-65981Y281532D02*
X-67668Y280559D01*
X-64422Y274937D01*
X-61049Y276885D01*
X-60964Y276936D01*
X-60881Y276991D01*
X-60800Y277048D01*
X-60721Y277109D01*
X-60645Y277173D01*
X-60571Y277240D01*
X-60500Y277309D01*
X-60431Y277381D01*
X-60365Y277456D01*
X-60303Y277533D01*
X-60243Y277612D01*
X-60186Y277694D01*
X-60133Y277778D01*
X-60082Y277864D01*
X-60035Y277951D01*
X-59992Y278041D01*
X-59952Y278132D01*
X-59915Y278224D01*
X-59882Y278318D01*
X-59853Y278413D01*
X-59827Y278509D01*
X-59805Y278606D01*
X-59787Y278704D01*
X-59772Y278802D01*
X-59761Y278901D01*
X-59754Y279000D01*
X-59751Y279100D01*
X-59752Y279199D01*
X-59756Y279299D01*
X-59765Y279398D01*
X-59777Y279496D01*
X-59792Y279595D01*
X-59812Y279692D01*
X-59835Y279789D01*
X-59862Y279885D01*
X-59893Y279979D01*
X-59927Y280073D01*
X-59965Y280165D01*
X-60006Y280255D01*
X-60051Y280344D01*
X-60099Y280431D01*
X-63344Y286053D01*
X-63345Y286053D02*
X-63396Y286138D01*
X-63451Y286221D01*
X-63508Y286302D01*
X-63569Y286381D01*
X-63633Y286457D01*
X-63700Y286531D01*
X-63769Y286602D01*
X-63841Y286671D01*
X-63916Y286737D01*
X-63993Y286799D01*
X-64072Y286859D01*
X-64154Y286916D01*
X-64238Y286969D01*
X-64324Y287020D01*
X-64411Y287067D01*
X-64501Y287110D01*
X-64592Y287150D01*
X-64684Y287187D01*
X-64778Y287220D01*
X-64873Y287249D01*
X-64969Y287275D01*
X-65066Y287297D01*
X-65164Y287315D01*
X-65262Y287330D01*
X-65361Y287341D01*
X-65460Y287348D01*
X-65560Y287351D01*
X-65659Y287350D01*
X-65759Y287346D01*
X-65858Y287337D01*
X-65956Y287325D01*
X-66055Y287310D01*
X-66152Y287290D01*
X-66249Y287267D01*
X-66345Y287240D01*
X-66439Y287209D01*
X-66533Y287175D01*
X-66625Y287137D01*
X-66715Y287096D01*
X-66804Y287051D01*
X-66891Y287003D01*
X-70264Y285056D01*
X-75201Y282206D02*
X-69359Y272087D01*
X-74981Y268841D02*
X-75201Y282206D01*
X-80823Y278960D02*
X-74981Y268841D01*
X-79918Y265991D02*
X-85760Y276110D01*
X-88570Y274487D01*
X-88571Y274487D02*
X-88668Y274429D01*
X-88763Y274367D01*
X-88856Y274302D01*
X-88946Y274234D01*
X-89034Y274163D01*
X-89120Y274088D01*
X-89203Y274011D01*
X-89283Y273931D01*
X-89360Y273848D01*
X-89435Y273762D01*
X-89506Y273674D01*
X-89574Y273584D01*
X-89639Y273491D01*
X-89701Y273396D01*
X-89759Y273299D01*
X-89814Y273200D01*
X-89865Y273099D01*
X-89913Y272996D01*
X-89958Y272892D01*
X-89998Y272786D01*
X-90035Y272679D01*
X-90068Y272571D01*
X-90098Y272461D01*
X-90123Y272351D01*
X-90145Y272240D01*
X-90162Y272128D01*
X-90176Y272015D01*
X-90186Y271902D01*
X-90192Y271789D01*
X-90194Y271676D01*
X-90192Y271563D01*
X-90186Y271450D01*
X-90176Y271337D01*
X-90162Y271224D01*
X-90145Y271112D01*
X-90123Y271001D01*
X-90098Y270891D01*
X-90068Y270781D01*
X-90035Y270673D01*
X-89998Y270566D01*
X-89958Y270460D01*
X-89913Y270356D01*
X-89865Y270253D01*
X-89814Y270152D01*
X-89759Y270053D01*
X-89758Y270053D02*
X-87162Y265556D01*
X-87104Y265459D01*
X-87042Y265364D01*
X-86977Y265271D01*
X-86909Y265181D01*
X-86838Y265093D01*
X-86763Y265007D01*
X-86686Y264924D01*
X-86606Y264844D01*
X-86523Y264767D01*
X-86437Y264692D01*
X-86349Y264621D01*
X-86259Y264553D01*
X-86166Y264488D01*
X-86071Y264426D01*
X-85974Y264368D01*
X-85875Y264313D01*
X-85774Y264262D01*
X-85671Y264214D01*
X-85567Y264169D01*
X-85461Y264129D01*
X-85354Y264092D01*
X-85246Y264059D01*
X-85136Y264029D01*
X-85026Y264004D01*
X-84915Y263982D01*
X-84803Y263965D01*
X-84690Y263951D01*
X-84577Y263941D01*
X-84464Y263935D01*
X-84351Y263933D01*
X-84238Y263935D01*
X-84125Y263941D01*
X-84012Y263951D01*
X-83899Y263965D01*
X-83787Y263982D01*
X-83676Y264004D01*
X-83566Y264029D01*
X-83456Y264059D01*
X-83348Y264092D01*
X-83241Y264129D01*
X-83135Y264169D01*
X-83031Y264214D01*
X-82928Y264262D01*
X-82827Y264313D01*
X-82728Y264368D01*
X-79918Y265991D01*
X146699Y141796D02*
X146699Y139848D01*
X146699Y141796D02*
X140208Y141796D01*
X140208Y137901D01*
X140210Y137802D01*
X140216Y137702D01*
X140225Y137603D01*
X140238Y137505D01*
X140255Y137407D01*
X140276Y137309D01*
X140301Y137213D01*
X140329Y137118D01*
X140361Y137024D01*
X140396Y136931D01*
X140435Y136839D01*
X140478Y136749D01*
X140523Y136661D01*
X140573Y136574D01*
X140625Y136490D01*
X140681Y136407D01*
X140739Y136327D01*
X140801Y136249D01*
X140866Y136174D01*
X140934Y136101D01*
X141004Y136031D01*
X141077Y135963D01*
X141152Y135898D01*
X141230Y135836D01*
X141310Y135778D01*
X141393Y135722D01*
X141477Y135670D01*
X141564Y135620D01*
X141652Y135575D01*
X141742Y135532D01*
X141834Y135493D01*
X141927Y135458D01*
X142021Y135426D01*
X142116Y135398D01*
X142212Y135373D01*
X142310Y135352D01*
X142408Y135335D01*
X142506Y135322D01*
X142605Y135313D01*
X142705Y135307D01*
X142804Y135305D01*
X142804Y135304D02*
X149296Y135304D01*
X149296Y135305D02*
X149395Y135307D01*
X149495Y135313D01*
X149594Y135322D01*
X149692Y135335D01*
X149790Y135352D01*
X149888Y135373D01*
X149984Y135398D01*
X150079Y135426D01*
X150173Y135458D01*
X150266Y135493D01*
X150358Y135532D01*
X150448Y135575D01*
X150536Y135620D01*
X150623Y135670D01*
X150707Y135722D01*
X150790Y135778D01*
X150870Y135836D01*
X150948Y135898D01*
X151023Y135963D01*
X151096Y136031D01*
X151166Y136101D01*
X151234Y136174D01*
X151299Y136249D01*
X151361Y136327D01*
X151419Y136407D01*
X151475Y136490D01*
X151527Y136574D01*
X151577Y136661D01*
X151622Y136749D01*
X151665Y136839D01*
X151704Y136931D01*
X151739Y137023D01*
X151771Y137118D01*
X151799Y137213D01*
X151824Y137309D01*
X151845Y137407D01*
X151862Y137505D01*
X151875Y137603D01*
X151884Y137702D01*
X151890Y137802D01*
X151892Y137901D01*
X151892Y141796D01*
X151892Y147496D02*
X140208Y147496D01*
X140208Y153988D02*
X151892Y147496D01*
X151892Y153988D02*
X140208Y153988D01*
X140208Y159688D02*
X151892Y159688D01*
X151892Y162934D01*
X151890Y163047D01*
X151884Y163160D01*
X151874Y163273D01*
X151860Y163386D01*
X151843Y163498D01*
X151821Y163609D01*
X151796Y163719D01*
X151766Y163829D01*
X151733Y163937D01*
X151696Y164044D01*
X151656Y164150D01*
X151611Y164254D01*
X151563Y164357D01*
X151512Y164458D01*
X151457Y164557D01*
X151399Y164654D01*
X151337Y164749D01*
X151272Y164842D01*
X151204Y164932D01*
X151133Y165020D01*
X151058Y165106D01*
X150981Y165189D01*
X150901Y165269D01*
X150818Y165346D01*
X150732Y165421D01*
X150644Y165492D01*
X150554Y165560D01*
X150461Y165625D01*
X150366Y165687D01*
X150269Y165745D01*
X150170Y165800D01*
X150069Y165851D01*
X149966Y165899D01*
X149862Y165944D01*
X149756Y165984D01*
X149649Y166021D01*
X149541Y166054D01*
X149431Y166084D01*
X149321Y166109D01*
X149210Y166131D01*
X149098Y166148D01*
X148985Y166162D01*
X148872Y166172D01*
X148759Y166178D01*
X148646Y166180D01*
X143454Y166180D01*
X143341Y166178D01*
X143228Y166172D01*
X143115Y166162D01*
X143002Y166148D01*
X142890Y166131D01*
X142779Y166109D01*
X142669Y166084D01*
X142559Y166054D01*
X142451Y166021D01*
X142344Y165984D01*
X142238Y165944D01*
X142134Y165899D01*
X142031Y165851D01*
X141930Y165800D01*
X141831Y165745D01*
X141734Y165687D01*
X141639Y165625D01*
X141546Y165560D01*
X141456Y165492D01*
X141368Y165421D01*
X141282Y165346D01*
X141199Y165269D01*
X141119Y165189D01*
X141042Y165106D01*
X140967Y165020D01*
X140896Y164932D01*
X140828Y164842D01*
X140763Y164749D01*
X140701Y164654D01*
X140643Y164557D01*
X140588Y164458D01*
X140537Y164357D01*
X140489Y164254D01*
X140444Y164150D01*
X140404Y164044D01*
X140367Y163937D01*
X140334Y163829D01*
X140304Y163719D01*
X140279Y163609D01*
X140257Y163498D01*
X140240Y163386D01*
X140226Y163273D01*
X140216Y163160D01*
X140210Y163047D01*
X140208Y162934D01*
X140208Y159688D01*
D10*
X110363Y226251D02*
X92583Y226251D01*
X92583Y221312D01*
X92585Y221172D01*
X92591Y221033D01*
X92601Y220893D01*
X92615Y220754D01*
X92632Y220615D01*
X92654Y220477D01*
X92680Y220340D01*
X92709Y220203D01*
X92742Y220067D01*
X92779Y219933D01*
X92820Y219799D01*
X92865Y219667D01*
X92914Y219535D01*
X92966Y219406D01*
X93021Y219278D01*
X93081Y219151D01*
X93144Y219026D01*
X93210Y218903D01*
X93280Y218782D01*
X93353Y218663D01*
X93430Y218546D01*
X93510Y218432D01*
X93593Y218319D01*
X93679Y218209D01*
X93769Y218102D01*
X93861Y217997D01*
X93956Y217895D01*
X94054Y217795D01*
X94155Y217698D01*
X94259Y217604D01*
X94365Y217514D01*
X94474Y217426D01*
X94585Y217341D01*
X94699Y217260D01*
X94814Y217181D01*
X94932Y217106D01*
X95053Y217035D01*
X95175Y216967D01*
X95298Y216902D01*
X95424Y216841D01*
X95552Y216783D01*
X95680Y216729D01*
X95811Y216679D01*
X95943Y216632D01*
X96076Y216589D01*
X96210Y216550D01*
X96345Y216515D01*
X96481Y216484D01*
X96619Y216456D01*
X96756Y216433D01*
X96895Y216413D01*
X97034Y216397D01*
X97173Y216385D01*
X97312Y216377D01*
X97452Y216373D01*
X97592Y216373D01*
X97732Y216377D01*
X97871Y216385D01*
X98010Y216397D01*
X98149Y216413D01*
X98288Y216433D01*
X98425Y216456D01*
X98563Y216484D01*
X98699Y216515D01*
X98834Y216550D01*
X98968Y216589D01*
X99101Y216632D01*
X99233Y216679D01*
X99364Y216729D01*
X99492Y216783D01*
X99620Y216841D01*
X99746Y216902D01*
X99869Y216967D01*
X99992Y217035D01*
X100112Y217106D01*
X100230Y217181D01*
X100345Y217260D01*
X100459Y217341D01*
X100570Y217426D01*
X100679Y217514D01*
X100785Y217604D01*
X100889Y217698D01*
X100990Y217795D01*
X101088Y217895D01*
X101183Y217997D01*
X101275Y218102D01*
X101365Y218209D01*
X101451Y218319D01*
X101534Y218432D01*
X101614Y218546D01*
X101691Y218663D01*
X101764Y218782D01*
X101834Y218903D01*
X101900Y219026D01*
X101963Y219151D01*
X102023Y219278D01*
X102078Y219406D01*
X102130Y219535D01*
X102179Y219667D01*
X102224Y219799D01*
X102265Y219933D01*
X102302Y220067D01*
X102335Y220203D01*
X102364Y220340D01*
X102390Y220477D01*
X102412Y220615D01*
X102429Y220754D01*
X102443Y220893D01*
X102453Y221033D01*
X102459Y221172D01*
X102461Y221312D01*
X102461Y226251D01*
X96534Y210255D02*
X92583Y205317D01*
X110363Y205317D01*
X110363Y210255D02*
X110363Y200378D01*
D12*
X65723Y97155D02*
X65723Y61595D01*
X65723Y97155D02*
X45403Y97155D01*
X45403Y61595D01*
X65723Y61595D01*
D13*
X55192Y56166D02*
X60103Y48800D01*
X55192Y48800D02*
X60103Y56166D01*
X52378Y54529D02*
X50332Y56166D01*
X50332Y48800D01*
X52378Y48800D02*
X48286Y48800D01*
D12*
X-103188Y127127D02*
X-103188Y133477D01*
D13*
X-105982Y146431D02*
X-98616Y146431D01*
X-98616Y148477D01*
X-98618Y148566D01*
X-98624Y148655D01*
X-98634Y148744D01*
X-98647Y148832D01*
X-98664Y148920D01*
X-98686Y149007D01*
X-98711Y149092D01*
X-98739Y149177D01*
X-98772Y149260D01*
X-98808Y149342D01*
X-98847Y149422D01*
X-98890Y149500D01*
X-98936Y149576D01*
X-98986Y149651D01*
X-99039Y149723D01*
X-99095Y149792D01*
X-99154Y149859D01*
X-99215Y149924D01*
X-99280Y149985D01*
X-99347Y150044D01*
X-99416Y150100D01*
X-99488Y150153D01*
X-99563Y150203D01*
X-99639Y150249D01*
X-99717Y150292D01*
X-99797Y150331D01*
X-99879Y150367D01*
X-99962Y150400D01*
X-100047Y150428D01*
X-100132Y150453D01*
X-100219Y150475D01*
X-100307Y150492D01*
X-100395Y150505D01*
X-100484Y150515D01*
X-100573Y150521D01*
X-100662Y150523D01*
X-100751Y150521D01*
X-100840Y150515D01*
X-100929Y150505D01*
X-101017Y150492D01*
X-101105Y150475D01*
X-101192Y150453D01*
X-101277Y150428D01*
X-101362Y150400D01*
X-101445Y150367D01*
X-101527Y150331D01*
X-101607Y150292D01*
X-101685Y150249D01*
X-101761Y150203D01*
X-101836Y150153D01*
X-101908Y150100D01*
X-101977Y150044D01*
X-102044Y149985D01*
X-102109Y149924D01*
X-102170Y149859D01*
X-102229Y149792D01*
X-102285Y149723D01*
X-102338Y149651D01*
X-102388Y149576D01*
X-102434Y149500D01*
X-102477Y149422D01*
X-102516Y149342D01*
X-102552Y149260D01*
X-102585Y149177D01*
X-102613Y149092D01*
X-102638Y149007D01*
X-102660Y148920D01*
X-102677Y148832D01*
X-102690Y148744D01*
X-102700Y148655D01*
X-102706Y148566D01*
X-102708Y148477D01*
X-102708Y146431D01*
X-102708Y148886D02*
X-105982Y150523D01*
X-105982Y153695D02*
X-105982Y155741D01*
X-105981Y155741D02*
X-105979Y155830D01*
X-105973Y155919D01*
X-105963Y156008D01*
X-105950Y156096D01*
X-105933Y156184D01*
X-105911Y156271D01*
X-105886Y156356D01*
X-105858Y156441D01*
X-105825Y156524D01*
X-105789Y156606D01*
X-105750Y156686D01*
X-105707Y156764D01*
X-105661Y156840D01*
X-105611Y156915D01*
X-105558Y156987D01*
X-105502Y157056D01*
X-105443Y157123D01*
X-105382Y157188D01*
X-105317Y157249D01*
X-105250Y157308D01*
X-105181Y157364D01*
X-105109Y157417D01*
X-105034Y157467D01*
X-104958Y157513D01*
X-104880Y157556D01*
X-104800Y157595D01*
X-104718Y157631D01*
X-104635Y157664D01*
X-104550Y157692D01*
X-104465Y157717D01*
X-104378Y157739D01*
X-104290Y157756D01*
X-104202Y157769D01*
X-104113Y157779D01*
X-104024Y157785D01*
X-103935Y157787D01*
X-103846Y157785D01*
X-103757Y157779D01*
X-103668Y157769D01*
X-103580Y157756D01*
X-103492Y157739D01*
X-103405Y157717D01*
X-103320Y157692D01*
X-103235Y157664D01*
X-103152Y157631D01*
X-103070Y157595D01*
X-102990Y157556D01*
X-102912Y157513D01*
X-102836Y157467D01*
X-102761Y157417D01*
X-102689Y157364D01*
X-102620Y157308D01*
X-102553Y157249D01*
X-102488Y157188D01*
X-102427Y157123D01*
X-102368Y157056D01*
X-102312Y156987D01*
X-102259Y156915D01*
X-102209Y156840D01*
X-102163Y156764D01*
X-102120Y156686D01*
X-102081Y156606D01*
X-102045Y156524D01*
X-102012Y156441D01*
X-101984Y156356D01*
X-101959Y156271D01*
X-101937Y156184D01*
X-101920Y156096D01*
X-101907Y156008D01*
X-101897Y155919D01*
X-101891Y155830D01*
X-101889Y155741D01*
X-98616Y156150D02*
X-98616Y153695D01*
X-98615Y156150D02*
X-98617Y156229D01*
X-98623Y156308D01*
X-98632Y156387D01*
X-98645Y156465D01*
X-98663Y156542D01*
X-98683Y156618D01*
X-98708Y156693D01*
X-98736Y156767D01*
X-98767Y156840D01*
X-98803Y156911D01*
X-98841Y156980D01*
X-98883Y157047D01*
X-98928Y157112D01*
X-98976Y157175D01*
X-99027Y157236D01*
X-99081Y157293D01*
X-99137Y157349D01*
X-99196Y157401D01*
X-99258Y157451D01*
X-99322Y157497D01*
X-99388Y157541D01*
X-99456Y157581D01*
X-99526Y157617D01*
X-99598Y157651D01*
X-99672Y157681D01*
X-99746Y157707D01*
X-99822Y157730D01*
X-99899Y157748D01*
X-99976Y157764D01*
X-100055Y157775D01*
X-100133Y157783D01*
X-100212Y157787D01*
X-100292Y157787D01*
X-100371Y157783D01*
X-100449Y157775D01*
X-100528Y157764D01*
X-100605Y157748D01*
X-100682Y157730D01*
X-100758Y157707D01*
X-100832Y157681D01*
X-100906Y157651D01*
X-100978Y157617D01*
X-101048Y157581D01*
X-101116Y157541D01*
X-101182Y157497D01*
X-101246Y157451D01*
X-101308Y157401D01*
X-101367Y157349D01*
X-101423Y157293D01*
X-101477Y157236D01*
X-101528Y157175D01*
X-101576Y157112D01*
X-101621Y157047D01*
X-101663Y156980D01*
X-101701Y156911D01*
X-101737Y156840D01*
X-101768Y156767D01*
X-101796Y156693D01*
X-101821Y156618D01*
X-101841Y156542D01*
X-101859Y156465D01*
X-101872Y156387D01*
X-101881Y156308D01*
X-101887Y156229D01*
X-101889Y156150D01*
X-101889Y154513D01*
D12*
X58865Y207963D02*
X65215Y207963D01*
D13*
X69469Y216281D02*
X69469Y223647D01*
X67423Y223647D01*
X67334Y223645D01*
X67245Y223639D01*
X67156Y223629D01*
X67068Y223616D01*
X66980Y223599D01*
X66893Y223577D01*
X66808Y223552D01*
X66723Y223524D01*
X66640Y223491D01*
X66558Y223455D01*
X66478Y223416D01*
X66400Y223373D01*
X66324Y223327D01*
X66249Y223277D01*
X66177Y223224D01*
X66108Y223168D01*
X66041Y223109D01*
X65976Y223048D01*
X65915Y222983D01*
X65856Y222916D01*
X65800Y222847D01*
X65747Y222775D01*
X65697Y222700D01*
X65651Y222624D01*
X65608Y222546D01*
X65569Y222466D01*
X65533Y222384D01*
X65500Y222301D01*
X65472Y222216D01*
X65447Y222131D01*
X65425Y222044D01*
X65408Y221956D01*
X65395Y221868D01*
X65385Y221779D01*
X65379Y221690D01*
X65377Y221601D01*
X65379Y221512D01*
X65385Y221423D01*
X65395Y221334D01*
X65408Y221246D01*
X65425Y221158D01*
X65447Y221071D01*
X65472Y220986D01*
X65500Y220901D01*
X65533Y220818D01*
X65569Y220736D01*
X65608Y220656D01*
X65651Y220578D01*
X65697Y220502D01*
X65747Y220427D01*
X65800Y220355D01*
X65856Y220286D01*
X65915Y220219D01*
X65976Y220154D01*
X66041Y220093D01*
X66108Y220034D01*
X66177Y219978D01*
X66249Y219925D01*
X66324Y219875D01*
X66400Y219829D01*
X66478Y219786D01*
X66558Y219747D01*
X66640Y219711D01*
X66723Y219678D01*
X66808Y219650D01*
X66893Y219625D01*
X66980Y219603D01*
X67068Y219586D01*
X67156Y219573D01*
X67245Y219563D01*
X67334Y219557D01*
X67423Y219555D01*
X69469Y219555D01*
X67014Y219555D02*
X65377Y216281D01*
X62205Y222010D02*
X60159Y223647D01*
X60159Y216281D01*
X62205Y216281D02*
X58113Y216281D01*
D12*
X91948Y153988D02*
X98552Y153988D01*
D13*
X97945Y162306D02*
X99582Y162306D01*
X99660Y162308D01*
X99738Y162313D01*
X99815Y162323D01*
X99892Y162336D01*
X99968Y162352D01*
X100043Y162372D01*
X100117Y162396D01*
X100190Y162423D01*
X100262Y162454D01*
X100332Y162488D01*
X100401Y162525D01*
X100467Y162566D01*
X100532Y162610D01*
X100594Y162656D01*
X100654Y162706D01*
X100712Y162758D01*
X100767Y162813D01*
X100819Y162871D01*
X100869Y162931D01*
X100915Y162993D01*
X100959Y163058D01*
X101000Y163125D01*
X101037Y163193D01*
X101071Y163263D01*
X101102Y163335D01*
X101129Y163408D01*
X101153Y163482D01*
X101173Y163557D01*
X101189Y163633D01*
X101202Y163710D01*
X101212Y163787D01*
X101217Y163865D01*
X101219Y163943D01*
X101219Y168035D01*
X101217Y168113D01*
X101212Y168191D01*
X101202Y168268D01*
X101189Y168345D01*
X101173Y168421D01*
X101153Y168496D01*
X101129Y168570D01*
X101102Y168643D01*
X101071Y168715D01*
X101037Y168785D01*
X101000Y168854D01*
X100959Y168920D01*
X100915Y168985D01*
X100869Y169047D01*
X100819Y169107D01*
X100767Y169165D01*
X100712Y169220D01*
X100654Y169272D01*
X100594Y169322D01*
X100532Y169368D01*
X100467Y169412D01*
X100401Y169453D01*
X100332Y169490D01*
X100262Y169524D01*
X100190Y169555D01*
X100117Y169582D01*
X100043Y169606D01*
X99968Y169626D01*
X99892Y169642D01*
X99815Y169655D01*
X99738Y169665D01*
X99660Y169670D01*
X99582Y169672D01*
X97945Y169672D01*
X95100Y168035D02*
X93054Y169672D01*
X93054Y162306D01*
X95100Y162306D02*
X91008Y162306D01*
D12*
X60452Y114300D02*
X53848Y114300D01*
D13*
X86833Y110712D02*
X88470Y110712D01*
X88548Y110714D01*
X88626Y110719D01*
X88703Y110729D01*
X88780Y110742D01*
X88856Y110758D01*
X88931Y110778D01*
X89005Y110802D01*
X89078Y110829D01*
X89150Y110860D01*
X89220Y110894D01*
X89289Y110931D01*
X89355Y110972D01*
X89420Y111016D01*
X89482Y111062D01*
X89542Y111112D01*
X89600Y111164D01*
X89655Y111219D01*
X89707Y111277D01*
X89757Y111337D01*
X89803Y111399D01*
X89847Y111464D01*
X89888Y111531D01*
X89925Y111599D01*
X89959Y111669D01*
X89990Y111741D01*
X90017Y111814D01*
X90041Y111888D01*
X90061Y111963D01*
X90077Y112039D01*
X90090Y112116D01*
X90100Y112193D01*
X90105Y112271D01*
X90107Y112349D01*
X90107Y116441D01*
X90105Y116519D01*
X90100Y116597D01*
X90090Y116674D01*
X90077Y116751D01*
X90061Y116827D01*
X90041Y116902D01*
X90017Y116976D01*
X89990Y117049D01*
X89959Y117121D01*
X89925Y117191D01*
X89888Y117260D01*
X89847Y117326D01*
X89803Y117391D01*
X89757Y117453D01*
X89707Y117513D01*
X89655Y117571D01*
X89600Y117626D01*
X89542Y117678D01*
X89482Y117728D01*
X89420Y117774D01*
X89355Y117818D01*
X89289Y117859D01*
X89220Y117896D01*
X89150Y117930D01*
X89078Y117961D01*
X89005Y117988D01*
X88931Y118012D01*
X88856Y118032D01*
X88780Y118048D01*
X88703Y118061D01*
X88626Y118071D01*
X88548Y118076D01*
X88470Y118078D01*
X86833Y118078D01*
X81737Y118079D02*
X81652Y118077D01*
X81567Y118071D01*
X81483Y118061D01*
X81399Y118048D01*
X81315Y118030D01*
X81233Y118009D01*
X81152Y117984D01*
X81072Y117955D01*
X80993Y117922D01*
X80916Y117886D01*
X80841Y117846D01*
X80767Y117803D01*
X80696Y117757D01*
X80627Y117707D01*
X80560Y117654D01*
X80496Y117598D01*
X80435Y117539D01*
X80376Y117478D01*
X80320Y117414D01*
X80267Y117347D01*
X80217Y117278D01*
X80171Y117207D01*
X80128Y117133D01*
X80088Y117058D01*
X80052Y116981D01*
X80019Y116902D01*
X79990Y116822D01*
X79965Y116741D01*
X79944Y116659D01*
X79926Y116575D01*
X79913Y116491D01*
X79903Y116407D01*
X79897Y116322D01*
X79895Y116237D01*
X81737Y118078D02*
X81833Y118076D01*
X81929Y118070D01*
X82024Y118060D01*
X82119Y118047D01*
X82214Y118029D01*
X82307Y118008D01*
X82400Y117983D01*
X82491Y117954D01*
X82582Y117922D01*
X82671Y117886D01*
X82758Y117846D01*
X82844Y117803D01*
X82928Y117757D01*
X83010Y117707D01*
X83090Y117653D01*
X83167Y117597D01*
X83242Y117537D01*
X83315Y117475D01*
X83385Y117409D01*
X83453Y117341D01*
X83518Y117270D01*
X83579Y117197D01*
X83638Y117121D01*
X83694Y117042D01*
X83746Y116962D01*
X83795Y116879D01*
X83841Y116795D01*
X83883Y116709D01*
X83921Y116621D01*
X83956Y116532D01*
X83988Y116441D01*
X80509Y114805D02*
X80449Y114864D01*
X80392Y114926D01*
X80337Y114990D01*
X80286Y115057D01*
X80237Y115126D01*
X80191Y115196D01*
X80148Y115269D01*
X80108Y115343D01*
X80072Y115419D01*
X80039Y115497D01*
X80009Y115576D01*
X79982Y115656D01*
X79959Y115737D01*
X79940Y115819D01*
X79924Y115901D01*
X79911Y115985D01*
X79902Y116069D01*
X79897Y116153D01*
X79895Y116237D01*
X80509Y114804D02*
X83987Y110712D01*
X79895Y110712D01*
D12*
X60452Y123825D02*
X53848Y123825D01*
D13*
X86833Y121031D02*
X88470Y121031D01*
X88548Y121033D01*
X88626Y121038D01*
X88703Y121048D01*
X88780Y121061D01*
X88856Y121077D01*
X88931Y121097D01*
X89005Y121121D01*
X89078Y121148D01*
X89150Y121179D01*
X89220Y121213D01*
X89289Y121250D01*
X89355Y121291D01*
X89420Y121335D01*
X89482Y121381D01*
X89542Y121431D01*
X89600Y121483D01*
X89655Y121538D01*
X89707Y121596D01*
X89757Y121656D01*
X89803Y121718D01*
X89847Y121783D01*
X89888Y121850D01*
X89925Y121918D01*
X89959Y121988D01*
X89990Y122060D01*
X90017Y122133D01*
X90041Y122207D01*
X90061Y122282D01*
X90077Y122358D01*
X90090Y122435D01*
X90100Y122512D01*
X90105Y122590D01*
X90107Y122668D01*
X90107Y126760D01*
X90105Y126838D01*
X90100Y126916D01*
X90090Y126993D01*
X90077Y127070D01*
X90061Y127146D01*
X90041Y127221D01*
X90017Y127295D01*
X89990Y127368D01*
X89959Y127440D01*
X89925Y127510D01*
X89888Y127579D01*
X89847Y127645D01*
X89803Y127710D01*
X89757Y127772D01*
X89707Y127832D01*
X89655Y127890D01*
X89600Y127945D01*
X89542Y127997D01*
X89482Y128047D01*
X89420Y128093D01*
X89355Y128137D01*
X89289Y128178D01*
X89220Y128215D01*
X89150Y128249D01*
X89078Y128280D01*
X89005Y128307D01*
X88931Y128331D01*
X88856Y128351D01*
X88780Y128367D01*
X88703Y128380D01*
X88626Y128390D01*
X88548Y128395D01*
X88470Y128397D01*
X86833Y128397D01*
X82351Y128397D02*
X83987Y122668D01*
X79895Y122668D01*
X81123Y124305D02*
X81123Y121031D01*
D12*
X-57375Y86877D02*
X-57375Y80273D01*
D13*
X-86363Y80086D02*
X-86363Y78449D01*
X-86361Y78371D01*
X-86356Y78293D01*
X-86346Y78216D01*
X-86333Y78139D01*
X-86317Y78063D01*
X-86297Y77988D01*
X-86273Y77914D01*
X-86246Y77841D01*
X-86215Y77769D01*
X-86181Y77699D01*
X-86144Y77631D01*
X-86103Y77564D01*
X-86059Y77499D01*
X-86013Y77437D01*
X-85963Y77377D01*
X-85911Y77319D01*
X-85856Y77264D01*
X-85798Y77212D01*
X-85738Y77162D01*
X-85676Y77116D01*
X-85611Y77072D01*
X-85545Y77031D01*
X-85476Y76994D01*
X-85406Y76960D01*
X-85334Y76929D01*
X-85261Y76902D01*
X-85187Y76878D01*
X-85112Y76858D01*
X-85036Y76842D01*
X-84959Y76829D01*
X-84882Y76819D01*
X-84804Y76814D01*
X-84726Y76812D01*
X-80634Y76812D01*
X-80554Y76814D01*
X-80474Y76820D01*
X-80394Y76830D01*
X-80315Y76843D01*
X-80236Y76861D01*
X-80159Y76882D01*
X-80083Y76908D01*
X-80008Y76937D01*
X-79934Y76969D01*
X-79862Y77005D01*
X-79792Y77045D01*
X-79725Y77088D01*
X-79659Y77134D01*
X-79596Y77184D01*
X-79535Y77236D01*
X-79476Y77291D01*
X-79421Y77350D01*
X-79369Y77410D01*
X-79319Y77474D01*
X-79273Y77539D01*
X-79230Y77607D01*
X-79190Y77677D01*
X-79154Y77749D01*
X-79122Y77823D01*
X-79093Y77897D01*
X-79068Y77974D01*
X-79046Y78051D01*
X-79028Y78130D01*
X-79015Y78209D01*
X-79005Y78288D01*
X-78999Y78369D01*
X-78997Y78449D01*
X-78997Y80086D01*
X-82271Y82931D02*
X-82271Y85387D01*
X-82270Y85387D02*
X-82272Y85465D01*
X-82277Y85543D01*
X-82287Y85620D01*
X-82300Y85697D01*
X-82316Y85773D01*
X-82336Y85848D01*
X-82360Y85922D01*
X-82387Y85995D01*
X-82418Y86067D01*
X-82452Y86137D01*
X-82489Y86206D01*
X-82530Y86272D01*
X-82574Y86337D01*
X-82620Y86399D01*
X-82670Y86459D01*
X-82722Y86517D01*
X-82777Y86572D01*
X-82835Y86624D01*
X-82895Y86674D01*
X-82957Y86720D01*
X-83022Y86764D01*
X-83089Y86805D01*
X-83157Y86842D01*
X-83227Y86876D01*
X-83299Y86907D01*
X-83372Y86934D01*
X-83446Y86958D01*
X-83521Y86978D01*
X-83597Y86994D01*
X-83674Y87007D01*
X-83751Y87017D01*
X-83829Y87022D01*
X-83907Y87024D01*
X-84317Y87024D01*
X-84317Y87023D02*
X-84406Y87021D01*
X-84495Y87015D01*
X-84584Y87005D01*
X-84672Y86992D01*
X-84760Y86975D01*
X-84847Y86953D01*
X-84932Y86928D01*
X-85017Y86900D01*
X-85100Y86867D01*
X-85182Y86831D01*
X-85262Y86792D01*
X-85340Y86749D01*
X-85416Y86703D01*
X-85491Y86653D01*
X-85563Y86600D01*
X-85632Y86544D01*
X-85699Y86485D01*
X-85764Y86424D01*
X-85825Y86359D01*
X-85884Y86292D01*
X-85940Y86223D01*
X-85993Y86151D01*
X-86043Y86076D01*
X-86089Y86000D01*
X-86132Y85922D01*
X-86171Y85842D01*
X-86207Y85760D01*
X-86240Y85677D01*
X-86268Y85592D01*
X-86293Y85507D01*
X-86315Y85420D01*
X-86332Y85332D01*
X-86345Y85244D01*
X-86355Y85155D01*
X-86361Y85066D01*
X-86363Y84977D01*
X-86361Y84888D01*
X-86355Y84799D01*
X-86345Y84710D01*
X-86332Y84622D01*
X-86315Y84534D01*
X-86293Y84447D01*
X-86268Y84362D01*
X-86240Y84277D01*
X-86207Y84194D01*
X-86171Y84112D01*
X-86132Y84032D01*
X-86089Y83954D01*
X-86043Y83878D01*
X-85993Y83803D01*
X-85940Y83731D01*
X-85884Y83662D01*
X-85825Y83595D01*
X-85764Y83530D01*
X-85699Y83469D01*
X-85632Y83410D01*
X-85563Y83354D01*
X-85491Y83301D01*
X-85416Y83251D01*
X-85340Y83205D01*
X-85262Y83162D01*
X-85182Y83123D01*
X-85100Y83087D01*
X-85017Y83054D01*
X-84932Y83026D01*
X-84847Y83001D01*
X-84760Y82979D01*
X-84672Y82962D01*
X-84584Y82949D01*
X-84495Y82939D01*
X-84406Y82933D01*
X-84317Y82931D01*
X-82271Y82931D01*
X-82157Y82933D01*
X-82043Y82939D01*
X-81929Y82949D01*
X-81815Y82963D01*
X-81702Y82981D01*
X-81590Y83003D01*
X-81479Y83028D01*
X-81369Y83058D01*
X-81259Y83091D01*
X-81151Y83128D01*
X-81045Y83169D01*
X-80939Y83214D01*
X-80836Y83262D01*
X-80734Y83314D01*
X-80634Y83370D01*
X-80536Y83428D01*
X-80440Y83491D01*
X-80347Y83556D01*
X-80255Y83625D01*
X-80167Y83697D01*
X-80080Y83772D01*
X-79997Y83850D01*
X-79916Y83931D01*
X-79838Y84014D01*
X-79763Y84100D01*
X-79691Y84189D01*
X-79622Y84281D01*
X-79557Y84374D01*
X-79495Y84470D01*
X-79436Y84568D01*
X-79380Y84668D01*
X-79328Y84770D01*
X-79280Y84873D01*
X-79235Y84978D01*
X-79194Y85085D01*
X-79157Y85193D01*
X-79124Y85303D01*
X-79094Y85413D01*
X-79069Y85524D01*
X-79047Y85636D01*
X-79029Y85749D01*
X-79015Y85863D01*
X-79005Y85977D01*
X-78999Y86091D01*
X-78997Y86205D01*
D10*
X36995Y126568D02*
X36995Y146698D01*
D12*
X53848Y136525D02*
X60452Y136525D01*
D13*
X86039Y132937D02*
X87676Y132937D01*
X87754Y132939D01*
X87832Y132944D01*
X87909Y132954D01*
X87986Y132967D01*
X88062Y132983D01*
X88137Y133003D01*
X88211Y133027D01*
X88284Y133054D01*
X88356Y133085D01*
X88426Y133119D01*
X88495Y133156D01*
X88561Y133197D01*
X88626Y133241D01*
X88688Y133287D01*
X88748Y133337D01*
X88806Y133389D01*
X88861Y133444D01*
X88913Y133502D01*
X88963Y133562D01*
X89009Y133624D01*
X89053Y133689D01*
X89094Y133756D01*
X89131Y133824D01*
X89165Y133894D01*
X89196Y133966D01*
X89223Y134039D01*
X89247Y134113D01*
X89267Y134188D01*
X89283Y134264D01*
X89296Y134341D01*
X89306Y134418D01*
X89311Y134496D01*
X89313Y134574D01*
X89313Y138666D01*
X89311Y138744D01*
X89306Y138822D01*
X89296Y138899D01*
X89283Y138976D01*
X89267Y139052D01*
X89247Y139127D01*
X89223Y139201D01*
X89196Y139274D01*
X89165Y139346D01*
X89131Y139416D01*
X89094Y139485D01*
X89053Y139551D01*
X89009Y139616D01*
X88963Y139678D01*
X88913Y139738D01*
X88861Y139796D01*
X88806Y139851D01*
X88748Y139903D01*
X88688Y139953D01*
X88626Y139999D01*
X88561Y140043D01*
X88495Y140084D01*
X88426Y140121D01*
X88356Y140155D01*
X88284Y140186D01*
X88211Y140213D01*
X88137Y140237D01*
X88062Y140257D01*
X87986Y140273D01*
X87909Y140286D01*
X87832Y140296D01*
X87754Y140301D01*
X87676Y140303D01*
X86039Y140303D01*
X83194Y132937D02*
X81148Y132937D01*
X81059Y132939D01*
X80970Y132945D01*
X80881Y132955D01*
X80793Y132968D01*
X80705Y132985D01*
X80618Y133007D01*
X80533Y133032D01*
X80448Y133060D01*
X80365Y133093D01*
X80283Y133129D01*
X80203Y133168D01*
X80125Y133211D01*
X80049Y133257D01*
X79974Y133307D01*
X79902Y133360D01*
X79833Y133416D01*
X79766Y133475D01*
X79701Y133536D01*
X79640Y133601D01*
X79581Y133668D01*
X79525Y133737D01*
X79472Y133809D01*
X79422Y133884D01*
X79376Y133960D01*
X79333Y134038D01*
X79294Y134118D01*
X79258Y134200D01*
X79225Y134283D01*
X79197Y134368D01*
X79172Y134453D01*
X79150Y134540D01*
X79133Y134628D01*
X79120Y134716D01*
X79110Y134805D01*
X79104Y134894D01*
X79102Y134983D01*
X79104Y135072D01*
X79110Y135161D01*
X79120Y135250D01*
X79133Y135338D01*
X79150Y135426D01*
X79172Y135513D01*
X79197Y135598D01*
X79225Y135683D01*
X79258Y135766D01*
X79294Y135848D01*
X79333Y135928D01*
X79376Y136006D01*
X79422Y136082D01*
X79472Y136157D01*
X79525Y136229D01*
X79581Y136298D01*
X79640Y136365D01*
X79701Y136430D01*
X79766Y136491D01*
X79833Y136550D01*
X79902Y136606D01*
X79974Y136659D01*
X80049Y136709D01*
X80125Y136755D01*
X80203Y136798D01*
X80283Y136837D01*
X80365Y136873D01*
X80448Y136906D01*
X80533Y136934D01*
X80618Y136959D01*
X80705Y136981D01*
X80793Y136998D01*
X80881Y137011D01*
X80970Y137021D01*
X81059Y137027D01*
X81148Y137029D01*
X80738Y140303D02*
X83194Y140303D01*
X80738Y140303D02*
X80659Y140301D01*
X80580Y140295D01*
X80501Y140286D01*
X80423Y140273D01*
X80346Y140255D01*
X80270Y140235D01*
X80195Y140210D01*
X80121Y140182D01*
X80048Y140151D01*
X79977Y140115D01*
X79908Y140077D01*
X79841Y140035D01*
X79776Y139990D01*
X79713Y139942D01*
X79652Y139891D01*
X79595Y139837D01*
X79539Y139781D01*
X79487Y139722D01*
X79437Y139660D01*
X79391Y139596D01*
X79347Y139530D01*
X79307Y139462D01*
X79271Y139392D01*
X79237Y139320D01*
X79207Y139246D01*
X79181Y139172D01*
X79158Y139096D01*
X79140Y139019D01*
X79124Y138942D01*
X79113Y138863D01*
X79105Y138785D01*
X79101Y138706D01*
X79101Y138626D01*
X79105Y138547D01*
X79113Y138469D01*
X79124Y138390D01*
X79140Y138313D01*
X79158Y138236D01*
X79181Y138160D01*
X79207Y138086D01*
X79237Y138012D01*
X79271Y137940D01*
X79307Y137870D01*
X79347Y137802D01*
X79391Y137736D01*
X79437Y137672D01*
X79487Y137610D01*
X79539Y137551D01*
X79595Y137495D01*
X79652Y137441D01*
X79713Y137390D01*
X79776Y137342D01*
X79841Y137297D01*
X79908Y137255D01*
X79977Y137217D01*
X80048Y137181D01*
X80121Y137150D01*
X80195Y137122D01*
X80270Y137097D01*
X80346Y137077D01*
X80423Y137059D01*
X80501Y137046D01*
X80580Y137037D01*
X80659Y137031D01*
X80738Y137029D01*
X82375Y137029D01*
D10*
X36995Y140856D02*
X36995Y160985D01*
D12*
X53848Y150813D02*
X60452Y150813D01*
D13*
X60688Y162306D02*
X59052Y162306D01*
X60688Y162306D02*
X60766Y162308D01*
X60844Y162313D01*
X60921Y162323D01*
X60998Y162336D01*
X61074Y162352D01*
X61149Y162372D01*
X61223Y162396D01*
X61296Y162423D01*
X61368Y162454D01*
X61438Y162488D01*
X61507Y162525D01*
X61573Y162566D01*
X61638Y162610D01*
X61700Y162656D01*
X61760Y162706D01*
X61818Y162758D01*
X61873Y162813D01*
X61925Y162871D01*
X61975Y162931D01*
X62021Y162993D01*
X62065Y163058D01*
X62106Y163125D01*
X62143Y163193D01*
X62177Y163263D01*
X62208Y163335D01*
X62235Y163408D01*
X62259Y163482D01*
X62279Y163557D01*
X62295Y163633D01*
X62308Y163710D01*
X62318Y163787D01*
X62323Y163865D01*
X62325Y163943D01*
X62325Y168035D01*
X62323Y168113D01*
X62318Y168191D01*
X62308Y168268D01*
X62295Y168345D01*
X62279Y168421D01*
X62259Y168496D01*
X62235Y168570D01*
X62208Y168643D01*
X62177Y168715D01*
X62143Y168785D01*
X62106Y168854D01*
X62065Y168920D01*
X62021Y168985D01*
X61975Y169047D01*
X61925Y169107D01*
X61873Y169165D01*
X61818Y169220D01*
X61760Y169272D01*
X61700Y169322D01*
X61638Y169368D01*
X61573Y169412D01*
X61507Y169453D01*
X61438Y169490D01*
X61368Y169524D01*
X61296Y169555D01*
X61223Y169582D01*
X61149Y169606D01*
X61074Y169626D01*
X60998Y169642D01*
X60921Y169655D01*
X60844Y169665D01*
X60766Y169670D01*
X60688Y169672D01*
X59052Y169672D01*
X56206Y162306D02*
X53751Y162306D01*
X53671Y162308D01*
X53591Y162314D01*
X53511Y162324D01*
X53432Y162337D01*
X53353Y162355D01*
X53276Y162376D01*
X53200Y162402D01*
X53125Y162431D01*
X53051Y162463D01*
X52979Y162499D01*
X52909Y162539D01*
X52842Y162582D01*
X52776Y162628D01*
X52713Y162678D01*
X52652Y162730D01*
X52593Y162785D01*
X52538Y162844D01*
X52486Y162904D01*
X52436Y162968D01*
X52390Y163033D01*
X52347Y163101D01*
X52307Y163171D01*
X52271Y163243D01*
X52239Y163317D01*
X52210Y163391D01*
X52185Y163468D01*
X52163Y163545D01*
X52145Y163624D01*
X52132Y163703D01*
X52122Y163782D01*
X52116Y163863D01*
X52114Y163943D01*
X52114Y164761D01*
X52116Y164839D01*
X52121Y164917D01*
X52131Y164994D01*
X52144Y165071D01*
X52160Y165147D01*
X52180Y165222D01*
X52204Y165296D01*
X52231Y165369D01*
X52262Y165441D01*
X52296Y165511D01*
X52333Y165580D01*
X52374Y165646D01*
X52418Y165711D01*
X52464Y165773D01*
X52514Y165833D01*
X52566Y165891D01*
X52621Y165946D01*
X52679Y165998D01*
X52739Y166048D01*
X52801Y166094D01*
X52866Y166138D01*
X52933Y166179D01*
X53001Y166216D01*
X53071Y166250D01*
X53143Y166281D01*
X53216Y166308D01*
X53290Y166332D01*
X53365Y166352D01*
X53441Y166368D01*
X53518Y166381D01*
X53595Y166391D01*
X53673Y166396D01*
X53751Y166398D01*
X56206Y166398D01*
X56206Y169672D01*
X52114Y169672D01*
D10*
X-58090Y104292D02*
X-78219Y104292D01*
D12*
X-68263Y87440D02*
X-68263Y80836D01*
D13*
X-97250Y79855D02*
X-97250Y78218D01*
X-97248Y78140D01*
X-97243Y78062D01*
X-97233Y77985D01*
X-97220Y77908D01*
X-97204Y77832D01*
X-97184Y77757D01*
X-97160Y77683D01*
X-97133Y77610D01*
X-97102Y77538D01*
X-97068Y77468D01*
X-97031Y77400D01*
X-96990Y77333D01*
X-96946Y77268D01*
X-96900Y77206D01*
X-96850Y77146D01*
X-96798Y77088D01*
X-96743Y77033D01*
X-96685Y76981D01*
X-96625Y76931D01*
X-96563Y76885D01*
X-96498Y76841D01*
X-96432Y76800D01*
X-96363Y76763D01*
X-96293Y76729D01*
X-96221Y76698D01*
X-96148Y76671D01*
X-96074Y76647D01*
X-95999Y76627D01*
X-95923Y76611D01*
X-95846Y76598D01*
X-95769Y76588D01*
X-95691Y76583D01*
X-95613Y76581D01*
X-91521Y76581D01*
X-91441Y76583D01*
X-91361Y76589D01*
X-91281Y76599D01*
X-91202Y76612D01*
X-91123Y76630D01*
X-91046Y76651D01*
X-90970Y76677D01*
X-90895Y76706D01*
X-90821Y76738D01*
X-90749Y76774D01*
X-90679Y76814D01*
X-90612Y76857D01*
X-90546Y76903D01*
X-90483Y76953D01*
X-90422Y77005D01*
X-90363Y77060D01*
X-90308Y77119D01*
X-90256Y77179D01*
X-90206Y77243D01*
X-90160Y77308D01*
X-90117Y77376D01*
X-90077Y77446D01*
X-90041Y77518D01*
X-90009Y77592D01*
X-89980Y77666D01*
X-89955Y77743D01*
X-89933Y77820D01*
X-89915Y77899D01*
X-89902Y77978D01*
X-89892Y78057D01*
X-89886Y78138D01*
X-89884Y78218D01*
X-89884Y79855D01*
X-89884Y82700D02*
X-90703Y82700D01*
X-89884Y82700D02*
X-89884Y86792D01*
X-97250Y84746D01*
D10*
X28675Y52070D02*
X33655Y52070D01*
X-40005Y52070D02*
X-40005Y57050D01*
X-40005Y125730D02*
X-35025Y125730D01*
X33655Y125730D02*
X33655Y120750D01*
X33655Y57050D02*
X33655Y52070D01*
X-35025Y52070D02*
X-40005Y52070D01*
X-40005Y120750D02*
X-40005Y125730D01*
X28675Y125730D02*
X33655Y125730D01*
D14*
X27503Y133858D02*
X27505Y133954D01*
X27511Y134050D01*
X27521Y134146D01*
X27535Y134241D01*
X27552Y134336D01*
X27574Y134429D01*
X27599Y134522D01*
X27628Y134614D01*
X27661Y134704D01*
X27698Y134793D01*
X27738Y134880D01*
X27782Y134966D01*
X27829Y135050D01*
X27880Y135132D01*
X27933Y135211D01*
X27991Y135288D01*
X28051Y135363D01*
X28114Y135436D01*
X28180Y135506D01*
X28250Y135572D01*
X28321Y135637D01*
X28396Y135698D01*
X28472Y135756D01*
X28551Y135810D01*
X28633Y135862D01*
X28716Y135910D01*
X28801Y135954D01*
X28888Y135996D01*
X28977Y136033D01*
X29067Y136067D01*
X29158Y136097D01*
X29250Y136123D01*
X29344Y136146D01*
X29438Y136164D01*
X29533Y136179D01*
X29629Y136190D01*
X29725Y136197D01*
X29821Y136200D01*
X29917Y136199D01*
X30013Y136194D01*
X30109Y136185D01*
X30204Y136172D01*
X30299Y136156D01*
X30393Y136135D01*
X30486Y136111D01*
X30578Y136082D01*
X30669Y136050D01*
X30758Y136015D01*
X30846Y135975D01*
X30932Y135933D01*
X31016Y135886D01*
X31098Y135836D01*
X31178Y135783D01*
X31256Y135727D01*
X31332Y135667D01*
X31405Y135605D01*
X31475Y135539D01*
X31543Y135471D01*
X31608Y135400D01*
X31670Y135326D01*
X31728Y135250D01*
X31784Y135172D01*
X31836Y135091D01*
X31885Y135008D01*
X31931Y134923D01*
X31973Y134837D01*
X32011Y134749D01*
X32046Y134659D01*
X32077Y134568D01*
X32104Y134476D01*
X32128Y134382D01*
X32147Y134288D01*
X32163Y134193D01*
X32175Y134098D01*
X32183Y134002D01*
X32187Y133906D01*
X32187Y133810D01*
X32183Y133714D01*
X32175Y133618D01*
X32163Y133523D01*
X32147Y133428D01*
X32128Y133334D01*
X32104Y133240D01*
X32077Y133148D01*
X32046Y133057D01*
X32011Y132967D01*
X31973Y132879D01*
X31931Y132793D01*
X31885Y132708D01*
X31836Y132625D01*
X31784Y132544D01*
X31728Y132466D01*
X31670Y132390D01*
X31608Y132316D01*
X31543Y132245D01*
X31475Y132177D01*
X31405Y132111D01*
X31332Y132049D01*
X31256Y131989D01*
X31178Y131933D01*
X31098Y131880D01*
X31016Y131830D01*
X30932Y131783D01*
X30846Y131741D01*
X30758Y131701D01*
X30669Y131666D01*
X30578Y131634D01*
X30486Y131605D01*
X30393Y131581D01*
X30299Y131560D01*
X30204Y131544D01*
X30109Y131531D01*
X30013Y131522D01*
X29917Y131517D01*
X29821Y131516D01*
X29725Y131519D01*
X29629Y131526D01*
X29533Y131537D01*
X29438Y131552D01*
X29344Y131570D01*
X29250Y131593D01*
X29158Y131619D01*
X29067Y131649D01*
X28977Y131683D01*
X28888Y131720D01*
X28801Y131762D01*
X28716Y131806D01*
X28633Y131854D01*
X28551Y131906D01*
X28472Y131960D01*
X28396Y132018D01*
X28321Y132079D01*
X28250Y132144D01*
X28180Y132210D01*
X28114Y132280D01*
X28051Y132353D01*
X27991Y132428D01*
X27933Y132505D01*
X27880Y132584D01*
X27829Y132666D01*
X27782Y132750D01*
X27738Y132836D01*
X27698Y132923D01*
X27661Y133012D01*
X27628Y133102D01*
X27599Y133194D01*
X27574Y133287D01*
X27552Y133380D01*
X27535Y133475D01*
X27521Y133570D01*
X27511Y133666D01*
X27505Y133762D01*
X27503Y133858D01*
D13*
X-20184Y48641D02*
X-20184Y40019D01*
X-20186Y39905D01*
X-20192Y39790D01*
X-20202Y39676D01*
X-20216Y39563D01*
X-20233Y39449D01*
X-20255Y39337D01*
X-20280Y39225D01*
X-20310Y39115D01*
X-20343Y39005D01*
X-20380Y38897D01*
X-20420Y38790D01*
X-20465Y38684D01*
X-20512Y38580D01*
X-20564Y38478D01*
X-20619Y38378D01*
X-20677Y38279D01*
X-20739Y38183D01*
X-20804Y38088D01*
X-20872Y37997D01*
X-20944Y37907D01*
X-21018Y37820D01*
X-21095Y37736D01*
X-21176Y37654D01*
X-21259Y37575D01*
X-21344Y37499D01*
X-21433Y37426D01*
X-21523Y37357D01*
X-21616Y37290D01*
X-21712Y37227D01*
X-21809Y37167D01*
X-21909Y37110D01*
X-22010Y37057D01*
X-22113Y37007D01*
X-22218Y36961D01*
X-22324Y36918D01*
X-22432Y36880D01*
X-22541Y36845D01*
X-22651Y36814D01*
X-22762Y36786D01*
X-22874Y36763D01*
X-22987Y36743D01*
X-23100Y36727D01*
X-23214Y36715D01*
X-23328Y36707D01*
X-23443Y36703D01*
X-23557Y36703D01*
X-23672Y36707D01*
X-23786Y36715D01*
X-23900Y36727D01*
X-24013Y36743D01*
X-24126Y36763D01*
X-24238Y36786D01*
X-24349Y36814D01*
X-24459Y36845D01*
X-24568Y36880D01*
X-24676Y36918D01*
X-24782Y36961D01*
X-24887Y37007D01*
X-24990Y37057D01*
X-25091Y37110D01*
X-25191Y37167D01*
X-25288Y37227D01*
X-25384Y37290D01*
X-25477Y37357D01*
X-25567Y37426D01*
X-25656Y37499D01*
X-25741Y37575D01*
X-25824Y37654D01*
X-25905Y37736D01*
X-25982Y37820D01*
X-26056Y37907D01*
X-26128Y37997D01*
X-26196Y38088D01*
X-26261Y38183D01*
X-26323Y38279D01*
X-26381Y38378D01*
X-26436Y38478D01*
X-26488Y38580D01*
X-26535Y38684D01*
X-26580Y38790D01*
X-26620Y38897D01*
X-26657Y39005D01*
X-26690Y39115D01*
X-26720Y39225D01*
X-26745Y39337D01*
X-26767Y39449D01*
X-26784Y39563D01*
X-26798Y39676D01*
X-26808Y39790D01*
X-26814Y39905D01*
X-26816Y40019D01*
X-26816Y48641D01*
X-31994Y45988D02*
X-35311Y48641D01*
X-35311Y36703D01*
X-38627Y36703D02*
X-31994Y36703D01*
D10*
X27984Y199263D02*
X27986Y199316D01*
X27992Y199369D01*
X28002Y199421D01*
X28015Y199472D01*
X28032Y199522D01*
X28053Y199571D01*
X28078Y199618D01*
X28106Y199663D01*
X28137Y199706D01*
X28171Y199747D01*
X28209Y199785D01*
X28248Y199820D01*
X28291Y199852D01*
X28335Y199880D01*
X28382Y199906D01*
X28430Y199928D01*
X28480Y199946D01*
X28531Y199960D01*
X28583Y199971D01*
X28636Y199978D01*
X28689Y199981D01*
X28742Y199980D01*
X28795Y199975D01*
X28847Y199966D01*
X28898Y199954D01*
X28949Y199937D01*
X28998Y199917D01*
X29046Y199893D01*
X29091Y199866D01*
X29135Y199836D01*
X29176Y199802D01*
X29214Y199766D01*
X29250Y199727D01*
X29283Y199685D01*
X29312Y199641D01*
X29339Y199595D01*
X29361Y199547D01*
X29381Y199497D01*
X29396Y199447D01*
X29408Y199395D01*
X29416Y199342D01*
X29420Y199290D01*
X29420Y199236D01*
X29416Y199184D01*
X29408Y199131D01*
X29396Y199079D01*
X29381Y199029D01*
X29361Y198979D01*
X29339Y198931D01*
X29312Y198885D01*
X29283Y198841D01*
X29250Y198799D01*
X29214Y198760D01*
X29176Y198724D01*
X29135Y198690D01*
X29091Y198660D01*
X29046Y198633D01*
X28998Y198609D01*
X28949Y198589D01*
X28898Y198572D01*
X28847Y198560D01*
X28795Y198551D01*
X28742Y198546D01*
X28689Y198545D01*
X28636Y198548D01*
X28583Y198555D01*
X28531Y198566D01*
X28480Y198580D01*
X28430Y198598D01*
X28382Y198620D01*
X28335Y198646D01*
X28291Y198674D01*
X28248Y198706D01*
X28209Y198741D01*
X28171Y198779D01*
X28137Y198820D01*
X28106Y198863D01*
X28078Y198908D01*
X28053Y198955D01*
X28032Y199004D01*
X28015Y199054D01*
X28002Y199105D01*
X27992Y199157D01*
X27986Y199210D01*
X27984Y199263D01*
D13*
X21844Y200865D02*
X21844Y206185D01*
X21844Y200865D02*
X21842Y200776D01*
X21836Y200687D01*
X21826Y200598D01*
X21813Y200510D01*
X21796Y200422D01*
X21774Y200335D01*
X21749Y200250D01*
X21721Y200165D01*
X21688Y200082D01*
X21652Y200000D01*
X21613Y199920D01*
X21570Y199842D01*
X21524Y199766D01*
X21474Y199691D01*
X21421Y199619D01*
X21365Y199550D01*
X21306Y199483D01*
X21245Y199418D01*
X21180Y199357D01*
X21113Y199298D01*
X21044Y199242D01*
X20972Y199189D01*
X20897Y199139D01*
X20821Y199093D01*
X20743Y199050D01*
X20663Y199011D01*
X20581Y198975D01*
X20498Y198942D01*
X20413Y198914D01*
X20328Y198889D01*
X20241Y198867D01*
X20153Y198850D01*
X20065Y198837D01*
X19976Y198827D01*
X19887Y198821D01*
X19798Y198819D01*
X19709Y198821D01*
X19620Y198827D01*
X19531Y198837D01*
X19443Y198850D01*
X19355Y198867D01*
X19268Y198889D01*
X19183Y198914D01*
X19098Y198942D01*
X19015Y198975D01*
X18933Y199011D01*
X18853Y199050D01*
X18775Y199093D01*
X18699Y199139D01*
X18624Y199189D01*
X18552Y199242D01*
X18483Y199298D01*
X18416Y199357D01*
X18351Y199418D01*
X18290Y199483D01*
X18231Y199550D01*
X18175Y199619D01*
X18122Y199691D01*
X18072Y199766D01*
X18026Y199842D01*
X17983Y199920D01*
X17944Y200000D01*
X17908Y200082D01*
X17875Y200165D01*
X17847Y200250D01*
X17822Y200335D01*
X17800Y200422D01*
X17783Y200510D01*
X17770Y200598D01*
X17760Y200687D01*
X17754Y200776D01*
X17752Y200865D01*
X17752Y206185D01*
X12034Y206185D02*
X11949Y206183D01*
X11864Y206177D01*
X11780Y206167D01*
X11696Y206154D01*
X11612Y206136D01*
X11530Y206115D01*
X11449Y206090D01*
X11369Y206061D01*
X11290Y206028D01*
X11213Y205992D01*
X11138Y205952D01*
X11064Y205909D01*
X10993Y205863D01*
X10924Y205813D01*
X10857Y205760D01*
X10793Y205704D01*
X10732Y205645D01*
X10673Y205584D01*
X10617Y205520D01*
X10564Y205453D01*
X10514Y205384D01*
X10468Y205313D01*
X10425Y205239D01*
X10385Y205164D01*
X10349Y205087D01*
X10316Y205008D01*
X10287Y204928D01*
X10262Y204847D01*
X10241Y204765D01*
X10223Y204681D01*
X10210Y204597D01*
X10200Y204513D01*
X10194Y204428D01*
X10192Y204343D01*
X12034Y206185D02*
X12130Y206183D01*
X12226Y206177D01*
X12321Y206167D01*
X12416Y206154D01*
X12511Y206136D01*
X12604Y206115D01*
X12697Y206090D01*
X12788Y206061D01*
X12879Y206029D01*
X12968Y205993D01*
X13055Y205953D01*
X13141Y205910D01*
X13225Y205864D01*
X13307Y205814D01*
X13387Y205760D01*
X13464Y205704D01*
X13539Y205644D01*
X13612Y205582D01*
X13682Y205516D01*
X13750Y205448D01*
X13815Y205377D01*
X13876Y205304D01*
X13935Y205228D01*
X13991Y205149D01*
X14043Y205069D01*
X14092Y204986D01*
X14138Y204902D01*
X14180Y204816D01*
X14218Y204728D01*
X14253Y204639D01*
X14285Y204548D01*
X10807Y202911D02*
X10747Y202970D01*
X10690Y203032D01*
X10635Y203096D01*
X10584Y203163D01*
X10535Y203232D01*
X10489Y203302D01*
X10446Y203375D01*
X10406Y203449D01*
X10370Y203525D01*
X10337Y203603D01*
X10307Y203682D01*
X10280Y203762D01*
X10257Y203843D01*
X10238Y203925D01*
X10222Y204007D01*
X10209Y204091D01*
X10200Y204175D01*
X10195Y204259D01*
X10193Y204343D01*
X10807Y202911D02*
X14285Y198819D01*
X10193Y198819D01*
D12*
X-3175Y198311D02*
X-3175Y204915D01*
D13*
X-4572Y176831D02*
X-4572Y175195D01*
X-4570Y175117D01*
X-4565Y175039D01*
X-4555Y174962D01*
X-4542Y174885D01*
X-4526Y174809D01*
X-4506Y174734D01*
X-4482Y174660D01*
X-4455Y174587D01*
X-4424Y174515D01*
X-4390Y174445D01*
X-4353Y174377D01*
X-4312Y174310D01*
X-4268Y174245D01*
X-4222Y174183D01*
X-4172Y174123D01*
X-4120Y174065D01*
X-4065Y174010D01*
X-4007Y173958D01*
X-3947Y173908D01*
X-3885Y173862D01*
X-3820Y173818D01*
X-3754Y173777D01*
X-3685Y173740D01*
X-3615Y173706D01*
X-3543Y173675D01*
X-3470Y173648D01*
X-3396Y173624D01*
X-3321Y173604D01*
X-3245Y173588D01*
X-3168Y173575D01*
X-3091Y173565D01*
X-3013Y173560D01*
X-2935Y173558D01*
X1157Y173558D01*
X1235Y173560D01*
X1313Y173565D01*
X1390Y173575D01*
X1467Y173588D01*
X1543Y173604D01*
X1618Y173624D01*
X1692Y173648D01*
X1765Y173675D01*
X1837Y173706D01*
X1907Y173740D01*
X1976Y173777D01*
X2042Y173818D01*
X2107Y173862D01*
X2169Y173908D01*
X2229Y173958D01*
X2287Y174010D01*
X2342Y174065D01*
X2394Y174123D01*
X2444Y174183D01*
X2490Y174245D01*
X2534Y174310D01*
X2575Y174377D01*
X2612Y174445D01*
X2646Y174515D01*
X2677Y174587D01*
X2704Y174660D01*
X2728Y174734D01*
X2748Y174809D01*
X2764Y174885D01*
X2777Y174962D01*
X2787Y175039D01*
X2792Y175117D01*
X2794Y175195D01*
X2794Y176831D01*
X-2526Y179677D02*
X-2437Y179679D01*
X-2348Y179685D01*
X-2259Y179695D01*
X-2171Y179708D01*
X-2083Y179725D01*
X-1996Y179747D01*
X-1911Y179772D01*
X-1826Y179800D01*
X-1743Y179833D01*
X-1661Y179869D01*
X-1581Y179908D01*
X-1503Y179951D01*
X-1427Y179997D01*
X-1352Y180047D01*
X-1280Y180100D01*
X-1211Y180156D01*
X-1144Y180215D01*
X-1079Y180276D01*
X-1018Y180341D01*
X-959Y180408D01*
X-903Y180477D01*
X-850Y180549D01*
X-800Y180624D01*
X-754Y180700D01*
X-711Y180778D01*
X-672Y180858D01*
X-636Y180940D01*
X-603Y181023D01*
X-575Y181108D01*
X-550Y181193D01*
X-528Y181280D01*
X-511Y181368D01*
X-498Y181456D01*
X-488Y181545D01*
X-482Y181634D01*
X-480Y181723D01*
X-482Y181812D01*
X-488Y181901D01*
X-498Y181990D01*
X-511Y182078D01*
X-528Y182166D01*
X-550Y182253D01*
X-575Y182338D01*
X-603Y182423D01*
X-636Y182506D01*
X-672Y182588D01*
X-711Y182668D01*
X-754Y182746D01*
X-800Y182822D01*
X-850Y182897D01*
X-903Y182969D01*
X-959Y183038D01*
X-1018Y183105D01*
X-1079Y183170D01*
X-1144Y183231D01*
X-1211Y183290D01*
X-1280Y183346D01*
X-1352Y183399D01*
X-1427Y183449D01*
X-1503Y183495D01*
X-1581Y183538D01*
X-1661Y183577D01*
X-1743Y183613D01*
X-1826Y183646D01*
X-1911Y183674D01*
X-1996Y183699D01*
X-2083Y183721D01*
X-2171Y183738D01*
X-2259Y183751D01*
X-2348Y183761D01*
X-2437Y183767D01*
X-2526Y183769D01*
X-2615Y183767D01*
X-2704Y183761D01*
X-2793Y183751D01*
X-2881Y183738D01*
X-2969Y183721D01*
X-3056Y183699D01*
X-3141Y183674D01*
X-3226Y183646D01*
X-3309Y183613D01*
X-3391Y183577D01*
X-3471Y183538D01*
X-3549Y183495D01*
X-3625Y183449D01*
X-3700Y183399D01*
X-3772Y183346D01*
X-3841Y183290D01*
X-3908Y183231D01*
X-3973Y183170D01*
X-4034Y183105D01*
X-4093Y183038D01*
X-4149Y182969D01*
X-4202Y182897D01*
X-4252Y182822D01*
X-4298Y182746D01*
X-4341Y182668D01*
X-4380Y182588D01*
X-4416Y182506D01*
X-4449Y182423D01*
X-4477Y182338D01*
X-4502Y182253D01*
X-4524Y182166D01*
X-4541Y182078D01*
X-4554Y181990D01*
X-4564Y181901D01*
X-4570Y181812D01*
X-4572Y181723D01*
X-4570Y181634D01*
X-4564Y181545D01*
X-4554Y181456D01*
X-4541Y181368D01*
X-4524Y181280D01*
X-4502Y181193D01*
X-4477Y181108D01*
X-4449Y181023D01*
X-4416Y180940D01*
X-4380Y180858D01*
X-4341Y180778D01*
X-4298Y180700D01*
X-4252Y180624D01*
X-4202Y180549D01*
X-4149Y180477D01*
X-4093Y180408D01*
X-4034Y180341D01*
X-3973Y180276D01*
X-3908Y180215D01*
X-3841Y180156D01*
X-3772Y180100D01*
X-3700Y180047D01*
X-3625Y179997D01*
X-3549Y179951D01*
X-3471Y179908D01*
X-3391Y179869D01*
X-3309Y179833D01*
X-3226Y179800D01*
X-3141Y179772D01*
X-3056Y179747D01*
X-2969Y179725D01*
X-2881Y179708D01*
X-2793Y179695D01*
X-2704Y179685D01*
X-2615Y179679D01*
X-2526Y179677D01*
X1157Y180086D02*
X1236Y180088D01*
X1315Y180094D01*
X1394Y180103D01*
X1472Y180116D01*
X1549Y180134D01*
X1625Y180154D01*
X1700Y180179D01*
X1774Y180207D01*
X1847Y180238D01*
X1918Y180274D01*
X1987Y180312D01*
X2054Y180354D01*
X2119Y180399D01*
X2182Y180447D01*
X2243Y180498D01*
X2300Y180552D01*
X2356Y180608D01*
X2408Y180667D01*
X2458Y180729D01*
X2504Y180793D01*
X2548Y180859D01*
X2588Y180927D01*
X2624Y180997D01*
X2658Y181069D01*
X2688Y181143D01*
X2714Y181217D01*
X2737Y181293D01*
X2755Y181370D01*
X2771Y181447D01*
X2782Y181526D01*
X2790Y181604D01*
X2794Y181683D01*
X2794Y181763D01*
X2790Y181842D01*
X2782Y181920D01*
X2771Y181999D01*
X2755Y182076D01*
X2737Y182153D01*
X2714Y182229D01*
X2688Y182303D01*
X2658Y182377D01*
X2624Y182449D01*
X2588Y182519D01*
X2548Y182587D01*
X2504Y182653D01*
X2458Y182717D01*
X2408Y182779D01*
X2356Y182838D01*
X2300Y182894D01*
X2243Y182948D01*
X2182Y182999D01*
X2119Y183047D01*
X2054Y183092D01*
X1987Y183134D01*
X1918Y183172D01*
X1847Y183208D01*
X1774Y183239D01*
X1700Y183267D01*
X1625Y183292D01*
X1549Y183312D01*
X1472Y183330D01*
X1394Y183343D01*
X1315Y183352D01*
X1236Y183358D01*
X1157Y183360D01*
X1078Y183358D01*
X999Y183352D01*
X920Y183343D01*
X842Y183330D01*
X765Y183312D01*
X689Y183292D01*
X614Y183267D01*
X540Y183239D01*
X467Y183208D01*
X396Y183172D01*
X327Y183134D01*
X260Y183092D01*
X195Y183047D01*
X132Y182999D01*
X71Y182948D01*
X14Y182894D01*
X-42Y182838D01*
X-94Y182779D01*
X-144Y182717D01*
X-190Y182653D01*
X-234Y182587D01*
X-274Y182519D01*
X-310Y182449D01*
X-344Y182377D01*
X-374Y182303D01*
X-400Y182229D01*
X-423Y182153D01*
X-441Y182076D01*
X-457Y181999D01*
X-468Y181920D01*
X-476Y181842D01*
X-480Y181763D01*
X-480Y181683D01*
X-476Y181604D01*
X-468Y181526D01*
X-457Y181447D01*
X-441Y181370D01*
X-423Y181293D01*
X-400Y181217D01*
X-374Y181143D01*
X-344Y181069D01*
X-310Y180997D01*
X-274Y180927D01*
X-234Y180859D01*
X-190Y180793D01*
X-144Y180729D01*
X-94Y180667D01*
X-42Y180608D01*
X14Y180552D01*
X71Y180498D01*
X132Y180447D01*
X195Y180399D01*
X260Y180354D01*
X327Y180312D01*
X396Y180274D01*
X467Y180238D01*
X540Y180207D01*
X614Y180179D01*
X689Y180154D01*
X765Y180134D01*
X842Y180116D01*
X920Y180103D01*
X999Y180094D01*
X1078Y180088D01*
X1157Y180086D01*
D12*
X-12700Y198311D02*
X-12700Y204915D01*
D13*
X-15685Y176831D02*
X-15685Y175195D01*
X-15683Y175117D01*
X-15678Y175039D01*
X-15668Y174962D01*
X-15655Y174885D01*
X-15639Y174809D01*
X-15619Y174734D01*
X-15595Y174660D01*
X-15568Y174587D01*
X-15537Y174515D01*
X-15503Y174445D01*
X-15466Y174377D01*
X-15425Y174310D01*
X-15381Y174245D01*
X-15335Y174183D01*
X-15285Y174123D01*
X-15233Y174065D01*
X-15178Y174010D01*
X-15120Y173958D01*
X-15060Y173908D01*
X-14998Y173862D01*
X-14933Y173818D01*
X-14867Y173777D01*
X-14798Y173740D01*
X-14728Y173706D01*
X-14656Y173675D01*
X-14583Y173648D01*
X-14509Y173624D01*
X-14434Y173604D01*
X-14358Y173588D01*
X-14281Y173575D01*
X-14204Y173565D01*
X-14126Y173560D01*
X-14048Y173558D01*
X-9955Y173558D01*
X-9875Y173560D01*
X-9795Y173566D01*
X-9715Y173576D01*
X-9636Y173589D01*
X-9557Y173607D01*
X-9480Y173628D01*
X-9404Y173654D01*
X-9329Y173683D01*
X-9255Y173715D01*
X-9183Y173751D01*
X-9113Y173791D01*
X-9046Y173834D01*
X-8980Y173880D01*
X-8917Y173930D01*
X-8856Y173982D01*
X-8797Y174037D01*
X-8742Y174096D01*
X-8690Y174156D01*
X-8640Y174220D01*
X-8594Y174285D01*
X-8551Y174353D01*
X-8511Y174423D01*
X-8475Y174495D01*
X-8443Y174569D01*
X-8414Y174643D01*
X-8389Y174720D01*
X-8367Y174797D01*
X-8349Y174876D01*
X-8336Y174955D01*
X-8326Y175034D01*
X-8320Y175115D01*
X-8318Y175195D01*
X-8319Y175195D02*
X-8319Y176831D01*
X-12411Y181314D02*
X-12411Y183769D01*
X-12411Y181314D02*
X-12409Y181236D01*
X-12404Y181158D01*
X-12394Y181081D01*
X-12381Y181004D01*
X-12365Y180928D01*
X-12345Y180853D01*
X-12321Y180779D01*
X-12294Y180706D01*
X-12263Y180634D01*
X-12229Y180564D01*
X-12192Y180496D01*
X-12151Y180429D01*
X-12107Y180364D01*
X-12061Y180302D01*
X-12011Y180242D01*
X-11959Y180184D01*
X-11904Y180129D01*
X-11846Y180077D01*
X-11786Y180027D01*
X-11724Y179981D01*
X-11659Y179937D01*
X-11593Y179896D01*
X-11524Y179859D01*
X-11454Y179825D01*
X-11382Y179794D01*
X-11309Y179767D01*
X-11235Y179743D01*
X-11160Y179723D01*
X-11084Y179707D01*
X-11007Y179694D01*
X-10930Y179684D01*
X-10852Y179679D01*
X-10774Y179677D01*
X-10365Y179677D01*
X-10276Y179679D01*
X-10187Y179685D01*
X-10098Y179695D01*
X-10010Y179708D01*
X-9922Y179725D01*
X-9835Y179747D01*
X-9750Y179772D01*
X-9665Y179800D01*
X-9582Y179833D01*
X-9500Y179869D01*
X-9420Y179908D01*
X-9342Y179951D01*
X-9266Y179997D01*
X-9191Y180047D01*
X-9119Y180100D01*
X-9050Y180156D01*
X-8983Y180215D01*
X-8918Y180276D01*
X-8857Y180341D01*
X-8798Y180408D01*
X-8742Y180477D01*
X-8689Y180549D01*
X-8639Y180624D01*
X-8593Y180700D01*
X-8550Y180778D01*
X-8511Y180858D01*
X-8475Y180940D01*
X-8442Y181023D01*
X-8414Y181108D01*
X-8389Y181193D01*
X-8367Y181280D01*
X-8350Y181368D01*
X-8337Y181456D01*
X-8327Y181545D01*
X-8321Y181634D01*
X-8319Y181723D01*
X-8321Y181812D01*
X-8327Y181901D01*
X-8337Y181990D01*
X-8350Y182078D01*
X-8367Y182166D01*
X-8389Y182253D01*
X-8414Y182338D01*
X-8442Y182423D01*
X-8475Y182506D01*
X-8511Y182588D01*
X-8550Y182668D01*
X-8593Y182746D01*
X-8639Y182822D01*
X-8689Y182897D01*
X-8742Y182969D01*
X-8798Y183038D01*
X-8857Y183105D01*
X-8918Y183170D01*
X-8983Y183231D01*
X-9050Y183290D01*
X-9119Y183346D01*
X-9191Y183399D01*
X-9266Y183449D01*
X-9342Y183495D01*
X-9420Y183538D01*
X-9500Y183577D01*
X-9582Y183613D01*
X-9665Y183646D01*
X-9750Y183674D01*
X-9835Y183699D01*
X-9922Y183721D01*
X-10010Y183738D01*
X-10098Y183751D01*
X-10187Y183761D01*
X-10276Y183767D01*
X-10365Y183769D01*
X-12411Y183769D01*
X-12523Y183767D01*
X-12634Y183761D01*
X-12746Y183752D01*
X-12857Y183739D01*
X-12967Y183721D01*
X-13077Y183701D01*
X-13186Y183676D01*
X-13294Y183648D01*
X-13401Y183616D01*
X-13507Y183580D01*
X-13612Y183541D01*
X-13715Y183498D01*
X-13817Y183452D01*
X-13917Y183402D01*
X-14016Y183349D01*
X-14112Y183292D01*
X-14207Y183233D01*
X-14299Y183170D01*
X-14389Y183104D01*
X-14477Y183035D01*
X-14563Y182963D01*
X-14646Y182888D01*
X-14726Y182810D01*
X-14804Y182730D01*
X-14879Y182647D01*
X-14951Y182561D01*
X-15020Y182473D01*
X-15086Y182383D01*
X-15149Y182291D01*
X-15208Y182196D01*
X-15265Y182100D01*
X-15318Y182001D01*
X-15368Y181901D01*
X-15414Y181799D01*
X-15457Y181696D01*
X-15496Y181591D01*
X-15532Y181485D01*
X-15564Y181378D01*
X-15592Y181270D01*
X-15617Y181161D01*
X-15637Y181051D01*
X-15655Y180941D01*
X-15668Y180830D01*
X-15677Y180718D01*
X-15683Y180607D01*
X-15685Y180495D01*
D12*
X-26988Y188786D02*
X-26988Y195390D01*
D13*
X-28194Y159230D02*
X-28194Y157593D01*
X-28192Y157515D01*
X-28187Y157437D01*
X-28177Y157360D01*
X-28164Y157283D01*
X-28148Y157207D01*
X-28128Y157132D01*
X-28104Y157058D01*
X-28077Y156985D01*
X-28046Y156913D01*
X-28012Y156843D01*
X-27975Y156775D01*
X-27934Y156708D01*
X-27890Y156643D01*
X-27844Y156581D01*
X-27794Y156521D01*
X-27742Y156463D01*
X-27687Y156408D01*
X-27629Y156356D01*
X-27569Y156306D01*
X-27507Y156260D01*
X-27442Y156216D01*
X-27376Y156175D01*
X-27307Y156138D01*
X-27237Y156104D01*
X-27165Y156073D01*
X-27092Y156046D01*
X-27018Y156022D01*
X-26943Y156002D01*
X-26867Y155986D01*
X-26790Y155973D01*
X-26713Y155963D01*
X-26635Y155958D01*
X-26557Y155956D01*
X-22465Y155956D01*
X-22385Y155958D01*
X-22305Y155964D01*
X-22225Y155974D01*
X-22146Y155987D01*
X-22067Y156005D01*
X-21990Y156026D01*
X-21914Y156052D01*
X-21839Y156081D01*
X-21765Y156113D01*
X-21693Y156149D01*
X-21623Y156189D01*
X-21556Y156232D01*
X-21490Y156278D01*
X-21427Y156328D01*
X-21366Y156380D01*
X-21307Y156435D01*
X-21252Y156494D01*
X-21200Y156554D01*
X-21150Y156618D01*
X-21104Y156683D01*
X-21061Y156751D01*
X-21021Y156821D01*
X-20985Y156893D01*
X-20953Y156967D01*
X-20924Y157041D01*
X-20899Y157118D01*
X-20877Y157195D01*
X-20859Y157274D01*
X-20846Y157353D01*
X-20836Y157432D01*
X-20830Y157513D01*
X-20828Y157593D01*
X-20828Y159230D01*
X-22465Y162075D02*
X-20828Y164121D01*
X-28194Y164121D01*
X-28194Y162075D02*
X-28194Y166167D01*
X-22670Y173483D02*
X-22585Y173481D01*
X-22500Y173475D01*
X-22416Y173465D01*
X-22332Y173452D01*
X-22248Y173434D01*
X-22166Y173413D01*
X-22085Y173388D01*
X-22005Y173359D01*
X-21926Y173326D01*
X-21849Y173290D01*
X-21774Y173250D01*
X-21700Y173207D01*
X-21629Y173161D01*
X-21560Y173111D01*
X-21493Y173058D01*
X-21429Y173002D01*
X-21368Y172943D01*
X-21309Y172882D01*
X-21253Y172818D01*
X-21200Y172751D01*
X-21150Y172682D01*
X-21104Y172611D01*
X-21061Y172537D01*
X-21021Y172462D01*
X-20985Y172385D01*
X-20952Y172306D01*
X-20923Y172226D01*
X-20898Y172145D01*
X-20877Y172063D01*
X-20859Y171979D01*
X-20846Y171895D01*
X-20836Y171811D01*
X-20830Y171726D01*
X-20828Y171641D01*
X-20830Y171545D01*
X-20836Y171449D01*
X-20846Y171354D01*
X-20859Y171259D01*
X-20877Y171164D01*
X-20898Y171071D01*
X-20923Y170978D01*
X-20952Y170887D01*
X-20984Y170796D01*
X-21020Y170707D01*
X-21060Y170620D01*
X-21103Y170534D01*
X-21149Y170450D01*
X-21199Y170368D01*
X-21253Y170288D01*
X-21309Y170211D01*
X-21369Y170136D01*
X-21431Y170063D01*
X-21497Y169993D01*
X-21565Y169925D01*
X-21636Y169860D01*
X-21709Y169799D01*
X-21785Y169740D01*
X-21864Y169684D01*
X-21944Y169632D01*
X-22027Y169583D01*
X-22111Y169537D01*
X-22197Y169495D01*
X-22285Y169457D01*
X-22374Y169422D01*
X-22465Y169390D01*
X-24102Y172869D02*
X-24043Y172929D01*
X-23981Y172986D01*
X-23917Y173041D01*
X-23850Y173092D01*
X-23781Y173141D01*
X-23711Y173187D01*
X-23638Y173230D01*
X-23564Y173270D01*
X-23488Y173306D01*
X-23410Y173339D01*
X-23331Y173369D01*
X-23251Y173396D01*
X-23170Y173419D01*
X-23088Y173438D01*
X-23006Y173454D01*
X-22922Y173467D01*
X-22838Y173476D01*
X-22754Y173481D01*
X-22670Y173483D01*
X-24102Y172869D02*
X-28194Y169390D01*
X-28194Y173483D01*
D12*
X-36513Y188786D02*
X-36513Y195390D01*
D13*
X-42482Y159230D02*
X-42482Y157593D01*
X-42480Y157515D01*
X-42475Y157437D01*
X-42465Y157360D01*
X-42452Y157283D01*
X-42436Y157207D01*
X-42416Y157132D01*
X-42392Y157058D01*
X-42365Y156985D01*
X-42334Y156913D01*
X-42300Y156843D01*
X-42263Y156775D01*
X-42222Y156708D01*
X-42178Y156643D01*
X-42132Y156581D01*
X-42082Y156521D01*
X-42030Y156463D01*
X-41975Y156408D01*
X-41917Y156356D01*
X-41857Y156306D01*
X-41795Y156260D01*
X-41730Y156216D01*
X-41664Y156175D01*
X-41595Y156138D01*
X-41525Y156104D01*
X-41453Y156073D01*
X-41380Y156046D01*
X-41306Y156022D01*
X-41231Y156002D01*
X-41155Y155986D01*
X-41078Y155973D01*
X-41001Y155963D01*
X-40923Y155958D01*
X-40845Y155956D01*
X-36752Y155956D01*
X-36672Y155958D01*
X-36592Y155964D01*
X-36512Y155974D01*
X-36433Y155987D01*
X-36354Y156005D01*
X-36277Y156026D01*
X-36201Y156052D01*
X-36126Y156081D01*
X-36052Y156113D01*
X-35980Y156149D01*
X-35910Y156189D01*
X-35843Y156232D01*
X-35777Y156278D01*
X-35714Y156328D01*
X-35653Y156380D01*
X-35594Y156435D01*
X-35539Y156494D01*
X-35487Y156554D01*
X-35437Y156618D01*
X-35391Y156683D01*
X-35348Y156751D01*
X-35308Y156821D01*
X-35272Y156893D01*
X-35240Y156967D01*
X-35211Y157041D01*
X-35186Y157118D01*
X-35164Y157195D01*
X-35146Y157274D01*
X-35133Y157353D01*
X-35123Y157432D01*
X-35117Y157513D01*
X-35115Y157593D01*
X-35116Y157593D02*
X-35116Y159230D01*
X-36752Y162075D02*
X-35116Y164121D01*
X-42482Y164121D01*
X-42482Y162075D02*
X-42482Y166167D01*
X-42482Y169390D02*
X-42482Y171436D01*
X-42481Y171436D02*
X-42479Y171525D01*
X-42473Y171614D01*
X-42463Y171703D01*
X-42450Y171791D01*
X-42433Y171879D01*
X-42411Y171966D01*
X-42386Y172051D01*
X-42358Y172136D01*
X-42325Y172219D01*
X-42289Y172301D01*
X-42250Y172381D01*
X-42207Y172459D01*
X-42161Y172535D01*
X-42111Y172610D01*
X-42058Y172682D01*
X-42002Y172751D01*
X-41943Y172818D01*
X-41882Y172883D01*
X-41817Y172944D01*
X-41750Y173003D01*
X-41681Y173059D01*
X-41609Y173112D01*
X-41534Y173162D01*
X-41458Y173208D01*
X-41380Y173251D01*
X-41300Y173290D01*
X-41218Y173326D01*
X-41135Y173359D01*
X-41050Y173387D01*
X-40965Y173412D01*
X-40878Y173434D01*
X-40790Y173451D01*
X-40702Y173464D01*
X-40613Y173474D01*
X-40524Y173480D01*
X-40435Y173482D01*
X-40346Y173480D01*
X-40257Y173474D01*
X-40168Y173464D01*
X-40080Y173451D01*
X-39992Y173434D01*
X-39905Y173412D01*
X-39820Y173387D01*
X-39735Y173359D01*
X-39652Y173326D01*
X-39570Y173290D01*
X-39490Y173251D01*
X-39412Y173208D01*
X-39336Y173162D01*
X-39261Y173112D01*
X-39189Y173059D01*
X-39120Y173003D01*
X-39053Y172944D01*
X-38988Y172883D01*
X-38927Y172818D01*
X-38868Y172751D01*
X-38812Y172682D01*
X-38759Y172610D01*
X-38709Y172535D01*
X-38663Y172459D01*
X-38620Y172381D01*
X-38581Y172301D01*
X-38545Y172219D01*
X-38512Y172136D01*
X-38484Y172051D01*
X-38459Y171966D01*
X-38437Y171879D01*
X-38420Y171791D01*
X-38407Y171703D01*
X-38397Y171614D01*
X-38391Y171525D01*
X-38389Y171436D01*
X-35116Y171846D02*
X-35116Y169390D01*
X-35115Y171846D02*
X-35117Y171925D01*
X-35123Y172004D01*
X-35132Y172083D01*
X-35145Y172161D01*
X-35163Y172238D01*
X-35183Y172314D01*
X-35208Y172389D01*
X-35236Y172463D01*
X-35267Y172536D01*
X-35303Y172607D01*
X-35341Y172676D01*
X-35383Y172743D01*
X-35428Y172808D01*
X-35476Y172871D01*
X-35527Y172932D01*
X-35581Y172989D01*
X-35637Y173045D01*
X-35696Y173097D01*
X-35758Y173147D01*
X-35822Y173193D01*
X-35888Y173237D01*
X-35956Y173277D01*
X-36026Y173313D01*
X-36098Y173347D01*
X-36172Y173377D01*
X-36246Y173403D01*
X-36322Y173426D01*
X-36399Y173444D01*
X-36476Y173460D01*
X-36555Y173471D01*
X-36633Y173479D01*
X-36712Y173483D01*
X-36792Y173483D01*
X-36871Y173479D01*
X-36949Y173471D01*
X-37028Y173460D01*
X-37105Y173444D01*
X-37182Y173426D01*
X-37258Y173403D01*
X-37332Y173377D01*
X-37406Y173347D01*
X-37478Y173313D01*
X-37548Y173277D01*
X-37616Y173237D01*
X-37682Y173193D01*
X-37746Y173147D01*
X-37808Y173097D01*
X-37867Y173045D01*
X-37923Y172989D01*
X-37977Y172932D01*
X-38028Y172871D01*
X-38076Y172808D01*
X-38121Y172743D01*
X-38163Y172676D01*
X-38201Y172607D01*
X-38237Y172536D01*
X-38268Y172463D01*
X-38296Y172389D01*
X-38321Y172314D01*
X-38341Y172238D01*
X-38359Y172161D01*
X-38372Y172083D01*
X-38381Y172004D01*
X-38387Y171925D01*
X-38389Y171846D01*
X-38389Y170209D01*
D12*
X41275Y184023D02*
X41275Y190627D01*
D13*
X49594Y181455D02*
X49594Y179818D01*
X49593Y179818D02*
X49595Y179740D01*
X49600Y179662D01*
X49610Y179585D01*
X49623Y179508D01*
X49639Y179432D01*
X49659Y179357D01*
X49683Y179283D01*
X49710Y179210D01*
X49741Y179138D01*
X49775Y179068D01*
X49812Y179000D01*
X49853Y178933D01*
X49897Y178868D01*
X49943Y178806D01*
X49993Y178746D01*
X50045Y178688D01*
X50100Y178633D01*
X50158Y178581D01*
X50218Y178531D01*
X50280Y178485D01*
X50345Y178441D01*
X50412Y178400D01*
X50480Y178363D01*
X50550Y178329D01*
X50622Y178298D01*
X50695Y178271D01*
X50769Y178247D01*
X50844Y178227D01*
X50920Y178211D01*
X50997Y178198D01*
X51074Y178188D01*
X51152Y178183D01*
X51230Y178181D01*
X55323Y178181D01*
X55401Y178183D01*
X55479Y178188D01*
X55556Y178198D01*
X55633Y178211D01*
X55709Y178227D01*
X55784Y178247D01*
X55858Y178271D01*
X55931Y178298D01*
X56003Y178329D01*
X56073Y178363D01*
X56142Y178400D01*
X56208Y178441D01*
X56273Y178485D01*
X56335Y178531D01*
X56395Y178581D01*
X56453Y178633D01*
X56508Y178688D01*
X56560Y178746D01*
X56610Y178806D01*
X56656Y178868D01*
X56700Y178933D01*
X56741Y179000D01*
X56778Y179068D01*
X56812Y179138D01*
X56843Y179210D01*
X56870Y179283D01*
X56894Y179357D01*
X56914Y179432D01*
X56930Y179508D01*
X56943Y179585D01*
X56953Y179662D01*
X56958Y179740D01*
X56960Y179818D01*
X56960Y181455D01*
X55323Y184300D02*
X56960Y186346D01*
X49594Y186346D01*
X49594Y184300D02*
X49594Y188392D01*
X51230Y191615D02*
X56960Y193252D01*
X51230Y191615D02*
X51230Y195708D01*
X49594Y194480D02*
X52867Y194480D01*
D12*
X-82550Y195390D02*
X-82550Y201740D01*
D15*
X-59652Y194133D02*
X-52540Y194133D01*
X-52540Y196109D01*
X-52539Y196109D02*
X-52541Y196196D01*
X-52547Y196284D01*
X-52556Y196371D01*
X-52570Y196457D01*
X-52587Y196543D01*
X-52608Y196627D01*
X-52633Y196711D01*
X-52662Y196794D01*
X-52694Y196875D01*
X-52729Y196955D01*
X-52768Y197033D01*
X-52811Y197110D01*
X-52857Y197184D01*
X-52906Y197256D01*
X-52958Y197326D01*
X-53014Y197394D01*
X-53072Y197459D01*
X-53133Y197522D01*
X-53197Y197581D01*
X-53264Y197638D01*
X-53332Y197692D01*
X-53404Y197743D01*
X-53477Y197790D01*
X-53552Y197835D01*
X-53630Y197876D01*
X-53709Y197913D01*
X-53789Y197947D01*
X-53871Y197977D01*
X-53954Y198004D01*
X-54039Y198027D01*
X-54124Y198046D01*
X-54210Y198061D01*
X-54297Y198073D01*
X-54384Y198081D01*
X-54471Y198085D01*
X-54559Y198085D01*
X-54646Y198081D01*
X-54733Y198073D01*
X-54820Y198061D01*
X-54906Y198046D01*
X-54991Y198027D01*
X-55076Y198004D01*
X-55159Y197977D01*
X-55241Y197947D01*
X-55321Y197913D01*
X-55400Y197876D01*
X-55478Y197835D01*
X-55553Y197790D01*
X-55626Y197743D01*
X-55698Y197692D01*
X-55766Y197638D01*
X-55833Y197581D01*
X-55897Y197522D01*
X-55958Y197459D01*
X-56016Y197394D01*
X-56072Y197326D01*
X-56124Y197256D01*
X-56173Y197184D01*
X-56219Y197110D01*
X-56262Y197033D01*
X-56301Y196955D01*
X-56336Y196875D01*
X-56368Y196794D01*
X-56397Y196711D01*
X-56422Y196627D01*
X-56443Y196543D01*
X-56460Y196457D01*
X-56474Y196371D01*
X-56483Y196284D01*
X-56489Y196196D01*
X-56491Y196109D01*
X-56491Y194133D01*
X-56491Y196504D02*
X-59652Y198084D01*
X-59652Y200951D02*
X-59652Y203321D01*
X-59651Y203321D02*
X-59649Y203399D01*
X-59643Y203476D01*
X-59634Y203553D01*
X-59621Y203629D01*
X-59604Y203705D01*
X-59583Y203780D01*
X-59559Y203853D01*
X-59531Y203926D01*
X-59499Y203997D01*
X-59464Y204066D01*
X-59426Y204133D01*
X-59385Y204199D01*
X-59340Y204262D01*
X-59292Y204323D01*
X-59242Y204382D01*
X-59188Y204438D01*
X-59132Y204492D01*
X-59073Y204542D01*
X-59012Y204590D01*
X-58949Y204635D01*
X-58883Y204676D01*
X-58816Y204714D01*
X-58747Y204749D01*
X-58676Y204781D01*
X-58603Y204809D01*
X-58530Y204833D01*
X-58455Y204854D01*
X-58379Y204871D01*
X-58303Y204884D01*
X-58226Y204893D01*
X-58149Y204899D01*
X-58071Y204901D01*
X-58071Y204902D02*
X-57281Y204902D01*
X-57281Y204901D02*
X-57203Y204899D01*
X-57126Y204893D01*
X-57049Y204884D01*
X-56973Y204871D01*
X-56897Y204854D01*
X-56822Y204833D01*
X-56749Y204809D01*
X-56676Y204781D01*
X-56605Y204749D01*
X-56536Y204714D01*
X-56469Y204676D01*
X-56403Y204635D01*
X-56340Y204590D01*
X-56279Y204542D01*
X-56220Y204492D01*
X-56164Y204438D01*
X-56110Y204382D01*
X-56060Y204323D01*
X-56012Y204262D01*
X-55967Y204199D01*
X-55926Y204133D01*
X-55888Y204066D01*
X-55853Y203997D01*
X-55821Y203926D01*
X-55793Y203853D01*
X-55769Y203780D01*
X-55748Y203705D01*
X-55731Y203629D01*
X-55718Y203553D01*
X-55709Y203476D01*
X-55703Y203399D01*
X-55701Y203321D01*
X-55701Y200951D01*
X-52540Y200951D01*
X-52540Y204902D01*
D12*
X-68263Y201740D02*
X-68263Y195390D01*
D15*
X-92227Y195721D02*
X-99339Y195721D01*
X-92227Y195721D02*
X-92227Y197696D01*
X-92229Y197783D01*
X-92235Y197871D01*
X-92244Y197958D01*
X-92258Y198044D01*
X-92275Y198130D01*
X-92296Y198214D01*
X-92321Y198298D01*
X-92350Y198381D01*
X-92382Y198462D01*
X-92417Y198542D01*
X-92456Y198620D01*
X-92499Y198697D01*
X-92545Y198771D01*
X-92594Y198843D01*
X-92646Y198913D01*
X-92702Y198981D01*
X-92760Y199046D01*
X-92821Y199109D01*
X-92885Y199168D01*
X-92952Y199225D01*
X-93020Y199279D01*
X-93092Y199330D01*
X-93165Y199377D01*
X-93240Y199422D01*
X-93318Y199463D01*
X-93397Y199500D01*
X-93477Y199534D01*
X-93559Y199564D01*
X-93642Y199591D01*
X-93727Y199614D01*
X-93812Y199633D01*
X-93898Y199648D01*
X-93985Y199660D01*
X-94072Y199668D01*
X-94159Y199672D01*
X-94247Y199672D01*
X-94334Y199668D01*
X-94421Y199660D01*
X-94508Y199648D01*
X-94594Y199633D01*
X-94679Y199614D01*
X-94764Y199591D01*
X-94847Y199564D01*
X-94929Y199534D01*
X-95009Y199500D01*
X-95088Y199463D01*
X-95166Y199422D01*
X-95241Y199377D01*
X-95314Y199330D01*
X-95386Y199279D01*
X-95454Y199225D01*
X-95521Y199168D01*
X-95585Y199109D01*
X-95646Y199046D01*
X-95704Y198981D01*
X-95760Y198913D01*
X-95812Y198843D01*
X-95861Y198771D01*
X-95907Y198697D01*
X-95950Y198620D01*
X-95989Y198542D01*
X-96024Y198462D01*
X-96056Y198381D01*
X-96085Y198298D01*
X-96110Y198214D01*
X-96131Y198130D01*
X-96148Y198044D01*
X-96162Y197958D01*
X-96171Y197871D01*
X-96177Y197783D01*
X-96179Y197696D01*
X-96179Y195721D01*
X-96179Y198091D02*
X-99339Y199672D01*
X-93018Y202538D02*
X-92227Y202538D01*
X-92227Y206489D01*
X-99339Y204514D01*
D12*
X-69850Y166815D02*
X-69850Y160465D01*
D15*
X-70523Y134823D02*
X-77635Y134823D01*
X-70523Y134823D02*
X-70523Y136799D01*
X-70525Y136886D01*
X-70531Y136974D01*
X-70540Y137061D01*
X-70554Y137147D01*
X-70571Y137233D01*
X-70592Y137317D01*
X-70617Y137401D01*
X-70646Y137484D01*
X-70678Y137565D01*
X-70713Y137645D01*
X-70752Y137723D01*
X-70795Y137800D01*
X-70841Y137874D01*
X-70890Y137946D01*
X-70942Y138016D01*
X-70998Y138084D01*
X-71056Y138149D01*
X-71117Y138212D01*
X-71181Y138271D01*
X-71248Y138328D01*
X-71316Y138382D01*
X-71388Y138433D01*
X-71461Y138480D01*
X-71536Y138525D01*
X-71614Y138566D01*
X-71693Y138603D01*
X-71773Y138637D01*
X-71855Y138667D01*
X-71938Y138694D01*
X-72023Y138717D01*
X-72108Y138736D01*
X-72194Y138751D01*
X-72281Y138763D01*
X-72368Y138771D01*
X-72455Y138775D01*
X-72543Y138775D01*
X-72630Y138771D01*
X-72717Y138763D01*
X-72804Y138751D01*
X-72890Y138736D01*
X-72975Y138717D01*
X-73060Y138694D01*
X-73143Y138667D01*
X-73225Y138637D01*
X-73305Y138603D01*
X-73384Y138566D01*
X-73462Y138525D01*
X-73537Y138480D01*
X-73610Y138433D01*
X-73682Y138382D01*
X-73750Y138328D01*
X-73817Y138271D01*
X-73881Y138212D01*
X-73942Y138149D01*
X-74000Y138084D01*
X-74056Y138016D01*
X-74108Y137946D01*
X-74157Y137874D01*
X-74203Y137800D01*
X-74246Y137723D01*
X-74285Y137645D01*
X-74320Y137565D01*
X-74352Y137484D01*
X-74381Y137401D01*
X-74406Y137317D01*
X-74427Y137233D01*
X-74444Y137147D01*
X-74458Y137061D01*
X-74467Y136974D01*
X-74473Y136886D01*
X-74475Y136799D01*
X-74474Y136799D02*
X-74474Y134823D01*
X-74474Y137194D02*
X-77635Y138774D01*
X-74474Y143221D02*
X-74474Y145592D01*
X-74474Y143221D02*
X-74472Y143143D01*
X-74466Y143066D01*
X-74457Y142989D01*
X-74444Y142913D01*
X-74427Y142837D01*
X-74406Y142762D01*
X-74382Y142689D01*
X-74354Y142616D01*
X-74322Y142545D01*
X-74287Y142476D01*
X-74249Y142409D01*
X-74208Y142343D01*
X-74163Y142280D01*
X-74115Y142219D01*
X-74065Y142160D01*
X-74011Y142104D01*
X-73955Y142050D01*
X-73896Y142000D01*
X-73835Y141952D01*
X-73772Y141907D01*
X-73706Y141866D01*
X-73639Y141828D01*
X-73570Y141793D01*
X-73499Y141761D01*
X-73426Y141733D01*
X-73353Y141709D01*
X-73278Y141688D01*
X-73202Y141671D01*
X-73126Y141658D01*
X-73049Y141649D01*
X-72972Y141643D01*
X-72894Y141641D01*
X-72499Y141641D01*
X-72499Y141640D02*
X-72412Y141642D01*
X-72324Y141648D01*
X-72237Y141657D01*
X-72151Y141671D01*
X-72065Y141688D01*
X-71981Y141709D01*
X-71897Y141734D01*
X-71814Y141763D01*
X-71733Y141795D01*
X-71653Y141830D01*
X-71575Y141869D01*
X-71498Y141912D01*
X-71424Y141958D01*
X-71352Y142007D01*
X-71282Y142059D01*
X-71214Y142115D01*
X-71149Y142173D01*
X-71086Y142234D01*
X-71027Y142298D01*
X-70970Y142365D01*
X-70916Y142433D01*
X-70865Y142505D01*
X-70818Y142578D01*
X-70773Y142653D01*
X-70732Y142731D01*
X-70695Y142810D01*
X-70661Y142890D01*
X-70631Y142972D01*
X-70604Y143055D01*
X-70581Y143140D01*
X-70562Y143225D01*
X-70547Y143311D01*
X-70535Y143398D01*
X-70527Y143485D01*
X-70523Y143572D01*
X-70523Y143660D01*
X-70527Y143747D01*
X-70535Y143834D01*
X-70547Y143921D01*
X-70562Y144007D01*
X-70581Y144092D01*
X-70604Y144177D01*
X-70631Y144260D01*
X-70661Y144342D01*
X-70695Y144422D01*
X-70732Y144501D01*
X-70773Y144579D01*
X-70818Y144654D01*
X-70865Y144727D01*
X-70916Y144799D01*
X-70970Y144867D01*
X-71027Y144934D01*
X-71086Y144998D01*
X-71149Y145059D01*
X-71214Y145117D01*
X-71282Y145173D01*
X-71352Y145225D01*
X-71424Y145274D01*
X-71498Y145320D01*
X-71575Y145363D01*
X-71653Y145402D01*
X-71733Y145437D01*
X-71814Y145469D01*
X-71897Y145498D01*
X-71981Y145523D01*
X-72065Y145544D01*
X-72151Y145561D01*
X-72237Y145575D01*
X-72324Y145584D01*
X-72412Y145590D01*
X-72499Y145592D01*
X-74474Y145592D01*
X-74584Y145590D01*
X-74695Y145584D01*
X-74804Y145575D01*
X-74914Y145561D01*
X-75023Y145544D01*
X-75131Y145523D01*
X-75239Y145498D01*
X-75345Y145470D01*
X-75451Y145437D01*
X-75555Y145401D01*
X-75658Y145362D01*
X-75760Y145319D01*
X-75860Y145272D01*
X-75958Y145222D01*
X-76055Y145169D01*
X-76149Y145112D01*
X-76242Y145052D01*
X-76332Y144988D01*
X-76420Y144922D01*
X-76506Y144852D01*
X-76589Y144780D01*
X-76670Y144705D01*
X-76748Y144627D01*
X-76823Y144546D01*
X-76895Y144463D01*
X-76965Y144377D01*
X-77031Y144289D01*
X-77095Y144199D01*
X-77155Y144106D01*
X-77212Y144012D01*
X-77265Y143915D01*
X-77315Y143817D01*
X-77362Y143717D01*
X-77405Y143615D01*
X-77444Y143512D01*
X-77480Y143408D01*
X-77513Y143302D01*
X-77541Y143196D01*
X-77566Y143088D01*
X-77587Y142980D01*
X-77604Y142871D01*
X-77618Y142761D01*
X-77627Y142652D01*
X-77633Y142541D01*
X-77635Y142431D01*
D12*
X-52388Y160465D02*
X-52388Y166815D01*
D15*
X-55410Y131648D02*
X-48298Y131648D01*
X-48298Y133624D01*
X-48300Y133711D01*
X-48306Y133799D01*
X-48315Y133886D01*
X-48329Y133972D01*
X-48346Y134058D01*
X-48367Y134142D01*
X-48392Y134226D01*
X-48421Y134309D01*
X-48453Y134390D01*
X-48488Y134470D01*
X-48527Y134548D01*
X-48570Y134625D01*
X-48616Y134699D01*
X-48665Y134771D01*
X-48717Y134841D01*
X-48773Y134909D01*
X-48831Y134974D01*
X-48892Y135037D01*
X-48956Y135096D01*
X-49023Y135153D01*
X-49091Y135207D01*
X-49163Y135258D01*
X-49236Y135305D01*
X-49311Y135350D01*
X-49389Y135391D01*
X-49468Y135428D01*
X-49548Y135462D01*
X-49630Y135492D01*
X-49713Y135519D01*
X-49798Y135542D01*
X-49883Y135561D01*
X-49969Y135576D01*
X-50056Y135588D01*
X-50143Y135596D01*
X-50230Y135600D01*
X-50318Y135600D01*
X-50405Y135596D01*
X-50492Y135588D01*
X-50579Y135576D01*
X-50665Y135561D01*
X-50750Y135542D01*
X-50835Y135519D01*
X-50918Y135492D01*
X-51000Y135462D01*
X-51080Y135428D01*
X-51159Y135391D01*
X-51237Y135350D01*
X-51312Y135305D01*
X-51385Y135258D01*
X-51457Y135207D01*
X-51525Y135153D01*
X-51592Y135096D01*
X-51656Y135037D01*
X-51717Y134974D01*
X-51775Y134909D01*
X-51831Y134841D01*
X-51883Y134771D01*
X-51932Y134699D01*
X-51978Y134625D01*
X-52021Y134548D01*
X-52060Y134470D01*
X-52095Y134390D01*
X-52127Y134309D01*
X-52156Y134226D01*
X-52181Y134142D01*
X-52202Y134058D01*
X-52219Y133972D01*
X-52233Y133886D01*
X-52242Y133799D01*
X-52248Y133711D01*
X-52250Y133624D01*
X-52249Y133624D02*
X-52249Y131648D01*
X-52249Y134019D02*
X-55410Y135599D01*
X-49879Y138466D02*
X-48298Y140441D01*
X-55410Y140441D01*
X-55410Y138466D02*
X-55410Y142417D01*
X-49879Y145324D02*
X-48298Y147299D01*
X-55410Y147299D01*
X-55410Y145324D02*
X-55410Y149275D01*
D12*
X71311Y252413D02*
X77661Y252413D01*
D15*
X109652Y254914D02*
X109652Y247802D01*
X109652Y254914D02*
X107676Y254914D01*
X107676Y254915D02*
X107589Y254913D01*
X107501Y254907D01*
X107414Y254898D01*
X107328Y254884D01*
X107242Y254867D01*
X107158Y254846D01*
X107074Y254821D01*
X106991Y254792D01*
X106910Y254760D01*
X106830Y254725D01*
X106752Y254686D01*
X106675Y254643D01*
X106601Y254597D01*
X106529Y254548D01*
X106459Y254496D01*
X106391Y254440D01*
X106326Y254382D01*
X106263Y254321D01*
X106204Y254257D01*
X106147Y254190D01*
X106093Y254122D01*
X106042Y254050D01*
X105995Y253977D01*
X105950Y253902D01*
X105909Y253824D01*
X105872Y253745D01*
X105838Y253665D01*
X105808Y253583D01*
X105781Y253500D01*
X105758Y253415D01*
X105739Y253330D01*
X105724Y253244D01*
X105712Y253157D01*
X105704Y253070D01*
X105700Y252983D01*
X105700Y252895D01*
X105704Y252808D01*
X105712Y252721D01*
X105724Y252634D01*
X105739Y252548D01*
X105758Y252463D01*
X105781Y252378D01*
X105808Y252295D01*
X105838Y252213D01*
X105872Y252133D01*
X105909Y252054D01*
X105950Y251976D01*
X105995Y251901D01*
X106042Y251828D01*
X106093Y251756D01*
X106147Y251688D01*
X106204Y251621D01*
X106263Y251557D01*
X106326Y251496D01*
X106391Y251438D01*
X106459Y251382D01*
X106529Y251330D01*
X106601Y251281D01*
X106675Y251235D01*
X106752Y251192D01*
X106830Y251153D01*
X106910Y251118D01*
X106991Y251086D01*
X107074Y251057D01*
X107158Y251032D01*
X107242Y251011D01*
X107328Y250994D01*
X107414Y250980D01*
X107501Y250971D01*
X107589Y250965D01*
X107676Y250963D01*
X109652Y250963D01*
X107281Y250963D02*
X105701Y247802D01*
X102834Y253334D02*
X100859Y254914D01*
X100859Y247802D01*
X102834Y247802D02*
X98883Y247802D01*
X95976Y247802D02*
X94001Y247802D01*
X93914Y247804D01*
X93826Y247810D01*
X93739Y247819D01*
X93653Y247833D01*
X93567Y247850D01*
X93483Y247871D01*
X93399Y247896D01*
X93316Y247925D01*
X93235Y247957D01*
X93155Y247992D01*
X93077Y248031D01*
X93000Y248074D01*
X92926Y248120D01*
X92854Y248169D01*
X92784Y248221D01*
X92716Y248277D01*
X92651Y248335D01*
X92588Y248396D01*
X92529Y248460D01*
X92472Y248527D01*
X92418Y248595D01*
X92367Y248667D01*
X92320Y248740D01*
X92275Y248815D01*
X92234Y248893D01*
X92197Y248972D01*
X92163Y249052D01*
X92133Y249134D01*
X92106Y249217D01*
X92083Y249302D01*
X92064Y249387D01*
X92049Y249473D01*
X92037Y249560D01*
X92029Y249647D01*
X92025Y249734D01*
X92025Y249822D01*
X92029Y249909D01*
X92037Y249996D01*
X92049Y250083D01*
X92064Y250169D01*
X92083Y250254D01*
X92106Y250339D01*
X92133Y250422D01*
X92163Y250504D01*
X92197Y250584D01*
X92234Y250663D01*
X92275Y250741D01*
X92320Y250816D01*
X92367Y250889D01*
X92418Y250961D01*
X92472Y251029D01*
X92529Y251096D01*
X92588Y251160D01*
X92651Y251221D01*
X92716Y251279D01*
X92784Y251335D01*
X92854Y251387D01*
X92926Y251436D01*
X93000Y251482D01*
X93077Y251525D01*
X93155Y251564D01*
X93235Y251599D01*
X93316Y251631D01*
X93399Y251660D01*
X93483Y251685D01*
X93567Y251706D01*
X93653Y251723D01*
X93739Y251737D01*
X93826Y251746D01*
X93914Y251752D01*
X94001Y251754D01*
X93606Y254914D02*
X95976Y254914D01*
X93606Y254914D02*
X93527Y254912D01*
X93449Y254906D01*
X93371Y254896D01*
X93293Y254883D01*
X93216Y254865D01*
X93140Y254844D01*
X93066Y254819D01*
X92992Y254790D01*
X92920Y254758D01*
X92850Y254722D01*
X92782Y254682D01*
X92716Y254639D01*
X92652Y254593D01*
X92590Y254544D01*
X92531Y254492D01*
X92475Y254437D01*
X92421Y254379D01*
X92371Y254319D01*
X92323Y254256D01*
X92279Y254191D01*
X92238Y254124D01*
X92200Y254055D01*
X92166Y253984D01*
X92135Y253911D01*
X92108Y253837D01*
X92085Y253762D01*
X92066Y253686D01*
X92050Y253608D01*
X92038Y253530D01*
X92030Y253452D01*
X92026Y253373D01*
X92026Y253295D01*
X92030Y253216D01*
X92038Y253138D01*
X92050Y253060D01*
X92066Y252982D01*
X92085Y252906D01*
X92108Y252831D01*
X92135Y252757D01*
X92166Y252684D01*
X92200Y252613D01*
X92238Y252544D01*
X92279Y252477D01*
X92323Y252412D01*
X92371Y252349D01*
X92421Y252289D01*
X92475Y252231D01*
X92531Y252176D01*
X92590Y252124D01*
X92652Y252075D01*
X92716Y252029D01*
X92782Y251986D01*
X92850Y251946D01*
X92920Y251910D01*
X92992Y251878D01*
X93066Y251849D01*
X93140Y251824D01*
X93216Y251803D01*
X93293Y251785D01*
X93371Y251772D01*
X93449Y251762D01*
X93527Y251756D01*
X93606Y251754D01*
X93606Y251753D02*
X95186Y251753D01*
D12*
X77661Y236538D02*
X71311Y236538D01*
D15*
X109652Y239039D02*
X109652Y231927D01*
X109652Y239039D02*
X107676Y239039D01*
X107676Y239040D02*
X107589Y239038D01*
X107501Y239032D01*
X107414Y239023D01*
X107328Y239009D01*
X107242Y238992D01*
X107158Y238971D01*
X107074Y238946D01*
X106991Y238917D01*
X106910Y238885D01*
X106830Y238850D01*
X106752Y238811D01*
X106675Y238768D01*
X106601Y238722D01*
X106529Y238673D01*
X106459Y238621D01*
X106391Y238565D01*
X106326Y238507D01*
X106263Y238446D01*
X106204Y238382D01*
X106147Y238315D01*
X106093Y238247D01*
X106042Y238175D01*
X105995Y238102D01*
X105950Y238027D01*
X105909Y237949D01*
X105872Y237870D01*
X105838Y237790D01*
X105808Y237708D01*
X105781Y237625D01*
X105758Y237540D01*
X105739Y237455D01*
X105724Y237369D01*
X105712Y237282D01*
X105704Y237195D01*
X105700Y237108D01*
X105700Y237020D01*
X105704Y236933D01*
X105712Y236846D01*
X105724Y236759D01*
X105739Y236673D01*
X105758Y236588D01*
X105781Y236503D01*
X105808Y236420D01*
X105838Y236338D01*
X105872Y236258D01*
X105909Y236179D01*
X105950Y236101D01*
X105995Y236026D01*
X106042Y235953D01*
X106093Y235881D01*
X106147Y235813D01*
X106204Y235746D01*
X106263Y235682D01*
X106326Y235621D01*
X106391Y235563D01*
X106459Y235507D01*
X106529Y235455D01*
X106601Y235406D01*
X106675Y235360D01*
X106752Y235317D01*
X106830Y235278D01*
X106910Y235243D01*
X106991Y235211D01*
X107074Y235182D01*
X107158Y235157D01*
X107242Y235136D01*
X107328Y235119D01*
X107414Y235105D01*
X107501Y235096D01*
X107589Y235090D01*
X107676Y235088D01*
X109652Y235088D01*
X107281Y235088D02*
X105701Y231927D01*
X102834Y237459D02*
X100859Y239039D01*
X100859Y231927D01*
X102834Y231927D02*
X98883Y231927D01*
X95976Y231927D02*
X93606Y231927D01*
X93606Y231928D02*
X93528Y231930D01*
X93451Y231936D01*
X93374Y231945D01*
X93298Y231958D01*
X93222Y231975D01*
X93147Y231996D01*
X93074Y232020D01*
X93001Y232048D01*
X92930Y232080D01*
X92861Y232115D01*
X92794Y232153D01*
X92728Y232194D01*
X92665Y232239D01*
X92604Y232287D01*
X92545Y232337D01*
X92489Y232391D01*
X92435Y232447D01*
X92385Y232506D01*
X92337Y232567D01*
X92292Y232630D01*
X92251Y232696D01*
X92213Y232763D01*
X92178Y232832D01*
X92146Y232903D01*
X92118Y232976D01*
X92094Y233049D01*
X92073Y233124D01*
X92056Y233200D01*
X92043Y233276D01*
X92034Y233353D01*
X92028Y233430D01*
X92026Y233508D01*
X92025Y233508D02*
X92025Y234298D01*
X92026Y234298D02*
X92028Y234376D01*
X92034Y234453D01*
X92043Y234530D01*
X92056Y234606D01*
X92073Y234682D01*
X92094Y234757D01*
X92118Y234830D01*
X92146Y234903D01*
X92178Y234974D01*
X92213Y235043D01*
X92251Y235110D01*
X92292Y235176D01*
X92337Y235239D01*
X92385Y235300D01*
X92435Y235359D01*
X92489Y235415D01*
X92545Y235469D01*
X92604Y235519D01*
X92665Y235567D01*
X92728Y235612D01*
X92794Y235653D01*
X92861Y235691D01*
X92930Y235726D01*
X93001Y235758D01*
X93074Y235786D01*
X93147Y235810D01*
X93222Y235831D01*
X93298Y235848D01*
X93374Y235861D01*
X93451Y235870D01*
X93528Y235876D01*
X93606Y235878D01*
X95976Y235878D01*
X95976Y239039D01*
X92025Y239039D01*
M02*
