G04 EAGLE Gerber RS-274X export*
G75*
%MOMM*%
%FSLAX34Y34*%
%LPD*%
%INSolderpaste Bottom*%
%IPPOS*%
%AMOC8*
5,1,8,0,0,1.08239X$1,22.5*%
G01*
%ADD10R,1.399997X0.400000*%
%ADD11R,1.100000X1.000000*%
%ADD12R,1.000000X1.100000*%
%ADD13R,1.300000X1.500000*%
%ADD14R,1.500000X1.300000*%
%ADD15R,0.550000X0.300000*%
%ADD16R,0.300000X0.550000*%
%ADD17R,0.500000X0.250000*%
%ADD18R,0.900000X1.600000*%

G36*
X24275Y103999D02*
X24275Y103999D01*
X24277Y103998D01*
X24320Y104018D01*
X24364Y104036D01*
X24364Y104038D01*
X24366Y104039D01*
X24399Y104124D01*
X24399Y116348D01*
X24398Y116350D01*
X24399Y116352D01*
X24379Y116395D01*
X24361Y116439D01*
X24359Y116439D01*
X24358Y116441D01*
X24273Y116474D01*
X12049Y116474D01*
X12047Y116473D01*
X12045Y116474D01*
X12002Y116454D01*
X11958Y116436D01*
X11958Y116434D01*
X11956Y116433D01*
X11923Y116348D01*
X11923Y104124D01*
X11924Y104122D01*
X11923Y104120D01*
X11943Y104077D01*
X11961Y104033D01*
X11963Y104033D01*
X11964Y104031D01*
X12049Y103998D01*
X24273Y103998D01*
X24275Y103999D01*
G37*
G36*
X-4173Y103999D02*
X-4173Y103999D01*
X-4171Y103998D01*
X-4128Y104018D01*
X-4084Y104036D01*
X-4084Y104038D01*
X-4082Y104039D01*
X-4049Y104124D01*
X-4049Y116348D01*
X-4050Y116350D01*
X-4049Y116352D01*
X-4069Y116395D01*
X-4087Y116439D01*
X-4089Y116439D01*
X-4090Y116441D01*
X-4175Y116474D01*
X-16399Y116474D01*
X-16401Y116473D01*
X-16403Y116474D01*
X-16446Y116454D01*
X-16490Y116436D01*
X-16490Y116434D01*
X-16492Y116433D01*
X-16525Y116348D01*
X-16525Y104124D01*
X-16524Y104122D01*
X-16525Y104120D01*
X-16505Y104077D01*
X-16487Y104033D01*
X-16485Y104033D01*
X-16484Y104031D01*
X-16399Y103998D01*
X-4175Y103998D01*
X-4173Y103999D01*
G37*
G36*
X-18397Y103999D02*
X-18397Y103999D01*
X-18395Y103998D01*
X-18352Y104018D01*
X-18308Y104036D01*
X-18308Y104038D01*
X-18306Y104039D01*
X-18273Y104124D01*
X-18273Y116348D01*
X-18274Y116350D01*
X-18273Y116352D01*
X-18293Y116395D01*
X-18311Y116439D01*
X-18313Y116439D01*
X-18314Y116441D01*
X-18399Y116474D01*
X-30623Y116474D01*
X-30625Y116473D01*
X-30627Y116474D01*
X-30670Y116454D01*
X-30714Y116436D01*
X-30714Y116434D01*
X-30716Y116433D01*
X-30749Y116348D01*
X-30749Y104124D01*
X-30748Y104122D01*
X-30749Y104120D01*
X-30729Y104077D01*
X-30711Y104033D01*
X-30709Y104033D01*
X-30708Y104031D01*
X-30623Y103998D01*
X-18399Y103998D01*
X-18397Y103999D01*
G37*
G36*
X10051Y103999D02*
X10051Y103999D01*
X10053Y103998D01*
X10096Y104018D01*
X10140Y104036D01*
X10140Y104038D01*
X10142Y104039D01*
X10175Y104124D01*
X10175Y116348D01*
X10174Y116350D01*
X10175Y116352D01*
X10155Y116395D01*
X10137Y116439D01*
X10135Y116439D01*
X10134Y116441D01*
X10049Y116474D01*
X-2175Y116474D01*
X-2177Y116473D01*
X-2179Y116474D01*
X-2222Y116454D01*
X-2266Y116436D01*
X-2266Y116434D01*
X-2268Y116433D01*
X-2301Y116348D01*
X-2301Y104124D01*
X-2300Y104122D01*
X-2301Y104120D01*
X-2281Y104077D01*
X-2263Y104033D01*
X-2261Y104033D01*
X-2260Y104031D01*
X-2175Y103998D01*
X10049Y103998D01*
X10051Y103999D01*
G37*
G36*
X-4173Y89775D02*
X-4173Y89775D01*
X-4171Y89774D01*
X-4128Y89794D01*
X-4084Y89812D01*
X-4084Y89814D01*
X-4082Y89815D01*
X-4049Y89900D01*
X-4049Y102124D01*
X-4050Y102126D01*
X-4049Y102128D01*
X-4069Y102171D01*
X-4087Y102215D01*
X-4089Y102215D01*
X-4090Y102217D01*
X-4175Y102250D01*
X-16399Y102250D01*
X-16401Y102249D01*
X-16403Y102250D01*
X-16446Y102230D01*
X-16490Y102212D01*
X-16490Y102210D01*
X-16492Y102209D01*
X-16525Y102124D01*
X-16525Y89900D01*
X-16524Y89898D01*
X-16525Y89896D01*
X-16505Y89853D01*
X-16487Y89809D01*
X-16485Y89809D01*
X-16484Y89807D01*
X-16399Y89774D01*
X-4175Y89774D01*
X-4173Y89775D01*
G37*
G36*
X10051Y89775D02*
X10051Y89775D01*
X10053Y89774D01*
X10096Y89794D01*
X10140Y89812D01*
X10140Y89814D01*
X10142Y89815D01*
X10175Y89900D01*
X10175Y102124D01*
X10174Y102126D01*
X10175Y102128D01*
X10155Y102171D01*
X10137Y102215D01*
X10135Y102215D01*
X10134Y102217D01*
X10049Y102250D01*
X-2175Y102250D01*
X-2177Y102249D01*
X-2179Y102250D01*
X-2222Y102230D01*
X-2266Y102212D01*
X-2266Y102210D01*
X-2268Y102209D01*
X-2301Y102124D01*
X-2301Y89900D01*
X-2300Y89898D01*
X-2301Y89896D01*
X-2281Y89853D01*
X-2263Y89809D01*
X-2261Y89809D01*
X-2260Y89807D01*
X-2175Y89774D01*
X10049Y89774D01*
X10051Y89775D01*
G37*
G36*
X-18397Y89775D02*
X-18397Y89775D01*
X-18395Y89774D01*
X-18352Y89794D01*
X-18308Y89812D01*
X-18308Y89814D01*
X-18306Y89815D01*
X-18273Y89900D01*
X-18273Y102124D01*
X-18274Y102126D01*
X-18273Y102128D01*
X-18293Y102171D01*
X-18311Y102215D01*
X-18313Y102215D01*
X-18314Y102217D01*
X-18399Y102250D01*
X-30623Y102250D01*
X-30625Y102249D01*
X-30627Y102250D01*
X-30670Y102230D01*
X-30714Y102212D01*
X-30714Y102210D01*
X-30716Y102209D01*
X-30749Y102124D01*
X-30749Y89900D01*
X-30748Y89898D01*
X-30749Y89896D01*
X-30729Y89853D01*
X-30711Y89809D01*
X-30709Y89809D01*
X-30708Y89807D01*
X-30623Y89774D01*
X-18399Y89774D01*
X-18397Y89775D01*
G37*
G36*
X24275Y89775D02*
X24275Y89775D01*
X24277Y89774D01*
X24320Y89794D01*
X24364Y89812D01*
X24364Y89814D01*
X24366Y89815D01*
X24399Y89900D01*
X24399Y102124D01*
X24398Y102126D01*
X24399Y102128D01*
X24379Y102171D01*
X24361Y102215D01*
X24359Y102215D01*
X24358Y102217D01*
X24273Y102250D01*
X12049Y102250D01*
X12047Y102249D01*
X12045Y102250D01*
X12002Y102230D01*
X11958Y102212D01*
X11958Y102210D01*
X11956Y102209D01*
X11923Y102124D01*
X11923Y89900D01*
X11924Y89898D01*
X11923Y89896D01*
X11943Y89853D01*
X11961Y89809D01*
X11963Y89809D01*
X11964Y89807D01*
X12049Y89774D01*
X24273Y89774D01*
X24275Y89775D01*
G37*
G36*
X10051Y75551D02*
X10051Y75551D01*
X10053Y75550D01*
X10096Y75570D01*
X10140Y75588D01*
X10140Y75590D01*
X10142Y75591D01*
X10175Y75676D01*
X10175Y87900D01*
X10174Y87902D01*
X10175Y87904D01*
X10155Y87947D01*
X10137Y87991D01*
X10135Y87991D01*
X10134Y87993D01*
X10049Y88026D01*
X-2175Y88026D01*
X-2177Y88025D01*
X-2179Y88026D01*
X-2222Y88006D01*
X-2266Y87988D01*
X-2266Y87986D01*
X-2268Y87985D01*
X-2301Y87900D01*
X-2301Y75676D01*
X-2300Y75674D01*
X-2301Y75672D01*
X-2281Y75629D01*
X-2263Y75585D01*
X-2261Y75585D01*
X-2260Y75583D01*
X-2175Y75550D01*
X10049Y75550D01*
X10051Y75551D01*
G37*
G36*
X-18397Y75551D02*
X-18397Y75551D01*
X-18395Y75550D01*
X-18352Y75570D01*
X-18308Y75588D01*
X-18308Y75590D01*
X-18306Y75591D01*
X-18273Y75676D01*
X-18273Y87900D01*
X-18274Y87902D01*
X-18273Y87904D01*
X-18293Y87947D01*
X-18311Y87991D01*
X-18313Y87991D01*
X-18314Y87993D01*
X-18399Y88026D01*
X-30623Y88026D01*
X-30625Y88025D01*
X-30627Y88026D01*
X-30670Y88006D01*
X-30714Y87988D01*
X-30714Y87986D01*
X-30716Y87985D01*
X-30749Y87900D01*
X-30749Y75676D01*
X-30748Y75674D01*
X-30749Y75672D01*
X-30729Y75629D01*
X-30711Y75585D01*
X-30709Y75585D01*
X-30708Y75583D01*
X-30623Y75550D01*
X-18399Y75550D01*
X-18397Y75551D01*
G37*
G36*
X24275Y75551D02*
X24275Y75551D01*
X24277Y75550D01*
X24320Y75570D01*
X24364Y75588D01*
X24364Y75590D01*
X24366Y75591D01*
X24399Y75676D01*
X24399Y87900D01*
X24398Y87902D01*
X24399Y87904D01*
X24379Y87947D01*
X24361Y87991D01*
X24359Y87991D01*
X24358Y87993D01*
X24273Y88026D01*
X12049Y88026D01*
X12047Y88025D01*
X12045Y88026D01*
X12002Y88006D01*
X11958Y87988D01*
X11958Y87986D01*
X11956Y87985D01*
X11923Y87900D01*
X11923Y75676D01*
X11924Y75674D01*
X11923Y75672D01*
X11943Y75629D01*
X11961Y75585D01*
X11963Y75585D01*
X11964Y75583D01*
X12049Y75550D01*
X24273Y75550D01*
X24275Y75551D01*
G37*
G36*
X-4173Y75551D02*
X-4173Y75551D01*
X-4171Y75550D01*
X-4128Y75570D01*
X-4084Y75588D01*
X-4084Y75590D01*
X-4082Y75591D01*
X-4049Y75676D01*
X-4049Y87900D01*
X-4050Y87902D01*
X-4049Y87904D01*
X-4069Y87947D01*
X-4087Y87991D01*
X-4089Y87991D01*
X-4090Y87993D01*
X-4175Y88026D01*
X-16399Y88026D01*
X-16401Y88025D01*
X-16403Y88026D01*
X-16446Y88006D01*
X-16490Y87988D01*
X-16490Y87986D01*
X-16492Y87985D01*
X-16525Y87900D01*
X-16525Y75676D01*
X-16524Y75674D01*
X-16525Y75672D01*
X-16505Y75629D01*
X-16487Y75585D01*
X-16485Y75585D01*
X-16484Y75583D01*
X-16399Y75550D01*
X-4175Y75550D01*
X-4173Y75551D01*
G37*
G36*
X-18397Y61327D02*
X-18397Y61327D01*
X-18395Y61326D01*
X-18352Y61346D01*
X-18308Y61364D01*
X-18308Y61366D01*
X-18306Y61367D01*
X-18273Y61452D01*
X-18273Y73676D01*
X-18274Y73678D01*
X-18273Y73680D01*
X-18293Y73723D01*
X-18311Y73767D01*
X-18313Y73767D01*
X-18314Y73769D01*
X-18399Y73802D01*
X-30623Y73802D01*
X-30625Y73801D01*
X-30627Y73802D01*
X-30670Y73782D01*
X-30714Y73764D01*
X-30714Y73762D01*
X-30716Y73761D01*
X-30749Y73676D01*
X-30749Y61452D01*
X-30748Y61450D01*
X-30749Y61448D01*
X-30729Y61405D01*
X-30711Y61361D01*
X-30709Y61361D01*
X-30708Y61359D01*
X-30623Y61326D01*
X-18399Y61326D01*
X-18397Y61327D01*
G37*
G36*
X-4173Y61327D02*
X-4173Y61327D01*
X-4171Y61326D01*
X-4128Y61346D01*
X-4084Y61364D01*
X-4084Y61366D01*
X-4082Y61367D01*
X-4049Y61452D01*
X-4049Y73676D01*
X-4050Y73678D01*
X-4049Y73680D01*
X-4069Y73723D01*
X-4087Y73767D01*
X-4089Y73767D01*
X-4090Y73769D01*
X-4175Y73802D01*
X-16399Y73802D01*
X-16401Y73801D01*
X-16403Y73802D01*
X-16446Y73782D01*
X-16490Y73764D01*
X-16490Y73762D01*
X-16492Y73761D01*
X-16525Y73676D01*
X-16525Y61452D01*
X-16524Y61450D01*
X-16525Y61448D01*
X-16505Y61405D01*
X-16487Y61361D01*
X-16485Y61361D01*
X-16484Y61359D01*
X-16399Y61326D01*
X-4175Y61326D01*
X-4173Y61327D01*
G37*
G36*
X10051Y61327D02*
X10051Y61327D01*
X10053Y61326D01*
X10096Y61346D01*
X10140Y61364D01*
X10140Y61366D01*
X10142Y61367D01*
X10175Y61452D01*
X10175Y73676D01*
X10174Y73678D01*
X10175Y73680D01*
X10155Y73723D01*
X10137Y73767D01*
X10135Y73767D01*
X10134Y73769D01*
X10049Y73802D01*
X-2175Y73802D01*
X-2177Y73801D01*
X-2179Y73802D01*
X-2222Y73782D01*
X-2266Y73764D01*
X-2266Y73762D01*
X-2268Y73761D01*
X-2301Y73676D01*
X-2301Y61452D01*
X-2300Y61450D01*
X-2301Y61448D01*
X-2281Y61405D01*
X-2263Y61361D01*
X-2261Y61361D01*
X-2260Y61359D01*
X-2175Y61326D01*
X10049Y61326D01*
X10051Y61327D01*
G37*
G36*
X24275Y61327D02*
X24275Y61327D01*
X24277Y61326D01*
X24320Y61346D01*
X24364Y61364D01*
X24364Y61366D01*
X24366Y61367D01*
X24399Y61452D01*
X24399Y73676D01*
X24398Y73678D01*
X24399Y73680D01*
X24379Y73723D01*
X24361Y73767D01*
X24359Y73767D01*
X24358Y73769D01*
X24273Y73802D01*
X12049Y73802D01*
X12047Y73801D01*
X12045Y73802D01*
X12002Y73782D01*
X11958Y73764D01*
X11958Y73762D01*
X11956Y73761D01*
X11923Y73676D01*
X11923Y61452D01*
X11924Y61450D01*
X11923Y61448D01*
X11943Y61405D01*
X11961Y61361D01*
X11963Y61361D01*
X11964Y61359D01*
X12049Y61326D01*
X24273Y61326D01*
X24275Y61327D01*
G37*
G36*
X23066Y188201D02*
X23066Y188201D01*
X23072Y188199D01*
X23168Y188209D01*
X23179Y188215D01*
X23192Y188214D01*
X23284Y188241D01*
X23294Y188249D01*
X23307Y188251D01*
X23392Y188296D01*
X23399Y188306D01*
X23412Y188310D01*
X23487Y188371D01*
X23492Y188382D01*
X23504Y188388D01*
X23565Y188463D01*
X23568Y188474D01*
X23579Y188483D01*
X23624Y188568D01*
X23625Y188580D01*
X23634Y188591D01*
X23661Y188683D01*
X23660Y188695D01*
X23666Y188707D01*
X23676Y188803D01*
X23674Y188809D01*
X23676Y188815D01*
X23676Y194835D01*
X23674Y194841D01*
X23676Y194847D01*
X23666Y194943D01*
X23660Y194954D01*
X23661Y194967D01*
X23634Y195059D01*
X23626Y195069D01*
X23624Y195082D01*
X23579Y195167D01*
X23569Y195174D01*
X23565Y195187D01*
X23504Y195262D01*
X23493Y195267D01*
X23487Y195279D01*
X23412Y195340D01*
X23401Y195343D01*
X23392Y195354D01*
X23307Y195399D01*
X23295Y195400D01*
X23284Y195408D01*
X23192Y195436D01*
X23180Y195435D01*
X23168Y195441D01*
X23072Y195451D01*
X23066Y195449D01*
X23060Y195451D01*
X15040Y195451D01*
X15034Y195449D01*
X15028Y195451D01*
X14932Y195441D01*
X14921Y195435D01*
X14908Y195436D01*
X14816Y195408D01*
X14806Y195401D01*
X14793Y195399D01*
X14708Y195354D01*
X14701Y195344D01*
X14688Y195340D01*
X14613Y195279D01*
X14608Y195268D01*
X14596Y195262D01*
X14535Y195187D01*
X14532Y195176D01*
X14521Y195167D01*
X14476Y195082D01*
X14475Y195070D01*
X14466Y195059D01*
X14439Y194967D01*
X14440Y194955D01*
X14434Y194943D01*
X14424Y194847D01*
X14426Y194841D01*
X14424Y194835D01*
X14424Y188815D01*
X14426Y188809D01*
X14424Y188803D01*
X14434Y188707D01*
X14439Y188697D01*
X14440Y188696D01*
X14439Y188683D01*
X14466Y188591D01*
X14474Y188581D01*
X14476Y188568D01*
X14521Y188483D01*
X14531Y188476D01*
X14535Y188463D01*
X14596Y188388D01*
X14607Y188383D01*
X14613Y188371D01*
X14688Y188310D01*
X14699Y188307D01*
X14708Y188296D01*
X14793Y188251D01*
X14805Y188250D01*
X14816Y188241D01*
X14908Y188214D01*
X14920Y188215D01*
X14932Y188209D01*
X15028Y188199D01*
X15034Y188201D01*
X15040Y188199D01*
X23060Y188199D01*
X23066Y188201D01*
G37*
G36*
X23066Y179201D02*
X23066Y179201D01*
X23072Y179199D01*
X23168Y179209D01*
X23179Y179215D01*
X23192Y179214D01*
X23284Y179241D01*
X23294Y179249D01*
X23307Y179251D01*
X23392Y179296D01*
X23399Y179306D01*
X23412Y179310D01*
X23487Y179371D01*
X23492Y179382D01*
X23504Y179388D01*
X23565Y179463D01*
X23568Y179474D01*
X23579Y179483D01*
X23624Y179568D01*
X23625Y179580D01*
X23634Y179591D01*
X23661Y179683D01*
X23660Y179695D01*
X23666Y179707D01*
X23676Y179803D01*
X23674Y179809D01*
X23676Y179815D01*
X23676Y185835D01*
X23674Y185841D01*
X23676Y185847D01*
X23666Y185943D01*
X23660Y185954D01*
X23661Y185967D01*
X23634Y186059D01*
X23626Y186069D01*
X23624Y186082D01*
X23579Y186167D01*
X23569Y186174D01*
X23565Y186187D01*
X23504Y186262D01*
X23493Y186267D01*
X23487Y186279D01*
X23412Y186340D01*
X23401Y186343D01*
X23392Y186354D01*
X23307Y186399D01*
X23295Y186400D01*
X23284Y186409D01*
X23192Y186436D01*
X23180Y186435D01*
X23168Y186441D01*
X23072Y186451D01*
X23066Y186449D01*
X23060Y186451D01*
X15040Y186451D01*
X15034Y186449D01*
X15028Y186451D01*
X14932Y186441D01*
X14921Y186435D01*
X14908Y186436D01*
X14816Y186409D01*
X14806Y186401D01*
X14793Y186399D01*
X14708Y186354D01*
X14701Y186344D01*
X14688Y186340D01*
X14613Y186279D01*
X14608Y186268D01*
X14596Y186262D01*
X14535Y186187D01*
X14532Y186176D01*
X14521Y186167D01*
X14476Y186082D01*
X14475Y186070D01*
X14466Y186059D01*
X14439Y185967D01*
X14440Y185955D01*
X14434Y185943D01*
X14424Y185847D01*
X14426Y185841D01*
X14424Y185835D01*
X14424Y179815D01*
X14426Y179809D01*
X14424Y179803D01*
X14434Y179707D01*
X14439Y179697D01*
X14440Y179696D01*
X14439Y179683D01*
X14466Y179591D01*
X14474Y179581D01*
X14476Y179568D01*
X14521Y179483D01*
X14531Y179476D01*
X14535Y179463D01*
X14596Y179388D01*
X14607Y179383D01*
X14613Y179371D01*
X14688Y179310D01*
X14699Y179307D01*
X14708Y179296D01*
X14793Y179251D01*
X14805Y179250D01*
X14816Y179241D01*
X14908Y179214D01*
X14920Y179215D01*
X14932Y179209D01*
X15028Y179199D01*
X15034Y179201D01*
X15040Y179199D01*
X23060Y179199D01*
X23066Y179201D01*
G37*
D10*
X55563Y67375D03*
X55563Y79375D03*
X55563Y91375D03*
D11*
X-103188Y121675D03*
X-103188Y138675D03*
D12*
X53413Y207963D03*
X70413Y207963D03*
D11*
X103750Y153988D03*
X86750Y153988D03*
X48650Y114300D03*
X65650Y114300D03*
X48650Y123825D03*
X65650Y123825D03*
D12*
X-57375Y92075D03*
X-57375Y75075D03*
D13*
X47650Y136525D03*
X66650Y136525D03*
X47650Y150813D03*
X66650Y150813D03*
D14*
X-68263Y93638D03*
X-68263Y74638D03*
D15*
X30625Y116407D03*
X30625Y111406D03*
X30625Y106404D03*
X30625Y101403D03*
X30625Y96402D03*
X30625Y91401D03*
X30625Y86399D03*
X30625Y81398D03*
X30625Y76397D03*
X30625Y71396D03*
X30625Y66394D03*
X30625Y61393D03*
D16*
X24332Y55100D03*
X19331Y55100D03*
X14329Y55100D03*
X9328Y55100D03*
X4327Y55100D03*
X-674Y55100D03*
X-5676Y55100D03*
X-10677Y55100D03*
X-15678Y55100D03*
X-20679Y55100D03*
X-25681Y55100D03*
X-30682Y55100D03*
D15*
X-36975Y61393D03*
X-36975Y66394D03*
X-36975Y71396D03*
X-36975Y76397D03*
X-36975Y81398D03*
X-36975Y86399D03*
X-36975Y91401D03*
X-36975Y96402D03*
X-36975Y101403D03*
X-36975Y106404D03*
X-36975Y111406D03*
X-36975Y116407D03*
D16*
X-30682Y122700D03*
X-25681Y122700D03*
X-20679Y122700D03*
X-15678Y122700D03*
X-10677Y122700D03*
X-5676Y122700D03*
X-674Y122700D03*
X4327Y122700D03*
X9328Y122700D03*
X14329Y122700D03*
X19331Y122700D03*
X24332Y122700D03*
D17*
X28550Y194825D03*
X28550Y189825D03*
X28550Y184825D03*
X28550Y179825D03*
X9550Y179825D03*
X9550Y184825D03*
X9550Y189825D03*
X9550Y194825D03*
D18*
X19050Y187325D03*
D12*
X-3175Y193113D03*
X-3175Y210113D03*
X-12700Y193113D03*
X-12700Y210113D03*
X-26988Y183588D03*
X-26988Y200588D03*
X-36513Y183588D03*
X-36513Y200588D03*
X41275Y178825D03*
X41275Y195825D03*
D11*
X-82550Y189938D03*
X-82550Y206938D03*
X-68263Y189938D03*
X-68263Y206938D03*
X-69850Y155013D03*
X-69850Y172013D03*
X-52388Y155013D03*
X-52388Y172013D03*
D12*
X83113Y252413D03*
X66113Y252413D03*
X83113Y236538D03*
X66113Y236538D03*
M02*
